<svg width="175" height="198" viewBox="0 0 175 198" fill="none" xmlns="http://www.w3.org/2000/svg">
<path d="M110.638 132.531C101.716 127.358 104.146 102.377 104.146 102.377L90.7835 103.293V102.377L89.3525 102.835L87.9216 102.377V103.293L74.5588 102.377C74.5588 102.377 76.9893 127.358 68.0668 132.531C59.1442 137.704 6.40852 140.285 12.0798 198H87.9216H90.7835H166.625C172.297 140.285 119.561 137.693 110.638 132.531Z" fill="#FFAD9D"/>
<path d="M72.6855 126.085C83.3653 124.398 94.0345 122.655 104.693 120.856C103.188 112.242 104.157 102.377 104.157 102.377L90.7937 103.293V102.377L89.3627 102.835L87.9318 102.377V103.293L74.569 102.377C74.5584 102.377 75.9684 116.89 72.6855 126.085Z" fill="#E08880"/>
<path d="M111.111 131.581C107.565 129.559 105.766 124.565 104.882 119.169C99.9475 120.342 94.5919 120.99 89.0048 120.99C83.5229 120.99 78.283 120.376 73.4219 119.247C72.538 124.61 70.7283 129.57 67.2034 131.581C57.9968 136.821 3.60916 139.447 9.46985 198H87.679H90.6251H168.834C174.695 139.447 120.307 136.832 111.111 131.581Z" fill="#8F88E7"/>
<path d="M63.2149 65.7997C60.5844 57.1412 54.3554 59.1411 53.7767 59.3533C53.1665 59.4315 46.7271 60.4482 47.8424 69.4642C48.9577 78.5471 53.924 83.4629 58.5747 82.0217C63.3622 81.2173 65.8664 74.514 63.2149 65.7997Z" fill="#E08880"/>
<path d="M115.73 65.7997C118.361 57.1412 124.589 59.1411 125.168 59.3533C125.778 59.4315 132.218 60.4482 131.103 69.4642C129.987 78.5471 125.021 83.4629 120.37 82.0217C115.583 81.2173 113.079 74.514 115.73 65.7997Z" fill="#E08880"/>
<path d="M56.838 52.6724C60.0997 14.6982 87.2883 16.832 89.8556 17.1113C92.423 16.8209 119.612 14.6982 122.863 52.6724C126.146 90.87 110.121 115.818 89.8556 114.454C69.5905 115.829 53.5656 90.8812 56.838 52.6724Z" fill="#FFAD9D"/>
<path d="M94.5392 70.5479C94.9917 71.4193 95.3389 72.3242 95.644 73.2292C95.9492 74.1341 96.2122 75.0614 96.4542 75.9775C96.5805 76.4356 96.6646 76.9048 96.7699 77.3741C96.8751 77.8433 96.9593 78.3125 97.0434 78.7817C97.2223 79.7202 97.3486 80.6698 97.4433 81.6195L97.4854 82.0664L97.2539 82.2898C96.5279 82.9937 95.7703 83.6863 95.0127 84.3678C94.2341 85.027 93.466 85.6973 92.6348 86.3006C93.1714 85.3957 93.7711 84.5578 94.3709 83.7087C94.9811 82.8708 95.6019 82.0552 96.2438 81.262L96.0649 81.9323C95.7913 81.0162 95.5493 80.0889 95.3599 79.1616C95.2547 78.6924 95.1495 78.2343 95.0758 77.7539C95.0022 77.2847 94.897 76.8154 94.8338 76.3462C94.697 75.3966 94.5918 74.4469 94.5287 73.4861C94.4866 72.5142 94.4656 71.5422 94.5392 70.5479Z" fill="#E08880"/>
<path d="M103.714 93.1268C97.2429 99.8078 86.2791 99.4391 77.9668 93.4843L103.714 93.1268Z" fill="white"/>
<path d="M115.488 57.6663C115.488 57.6663 115.204 57.4988 114.709 57.2083C114.467 57.063 114.172 56.8955 113.846 56.7055C113.52 56.5156 113.152 56.3145 112.741 56.0911C112.321 55.9011 111.91 55.6442 111.437 55.4543C111.205 55.3425 110.974 55.242 110.742 55.1303C110.5 55.0409 110.258 54.9403 110.006 54.851C109.522 54.6275 108.996 54.5381 108.491 54.3482C107.964 54.2923 107.459 54.0801 106.933 54.1024L106.155 54.0354C105.902 54.0689 105.639 54.0801 105.387 54.0912C104.871 54.0689 104.387 54.27 103.892 54.337C103.398 54.4264 102.946 54.6722 102.483 54.8063L102.135 54.918L101.82 55.0856C101.609 55.1973 101.399 55.2978 101.199 55.3984C100.799 55.6107 100.399 55.7559 100.094 55.9793C99.7784 56.1916 99.4838 56.348 99.2418 56.4933C98.7473 56.7726 98.4316 56.9178 98.4316 56.9178C98.4316 56.9178 98.5579 56.605 98.8315 56.0687C98.9683 55.8006 99.1366 55.4766 99.3576 55.1191C99.5575 54.7392 99.8626 54.3817 100.22 54.0019C100.589 53.6332 100.915 53.1304 101.43 52.8176C101.935 52.4936 102.43 52.0467 103.051 51.801C103.356 51.6669 103.682 51.544 104.008 51.4323C104.334 51.287 104.671 51.22 105.029 51.1753C105.376 51.1194 105.734 51.0636 106.102 51.0301C106.46 51.0301 106.818 51.0636 107.186 51.0859C107.912 51.0971 108.585 51.3541 109.269 51.5328C109.595 51.6557 109.9 51.801 110.216 51.9462C110.532 52.0803 110.826 52.2367 111.089 52.4266C111.363 52.6054 111.637 52.7729 111.889 52.9517C112.131 53.1528 112.363 53.3427 112.584 53.5438C113.047 53.9125 113.394 54.3594 113.741 54.7281C114.393 55.5213 114.846 56.2475 115.109 56.7949C115.393 57.3312 115.488 57.6663 115.488 57.6663Z" fill="#A9534F"/>
<path d="M81.6283 57.6663C81.6283 57.6663 81.3442 57.4988 80.8496 57.2083C80.6076 57.063 80.313 56.8955 79.9868 56.7055C79.6607 56.5156 79.2924 56.3145 78.882 56.0911C78.4612 55.9011 78.0508 55.6442 77.5773 55.4543C77.3458 55.3425 77.1144 55.242 76.8829 55.1303C76.6409 55.0409 76.3989 54.9403 76.1463 54.851C75.6623 54.6275 75.1362 54.5381 74.6312 54.3482C74.1051 54.2923 73.6 54.0801 73.0739 54.1024L72.2953 54.0354C72.0428 54.0689 71.7798 54.0801 71.5272 54.0912C71.0117 54.0689 70.5277 54.27 70.0331 54.337C69.5386 54.4264 69.0862 54.6722 68.6232 54.8063L68.276 54.918L67.9603 55.0856C67.7499 55.1973 67.5394 55.2978 67.3395 55.3984C66.9397 55.6107 66.5399 55.7559 66.2347 55.9793C65.9191 56.1916 65.6245 56.348 65.3825 56.4933C64.8879 56.7726 64.5723 56.9178 64.5723 56.9178C64.5723 56.9178 64.6985 56.605 64.9721 56.0687C65.1089 55.8006 65.2772 55.4766 65.4982 55.1191C65.6981 54.7392 66.0032 54.3817 66.361 54.0019C66.7293 53.6332 67.0554 53.1304 67.571 52.8176C68.0761 52.4936 68.5706 52.0467 69.1914 51.801C69.4965 51.6669 69.8227 51.544 70.1489 51.4323C70.475 51.287 70.8117 51.22 71.1695 51.1753C71.5167 51.1194 71.8745 51.0636 72.2427 51.0301C72.6005 51.0301 72.9582 51.0636 73.3265 51.0859C74.0525 51.0971 74.7259 51.3541 75.4098 51.5328C75.736 51.6557 76.0411 51.801 76.3568 51.9462C76.6724 52.0803 76.9671 52.2367 77.2301 52.4266C77.5037 52.6054 77.7772 52.7729 78.0298 52.9517C78.2718 53.1528 78.5032 53.3427 78.7242 53.5438C79.1872 53.9125 79.5344 54.3594 79.8816 54.7281C80.534 55.5213 80.9864 56.2475 81.2495 56.7949C81.523 57.3312 81.6283 57.6663 81.6283 57.6663Z" fill="#A9534F"/>
<path d="M80.5444 71.4304C80.5444 71.4304 80.4707 71.1176 80.3024 70.6037C80.134 70.0898 79.8815 69.3636 79.4817 68.5704C79.0713 67.7771 78.5032 66.9281 77.714 66.3024C77.3247 65.9896 76.8723 65.7326 76.3883 65.5762C76.1463 65.4869 75.9043 65.4086 75.6412 65.3863C75.3782 65.3528 75.1256 65.2969 74.8521 65.3193C74.5995 65.3304 74.2839 65.2969 74.084 65.3304C73.8104 65.3863 73.4632 65.3975 73.2527 65.4869C72.8213 65.6321 72.3373 65.8108 71.9691 66.1348C71.5798 66.4253 71.2746 66.8163 71.0011 67.2074C70.7591 67.6207 70.5486 68.0453 70.3908 68.4587C70.0857 69.2966 69.9278 70.0563 69.8436 70.5814C69.7489 71.1176 69.7279 71.4304 69.7279 71.4304C69.7279 71.4304 69.6437 71.1288 69.5911 70.5702C69.5385 70.0116 69.5069 69.2072 69.6963 68.2352C69.791 67.7548 69.9383 67.2297 70.1909 66.7046C70.4539 66.1907 70.7801 65.6433 71.2746 65.2299C71.7376 64.783 72.3163 64.4478 72.9897 64.2356C73.3264 64.1127 73.5789 64.1127 73.8735 64.0456C74.2523 63.9786 74.5364 64.0121 74.8626 63.9898C75.1782 63.9674 75.5044 64.0456 75.8306 64.1015C76.1568 64.135 76.4619 64.2467 76.767 64.3696C77.0827 64.459 77.3668 64.6378 77.6298 64.8165C77.9139 64.9729 78.1454 65.1964 78.3874 65.4086C79.3133 66.2801 79.8184 67.3638 80.113 68.2799C80.4076 69.2072 80.4918 70.0116 80.5234 70.5702C80.576 71.1176 80.5444 71.4304 80.5444 71.4304Z" fill="#A9534F"/>
<path d="M110.984 70.9054C110.984 70.9054 110.91 70.5925 110.742 70.0786C110.574 69.5647 110.321 68.8385 109.921 68.0453C109.511 67.2521 108.943 66.403 108.153 65.7773C107.764 65.4645 107.312 65.2075 106.828 65.0511C106.586 64.9618 106.344 64.8835 106.081 64.8612C105.818 64.8277 105.565 64.7718 105.292 64.7942C105.039 64.8053 104.723 64.7718 104.523 64.8053C104.25 64.8612 103.903 64.8724 103.692 64.9618C103.261 65.107 102.777 65.2857 102.409 65.6097C102.019 65.9002 101.714 66.2912 101.441 66.6823C101.199 67.0956 100.988 67.5202 100.83 67.9336C100.525 68.7715 100.367 69.5312 100.283 70.0563C100.188 70.5925 100.167 70.9054 100.167 70.9054C100.167 70.9054 100.083 70.6037 100.031 70.0451C99.978 69.4865 99.9464 68.6821 100.136 67.7101C100.23 67.2297 100.378 66.7046 100.63 66.1795C100.893 65.6656 101.22 65.1182 101.714 64.7048C102.177 64.2579 102.756 63.9227 103.429 63.7105C103.766 63.5876 104.018 63.5876 104.313 63.5205C104.692 63.4535 104.976 63.487 105.302 63.4647C105.618 63.4423 105.944 63.5205 106.27 63.5764C106.596 63.6099 106.901 63.7216 107.207 63.8445C107.522 63.9339 107.806 64.1127 108.069 64.2914C108.353 64.4478 108.585 64.6713 108.827 64.8835C109.753 65.755 110.258 66.8387 110.552 67.7548C110.847 68.6821 110.931 69.4865 110.963 70.0451C111.015 70.5925 110.984 70.9054 110.984 70.9054Z" fill="#A9534F"/>
<path d="M90.9091 17.1113C90.9091 17.1113 92.5926 40.3941 59.3435 50.1363C59.3435 50.1363 60.2904 61.9006 57.439 73.0057C57.439 73.0057 46.6751 56.5268 51.7361 37.0313C56.7972 17.5247 82.4706 1.90601 90.9091 17.1113Z" fill="#853F38"/>
<path d="M64.3617 48.4605C59.5111 44.8742 55.1971 40.2489 52.3036 35.1432C52.0932 35.7689 51.9038 36.3945 51.7459 37.0313C46.6744 56.5379 57.4488 73.0057 57.4488 73.0057C60.3002 61.9118 59.3533 50.1363 59.3533 50.1363C61.1104 49.6224 62.7729 49.0526 64.3617 48.4605Z" fill="#853F38"/>
<path d="M90.0147 22.8604C90.0147 22.8604 88.3312 43.7484 121.58 52.4885C121.58 52.4885 120.633 63.0428 123.485 73.0057C123.485 73.0057 134.249 58.2217 129.188 40.7315C124.127 23.2312 98.4533 9.21899 90.0147 22.8604Z" fill="#A9534F"/>
<path d="M116.562 50.9851C121.413 47.7677 125.727 43.6181 128.62 39.0376C128.831 39.5989 129.02 40.1602 129.178 40.7315C134.249 58.2317 123.475 73.0057 123.475 73.0057C120.624 63.0528 121.571 52.4885 121.571 52.4885C119.813 52.0275 118.151 51.5163 116.562 50.9851Z" fill="#A9534F"/>
<path d="M109.821 29.0223C109.821 29.0223 95.8874 47.6518 75.8761 44.2992L80.5172 37.5939C80.5172 37.5939 68.3732 43.5504 48.0082 37.9627C48.0082 37.9627 46.5827 14.863 81.2353 9.65523C81.2353 9.65523 64.804 11.1415 53.3674 18.2268C53.3674 18.2268 86.9482 -18.2835 114.462 18.2268C114.462 18.2268 130.186 18.5956 130.894 36.8563C131.612 55.1059 128.454 59 128.454 59C128.454 59 120.534 30.5198 119.462 36.8563C118.39 43.1928 119.462 47.6 119.462 43.1392L122.5 46.5C122.5 46.5 118.043 46.5 118.043 48.0957C117.337 47.7907 108.396 46.1543 109.821 29.0223Z" fill="#A9534F"/>
</svg>
