<svg width="175" height="214" viewBox="0 0 175 214" fill="none" xmlns="http://www.w3.org/2000/svg">
<g clip-path="url(#clip0_18_6301)">
<path d="M111.041 146.027C101.171 140.656 103.859 114.719 103.859 114.719L89.0772 115.671V114.719L87.4942 115.195L85.9112 114.719V115.671L71.1291 114.719C71.1291 114.719 73.8178 140.656 63.9475 146.027C54.0772 151.397 -4.26 154.077 2.01369 214H85.9112H89.0772H172.975C179.26 154.077 120.923 151.386 111.041 146.027Z" fill="#FFAD9D"/>
<path d="M69.0566 139.334C80.8707 137.582 92.6732 135.773 104.464 133.905C102.8 124.962 103.87 114.719 103.87 114.719L89.0882 115.671V114.719L87.5053 115.195L85.9223 114.719V115.671L71.1401 114.719C71.1285 114.708 72.6882 129.787 69.0566 139.334Z" fill="#E08880"/>
<path d="M123.472 148.497C118.176 162.278 104.069 172.137 87.5059 172.137C70.9429 172.137 56.8358 162.278 51.5398 148.497C31.2056 154.054 -4.55095 165.955 0.488952 214H85.8997H89.1238H174.535C179.551 165.955 143.806 154.054 123.472 148.497Z" fill="#FFEDEE"/>
<path opacity="0.1" d="M160.626 167.323C138.814 181.394 112.497 186.903 88.0305 194.675C65.089 201.96 41.8682 208.258 18.4961 214H174.512C176.863 191.578 170.333 177.032 160.626 167.323Z" fill="#352836"/>
<path d="M126.904 149.472V214H174.51C179.282 168.565 147.564 155.457 126.904 149.472Z" fill="#5996BF"/>
<path d="M47.7562 149.565C27.0961 155.597 -4.26072 168.809 0.47656 214H47.7562V149.565Z" fill="#5996BF"/>
<path d="M48.3262 149.565V214C48.3262 214 24.4652 173.46 25.6291 159.54C26.7931 145.621 45.9983 144.797 48.3262 149.565Z" fill="#6CBBE6"/>
<path d="M125.705 149.565V214C125.705 214 149.566 173.46 148.402 159.54C147.238 145.621 128.033 144.797 125.705 149.565Z" fill="#6CBBE6"/>
<path d="M58.5919 76.7426C55.682 67.7529 48.7915 69.8293 48.1513 70.0496C47.4762 70.1308 40.3528 71.1864 41.5866 80.5472C42.8204 89.9777 48.3142 95.0815 53.4589 93.5851C58.7432 92.7384 61.5134 85.7902 58.5919 76.7426Z" fill="#E08880"/>
<path d="M116.673 76.7426C119.583 67.7529 126.473 69.8293 127.113 70.0496C127.788 70.1308 134.912 71.1864 133.678 80.5472C132.444 89.9777 126.95 95.0815 121.806 93.5851C116.51 92.7384 113.74 85.7902 116.673 76.7426Z" fill="#E08880"/>
<path d="M51.5258 63.1131C55.134 23.6863 85.2105 25.8902 88.0389 26.1918C90.8789 25.8902 120.955 23.6863 124.552 63.1131C128.184 102.772 110.457 128.674 88.0389 127.259C65.6328 128.685 47.9059 102.784 51.5258 63.1131Z" fill="#FFAD9D"/>
<path d="M93.2317 67.7413C93.7322 69.5509 94.1163 71.372 94.4655 73.2047C94.8147 75.0258 95.1056 76.8586 95.3617 78.7029C95.5014 79.6193 95.5945 80.5472 95.7109 81.4636C95.8273 82.38 95.9204 83.3079 96.0135 84.2243C96.2114 86.0686 96.3394 87.9129 96.4558 89.7689L96.4907 90.2676L96.1299 90.4764C94.9427 91.2072 93.7438 91.9032 92.5333 92.5876C91.3112 93.2603 90.089 93.9331 88.8203 94.5363C89.8446 93.5735 90.9154 92.6803 91.9863 91.7872C93.0687 90.9056 94.1628 90.0473 95.2686 89.2005L94.9427 89.9197C94.6401 88.0869 94.3724 86.2542 94.1512 84.4099C94.0348 83.4935 93.9184 82.5655 93.8369 81.6492C93.7555 80.7212 93.6391 79.8049 93.5809 78.8769C93.4296 77.0326 93.3132 75.1766 93.2433 73.3207C93.1735 71.4764 93.1502 69.6089 93.2317 67.7413Z" fill="#E08880"/>
<path d="M103.38 101.624C96.222 108.56 84.0936 108.177 74.8984 101.995L103.38 101.624Z" fill="white"/>
<path d="M116.416 64.8182C116.416 64.8182 116.102 64.6443 115.555 64.3427C115.287 64.1919 114.962 64.0179 114.601 63.8207C114.24 63.6351 113.833 63.4147 113.379 63.1827C112.913 62.9855 112.459 62.7187 111.935 62.5215C111.679 62.4055 111.423 62.3011 111.167 62.1852C110.899 62.0924 110.632 61.988 110.352 61.8952C109.817 61.6632 109.235 61.5704 108.676 61.3732C108.094 61.3152 107.536 61.0948 106.954 61.118L106.092 61.0484C105.813 61.0832 105.522 61.0948 105.243 61.1064C104.672 61.0832 104.137 61.292 103.59 61.3616C103.043 61.4544 102.542 61.7096 102.03 61.8488L101.646 61.9648L101.297 62.1388C101.064 62.2548 100.831 62.3591 100.61 62.4635C100.168 62.6839 99.7254 62.8347 99.3879 63.0667C99.0387 63.2871 98.7128 63.4495 98.4451 63.6003C97.898 63.8903 97.5488 64.0411 97.5488 64.0411C97.5488 64.0411 97.6885 63.7163 97.9911 63.1595C98.1424 62.8811 98.3287 62.5447 98.5731 62.1736C98.7943 61.7792 99.1318 61.408 99.5275 61.0136C99.9349 60.6308 100.296 60.1088 100.866 59.7841C101.425 59.4477 101.972 58.9837 102.659 58.7285C102.996 58.5893 103.357 58.4617 103.718 58.3457C104.079 58.1949 104.451 58.1253 104.847 58.0789C105.231 58.0209 105.627 57.9629 106.034 57.9281C106.43 57.9281 106.826 57.9629 107.233 57.9861C108.036 57.9977 108.781 58.2645 109.538 58.4501C109.898 58.5777 110.236 58.7285 110.585 58.8793C110.934 59.0185 111.26 59.1809 111.551 59.3781C111.854 59.5637 112.156 59.7377 112.436 59.9232C112.703 60.132 112.96 60.3292 113.204 60.538C113.716 60.9208 114.1 61.3848 114.484 61.7676C115.206 62.5911 115.706 63.3451 115.997 63.9135C116.3 64.4703 116.416 64.8182 116.416 64.8182Z" fill="#352836"/>
<path d="M78.9497 64.8182C78.9497 64.8182 78.6354 64.6443 78.0884 64.3427C77.8206 64.1919 77.4947 64.0179 77.1339 63.8207C76.7731 63.6351 76.3657 63.4147 75.9118 63.1827C75.4462 62.9855 74.9922 62.7187 74.4685 62.5215C74.2124 62.4055 73.9563 62.3011 73.7003 62.1852C73.4326 62.0924 73.1648 61.988 72.8855 61.8952C72.3501 61.6632 71.7681 61.5704 71.2094 61.3732C70.6274 61.3152 70.0687 61.0948 69.4868 61.118L68.6254 61.0484C68.3461 61.0832 68.0551 61.0948 67.7757 61.1064C67.2054 61.0832 66.67 61.292 66.1229 61.3616C65.5759 61.4544 65.0754 61.7096 64.5632 61.8488L64.1791 61.9648L63.83 62.1388C63.5972 62.2548 63.3644 62.3591 63.1432 62.4635C62.7009 62.6839 62.2586 62.8347 61.9211 63.0667C61.5719 63.2871 61.246 63.4495 60.9783 63.6003C60.4312 63.8903 60.082 64.0411 60.082 64.0411C60.082 64.0411 60.2217 63.7163 60.5243 63.1595C60.6756 62.8811 60.8619 62.5447 61.1063 62.1736C61.3275 61.7792 61.665 61.408 62.0607 61.0136C62.4681 60.6308 62.829 60.1088 63.3993 59.7841C63.958 59.4477 64.505 58.9837 65.1918 58.7285C65.5293 58.5893 65.8901 58.4617 66.251 58.3457C66.6118 58.1949 66.9843 58.1253 67.38 58.0789C67.7641 58.0209 68.1599 57.9629 68.5672 57.9281C68.963 57.9281 69.3587 57.9629 69.7661 57.9861C70.5692 57.9977 71.3142 58.2645 72.0707 58.4501C72.4316 58.5777 72.7691 58.7285 73.1183 58.8793C73.4675 59.0185 73.7934 59.1809 74.0844 59.3781C74.387 59.5637 74.6896 59.7377 74.969 59.9232C75.2367 60.132 75.4927 60.3292 75.7372 60.538C76.2493 60.9208 76.6334 61.3848 77.0175 61.7676C77.7392 62.5911 78.2397 63.3451 78.5307 63.9135C78.8333 64.4703 78.9497 64.8182 78.9497 64.8182Z" fill="#352836"/>
<path d="M77.7629 79.1089C77.7629 79.1089 77.6814 78.7841 77.4952 78.2505C77.309 77.7169 77.0296 76.963 76.5873 76.1394C76.1334 75.3158 75.5049 74.4343 74.6319 73.7847C74.2012 73.4599 73.7007 73.1931 73.1653 73.0307C72.8976 72.9379 72.6299 72.8567 72.3389 72.8335C72.0479 72.7987 71.7686 72.7407 71.4659 72.7639C71.1866 72.7755 70.8374 72.7407 70.6163 72.7755C70.3136 72.8335 69.9295 72.8451 69.6967 72.9379C69.2195 73.0887 68.6841 73.2743 68.2767 73.6107C67.8461 73.9123 67.5085 74.3183 67.2059 74.7243C66.9382 75.1534 66.7054 75.5942 66.5308 76.0234C66.1932 76.8934 66.0187 77.6821 65.9255 78.2273C65.8208 78.7841 65.7975 79.1089 65.7975 79.1089C65.7975 79.1089 65.7044 78.7957 65.6462 78.2157C65.588 77.6357 65.5531 76.8006 65.7626 75.7914C65.8673 75.2926 66.0303 74.7475 66.3096 74.2023C66.6006 73.6687 66.9615 73.1003 67.5085 72.6711C68.0206 72.2072 68.6608 71.8592 69.4058 71.6388C69.7782 71.5112 70.0576 71.5112 70.3835 71.4416C70.8025 71.372 71.1168 71.4068 71.4776 71.3836C71.8268 71.3604 72.1876 71.4416 72.5484 71.4996C72.9092 71.5344 73.2468 71.6504 73.5843 71.778C73.9335 71.8708 74.2478 72.0564 74.5388 72.242C74.853 72.4044 75.1091 72.6363 75.3768 72.8567C76.4011 73.7615 76.9598 74.8867 77.2857 75.8378C77.6116 76.8006 77.7047 77.6357 77.7396 78.2157C77.7978 78.7725 77.7629 79.1089 77.7629 79.1089Z" fill="#352836"/>
<path d="M111.423 78.5637C111.423 78.5637 111.342 78.2389 111.155 77.7053C110.969 77.1718 110.69 76.4178 110.247 75.5942C109.794 74.7707 109.165 73.8891 108.292 73.2395C107.861 72.9147 107.361 72.6479 106.825 72.4856C106.558 72.3928 106.29 72.3116 105.999 72.2884C105.708 72.2536 105.429 72.1956 105.126 72.2188C104.847 72.2304 104.498 72.1956 104.276 72.2304C103.974 72.2884 103.59 72.3 103.357 72.3928C102.88 72.5435 102.344 72.7291 101.937 73.0655C101.506 73.3671 101.169 73.7731 100.866 74.1791C100.598 74.6083 100.366 75.049 100.191 75.4782C99.8534 76.3482 99.6788 77.137 99.5857 77.6821C99.4809 78.2389 99.4577 78.5637 99.4577 78.5637C99.4577 78.5637 99.3645 78.2505 99.3063 77.6705C99.2481 77.0906 99.2132 76.2554 99.4227 75.2462C99.5275 74.7475 99.6904 74.2023 99.9698 73.6571C100.261 73.1235 100.622 72.5551 101.169 72.126C101.681 71.662 102.321 71.314 103.066 71.0936C103.438 70.966 103.718 70.966 104.044 70.8964C104.463 70.8268 104.777 70.8616 105.138 70.8384C105.487 70.8152 105.848 70.8964 106.209 70.9544C106.569 70.9892 106.907 71.1052 107.244 71.2328C107.594 71.3256 107.908 71.5112 108.199 71.6968C108.513 71.8592 108.769 72.0912 109.037 72.3116C110.061 73.2163 110.62 74.3415 110.946 75.2926C111.272 76.2554 111.365 77.0906 111.4 77.6705C111.458 78.2389 111.423 78.5637 111.423 78.5637Z" fill="#352836"/>
<path d="M126.136 32.7223C124.111 24.6374 119.269 22.5959 116.941 22.0739C115.603 1.22955 59.7329 -2.5867 59.0112 1.40354C58.2314 5.66057 78.7984 12.6203 78.7984 12.6203C78.7984 12.6203 41.9361 2.95788 43.8799 11.4603C45.4512 18.3737 60.3381 17.6313 65.8785 17.0977C58.1034 18.0605 31.5071 22.3175 43.4958 34.265C44.4735 35.2394 45.5443 36.0746 46.6617 36.8053C45.5443 51.618 49.9557 86.463 49.9557 86.463H53.0634L51.8995 62.4867C57.9171 61.292 60.664 47.0825 61.5952 40.7608C71.7798 40.9 82.0109 37.4549 85.7937 36.0282C83.5124 37.0837 79.9158 39.508 83.8499 43.1503C87.8656 46.8737 102.275 42.3383 109.515 39.7284C110.842 45.3774 115.125 61.2108 121.492 62.4867L120.328 86.463H123.436C123.413 86.463 128.848 43.5447 126.136 32.7223Z" fill="#FFDEBF"/>
<path d="M126.136 32.7223C124.111 24.6374 119.269 22.5959 116.941 22.0739C116.696 18.2693 114.624 15.033 111.412 12.2955C109.678 26.4238 99.2951 38.4409 86.1309 44.2523C91.7993 45.621 103.299 41.9787 109.515 39.74C110.842 45.389 115.125 61.2224 121.492 62.4983L120.328 86.4746H123.435C123.412 86.463 128.848 43.5447 126.136 32.7223Z" fill="#DCB9A2"/>
</g>
<defs>
<clipPath id="clip0_18_6301">
<rect width="175" height="214" fill="white"/>
</clipPath>
</defs>
</svg>
