<svg width="175" height="198" viewBox="0 0 175 198" fill="none" xmlns="http://www.w3.org/2000/svg">
<g clip-path="url(#clip0_14_8975)">
<path d="M111.546 133.309C101.7 127.97 104.382 102.187 104.382 102.187L89.6358 103.133V102.187L88.0567 102.66L86.4776 102.187V103.133L71.7317 102.187C71.7317 102.187 74.4138 127.97 64.5678 133.309C54.7217 138.648 -3.47232 141.312 2.78597 200.88H86.4776H89.6358H173.327C179.597 141.312 121.403 138.648 111.546 133.309Z" fill="#FFAD9D"/>
<path d="M69.6641 126.656C81.4492 124.915 93.2226 123.116 104.985 121.259C103.324 112.369 104.392 102.187 104.392 102.187L89.6465 103.133V102.187L88.0674 102.66L86.4883 102.187V103.133L71.7424 102.187C71.7308 102.187 73.2867 117.166 69.6641 126.656Z" fill="#E08880"/>
<path d="M117.828 134.404C110.931 141.438 100.156 145.97 88.0345 145.97C75.9126 145.97 65.1377 141.438 58.2408 134.404C40.2439 139.374 -3.99381 148.149 1.55622 200.88H86.4322H89.6368H174.513C180.063 148.149 135.825 139.386 117.828 134.404Z" fill="#5996BF"/>
<path d="M73.8689 98.6817C73.8689 98.6817 59.0069 95.0379 46.0143 100.457C33.0216 105.877 34.8445 69.2663 35.8547 67.9863C36.8648 66.7064 60.853 52.2351 60.853 52.2351L73.8689 98.6817Z" fill="#DCB9A2"/>
<path d="M99.5879 98.1743C99.5879 98.1743 114.647 95.4069 127.28 101.587C139.924 107.768 140.307 71.1112 139.367 69.7737C138.426 68.4361 115.367 52.5695 115.367 52.5695L99.5879 98.1743Z" fill="#DCB9A2"/>
<path d="M59.2276 64.4348C56.3248 55.4983 49.4511 57.5623 48.8125 57.7814C48.1391 57.8621 41.0332 58.9115 42.264 68.2169C43.4947 77.5916 48.9751 82.6652 54.1071 81.1777C59.3785 80.3475 62.1419 73.4289 59.2276 64.4348Z" fill="#E08880"/>
<path d="M117.166 64.4348C120.069 55.4983 126.942 57.5623 127.581 57.7814C128.254 57.8621 135.36 58.9115 134.129 68.2169C132.899 77.5916 127.418 82.6652 122.286 81.1777C117.003 80.3475 114.24 73.4289 117.166 64.4348Z" fill="#E08880"/>
<path d="M52.1789 50.8975C55.7783 11.7039 85.7809 13.8947 88.6024 14.1945C91.4355 13.8947 121.438 11.7039 125.026 50.8975C128.649 90.3217 110.965 116.07 88.6024 114.664C66.2514 116.07 48.5679 90.3217 52.1789 50.8975Z" fill="#FFAD9D"/>
<path d="M47.9648 60.1799L58.0664 67.8941L82.4841 69.1048C82.4841 69.1048 89.6481 61.2292 97.381 68.7243L119.825 69.1048L129.427 61.3676" stroke="#7F5E6A" stroke-width="1.4341" stroke-miterlimit="10"/>
<path d="M72.8669 79.8992C79.4764 78.5893 83.7653 72.2064 82.4463 65.6424C81.1274 59.0784 74.7001 54.8191 68.0906 56.129C61.4811 57.4388 57.1923 63.8218 58.5112 70.3858C59.8301 76.9497 66.2574 81.209 72.8669 79.8992Z" fill="#9CC7DC" stroke="#7F5E6A" stroke-width="1.3386" stroke-miterlimit="10"/>
<path d="M119.626 72.2529C121.984 65.9827 118.777 59.0018 112.463 56.6606C106.15 54.3193 99.1203 57.5043 96.7628 63.7744C94.4053 70.0446 97.6124 77.0255 103.926 79.3667C110.24 81.708 117.269 78.523 119.626 72.2529Z" fill="#9CC7DC" stroke="#7F5E6A" stroke-width="1.3386" stroke-miterlimit="10"/>
<path d="M93.7832 70.2925C94.2825 71.1919 94.6656 72.1259 95.0024 73.0599C95.3391 73.9939 95.6293 74.951 95.8964 75.8965C96.0357 76.3693 96.1286 76.8536 96.2447 77.3379C96.3608 77.8222 96.4537 78.3065 96.5466 78.7908C96.744 79.7594 96.8833 80.7395 96.9878 81.7196L97.0343 82.1809L96.7788 82.4115C95.9777 83.1379 95.1417 83.8529 94.3057 84.5562C93.4465 85.2366 92.5989 85.9284 91.6816 86.5511C92.2738 85.6171 92.9356 84.7523 93.5974 83.8759C94.2709 83.0111 94.9559 82.1693 95.6642 81.3506L95.4668 82.0425C95.1649 81.097 94.8979 80.1399 94.6889 79.1828C94.5728 78.6985 94.4566 78.2258 94.3754 77.7299C94.2941 77.2456 94.178 76.7613 94.1083 76.277C93.9574 75.2969 93.8413 74.3168 93.7716 73.3251C93.7252 72.3219 93.7019 71.3187 93.7832 70.2925Z" fill="#E08880"/>
<path d="M103.908 93.5965C96.7673 100.492 84.6687 100.111 75.4961 93.9655L103.908 93.5965Z" fill="white"/>
<path d="M116.911 57.0088C116.911 57.0088 116.598 56.8359 116.052 56.5361C115.785 56.3862 115.46 56.2132 115.1 56.0172C114.74 55.8212 114.334 55.6136 113.881 55.383C113.416 55.187 112.963 54.9217 112.441 54.7257C112.186 54.6104 111.93 54.5066 111.675 54.3913C111.408 54.2991 111.141 54.1953 110.862 54.1031C110.328 53.8724 109.747 53.7802 109.19 53.5842C108.609 53.5265 108.052 53.3074 107.471 53.3305L106.612 53.2613C106.334 53.2959 106.043 53.3074 105.765 53.319C105.196 53.2959 104.662 53.5034 104.116 53.5726C103.57 53.6649 103.071 53.9186 102.56 54.0569L102.177 54.1607L101.829 54.3337C101.596 54.449 101.364 54.5528 101.144 54.6565C100.702 54.8756 100.261 55.0255 99.9244 55.2561C99.576 55.4752 99.2509 55.6367 98.9839 55.7866C98.4382 56.0748 98.0898 56.2247 98.0898 56.2247C98.0898 56.2247 98.2292 55.9019 98.5311 55.3484C98.682 55.0716 98.8678 54.7373 99.1116 54.3683C99.3322 53.9762 99.6689 53.6072 100.064 53.2152C100.47 52.8347 100.83 52.3158 101.399 51.9929C101.956 51.6585 102.502 51.1973 103.187 50.9436C103.524 50.8052 103.884 50.6784 104.244 50.5631C104.604 50.4132 104.975 50.344 105.37 50.2978C105.753 50.2402 106.148 50.1825 106.554 50.1479C106.949 50.1479 107.344 50.1825 107.75 50.2056C108.551 50.2171 109.294 50.4823 110.049 50.6668C110.409 50.7937 110.746 50.9436 111.094 51.0935C111.442 51.2319 111.768 51.3933 112.058 51.5893C112.36 51.7738 112.662 51.9468 112.94 52.1313C113.207 52.3388 113.463 52.5348 113.707 52.7424C114.217 53.1229 114.601 53.5842 114.984 53.9647C115.704 54.7834 116.203 55.5329 116.493 56.0979C116.795 56.6514 116.911 57.0088 116.911 57.0088Z" fill="#352836"/>
<path d="M79.5362 57.0092C79.5362 57.0092 79.2227 56.8363 78.677 56.5365C78.4099 56.3866 78.0848 56.2136 77.7249 56.0176C77.3649 55.8215 76.9585 55.614 76.5057 55.3834C76.0413 55.1873 75.5884 54.9221 75.066 54.7261C74.8105 54.6108 74.5551 54.507 74.2996 54.3917C74.0326 54.2995 73.7655 54.1957 73.4869 54.1034C72.9528 53.8728 72.3722 53.7806 71.8149 53.5845C71.2343 53.5269 70.677 53.3078 70.0965 53.3309L69.2373 53.2617C68.9586 53.2963 68.6683 53.3078 68.3897 53.3193C67.8207 53.2963 67.2866 53.5038 66.7409 53.573C66.1952 53.6653 65.6959 53.9189 65.1851 54.0573L64.8019 54.1726L64.4536 54.3456C64.2213 54.4609 63.9891 54.5647 63.7685 54.6684C63.3273 54.8875 62.8861 55.0374 62.5494 55.2681C62.201 55.4871 61.8759 55.6486 61.6089 55.7985C61.0632 56.0868 60.7148 56.2367 60.7148 56.2367C60.7148 56.2367 60.8542 55.9138 61.1561 55.3603C61.307 55.0836 61.4928 54.7492 61.7366 54.3802C61.9572 53.9881 62.2939 53.6191 62.6887 53.2271C63.0951 52.8466 63.455 52.3277 64.024 52.0048C64.5813 51.6704 65.127 51.2092 65.812 50.9555C66.1488 50.8171 66.5087 50.6903 66.8686 50.575C67.2286 50.4251 67.6001 50.3559 67.9949 50.3098C68.3781 50.2521 68.7728 50.1944 69.1792 50.1599C69.574 50.1599 69.9688 50.1944 70.3751 50.2175C71.1763 50.229 71.9194 50.4942 72.6741 50.6787C73.034 50.8056 73.3708 50.9555 73.7191 51.1054C74.0674 51.2438 74.3925 51.4052 74.6828 51.6012C74.9847 51.7857 75.2866 51.9587 75.5652 52.1432C75.8323 52.3507 76.0877 52.5468 76.3315 52.7543C76.8424 53.1348 77.2256 53.5961 77.6087 53.9766C78.3286 54.7953 78.8279 55.5448 79.1182 56.1098C79.42 56.6518 79.5362 57.0092 79.5362 57.0092Z" fill="#352836"/>
<path d="M78.3522 71.2034C78.3522 71.2034 78.2709 70.8805 78.0851 70.3501C77.8994 69.8197 77.6207 69.0702 77.1795 68.2515C76.7267 67.4328 76.0997 66.5564 75.2289 65.9107C74.7992 65.5878 74.3 65.3226 73.7659 65.1612C73.4988 65.069 73.2318 64.9882 72.9415 64.9652C72.6512 64.9306 72.3726 64.8729 72.0707 64.896C71.792 64.9075 71.4437 64.8729 71.2231 64.9075C70.9212 64.9652 70.538 64.9767 70.3058 65.069C69.8298 65.2189 69.2957 65.4034 68.8893 65.7377C68.4597 66.0376 68.123 66.4411 67.8211 66.8447C67.554 67.2714 67.3218 67.7095 67.1477 68.1362C66.8109 69.001 66.6368 69.7851 66.5439 70.3271C66.4394 70.8805 66.4162 71.2034 66.4162 71.2034C66.4162 71.2034 66.3233 70.8921 66.2652 70.3155C66.2072 69.739 66.1723 68.9088 66.3813 67.9056C66.4858 67.4097 66.6484 66.8678 66.927 66.3258C67.2173 65.7954 67.5773 65.2304 68.123 64.8037C68.6338 64.3425 69.2724 63.9966 70.0155 63.7775C70.3871 63.6507 70.6658 63.6507 70.9909 63.5815C71.4089 63.5123 71.7224 63.5469 72.0823 63.5238C72.4306 63.5008 72.7906 63.5815 73.1505 63.6391C73.5104 63.6737 73.8472 63.789 74.1839 63.9159C74.5322 64.0081 74.8457 64.1926 75.136 64.3771C75.4495 64.5385 75.7049 64.7692 75.972 64.9882C76.9937 65.8877 77.551 67.0062 77.8761 67.9517C78.2012 68.9088 78.2941 69.739 78.329 70.3155C78.387 70.8805 78.3522 71.2034 78.3522 71.2034Z" fill="#352836"/>
<path d="M111.93 70.673C111.93 70.673 111.849 70.3502 111.663 69.8197C111.477 69.2893 111.199 68.5398 110.758 67.7211C110.305 66.9024 109.678 66.0261 108.807 65.3803C108.377 65.0575 107.878 64.7922 107.344 64.6308C107.077 64.5386 106.81 64.4578 106.52 64.4348C106.229 64.4002 105.951 64.3425 105.649 64.3656C105.37 64.3771 105.022 64.3425 104.801 64.3771C104.499 64.4348 104.116 64.4463 103.884 64.5386C103.408 64.6885 102.874 64.873 102.467 65.2074C102.038 65.5072 101.701 65.9107 101.399 66.3143C101.132 66.741 100.9 67.1792 100.726 67.6058C100.389 68.4706 100.215 69.2547 100.122 69.7967C100.018 70.3502 99.9943 70.673 99.9943 70.673C99.9943 70.673 99.9014 70.3617 99.8433 69.7851C99.7853 69.2086 99.7505 68.3784 99.9595 67.3752C100.064 66.8793 100.227 66.3374 100.505 65.7954C100.795 65.265 101.155 64.7 101.701 64.2734C102.212 63.8121 102.851 63.4662 103.594 63.2471C103.965 63.1203 104.244 63.1203 104.569 63.0511C104.987 62.9819 105.3 63.0165 105.66 62.9934C106.009 62.9704 106.369 63.0511 106.729 63.1087C107.089 63.1433 107.425 63.2586 107.762 63.3855C108.11 63.4777 108.424 63.6622 108.714 63.8467C109.028 64.0081 109.283 64.2388 109.55 64.4578C110.572 65.3573 111.129 66.4758 111.454 67.4213C111.779 68.3784 111.872 69.2086 111.907 69.7851C111.965 70.3502 111.93 70.673 111.93 70.673Z" fill="#352836"/>
<path d="M53.6426 9.52452C53.6426 9.52452 64.8703 -4.69311 87.3143 4.53163C100.086 -3.54002 109.758 0.299782 119.047 7.21834L89.2417 22.2085L53.6426 9.52452Z" fill="#FFDEBF"/>
<path d="M12.8072 92.305C12.8072 92.305 12.6795 91.9245 12.4357 91.2096C12.1802 90.4947 11.8551 89.4338 11.4952 88.0617C11.3326 87.3698 11.1701 86.5972 10.9959 85.767C10.845 84.9252 10.7173 84.0028 10.5779 83.0226C10.4154 81.0508 10.2528 78.7793 10.6476 76.3116C11.0307 73.8786 11.6577 71.1919 13.051 68.6666C13.3297 67.9978 13.7709 67.4213 14.1541 66.7871C14.5372 66.1529 14.932 65.5187 15.4313 64.9537C15.9073 64.3656 16.3718 63.7545 16.8827 63.1779C17.4284 62.636 17.9857 62.094 18.543 61.552C19.0771 60.9755 19.7157 60.5143 20.3311 60.0184C20.9581 59.5341 21.5619 59.0037 22.2237 58.554C23.5822 57.7122 24.8942 56.7206 26.3688 56.0287C27.7853 55.2908 29.2135 54.5412 30.6532 53.8033C31.9188 53.0307 33.196 52.1774 34.3107 51.1166C36.6096 49.0871 38.3048 46.4811 39.582 43.7022C40.8128 40.9002 41.7184 37.9598 42.4499 35.054C43.1814 32.1482 43.8316 29.3 44.5747 26.6018C45.3062 23.9036 46.177 21.3783 47.222 19.1413C48.2554 16.8928 49.5094 14.9786 50.7982 13.445C52.1102 11.9229 53.4339 10.7699 54.5834 9.9281C55.7444 9.09787 56.7198 8.53285 57.4048 8.20999C58.0783 7.86406 58.4498 7.67957 58.4498 7.67957C58.4498 7.67957 58.1131 7.89865 57.4745 8.31377C56.8243 8.70582 55.9418 9.38614 54.8736 10.274C53.817 11.185 52.6327 12.4072 51.4832 13.9639C50.3686 15.5437 49.3352 17.4578 48.4528 19.6602C47.582 21.8626 46.8737 24.3418 46.2583 27.0169C45.6778 29.7267 45.074 32.5748 44.4354 35.5267C43.7504 38.4902 42.9608 41.592 41.6372 44.6016C40.3019 47.5996 38.4442 50.5285 35.8898 52.8116C34.6474 53.9762 33.2076 54.9333 31.7214 55.8096C30.2933 56.5361 28.8651 57.2625 27.4486 57.989L26.4036 58.5194C26.0669 58.7039 25.7534 58.923 25.4167 59.119C24.7665 59.5226 24.1047 59.9147 23.4661 60.3182C22.8275 60.7218 22.2469 61.2177 21.6431 61.6443C21.051 62.094 20.4356 62.5206 19.9247 63.0395C19.3906 63.5354 18.8565 64.0312 18.334 64.527C17.858 65.069 17.3935 65.5994 16.9291 66.1298C16.4414 66.6372 16.0583 67.2137 15.6751 67.7787C15.3036 68.3553 14.8624 68.8742 14.5837 69.4853C14.2702 70.0734 13.9683 70.6615 13.6548 71.238C13.411 71.8376 13.1788 72.4372 12.9466 73.0253C12.6795 73.6019 12.5518 74.213 12.3892 74.8011C12.2383 75.3892 12.0409 75.9657 11.9712 76.5422C11.8667 77.1188 11.7738 77.6953 11.681 78.2488C11.6345 78.8138 11.5881 79.3673 11.5416 79.8978C11.4023 80.9701 11.4836 82.0079 11.4604 82.9765C11.5068 83.9451 11.5649 84.856 11.6461 85.6863C11.7622 86.528 11.8667 87.2891 11.9596 87.9809C12.2151 89.3531 12.4008 90.4485 12.5866 91.1865C12.7259 91.913 12.8072 92.305 12.8072 92.305Z" fill="#FFDEBF"/>
<path d="M89.8804 27.1899C89.8804 27.1899 89.5089 27.017 88.8006 26.7864C88.0807 26.5557 87.0241 26.2213 85.654 25.9677C84.2955 25.7255 82.6004 25.5525 80.7542 25.8178C78.9197 26.083 76.9807 26.9363 75.5293 28.5621C75.3435 28.7581 75.1694 28.9657 74.9836 29.1733C74.8326 29.4154 74.6933 29.6576 74.5424 29.8997C74.3914 30.1419 74.2405 30.384 74.0895 30.6377C73.9386 30.8914 73.8573 31.1796 73.7412 31.4564C73.6251 31.7331 73.509 32.0099 73.3929 32.2981L73.2303 32.6787L73.091 33.163C72.9052 33.8087 72.6962 34.4659 72.5337 35.1117C71.9067 37.6024 71.5816 40.4851 71.1868 43.4601C70.792 46.435 70.3392 49.6868 69.0968 52.8232C67.8893 55.9596 65.9851 58.923 63.6745 61.3907C63.094 62.0133 62.467 62.5668 61.8632 63.1549C61.2711 63.7545 60.6209 64.2734 59.959 64.7808C59.3088 65.2881 58.6702 65.8301 57.9968 66.3144C57.3233 66.7756 56.6383 67.2368 55.9649 67.6981C54.5251 68.6782 53.4569 69.3585 52.679 70.3271C51.8546 71.3073 51.3321 72.4719 51.0767 73.7518C50.6006 76.3232 51.0534 79.1252 51.6804 81.7197C52.319 84.3257 53.1086 86.8048 53.7704 89.1341C54.4554 91.4518 55.0012 93.6311 55.3147 95.6029C55.6398 97.5747 55.6862 99.3505 55.4656 100.78C55.2682 102.222 54.7689 103.259 54.409 103.928C53.991 104.574 53.7588 104.897 53.7588 104.897C53.7588 104.897 53.933 104.539 54.2465 103.859C54.4903 103.156 54.7689 102.095 54.7922 100.734C54.8154 99.3735 54.5483 97.7131 54.0491 95.8681C53.5382 94.0232 52.7835 91.9822 51.9359 89.7452C51.0767 87.5082 50.0781 85.0867 49.2537 82.3769C48.4526 79.6902 47.6514 76.6461 48.1507 73.2445C48.4062 71.5609 49.0912 69.8198 50.2175 68.3899C50.4961 68.0325 50.7748 67.675 51.1463 67.3521C51.483 67.0408 51.8778 66.6372 52.1681 66.4412L53.2015 65.6917L54.142 65.0344C54.7689 64.5963 55.4075 64.1466 56.0461 63.7084C56.6615 63.2471 57.2421 62.7398 57.8458 62.2555C58.4496 61.7712 59.0534 61.2869 59.5759 60.7334C60.1216 60.1914 60.6905 59.6841 61.2014 59.1191C63.303 56.9167 64.9633 54.3914 66.0664 51.647C67.1694 48.9027 67.7848 45.9738 68.2608 43.0219C68.7485 40.0584 69.2478 37.1642 70.1418 34.3506C70.3624 33.6818 70.6063 33.0592 70.8269 32.425L71.001 31.9522C71.1055 31.7101 71.1636 31.6063 71.2449 31.4333C71.4074 31.1104 71.5584 30.7991 71.7209 30.4878C71.8835 30.1764 72.0112 29.8651 72.2086 29.5768C72.4176 29.3001 72.615 29.0118 72.8239 28.7351C73.0213 28.4583 73.2303 28.1931 73.4277 27.9279C73.6715 27.6973 73.9154 27.4667 74.1592 27.2361C76.0866 25.368 78.583 24.6301 80.6265 24.5724C82.7049 24.4802 84.4465 24.9183 85.8166 25.345C87.1867 25.7716 88.1852 26.3021 88.8703 26.6364C89.5437 26.9593 89.8804 27.1899 89.8804 27.1899Z" fill="#FFDEBF"/>
<path d="M56.4299 7.21835C37.0744 19.1298 51.0075 46.043 30.8858 57.1818C10.764 68.3323 12.6915 83.703 16.9527 94.8534C18.4621 98.8085 22.6653 100.976 27.449 102.118C25.9744 96.3409 24.7901 88.1193 26.9381 80.2437C26.9381 80.2437 25.4054 93.6657 30.0034 102.625C32.4649 103.029 34.9845 103.225 37.295 103.282C36.7029 100.953 36.2849 98.0359 36.61 94.8419C36.61 94.8419 37.446 98.9815 39.1992 103.306C43.5301 103.306 46.7579 102.914 46.7579 102.914C54.5024 93.6888 35.5302 72.5526 49.8581 65.242C71.0016 54.4605 66.1134 43.7137 71.9188 31.8023C77.7243 19.8908 88.4876 27.9625 88.4876 27.9625C90.4151 5.30421 75.7853 -4.6931 56.4299 7.21835Z" fill="#FFDEBF"/>
<path d="M162.68 92.3051C162.68 92.3051 162.773 91.913 162.935 91.1751C163.121 90.4371 163.295 89.3416 163.562 87.9695C163.655 87.2776 163.76 86.505 163.876 85.6748C163.957 84.8331 164.015 83.9221 164.062 82.965C164.027 81.9964 164.12 80.9702 163.98 79.8863C163.934 79.3443 163.888 78.8024 163.841 78.2374C163.748 77.6839 163.644 77.1073 163.551 76.5308C163.481 75.9427 163.284 75.3777 163.133 74.7896C162.959 74.2015 162.831 73.5904 162.576 73.0138C162.343 72.4258 162.111 71.8377 161.867 71.2266C161.565 70.65 161.252 70.0735 160.938 69.4739C160.66 68.8627 160.218 68.3438 159.847 67.7673C159.464 67.2023 159.081 66.6257 158.593 66.1184C158.129 65.5879 157.664 65.0575 157.188 64.5156C156.666 64.0313 156.131 63.5354 155.597 63.0281C155.086 62.5092 154.471 62.0825 153.879 61.6328C153.275 61.1946 152.706 60.7104 152.056 60.3068C151.406 59.9147 150.756 59.5111 150.105 59.1075C149.78 58.9115 149.455 58.6924 149.118 58.5079L148.073 57.9775C146.657 57.2511 145.229 56.5246 143.801 55.7982C142.314 54.9218 140.875 53.9648 139.632 52.8001C137.078 50.517 135.22 47.5882 133.885 44.5901C132.561 41.5805 131.772 38.4787 131.087 35.5153C130.46 32.5634 129.844 29.7152 129.264 27.0055C128.648 24.3303 127.94 21.8511 127.069 19.6487C126.187 17.4463 125.153 15.5322 124.039 13.9524C122.901 12.3958 121.717 11.1735 120.648 10.2625C119.569 9.37467 118.686 8.68281 118.048 8.30229C117.409 7.88718 117.072 7.66809 117.072 7.66809C117.072 7.66809 117.432 7.85259 118.117 8.19851C118.802 8.52138 119.778 9.0864 120.939 9.91662C122.088 10.7584 123.412 11.9115 124.724 13.4336C126.013 14.9672 127.267 16.8928 128.3 19.1298C129.345 21.3668 130.216 23.8921 130.947 26.5903C131.69 29.2886 132.352 32.1367 133.072 35.0425C133.804 37.9483 134.698 40.8887 135.94 43.6907C137.206 46.4697 138.912 49.0872 141.211 51.1051C142.326 52.1659 143.592 53.0077 144.869 53.7918C146.309 54.5413 147.737 55.2793 149.153 56.0173C150.628 56.7091 151.94 57.7008 153.298 58.5425C153.96 58.9922 154.564 59.5227 155.191 60.007C155.806 60.5028 156.445 60.964 156.979 61.5406C157.536 62.0941 158.094 62.636 158.639 63.1664C159.15 63.743 159.615 64.3541 160.091 64.9422C160.59 65.5072 160.985 66.1529 161.368 66.7756C161.74 67.4098 162.192 67.9864 162.471 68.6552C163.864 71.1804 164.491 73.8671 164.874 76.3002C165.258 78.7562 165.107 81.0278 164.944 83.0112C164.816 83.9913 164.677 84.9138 164.526 85.7555C164.34 86.5973 164.189 87.3583 164.027 88.0502C163.667 89.4224 163.342 90.4832 163.086 91.1981C162.808 91.9246 162.68 92.3051 162.68 92.3051Z" fill="#FFDEBF"/>
<path d="M85.6074 27.1899C85.6074 27.1899 85.9441 26.9708 86.6176 26.6134C87.291 26.279 88.2895 25.7486 89.6713 25.3219C91.0413 24.8953 92.7714 24.4571 94.8613 24.5493C96.9165 24.607 99.4012 25.3565 101.329 27.213C101.572 27.4436 101.816 27.6742 102.06 27.9048C102.258 28.1701 102.467 28.4468 102.664 28.712C102.861 28.9887 103.07 29.2655 103.279 29.5538C103.477 29.842 103.604 30.1534 103.767 30.4647C103.918 30.776 104.08 31.0874 104.243 31.4102C104.324 31.5832 104.382 31.687 104.487 31.9291L104.661 32.4019C104.882 33.0361 105.125 33.6588 105.346 34.3276C106.24 37.1411 106.751 40.0354 107.227 42.9988C107.703 45.9507 108.318 48.8796 109.421 51.624C110.524 54.3568 112.173 56.8936 114.286 59.096C114.797 59.6495 115.378 60.1684 115.912 60.7103C116.446 61.2638 117.038 61.7481 117.642 62.2324C118.246 62.7167 118.826 63.2241 119.442 63.6853C120.08 64.1235 120.707 64.5732 121.346 65.0114L122.286 65.6686L123.32 66.4181C123.61 66.6142 124.005 67.0177 124.342 67.3291C124.713 67.6519 124.98 68.0094 125.259 68.3669C126.385 69.7967 127.07 71.5379 127.326 73.2214C127.825 76.623 127.024 79.6672 126.222 82.3539C125.398 85.0636 124.4 87.4851 123.54 89.7221C122.693 91.9591 121.938 94.0001 121.427 95.8451C120.928 97.69 120.661 99.3389 120.684 100.711C120.707 102.083 120.986 103.133 121.23 103.836C121.543 104.516 121.717 104.874 121.717 104.874C121.717 104.874 121.485 104.551 121.067 103.905C120.719 103.236 120.22 102.199 120.011 100.757C119.79 99.3274 119.836 97.5516 120.162 95.5798C120.475 93.6081 121.021 91.4287 121.706 89.111C122.368 86.7933 123.157 84.3026 123.796 81.6966C124.423 79.1022 124.876 76.2886 124.4 73.7287C124.156 72.4488 123.633 71.2842 122.797 70.3041C122.008 69.347 120.951 68.6551 119.511 67.675C118.838 67.2138 118.164 66.7525 117.479 66.2913C116.818 65.807 116.179 65.265 115.517 64.7577C114.867 64.2503 114.205 63.7314 113.613 63.1318C113.009 62.5437 112.371 61.9903 111.802 61.3676C109.491 58.9 107.587 55.9365 106.379 52.8001C105.137 49.6637 104.684 46.412 104.289 43.437C103.895 40.462 103.57 37.5908 102.943 35.0886C102.768 34.4313 102.559 33.7741 102.385 33.1399L102.246 32.6556L102.083 32.2866C101.967 32.0099 101.851 31.7216 101.735 31.4448C101.619 31.1681 101.526 30.8683 101.387 30.6261C101.236 30.384 101.085 30.1303 100.934 29.8882C100.783 29.646 100.644 29.4039 100.493 29.1617C100.307 28.9542 100.121 28.7581 99.9469 28.5506C98.5072 26.9247 96.5565 26.0714 94.722 25.8062C92.8759 25.541 91.1807 25.714 89.8222 25.9561C88.4521 26.2098 87.3955 26.5327 86.6756 26.7748C85.979 27.017 85.6074 27.1899 85.6074 27.1899Z" fill="#FFDEBF"/>
<path d="M144.602 57.1934C124.48 46.043 138.413 19.1413 119.058 7.22989C99.7023 -4.68156 86.5471 5.30423 88.4861 27.9856C88.4861 27.9856 97.7749 19.9139 103.58 31.8254C109.386 43.7368 104.498 54.4836 125.641 65.265C139.957 72.5641 120.997 93.7118 128.741 102.937C128.741 102.937 134.883 103.675 141.653 103.11C142.918 99.904 144.288 95.28 144.997 89.0995C144.997 89.0995 146.111 95.7644 144.091 102.844C145.856 102.614 147.609 102.279 149.269 101.807C149.92 99.9501 150.489 97.9668 150.802 96.018C150.802 96.018 150.953 98.2896 150.628 101.38C154.285 100.112 157.304 98.0821 158.535 94.8649C162.784 83.7145 164.724 68.3323 144.602 57.1934Z" fill="#FFDEBF"/>
</g>
<defs>
<clipPath id="clip0_14_8975">
<rect width="175" height="198" fill="white"/>
</clipPath>
</defs>
</svg>
