<svg width="175" height="199" viewBox="0 0 175 199" fill="none" xmlns="http://www.w3.org/2000/svg">
<g clip-path="url(#clip0_18_6337)">
<path d="M135.076 70.7958C135.076 70.7958 127.516 79.9028 129.035 89.0099C131.211 102.113 111.272 119.37 90.8673 113.679C70.4631 107.987 92.375 69.6574 92.375 69.6574L135.076 70.7958Z" fill="#853F38"/>
<path d="M39.7207 70.7958C39.7207 70.7958 47.2816 79.9028 45.7626 89.0099C43.5862 102.113 63.5256 119.37 83.9298 113.679C104.334 107.987 82.4221 69.6574 82.4221 69.6574L39.7207 70.7958Z" fill="#853F38"/>
<path d="M91.5808 99.4602C100.978 99.5854 110.341 97.912 118.786 93.5634C123.253 91.2638 126.313 88.1105 128.966 84.5588C129.816 77.1593 135.076 70.7958 135.076 70.7958L92.3743 69.6574C92.3743 69.6574 83.0791 85.9135 82.2402 98.8341C85.3689 99.1983 88.4862 99.4146 91.5808 99.4602Z" fill="#A9534F"/>
<path d="M45.9326 87.4161C59.8642 94.8497 76.1195 99.2439 91.5814 99.4602C91.9214 99.4602 92.2502 99.4488 92.5902 99.4488C92.0121 86.4485 82.4221 69.6574 82.4221 69.6574L39.7207 70.7958C39.7207 70.7958 46.4201 78.8669 45.9326 87.4161Z" fill="#A9534F"/>
<path d="M110.228 132.28C100.616 127.009 103.234 101.555 103.234 101.555L88.8379 102.488V101.555L87.2962 102.022L85.7546 101.555V102.488L71.3583 101.555C71.3583 101.555 73.9768 127.009 64.3642 132.28C54.7515 137.55 -4.32996 140.18 1.77997 198.989H85.7546H88.8379H172.812C178.934 140.18 119.852 137.55 110.228 132.28Z" fill="#FFAD9D"/>
<path d="M69.3398 125.711C80.8455 123.992 92.3399 122.216 103.823 120.384C102.202 111.607 103.245 101.555 103.245 101.555L88.8485 102.488V101.555L87.3069 102.022L85.7652 101.555V102.488L71.3689 101.555C71.3576 101.555 72.8766 116.354 69.3398 125.711Z" fill="#E08880"/>
<path d="M129.782 136.81C121.371 144.472 108.947 149.777 94.766 151.143L87.1257 178.76L83.0789 151.37C67.7191 150.482 54.1843 144.984 45.2065 136.81C25.2444 143.231 -3.92231 157.165 0.430583 198.989H85.9242H89.0641H174.569C178.922 157.165 149.755 143.242 129.782 136.81Z" fill="#438584"/>
<path d="M84.1321 158.394L83.1006 151.37C67.7408 150.482 54.206 144.984 45.2281 136.81C41.8388 137.903 38.2454 139.224 34.6406 140.84C41.7027 150.505 60.9847 157.62 84.1321 158.394Z" fill="#5CA9A5"/>
<path d="M141.547 141.375C137.545 139.497 133.544 138.017 129.78 136.81C121.369 144.472 108.946 149.777 94.7646 151.143L92.7695 158.371C115.35 157.574 134.201 150.733 141.547 141.375Z" fill="#5CA9A5"/>
<path d="M85.4023 185.431C85.4023 187.195 86.8193 188.618 88.5763 188.618C90.3334 188.618 91.7503 187.195 91.7503 185.431C91.7503 183.666 90.3334 182.243 88.5763 182.243C86.8193 182.243 85.4023 183.666 85.4023 185.431Z" fill="#5CA9A5"/>
<path d="M59.1482 64.2956C56.3143 55.4732 49.6035 57.5109 48.9801 57.7272C48.3226 57.8069 41.3852 58.8428 42.5868 68.0295C43.7883 77.2845 49.1388 82.2934 54.1491 80.8249C59.2955 79.9939 61.9934 73.1636 59.1482 64.2956Z" fill="#E08880"/>
<path d="M115.714 64.2956C118.548 55.4732 125.258 57.5109 125.882 57.7272C126.539 57.8069 133.477 58.8428 132.275 68.0295C131.074 77.2845 125.723 82.2934 120.713 80.8249C115.555 79.9939 112.857 73.1636 115.714 64.2956Z" fill="#E08880"/>
<path d="M52.2674 50.9197C55.7814 12.2262 85.0728 14.3891 87.8274 14.6851C90.5933 14.3891 119.885 12.2262 123.387 50.9197C126.924 89.8409 109.66 115.261 87.8274 113.872C66.0062 115.261 48.742 89.8409 52.2674 50.9197Z" fill="#FFAD9D"/>
<path d="M51.0552 58.2736C51.0552 58.2736 49.1622 109.125 79.0203 114.817C108.867 120.509 127.39 95.4645 124.737 55.6212L120.962 55.2455C120.962 55.2455 118.502 95.4644 109.434 95.8515C100.365 96.2272 113.775 83.3293 96.3979 82.5666C79.0203 81.8039 70.4165 75.9868 68.9996 90.7288C68.0587 100.599 55.9636 83.705 54.4559 57.5223C52.9483 31.3282 51.0552 58.2736 51.0552 58.2736Z" fill="#A9534F"/>
<path d="M55.8838 69.2011C55.2036 65.5811 54.6935 61.665 54.4555 57.5213C52.9478 31.3386 51.0548 58.284 51.0548 58.284C51.0548 58.284 50.8507 63.8052 51.6442 71.4096C53.0612 70.6696 54.4782 69.9297 55.8838 69.2011Z" fill="#853F38"/>
<path d="M124.771 69.5322C125.066 65.1267 125.066 60.4821 124.737 55.6098L120.963 55.2341C120.963 55.2341 120.622 60.7439 119.738 67.6994C121.416 68.3027 123.094 68.9175 124.771 69.5322Z" fill="#853F38"/>
<path d="M92.8841 55.4618C93.3715 57.2377 93.7456 59.0249 94.0857 60.8236C94.4258 62.6108 94.7091 64.4095 94.9585 66.2195C95.0946 67.1188 95.1852 68.0295 95.2986 68.9288C95.412 69.8282 95.5026 70.7389 95.5933 71.6382C95.786 73.4482 95.9107 75.2582 96.0241 77.0796L96.0581 77.5691L95.7067 77.7854C94.5504 78.5026 93.3829 79.1856 92.204 79.8573C91.0137 80.5175 89.8235 81.1778 88.5879 81.7698C89.5854 80.8249 90.6283 79.9483 91.6712 79.0718C92.7254 78.2066 93.791 77.3642 94.8678 76.5332L94.5504 77.239C94.2557 75.4404 93.995 73.6417 93.7796 71.8317C93.6663 70.9324 93.5529 70.0217 93.4736 69.1224C93.3942 68.2117 93.2808 67.3123 93.2242 66.4016C93.0768 64.5916 92.9634 62.7702 92.8954 60.9488C92.8161 59.1274 92.7934 57.2946 92.8841 55.4618Z" fill="#E08880"/>
<path d="M115.465 52.5931C115.465 52.5931 115.159 52.4223 114.626 52.1264C114.365 51.9784 114.048 51.8076 113.697 51.6141C113.345 51.4206 112.948 51.2157 112.506 50.988C112.053 50.7945 111.611 50.5326 111.101 50.3391C110.851 50.2253 110.602 50.1228 110.353 50.009C110.092 49.9179 109.831 49.8155 109.559 49.7244C109.038 49.4967 108.471 49.4056 107.927 49.2121C107.36 49.1552 106.816 48.9389 106.249 48.9617L105.41 48.8934C105.138 48.9275 104.855 48.9389 104.583 48.9503C104.027 48.9275 103.506 49.1324 102.973 49.2007C102.44 49.2918 101.953 49.5422 101.454 49.6789L101.08 49.7927L100.74 49.9634C100.513 50.0659 100.286 50.1797 100.071 50.2822C99.6404 50.4985 99.2096 50.6465 98.8809 50.8742C98.5408 51.0904 98.2234 51.2498 97.9627 51.3978C97.4299 51.6824 97.0898 51.8304 97.0898 51.8304C97.0898 51.8304 97.2259 51.5116 97.5206 50.9652C97.668 50.692 97.8493 50.3619 98.0874 49.9976C98.3028 49.6105 98.6315 49.2463 99.0169 48.8592C99.4137 48.4836 99.7651 47.9827 100.321 47.6525C100.865 47.3224 101.397 46.8671 102.066 46.6166C102.395 46.48 102.746 46.3548 103.098 46.2409C103.449 46.093 103.812 46.0247 104.197 45.9791C104.571 45.9222 104.957 45.8653 105.354 45.8311C105.739 45.8311 106.124 45.8653 106.521 45.8881C107.303 45.8994 108.029 46.1613 108.766 46.3434C109.117 46.4686 109.446 46.6166 109.786 46.7646C110.126 46.9012 110.443 47.0606 110.727 47.2541C111.021 47.4362 111.316 47.607 111.588 47.7891C111.849 47.9941 112.098 48.1876 112.336 48.3925C112.835 48.7681 113.209 49.2235 113.583 49.5992C114.286 50.4074 114.773 51.1474 115.057 51.7052C115.352 52.2402 115.465 52.5931 115.465 52.5931Z" fill="#352836"/>
<path d="M78.9747 52.5931C78.9747 52.5931 78.6687 52.4223 78.1359 52.1264C77.8752 51.9784 77.5578 51.8076 77.2064 51.6141C76.855 51.4206 76.4582 51.2157 76.0161 50.988C75.5627 50.7945 75.1206 50.5326 74.6105 50.3391C74.3611 50.2253 74.1117 50.1228 73.8623 50.009C73.6016 49.9179 73.3409 49.8155 73.0688 49.7244C72.5474 49.4967 71.9806 49.4056 71.4365 49.2121C70.8697 49.1552 70.3256 48.9389 69.7588 48.9617L68.92 48.8934C68.6479 48.9275 68.3645 48.9389 68.0925 48.9503C67.537 48.9275 67.0156 49.1324 66.4828 49.2007C65.95 49.2918 65.4626 49.5422 64.9638 49.6789L64.5898 49.7927L64.2497 49.9634C64.023 50.0659 63.7963 50.1797 63.5809 50.2822C63.1501 50.4985 62.7194 50.6465 62.3906 50.8742C62.0506 51.0904 61.7332 51.2498 61.4725 51.3978C60.9397 51.6824 60.5996 51.8304 60.5996 51.8304C60.5996 51.8304 60.7356 51.5116 61.0304 50.9652C61.1777 50.692 61.3591 50.3619 61.5971 49.9976C61.8125 49.6105 62.1413 49.2463 62.5267 48.8592C62.9234 48.4836 63.2748 47.9827 63.8303 47.6525C64.3744 47.3224 64.9072 46.8671 65.576 46.6166C65.9047 46.48 66.2561 46.3548 66.6075 46.2409C66.9589 46.093 67.3217 46.0247 67.7071 45.9791C68.0812 45.9222 68.4666 45.8653 68.8633 45.8311C69.2487 45.8311 69.6341 45.8653 70.0309 45.8881C70.813 45.8994 71.5385 46.1613 72.2753 46.3434C72.6268 46.4686 72.9555 46.6166 73.2956 46.7646C73.6356 46.9012 73.953 47.0606 74.2364 47.2541C74.5311 47.4362 74.8259 47.607 75.0979 47.7891C75.3587 47.9941 75.608 48.1876 75.8461 48.3925C76.3449 48.7681 76.7189 49.2235 77.093 49.5992C77.7958 50.4074 78.2833 51.1474 78.5666 51.7052C78.8614 52.2402 78.9747 52.5931 78.9747 52.5931Z" fill="#352836"/>
<path d="M77.8185 66.6066C77.8185 66.6066 77.7391 66.2878 77.5578 65.7642C77.3764 65.2405 77.1043 64.5006 76.6736 63.6923C76.2315 62.8841 75.6194 62.0189 74.7692 61.3814C74.3498 61.0626 73.8623 60.8008 73.3409 60.6415C73.0802 60.5504 72.8195 60.4707 72.5361 60.4479C72.2527 60.4138 71.9806 60.3569 71.6859 60.3796C71.4138 60.391 71.0738 60.3569 70.8584 60.391C70.5637 60.4479 70.1896 60.4593 69.9629 60.5504C69.4981 60.6984 68.9767 60.8805 68.5799 61.2106C68.1605 61.5066 67.8318 61.9051 67.537 62.3035C67.2763 62.7247 67.0496 63.1573 66.8796 63.5785C66.5508 64.4322 66.3808 65.2063 66.2901 65.7414C66.1881 66.2878 66.1654 66.6066 66.1654 66.6066C66.1654 66.6066 66.0747 66.2992 66.0181 65.73C65.9614 65.1608 65.9274 64.3412 66.1314 63.3508C66.2334 62.8613 66.3921 62.3262 66.6642 61.7912C66.9476 61.2676 67.299 60.7098 67.8318 60.2886C68.3305 59.8332 68.954 59.4917 69.6795 59.2754C70.0422 59.1502 70.3143 59.1502 70.6317 59.0819C71.0398 59.0136 71.3458 59.0477 71.6972 59.025C72.0373 59.0022 72.3887 59.0819 72.7401 59.1388C73.0915 59.1729 73.4203 59.2868 73.749 59.412C74.0891 59.5031 74.3951 59.6852 74.6785 59.8674C74.9846 60.0267 75.234 60.2544 75.4947 60.4707C76.4922 61.3586 77.0363 62.4629 77.3537 63.3963C77.6711 64.3412 77.7618 65.1608 77.7958 65.73C77.8525 66.2878 77.8185 66.6066 77.8185 66.6066Z" fill="#352836"/>
<path d="M110.602 66.0829C110.602 66.0829 110.522 65.7641 110.341 65.2405C110.16 64.7168 109.888 63.9769 109.457 63.1686C109.015 62.3604 108.403 61.4952 107.552 60.8577C107.133 60.539 106.646 60.2772 106.124 60.1178C105.863 60.0267 105.603 59.947 105.319 59.9243C105.036 59.8901 104.764 59.8332 104.469 59.856C104.197 59.8673 103.857 59.8332 103.642 59.8673C103.347 59.9243 102.973 59.9356 102.746 60.0267C102.281 60.1747 101.76 60.3568 101.363 60.687C100.944 60.983 100.615 61.3814 100.32 61.7798C100.06 62.201 99.8328 62.6336 99.6628 63.0548C99.334 63.9086 99.164 64.6827 99.0733 65.2177C98.9713 65.7641 98.9486 66.0829 98.9486 66.0829C98.9486 66.0829 98.858 65.7755 98.8013 65.2063C98.7446 64.6371 98.7106 63.8175 98.9146 62.8271C99.0167 62.3376 99.1754 61.8026 99.4474 61.2675C99.7308 60.7439 100.082 60.1861 100.615 59.7649C101.114 59.3095 101.737 58.968 102.463 58.7517C102.825 58.6265 103.097 58.6265 103.415 58.5582C103.823 58.4899 104.129 58.5241 104.48 58.5013C104.821 58.4785 105.172 58.5582 105.523 58.6151C105.875 58.6493 106.203 58.7631 106.532 58.8883C106.872 58.9794 107.178 59.1615 107.462 59.3437C107.768 59.5031 108.017 59.7307 108.278 59.947C109.275 60.835 109.82 61.9392 110.137 62.8727C110.454 63.8175 110.545 64.6371 110.579 65.2063C110.636 65.7528 110.602 66.0829 110.602 66.0829Z" fill="#352836"/>
<path d="M102.768 88.7139C95.7962 95.5214 83.9845 95.1457 75.0293 89.0781L102.768 88.7139Z" fill="white"/>
<path d="M88.3607 20.3314C88.3607 20.3314 67.1971 16.5406 63.7964 29.8141C60.3957 43.099 65.304 60.926 49.8195 58.2736C49.8195 58.2736 38.5858 60.5504 45.7613 78.3888C45.7613 78.3888 24.4956 57.8979 36.9648 43.099C47.1329 31.0208 43.0067 4.76981 67.9452 0.603341C92.895 -3.57451 88.3607 15.3909 88.3607 20.3314Z" fill="#853F38"/>
<path d="M88.3607 20.3314C88.3607 20.3314 67.1971 16.5406 63.7964 29.8141C60.3957 43.099 65.304 60.926 49.8195 58.2736C49.8195 58.2736 38.5858 60.5504 45.7613 78.3888C45.7613 78.3888 24.4956 57.8979 36.9648 43.099C47.1329 31.0208 43.0067 4.76981 67.9452 0.603341C92.895 -3.57451 88.3607 15.3909 88.3607 20.3314Z" fill="#A9534F"/>
<path d="M86.4335 20.3314C86.4335 20.3314 107.597 16.5406 110.998 29.8141C114.399 43.099 109.49 60.926 124.975 58.2736C124.975 58.2736 136.208 60.5504 129.033 78.3888C129.033 78.3888 150.299 57.8979 137.829 43.099C127.661 31.0208 131.788 4.76981 106.849 0.603341C81.8993 -3.57451 86.4335 15.3909 86.4335 20.3314Z" fill="#A9534F"/>
<path d="M86.082 17.1895C87.567 17.1554 88.9613 17.2123 90.3896 17.3261C91.8065 17.44 93.2235 17.6107 94.6405 17.8498C97.463 18.3279 100.263 19.1248 102.927 20.3884C105.557 21.6633 108.13 23.4961 109.796 26.1486C110.624 27.4577 111.202 28.9376 111.508 30.4289C111.825 31.9315 111.916 33.309 112.007 34.7547C112.154 37.6006 112.075 40.4124 111.961 43.1787C111.859 45.945 111.712 48.6998 111.905 51.3978C112.007 52.7411 112.188 54.073 112.562 55.3138C112.936 56.5547 113.526 57.7044 114.421 58.581C115.317 59.4575 116.507 60.0267 117.788 60.3227C119.069 60.6301 120.429 60.6756 121.789 60.6187H121.835H121.846C122.708 60.7439 123.512 60.9829 124.306 61.2903C125.088 61.6091 125.836 62.0075 126.505 62.5425C127.162 63.0776 127.729 63.7378 128.069 64.5119C128.432 65.2746 128.534 66.1284 128.5 66.9481C128.477 66.1284 128.296 65.3088 127.899 64.603C127.514 63.8972 126.936 63.3166 126.278 62.8613C125.621 62.4173 124.884 62.0872 124.113 61.8481C123.354 61.6204 122.549 61.4611 121.789 61.4041H121.857C120.463 61.5521 119.035 61.5977 117.595 61.3586C116.167 61.1196 114.727 60.5617 113.571 59.56C112.415 58.5582 111.61 57.2149 111.123 55.8261C110.624 54.4373 110.363 53.0029 110.193 51.5913C109.864 48.7568 109.876 45.945 109.842 43.1673C109.808 40.3897 109.819 37.6462 109.581 34.9482C109.456 33.6277 109.297 32.2275 109.003 31.0208C108.708 29.8141 108.221 28.6758 107.54 27.674C106.169 25.6477 104.049 24.1336 101.714 23.0635C99.3674 21.9821 96.7829 21.3332 94.153 20.8892C92.8381 20.673 91.5118 20.5136 90.1742 20.4111C88.8479 20.3087 87.4763 20.2631 86.2067 20.2973L86.082 17.1895Z" fill="#A9534F"/>
</g>
<defs>
<clipPath id="clip0_18_6337">
<rect width="175" height="199" fill="white"/>
</clipPath>
</defs>
</svg>
