<svg width="175" height="199" viewBox="0 0 175 199" fill="none" xmlns="http://www.w3.org/2000/svg">
<g clip-path="url(#clip0_18_6263)">
<path d="M110.68 132.87C101.077 127.65 103.693 102.442 103.693 102.442L89.3114 103.367V102.442L87.7713 102.905L86.2312 102.442V103.367L71.8498 102.442C71.8498 102.442 74.4657 127.65 64.863 132.87C55.2603 138.089 -1.49525 140.693 4.60835 198.932H86.2312H89.3114H170.934C177.049 140.693 120.294 138.089 110.68 132.87Z" fill="#FFAD9D"/>
<path d="M69.834 126.376C81.3278 124.674 92.8102 122.915 104.281 121.1C102.662 112.408 103.704 102.454 103.704 102.454L89.3225 103.378V102.454L87.7824 102.916L86.2424 102.454V103.378L71.861 102.454C71.8496 102.442 73.3671 117.098 69.834 126.376Z" fill="#E08880"/>
<path d="M119.91 135.801C112.097 142.745 100.603 147.142 87.7728 147.142C74.9541 147.142 63.4603 142.745 55.6355 135.801C36.7358 140.863 -0.39535 151.257 4.60983 198.944H86.2327H89.3128H170.936C175.941 151.257 138.81 140.863 119.91 135.801Z" fill="#FF6A59"/>
<path d="M4.20134 189.034C4.13339 192.146 4.25796 195.426 4.62032 198.932H170.935C173.109 178.234 167.334 164.571 158.569 155.315C106.66 164.345 55.2836 176.126 4.20134 189.034Z" fill="#F1534F"/>
<path d="M53.0754 133.614L62.8932 199H0.237919C0.237919 199 -6.55644 143.388 53.0754 133.614Z" fill="#7F5E6A"/>
<path d="M53.0755 133.614L62.8934 199L36.4747 157.66L47.0399 143.377L33.4512 138.112C33.4512 138.123 42.5103 133.986 53.0755 133.614Z" fill="#987381"/>
<path d="M121.925 133.614L112.107 199H174.763C174.763 199 181.557 143.388 121.925 133.614Z" fill="#7F5E6A"/>
<path d="M121.925 133.614L112.107 199L138.526 157.66L127.961 143.388L141.55 138.123C141.55 138.123 132.491 133.986 121.925 133.614Z" fill="#987381"/>
<path d="M59.6543 65.5442C56.8233 56.8072 50.1196 58.8252 49.4968 59.0394C48.84 59.1183 41.9097 60.1442 43.1101 69.2419C44.3104 78.4073 49.6553 83.3676 54.6605 81.9133C59.8015 81.0904 62.4966 74.3375 59.6543 65.5442Z" fill="#E08880"/>
<path d="M116.16 65.5442C118.991 56.8072 125.695 58.8252 126.317 59.0394C126.974 59.1183 133.904 60.1442 132.704 69.2419C131.504 78.4073 126.159 83.3676 121.154 81.9133C116.001 81.0904 113.306 74.3375 116.16 65.5442Z" fill="#E08880"/>
<path d="M52.7806 52.2978C56.291 13.9792 85.552 16.1211 88.3037 16.4142C91.0668 16.1211 120.328 13.9792 123.827 52.2978C127.36 90.842 110.114 116.016 88.3037 114.64C66.5052 116.027 49.2588 90.8532 52.7806 52.2978Z" fill="#FFAD9D"/>
<path d="M93.3543 56.796C93.8412 58.5546 94.2149 60.3246 94.5546 62.1058C94.8943 63.8757 95.1774 65.6569 95.4265 67.4494C95.5624 68.34 95.653 69.2419 95.7663 70.1325C95.8795 71.0231 95.9701 71.925 96.0607 72.8156C96.2532 74.6081 96.3778 76.4006 96.491 78.2044L96.525 78.6891L96.1739 78.9033C95.0189 79.6135 93.8525 80.29 92.6748 80.9551C91.4858 81.609 90.2968 82.2628 89.0625 82.849C90.059 81.9133 91.1008 81.0453 92.1426 80.1772C93.1957 79.3204 94.2602 78.4862 95.336 77.6632L95.0189 78.3622C94.7245 76.581 94.464 74.7998 94.2489 73.0073C94.1356 72.1167 94.0224 71.2148 93.9431 70.3242C93.8638 69.4223 93.7506 68.5317 93.694 67.6298C93.5468 65.8373 93.4335 64.0336 93.3656 62.2298C93.2976 60.426 93.275 58.611 93.3543 56.796Z" fill="#B26651"/>
<path d="M103.23 89.7258C96.2653 96.4674 85.417 96.0277 76.4824 90.0189L103.23 89.7258Z" fill="white"/>
<path d="M115.913 53.9551C115.913 53.9551 114.565 53.4478 112.527 52.6925C112.04 52.5459 111.553 52.3204 111.021 52.1739C110.749 52.095 110.5 51.9935 110.228 51.9033C109.945 51.8357 109.685 51.7567 109.401 51.6778C108.858 51.4975 108.292 51.4298 107.737 51.272C107.182 51.2382 106.627 51.0352 106.084 51.0691L105.268 51.0014C104.996 51.0352 104.725 51.0352 104.464 51.0352C103.921 51.0014 103.4 51.1593 102.856 51.1931C102.584 51.1931 102.324 51.2833 102.075 51.3509C101.814 51.4185 101.554 51.4862 101.294 51.5313C100.761 51.5989 100.308 51.8582 99.8214 51.9935C99.3571 52.1513 98.8702 52.2528 98.4965 52.4444C98.1115 52.6135 97.7378 52.7375 97.4434 52.8503C96.8319 53.0757 96.4355 53.1772 96.4355 53.1772C96.4355 53.1772 96.5375 52.8052 96.8206 52.1964C96.9678 51.892 97.1376 51.52 97.3641 51.1029C97.5679 50.6632 97.9303 50.2799 98.3153 49.829C98.723 49.4119 99.108 48.8707 99.7082 48.51C100.286 48.138 100.875 47.6419 101.611 47.3714C101.973 47.2135 102.347 47.0895 102.732 46.9542C103.105 46.7964 103.524 46.7288 103.932 46.6724C104.351 46.616 104.77 46.5484 105.189 46.5033C105.608 46.5033 106.038 46.5258 106.457 46.5484C107.318 46.5709 108.111 46.8302 108.903 47.0332C109.288 47.1572 109.651 47.3263 110.013 47.4841C110.375 47.6306 110.726 47.7998 111.032 48.0027C111.349 48.2056 111.666 48.386 111.961 48.5889C112.244 48.8031 112.516 49.0173 112.765 49.2428C113.286 49.6599 113.693 50.1446 114.078 50.573C114.803 51.4749 115.29 52.2979 115.55 52.9292C115.833 53.5605 115.913 53.9551 115.913 53.9551Z" fill="#352836"/>
<path d="M83.0272 53.211C83.0272 53.211 81.6004 52.8051 79.4602 52.1851C78.9506 52.0611 78.4297 51.8807 77.8635 51.768C77.3087 51.6101 76.7311 51.4974 76.1536 51.3847C75.5761 51.2494 74.9759 51.2156 74.3984 51.1028C73.8096 51.1028 73.2207 50.945 72.6432 51.0126L71.7826 51.0014C71.4995 51.0465 71.2164 51.069 70.9333 51.0916C70.3558 51.0916 69.8235 51.2945 69.2687 51.3621C68.9856 51.3847 68.7251 51.4861 68.4534 51.5763C68.1816 51.6552 67.9211 51.7454 67.6607 51.8131C67.1058 51.9145 66.6528 52.2076 66.1659 52.3655C65.6903 52.5571 65.2034 52.6924 64.8297 52.9066C64.4447 53.0982 64.071 53.2561 63.7652 53.3913C63.1538 53.6619 62.7461 53.7859 62.7461 53.7859C62.7461 53.7859 62.848 53.4026 63.1085 52.7713C63.2443 52.4556 63.4029 52.0611 63.6294 51.6327C63.8219 51.1817 64.1842 50.7759 64.5579 50.2911C64.9543 49.8402 65.3393 49.2765 65.9281 48.8707C66.1999 48.6452 66.5056 48.4423 66.8114 48.2168C67.1058 47.9801 67.4455 47.7771 67.8079 47.6193C68.5326 47.3037 69.2913 46.8978 70.1406 46.7738C70.5596 46.6836 70.9786 46.5934 71.4089 46.5258C71.8392 46.5032 72.2695 46.492 72.6998 46.492C73.5718 46.4581 74.3984 46.6498 75.2251 46.7963C75.6327 46.8865 76.0064 47.0331 76.3914 47.1571C76.7764 47.2811 77.1388 47.4164 77.4785 47.608C78.1693 47.935 78.8034 48.307 79.3583 48.7128C79.9358 49.0961 80.4001 49.5471 80.8304 49.9417C81.657 50.7872 82.2346 51.5876 82.563 52.1964C82.9027 52.8164 83.0272 53.211 83.0272 53.211Z" fill="#352836"/>
<path d="M78.3043 67.844C78.3043 67.844 78.225 67.5284 78.0438 67.0098C77.8626 66.4912 77.5909 65.7584 77.1606 64.958C76.7189 64.1576 76.1074 63.3008 75.2581 62.6695C74.8392 62.3538 74.3522 62.0945 73.8313 61.9367C73.5709 61.8465 73.3104 61.7676 73.0273 61.745C72.7442 61.7112 72.4725 61.6549 72.178 61.6774C71.9063 61.6887 71.5665 61.6549 71.3514 61.6887C71.057 61.745 70.6833 61.7563 70.4568 61.8465C69.9925 61.9931 69.4716 62.1734 69.0753 62.5004C68.6563 62.7935 68.3279 63.1881 68.0335 63.5826C67.773 63.9997 67.5465 64.4281 67.3767 64.8453C67.0483 65.6908 66.8784 66.4574 66.7878 66.9872C66.6859 67.5284 66.6633 67.844 66.6633 67.844C66.6633 67.844 66.5727 67.5396 66.5161 66.976C66.4595 66.4123 66.4255 65.6006 66.6293 64.6198C66.7312 64.135 66.8898 63.6052 67.1615 63.0753C67.4446 62.5567 67.7957 62.0043 68.3279 61.5872C68.8262 61.1363 69.449 60.7981 70.1737 60.5839C70.5361 60.4599 70.8078 60.4599 71.1249 60.3922C71.5326 60.3246 71.8383 60.3584 72.1894 60.3359C72.5291 60.3133 72.8801 60.3922 73.2312 60.4486C73.5822 60.4824 73.9106 60.5951 74.239 60.7192C74.5787 60.8093 74.8845 60.9897 75.1676 61.1701C75.4733 61.3279 75.7224 61.5534 75.9829 61.7676C76.9794 62.6469 77.5229 63.7405 77.84 64.6649C78.1571 65.6006 78.2477 66.4123 78.2816 66.976C78.3383 67.5171 78.3043 67.844 78.3043 67.844Z" fill="#352836"/>
<path d="M111.054 67.3142C111.054 67.3142 110.975 66.9985 110.794 66.4799C110.613 65.9613 110.341 65.2286 109.911 64.4281C109.469 63.6277 108.857 62.7709 108.008 62.1396C107.589 61.824 107.102 61.5647 106.581 61.4069C106.321 61.3167 106.06 61.2377 105.777 61.2152C105.494 61.1814 105.222 61.125 104.928 61.1476C104.656 61.1588 104.317 61.125 104.101 61.1588C103.807 61.2152 103.433 61.2265 103.207 61.3167C102.743 61.4632 102.222 61.6436 101.825 61.9705C101.406 62.2636 101.078 62.6582 100.783 63.0528C100.523 63.4699 100.297 63.8983 100.127 64.3154C99.7983 65.1609 99.6284 65.9275 99.5378 66.4574C99.4359 66.9985 99.4133 67.3142 99.4133 67.3142C99.4133 67.3142 99.3227 67.0098 99.2661 66.4461C99.2095 65.8824 99.1755 65.0707 99.3793 64.0899C99.4812 63.6052 99.6398 63.0753 99.9115 62.5455C100.195 62.0269 100.546 61.4745 101.078 61.0574C101.576 60.6064 102.199 60.2682 102.924 60.054C103.286 59.93 103.558 59.93 103.875 59.8624C104.283 59.7947 104.588 59.8286 104.939 59.806C105.279 59.7835 105.63 59.8624 105.981 59.9187C106.332 59.9526 106.661 60.0653 106.989 60.1893C107.329 60.2795 107.634 60.4599 107.918 60.6403C108.223 60.7981 108.472 61.0235 108.733 61.2377C109.729 62.1171 110.273 63.2106 110.59 64.135C110.907 65.0707 110.998 65.8824 111.032 66.4461C111.088 66.9985 111.054 67.3142 111.054 67.3142Z" fill="#352836"/>
<path d="M65.9169 27.2707C65.9169 27.2707 80.638 46.0636 101.78 42.6816L96.8765 35.9175C96.8765 35.9175 109.707 41.9263 131.222 36.2895C131.222 36.2895 132.728 12.9872 96.1178 7.73371C96.1178 7.73371 113.477 9.23308 125.56 16.3805C125.56 16.3805 90.0822 -20.4501 61.0136 16.3805C61.0136 16.3805 44.4014 16.7525 43.654 35.1734C42.8953 53.5831 47.4249 60.3472 47.4249 60.3472C47.4249 60.3472 51.1958 57.3372 52.3282 63.7292C53.4606 70.1213 52.3282 79.8842 56.4841 88.903L63.2784 84.0215C63.2784 84.0215 54.593 63.7292 56.4841 46.819C56.4727 46.8077 67.423 44.553 65.9169 27.2707Z" fill="#352836"/>
<path d="M125.933 32.9074C125.933 32.9074 130.837 74.2474 119.139 90.7743L114.609 85.1376C114.609 85.1376 127.439 62.5906 117.633 35.5341L125.933 32.9074Z" fill="#352836"/>
</g>
<defs>
<clipPath id="clip0_18_6263">
<rect width="175" height="199" fill="white"/>
</clipPath>
</defs>
</svg>
