<svg width="175" height="211" viewBox="0 0 175 211" fill="none" xmlns="http://www.w3.org/2000/svg">
<g clip-path="url(#clip0_20_6389)">
<path d="M111.472 141.653C101.423 136.174 104.16 109.713 104.16 109.713L89.111 110.683V109.713L87.4994 110.198L85.8878 109.713V110.683L70.8383 109.713C70.8383 109.713 73.5757 136.174 63.5269 141.653C53.4782 147.132 -5.91375 149.866 0.473374 211H85.8878H89.111H174.525C180.924 149.866 121.532 147.12 111.472 141.653Z" fill="#FFAD9D"/>
<path d="M68.7285 134.825C80.7562 133.038 92.7721 131.192 104.776 129.286C103.082 120.162 104.172 109.713 104.172 109.713L89.1223 110.683V109.713L87.5107 110.198L85.8991 109.713V110.683L70.8497 109.713C70.8378 109.713 72.4257 125.085 68.7285 134.825Z" fill="#E08880"/>
<path d="M121.01 144.694C112.087 149.901 100.202 153.073 87.143 153.073C74.2029 153.073 62.4003 149.948 53.501 144.824C33.605 150.173 -4.7296 161.262 0.484376 211H85.8988H89.122H174.536C179.774 160.848 140.74 149.996 121.01 144.694Z" fill="#60A9D0"/>
<path d="M161.998 165.676C154 169.51 145.171 170.812 136.414 173.522C124.031 177.368 111.612 181.06 99.1462 184.634C74.1665 191.782 49.0565 198.503 23.9701 205.237C16.8128 207.154 9.65541 209.083 2.49805 211.012H174.524C176.763 189.616 170.933 175.392 161.998 165.676Z" fill="#5996BF"/>
<path d="M46.4985 146.801C25.844 153.025 -4.16004 166.623 0.485144 211H71.4071L46.4985 146.801Z" fill="#FFA755"/>
<path d="M128.002 146.647L116.686 211H174.513C179.206 166.256 148.669 152.8 128.002 146.647Z" fill="#FFA755"/>
<path d="M65.1612 211H71.3942L46.4857 146.801C41.1769 148.398 35.2401 150.493 29.4336 153.475L65.1612 211Z" fill="#EC894B"/>
<path d="M128.002 146.647L116.686 211H121.888L151.714 157.049C143.917 151.948 135.337 148.836 128.002 146.647Z" fill="#EC894B"/>
<path d="M58.0758 70.9684C55.1133 61.7971 48.0981 63.9154 47.4464 64.1402C46.7591 64.2231 39.5069 65.2999 40.763 74.85C42.0191 84.471 47.6123 89.678 52.85 88.1514C58.2298 87.2993 61.0501 80.1989 58.0758 70.9684Z" fill="#E08880"/>
<path d="M117.208 70.9684C120.17 61.7971 127.186 63.9154 127.837 64.1402C128.525 64.2231 135.777 65.2999 134.521 74.85C133.265 84.471 127.671 89.678 122.434 88.1514C117.042 87.2993 114.222 80.1989 117.208 70.9684Z" fill="#E08880"/>
<path d="M50.8819 57.0753C54.5554 16.8516 85.1757 19.1001 88.0552 19.4077C90.9466 19.1001 121.567 16.8516 125.229 57.0753C128.926 97.5357 110.878 123.961 88.0552 122.517C65.2441 123.961 47.1966 97.5357 50.8819 57.0753Z" fill="#FFAD9D"/>
<path d="M93.3421 75.9979C94.3257 77.8558 94.9655 79.7966 95.4988 81.761C95.7476 82.7432 95.9965 83.7255 96.1624 84.7314C96.3638 85.7254 96.506 86.7313 96.6127 87.7372L96.6601 88.2106L96.3994 88.4472C95.5817 89.1928 94.7286 89.9265 93.8754 90.6483C92.9985 91.3466 92.1334 92.0566 91.1973 92.6956C91.8016 91.7371 92.4771 90.8495 93.1525 89.9501C93.8398 89.0626 94.539 88.1987 95.2618 87.3467L95.0604 88.0567C94.7523 87.0863 94.4797 86.1041 94.2664 85.1219C94.0176 84.1397 93.8517 83.1338 93.6858 82.1397C93.3895 80.1279 93.1881 78.0925 93.3421 75.9979Z" fill="#E08880"/>
<path d="M103.676 99.9144C96.3888 106.991 84.0411 106.601 74.6797 100.293L103.676 99.9144Z" fill="white"/>
<path d="M116.947 62.3533C115.229 61.3947 113.641 60.5308 112.041 59.8445C110.453 59.1581 108.877 58.6847 107.325 58.5546C105.772 58.4126 104.22 58.5782 102.656 59.1936C101.838 59.3948 101.092 59.8681 100.25 60.2113C99.4327 60.6137 98.6861 61.1462 97.75 61.5486C98.1529 60.6729 98.6506 59.7971 99.2549 59.0043C99.9541 58.3061 100.582 57.4658 101.506 56.957C101.957 56.6848 102.371 56.3416 102.869 56.1641C103.367 55.9629 103.876 55.7854 104.386 55.6079C105.441 55.3949 106.531 55.2292 107.609 55.3594C109.766 55.5487 111.757 56.46 113.345 57.6907C114.897 58.9688 116.212 60.5072 116.947 62.3533Z" fill="#352836"/>
<path d="M78.8024 62.3533C77.0841 61.3947 75.4963 60.5308 73.8965 59.8445C72.3086 59.1581 70.7326 58.6847 69.1802 58.5546C67.6279 58.4126 66.0755 58.5782 64.5113 59.1936C63.6937 59.3948 62.9472 59.8681 62.1058 60.2113C61.2882 60.6137 60.5416 61.1462 59.6055 61.5486C60.0084 60.6729 60.5061 59.7971 61.1104 59.0043C61.8096 58.3061 62.4376 57.4658 63.3619 56.957C63.8122 56.6848 64.2269 56.3416 64.7246 56.1641C65.2223 55.9629 65.7319 55.7854 66.2414 55.6079C67.2961 55.3949 68.3863 55.2292 69.4646 55.3594C71.6213 55.5487 73.6121 56.46 75.2 57.6907C76.7642 58.9688 78.0677 60.5072 78.8024 62.3533Z" fill="#352836"/>
<path d="M77.5943 76.9328C77.0966 75.2287 76.4211 73.5956 75.3428 72.3648C74.2763 71.1341 72.8069 70.4241 71.2071 70.4596C70.4013 70.4122 69.6192 70.5542 68.8964 70.8028C68.1854 71.0868 67.581 71.5601 67.0834 72.1755C66.0998 73.4417 65.6495 75.1695 65.4362 76.9328C65.0689 75.1932 65.1755 73.2524 66.1709 71.5601C66.6686 70.7081 67.4507 70.0217 68.3631 69.572C69.2874 69.1815 70.2828 69.0158 71.2427 69.0395C73.1861 69.004 75.2006 70.069 76.2197 71.6903C77.2862 73.2761 77.6772 75.1577 77.5943 76.9328Z" fill="#352836"/>
<path d="M111.864 76.3766C111.366 74.6725 110.691 73.0394 109.612 71.8086C108.546 70.5779 107.076 69.8679 105.477 69.9034C104.671 69.856 103.889 69.998 103.166 70.2466C102.455 70.5306 101.851 71.0039 101.353 71.6193C100.369 72.8855 99.919 74.6133 99.7057 76.3766C99.3384 74.637 99.445 72.6962 100.44 71.0039C100.938 70.1519 101.72 69.4655 102.633 69.0158C103.557 68.6253 104.552 68.4596 105.512 68.4833C107.456 68.4478 109.47 69.5128 110.489 71.1341C111.568 72.7317 111.947 74.6015 111.864 76.3766Z" fill="#352836"/>
<path d="M49.4956 30.0542C49.4956 30.0542 41.2586 35.3433 47.1422 53.5613L50.6723 74.1301L53.6141 74.7178C53.6141 74.7178 52.4373 43.5708 62.4394 36.5187C72.4414 29.4665 49.4956 30.0542 49.4956 30.0542Z" fill="#5F3433"/>
<path d="M112.45 32.9926C112.45 32.9926 73.0301 55.912 51.8493 37.694C30.6686 19.476 53.026 10.0732 61.8513 11.2485C61.8513 11.2485 58.9096 1.25798 70.6767 0.0826214C82.4437 -1.09273 80.0903 10.6608 97.7409 10.6608C115.392 10.6608 124.217 11.8362 122.452 26.5281C122.452 26.5281 131.277 21.239 134.219 31.2296C137.161 41.2201 125.982 74.1301 125.982 74.1301L124.805 79.4192H121.863V51.2106C121.863 51.2106 110.685 54.7367 112.45 32.9926Z" fill="#75403E"/>
</g>
<defs>
<clipPath id="clip0_20_6389">
<rect width="175" height="211" fill="white"/>
</clipPath>
</defs>
</svg>
