<svg width="175" height="211" viewBox="0 0 175 211" fill="none" xmlns="http://www.w3.org/2000/svg">
<g clip-path="url(#clip0_14_9179)">
<path d="M111.893 142.124C101.915 136.682 104.633 110.401 104.633 110.401L89.6889 111.365V110.401L88.0886 110.883L86.4883 110.401V111.365L71.5441 110.401C71.5441 110.401 74.2623 136.682 64.2838 142.124C54.3053 147.566 -4.67126 150.281 1.67119 211H86.4883H89.6889H174.506C180.849 150.281 121.872 147.554 111.893 142.124Z" fill="#FFAD9D"/>
<path d="M69.4375 135.342C81.3811 133.568 93.3129 131.734 105.233 129.842C103.55 120.78 104.633 110.401 104.633 110.401L89.6886 111.365V110.401L88.0883 110.883L86.488 110.401V111.365L71.5438 110.401C71.5438 110.389 73.1088 125.669 69.4375 135.342Z" fill="#E08880"/>
<path d="M114.999 141.654C110.022 138.939 108.174 131.064 107.598 123.812C103.209 125.469 94.4422 126.433 88.8058 126.433C82.0515 126.433 73.4968 125.046 68.6605 122.731C68.1663 130.265 66.413 138.798 61.1767 141.642C51.1276 147.119 -5.89567 149.858 0.505623 210.988H85.8993H89.1235H174.517C180.895 149.87 125.048 147.131 114.999 141.654Z" fill="#EC894B"/>
<path d="M88.0056 155.817C101.726 155.817 114.034 151.257 122.436 144.052C119.377 143.182 116.953 142.453 115.493 141.654C110.516 138.939 108.669 131.064 108.092 123.812C103.703 125.469 94.9364 126.433 89.3 126.433C82.5457 126.433 73.991 125.046 69.1547 122.731C68.6605 130.265 66.9072 138.798 61.6709 141.642C60.0823 142.512 57.3288 143.3 53.834 144.275C62.2357 151.362 74.4264 155.817 88.0056 155.817Z" fill="#FFA755"/>
<path d="M24.3809 203.76L34.0887 194.604L43.2553 203.76" stroke="#7F5E6A" stroke-width="1.8333" stroke-miterlimit="10"/>
<path d="M133.58 203.395L144.653 194.604L153.819 203.76" stroke="#7F5E6A" stroke-width="1.8333" stroke-miterlimit="10"/>
<path d="M115.328 203.454L125.766 194.604L134.944 203.76" stroke="#7F5E6A" stroke-width="1.8333" stroke-miterlimit="10"/>
<path d="M97.7246 203.76L107.432 194.604L116.599 203.76" stroke="#7F5E6A" stroke-width="1.8333" stroke-miterlimit="10"/>
<path d="M78.4629 203.572L89.1003 194.604L99.02 203.513" stroke="#7F5E6A" stroke-width="1.8333" stroke-miterlimit="10"/>
<path d="M61.0469 203.76L70.7547 194.604L79.933 203.76" stroke="#7F5E6A" stroke-width="1.8333" stroke-miterlimit="10"/>
<path d="M41.9492 203.572L52.4219 194.604L62.2121 203.395" stroke="#7F5E6A" stroke-width="1.8333" stroke-miterlimit="10"/>
<path d="M24.3809 194.757L34.0887 185.589L43.2553 194.757" stroke="#7F5E6A" stroke-miterlimit="10"/>
<path d="M133.58 194.392L144.653 185.589L153.819 194.757" stroke="#7F5E6A" stroke-miterlimit="10"/>
<path d="M115.328 194.451L125.766 185.589L134.944 194.757" stroke="#7F5E6A" stroke-miterlimit="10"/>
<path d="M97.7246 194.757L107.432 185.589L116.599 194.757" stroke="#7F5E6A" stroke-miterlimit="10"/>
<path d="M78.4629 194.557L89.1003 185.589L99.02 194.498" stroke="#7F5E6A" stroke-miterlimit="10"/>
<path d="M61.0469 194.757L70.7547 185.589L79.933 194.757" stroke="#7F5E6A" stroke-miterlimit="10"/>
<path d="M41.9492 194.557L52.4219 185.589L62.2121 194.392" stroke="#7F5E6A" stroke-miterlimit="10"/>
<path d="M27.3227 189.021C27.3227 176.562 25.8165 165.149 23.3219 156.311C9.20137 165.467 -2.58925 181.381 0.505494 211H25.6517C26.7225 204.348 27.3227 196.896 27.3227 189.021Z" fill="#FFA755"/>
<path d="M151.49 155.829C148.913 164.738 147.348 176.327 147.348 189.021C147.348 196.896 147.948 204.348 149.019 211H174.494C177.648 180.84 165.657 164.903 151.49 155.829Z" fill="#FFA755"/>
<path d="M58.858 71.9201C55.9162 62.8111 48.9501 64.9149 48.3029 65.1383C47.6204 65.2205 40.419 66.2901 41.6663 75.7752C42.9136 85.3309 48.4677 90.5025 53.6687 88.9862C59.0227 88.14 61.8115 81.0879 58.858 71.9201Z" fill="#E08880"/>
<path d="M117.575 71.9201C120.517 62.8111 127.483 64.9149 128.13 65.1383C128.813 65.2205 136.014 66.2901 134.767 75.7752C133.52 85.3309 127.965 90.5025 122.764 88.9862C117.422 88.14 114.622 81.0879 117.575 71.9201Z" fill="#E08880"/>
<path d="M51.7271 58.1096C55.3749 18.1593 85.781 20.3925 88.6404 20.698C91.5116 20.3925 121.918 18.1593 125.554 58.1096C129.225 98.2951 111.304 124.541 88.6404 123.107C65.9771 124.553 48.0558 98.3068 51.7271 58.1096Z" fill="#FFAD9D"/>
<path d="M50.2671 30.0539C50.2671 30.0539 42.0301 35.343 47.9136 53.561L51.4438 74.1297L54.3855 74.7174C54.3855 74.7174 53.2088 43.5705 63.2108 36.5183C73.2129 29.4662 50.2671 30.0539 50.2671 30.0539Z" fill="#F1534F"/>
<path d="M113.221 32.9922C113.221 32.9922 73.8016 55.9117 52.6208 37.6937C31.4401 19.4756 53.7975 10.0728 62.6228 11.2481C62.6228 11.2481 59.6811 1.25761 71.4481 0.0822552C83.2152 -1.0931 80.8618 10.6605 98.5124 10.6605C116.163 10.6605 124.988 11.8358 123.223 26.5278C123.223 26.5278 132.049 21.2387 134.99 31.2292C137.932 41.2197 126.753 74.1297 126.753 74.1297L125.577 79.4188H122.635V51.2103C122.635 51.2103 111.456 54.7363 113.221 32.9922Z" fill="#FF6A59"/>
<path d="M134.991 31.2292C132.049 21.2387 123.224 26.5278 123.224 26.5278C124.236 18.0652 121.741 14.0925 116.069 12.2472C114.893 20.7098 112.163 28.8902 107.268 36.0482C110.962 34.3086 113.222 33.004 113.222 33.004C111.457 54.7481 122.635 51.222 122.635 51.222V79.4306H125.577L126.754 74.1415C126.754 74.1297 137.933 41.2197 134.991 31.2292Z" fill="#F1534F"/>
<path d="M93.8894 62.7993C94.3954 64.6329 94.7837 66.4782 95.1367 68.3352C95.4897 70.1806 95.7839 72.0376 96.0428 73.9064C96.184 74.835 96.2781 75.7753 96.3958 76.7038C96.5135 77.6323 96.6076 78.5726 96.7017 79.5011C96.9018 81.3699 97.0312 83.2388 97.1489 85.1193L97.1842 85.6247L96.8194 85.8481C95.6192 86.5885 94.4072 87.2937 93.1834 87.9872C91.9478 88.6689 90.7123 89.3506 89.4297 89.9618C90.4652 88.9863 91.5478 88.0812 92.6303 87.1762C93.7247 86.2829 94.8308 85.4132 95.9487 84.5552L95.6192 85.2839C95.3132 83.4268 95.0426 81.5698 94.819 79.7009C94.7013 78.7724 94.5837 77.8321 94.5013 76.9036C94.4189 75.9633 94.3013 75.0348 94.2424 74.0945C94.0894 72.2257 93.9718 70.3451 93.9012 68.4645C93.8188 66.584 93.7953 64.7034 93.8894 62.7993Z" fill="#E08880"/>
<path d="M104.15 97.1315C96.9128 104.16 84.6515 103.772 75.3555 97.5076L104.15 97.1315Z" fill="white"/>
<path d="M117.317 59.8374C117.317 59.8374 116.999 59.6611 116.446 59.3555C116.175 59.2027 115.846 59.0264 115.481 58.8266C115.116 58.6268 114.704 58.4152 114.245 58.1801C113.775 57.9803 113.316 57.71 112.786 57.5102C112.527 57.3926 112.269 57.2869 112.01 57.1693C111.739 57.0753 111.468 56.9695 111.186 56.8755C110.645 56.6404 110.056 56.5464 109.492 56.3466C108.903 56.2878 108.338 56.0645 107.75 56.088L106.879 56.0175C106.597 56.0527 106.303 56.0645 106.02 56.0762C105.444 56.0527 104.902 56.2643 104.349 56.3348C103.796 56.4289 103.29 56.6874 102.773 56.8285L102.384 56.946L102.031 57.1223C101.796 57.2281 101.561 57.3456 101.337 57.4514C100.89 57.6747 100.443 57.8275 100.101 58.0626C99.7484 58.2859 99.4189 58.4505 99.1483 58.6033C98.5952 58.8971 98.2422 59.0499 98.2422 59.0499C98.2422 59.0499 98.3834 58.7208 98.6893 58.1566C98.8423 57.8745 99.0306 57.5337 99.2777 57.1576C99.5013 56.758 99.8425 56.3818 100.243 55.9822C100.654 55.5944 101.019 55.0772 101.596 54.7363C102.161 54.3955 102.714 53.9253 103.408 53.6668C103.749 53.5257 104.114 53.3964 104.479 53.2789C104.844 53.1261 105.22 53.0556 105.62 53.0086C106.008 52.9498 106.409 52.891 106.82 52.8558C107.22 52.8558 107.621 52.891 108.032 52.9145C108.844 52.9263 109.597 53.1966 110.362 53.3847C110.727 53.514 111.068 53.6668 111.421 53.8196C111.774 53.9606 112.104 54.1252 112.398 54.325C112.704 54.513 113.01 54.6893 113.292 54.8774C113.563 55.0889 113.822 55.2888 114.069 55.5003C114.587 55.8882 114.975 56.3583 115.363 56.7462C116.093 57.5807 116.599 58.3447 116.893 58.9206C117.211 59.4848 117.317 59.8374 117.317 59.8374Z" fill="#352836"/>
<path d="M79.4397 59.8374C79.4397 59.8374 79.122 59.6611 78.5689 59.3555C78.2983 59.2027 77.9688 59.0264 77.604 58.8266C77.2392 58.6268 76.8274 58.4152 76.3685 58.1801C75.8978 57.9803 75.4389 57.71 74.9093 57.5102C74.6505 57.3926 74.3916 57.2869 74.1327 57.1693C73.8621 57.0753 73.5914 56.9695 73.309 56.8755C72.7677 56.6404 72.1794 56.5464 71.6146 56.3466C71.0262 56.2878 70.4614 56.0645 69.873 56.088L69.0023 56.0175C68.7199 56.0527 68.4257 56.0645 68.1433 56.0762C67.5667 56.0527 67.0254 56.2643 66.4724 56.3348C65.9193 56.4289 65.4133 56.6874 64.8956 56.8285L64.5072 56.946L64.1542 57.1223C63.9189 57.2281 63.6836 57.3456 63.46 57.4514C63.0128 57.6747 62.5657 57.8275 62.2244 58.0626C61.8714 58.2859 61.5419 58.4505 61.2713 58.6033C60.7182 58.8971 60.3652 59.0499 60.3652 59.0499C60.3652 59.0499 60.5064 58.7208 60.8124 58.1566C60.9654 57.8745 61.1536 57.5337 61.4007 57.1576C61.6243 56.758 61.9656 56.3818 62.3656 55.9822C62.7775 55.5944 63.1423 55.0772 63.7189 54.7363C64.2837 54.3955 64.8367 53.9253 65.531 53.6668C65.8722 53.5257 66.237 53.3964 66.6018 53.2789C66.9666 53.1261 67.3431 53.0556 67.7432 53.0086C68.1315 52.9498 68.5316 52.891 68.9434 52.8558C69.3435 52.8558 69.7436 52.891 70.1554 52.9145C70.9674 52.9263 71.7205 53.1966 72.4853 53.3847C72.8501 53.514 73.1913 53.6668 73.5444 53.8196C73.8974 53.9606 74.2269 54.1252 74.521 54.325C74.827 54.513 75.1329 54.6893 75.4153 54.8774C75.686 55.0889 75.9448 55.2888 76.192 55.5003C76.7097 55.8882 77.098 56.3583 77.4863 56.7462C78.2159 57.5807 78.7219 58.3447 79.0161 58.9206C79.3338 59.4848 79.4397 59.8374 79.4397 59.8374Z" fill="#352836"/>
<path d="M48.6211 64.0569L58.8585 71.9201L84.5695 72.7311C84.5695 72.7311 91.1944 63.4458 96.7131 72.7311H123.213L131.179 65.2793" stroke="#7F5E6A" stroke-width="1.4341" stroke-miterlimit="10"/>
<path d="M71.32 85.9538C78.6377 85.9538 84.5698 80.0285 84.5698 72.7193C84.5698 65.4101 78.6377 59.4848 71.32 59.4848C64.0024 59.4848 58.0703 65.4101 58.0703 72.7193C58.0703 80.0285 64.0024 85.9538 71.32 85.9538Z" fill="#9CC7DC" stroke="#7F5E6A" stroke-width="1.4341" stroke-miterlimit="10"/>
<path d="M109.974 85.9538C117.292 85.9538 123.224 80.0285 123.224 72.7193C123.224 65.4101 117.292 59.4848 109.974 59.4848C102.657 59.4848 96.7246 65.4101 96.7246 72.7193C96.7246 80.0285 102.657 85.9538 109.974 85.9538Z" fill="#9CC7DC" stroke="#7F5E6A" stroke-width="1.4341" stroke-miterlimit="10"/>
<path d="M78.238 74.3178C78.238 74.3178 78.1556 73.9887 77.9674 73.448C77.7791 72.9073 77.4967 72.1434 77.0495 71.3089C76.5906 70.4743 75.9552 69.5811 75.0727 68.9229C74.6373 68.5938 74.1313 68.3235 73.59 68.1589C73.3194 68.0649 73.0487 67.9826 72.7545 67.9591C72.4604 67.9238 72.178 67.8651 71.872 67.8886C71.5896 67.9003 71.2366 67.8651 71.013 67.9003C70.7071 67.9591 70.3188 67.9708 70.0834 68.0649C69.601 68.2177 69.0597 68.4057 68.6478 68.7466C68.2125 69.0522 67.8712 69.4635 67.5653 69.8749C67.2946 70.3098 67.0593 70.7564 66.8828 71.1913C66.5415 72.0728 66.365 72.8721 66.2709 73.4245C66.165 73.9887 66.1414 74.3178 66.1414 74.3178C66.1414 74.3178 66.0473 74.0004 65.9885 73.4127C65.9296 72.8251 65.8943 71.9788 66.1061 70.9562C66.212 70.4508 66.3768 69.8984 66.6592 69.346C66.9534 68.8053 67.3182 68.2294 67.8712 67.7945C68.389 67.3244 69.0361 66.9718 69.7892 66.7485C70.1658 66.6192 70.4482 66.6192 70.7777 66.5487C71.2013 66.4781 71.519 66.5134 71.8838 66.4899C72.2368 66.4664 72.6016 66.5487 72.9663 66.6074C73.3311 66.6427 73.6724 66.7602 74.0136 66.8895C74.3666 66.9835 74.6843 67.1716 74.9785 67.3597C75.2962 67.5242 75.5551 67.7593 75.8258 67.9826C76.8613 68.8994 77.4261 70.0395 77.7556 71.0033C78.085 71.9788 78.1792 72.8251 78.2145 73.4127C78.2733 73.9769 78.238 74.3178 78.238 74.3178Z" fill="#352836"/>
<path d="M112.281 73.7653C112.281 73.7653 112.199 73.4362 112.01 72.8956C111.822 72.3549 111.54 71.5909 111.092 70.7564C110.634 69.9219 109.998 69.0287 109.116 68.3705C108.68 68.0414 108.174 67.771 107.633 67.6065C107.362 67.5124 107.092 67.4302 106.798 67.4067C106.503 67.3714 106.221 67.3126 105.915 67.3361C105.633 67.3479 105.28 67.3126 105.056 67.3479C104.75 67.4067 104.362 67.4184 104.126 67.5124C103.644 67.6652 103.103 67.8533 102.691 68.1942C102.255 68.4997 101.914 68.9111 101.608 69.3225C101.338 69.7574 101.102 70.204 100.926 70.6389C100.584 71.5204 100.408 72.3197 100.314 72.8721C100.208 73.4362 100.184 73.7653 100.184 73.7653C100.184 73.7653 100.09 73.448 100.031 72.8603C99.9726 72.2726 99.9373 71.4264 100.149 70.4038C100.255 69.8984 100.42 69.346 100.702 68.7936C100.996 68.2529 101.361 67.677 101.914 67.2421C102.432 66.772 103.079 66.4194 103.832 66.196C104.209 66.0668 104.491 66.0668 104.821 65.9962C105.244 65.9257 105.562 65.961 105.927 65.9375C106.28 65.914 106.645 65.9962 107.009 66.055C107.374 66.0903 107.715 66.2078 108.057 66.3371C108.41 66.4311 108.727 66.6192 109.021 66.8072C109.339 66.9718 109.598 67.2069 109.869 67.4302C110.904 68.3469 111.469 69.487 111.799 70.4508C112.128 71.4264 112.222 72.2726 112.257 72.8603C112.316 73.4362 112.281 73.7653 112.281 73.7653Z" fill="#352836"/>
</g>
<defs>
<clipPath id="clip0_14_9179">
<rect width="175" height="211" fill="white"/>
</clipPath>
</defs>
</svg>
