<svg width="360" height="282" viewBox="0 0 360 282" fill="none" xmlns="http://www.w3.org/2000/svg">
<g clip-path="url(#clip0_0_5239)">
<path d="M475 54.7909V252H-68V215.701L10.2644 181.057L31.007 171.878H31.0142L40.571 167.64L52.8066 162.227L57.8891 159.976C57.8964 159.976 57.8964 159.976 57.8964 159.976L75.714 152.081C75.714 152.081 75.714 152.089 75.7212 152.081L88.7822 146.304L95.052 143.528L100.866 140.953C102.553 141.007 103.87 140.76 105.333 139.484C105.963 138.935 106.441 138.192 107.005 137.628C107.063 137.574 107.121 137.519 107.179 137.465C107.179 137.458 107.186 137.458 107.194 137.458C107.259 137.388 107.324 137.334 107.389 137.287C107.49 137.202 107.599 137.133 107.715 137.071C107.715 137.063 107.715 137.063 107.722 137.063C107.86 136.986 108.004 136.924 108.156 136.878C109.199 136.561 110.234 136.414 111.291 136.282C112.551 136.12 113.854 134.48 115.063 133.73C116.251 132.988 117.453 132.454 118.691 131.959C120.305 131.325 122.014 130.444 123.621 131.341C124.932 132.083 125.952 133.63 127.328 134.194C128.653 134.751 130.296 134.728 131.578 133.9C133.25 132.818 134.858 131.047 136.429 129.647C137.761 128.464 139.136 127.397 140.461 126.198C141.96 124.829 143.032 123.484 144.711 122.672C147.223 121.45 149.519 118.689 151.56 116.045C154.333 112.464 157.128 108.737 160.111 105.644C161.16 104.561 162.319 103.749 163.354 102.643C164.686 101.22 165.758 99.1479 166.938 97.4234C168.227 95.5443 169.573 93.8353 171.007 92.25C173.056 89.9842 175.184 88.4994 176.922 85.5222C177.682 84.223 178.442 83.1017 179.347 82.1042C180.223 81.1453 180.962 79.8925 181.845 78.9877C182.728 78.0984 183.554 77.1009 184.437 76.2116C184.937 75.7167 185.233 75.2217 185.668 74.5876C186.175 73.8607 186.399 73.9458 187 73.6133C189.425 72.2677 190.323 68.6022 192.061 65.8183C192.083 65.7874 192.097 65.7564 192.111 65.7255C192.343 65.3543 192.553 64.9599 192.741 64.5655C192.98 64.0861 193.212 63.6066 193.465 63.1581C193.473 63.1427 193.487 63.1272 193.487 63.1117C193.581 62.9339 193.683 62.7637 193.791 62.6013C194.074 62.1606 194.392 61.7662 194.776 61.4646C195.246 61.0934 195.731 60.9851 196.224 60.7531C196.673 60.5366 196.984 59.9102 197.353 59.686C198.924 58.7503 200.336 60.3897 201.733 61.0547C202.356 61.3486 202.921 61.743 203.507 61.9518C204.231 62.207 205.281 61.9827 206.02 61.9363C206.888 61.8899 207.525 61.2249 208.344 60.8846C208.72 60.7299 209.031 60.7531 209.415 60.7531C210.002 60.7531 210.125 60.5134 210.566 60.2892C211.493 59.8329 211.674 59.8638 212.297 58.3868C213.426 55.7266 214.454 53.1051 215.127 50.0428C215.526 48.2255 215.996 46.6171 216.894 45.4494C217.944 44.0961 218.972 42.7119 220.123 41.5674C221.376 40.3378 222.556 39.1237 223.707 37.7395C224.742 36.479 225.662 34.6385 226.769 33.61C227.855 32.6047 228.999 32.0093 230.114 31.1509C231.432 30.1379 232.438 28.4598 233.698 27.3849C235.023 26.2481 236 23.8973 236.891 21.9949C237.441 20.8118 238.078 19.4817 238.686 18.4068C239.171 17.5484 239.801 17.0458 240.308 16.226C240.989 15.1357 241.148 15.128 242.067 14.749C242.451 14.5944 242.603 14.3933 242.972 14.1459C243.125 14.0376 243.306 14.2696 243.479 14.1304C243.725 13.9293 243.841 13.4499 244.051 13.1174C244.341 12.6611 244.688 12.2049 245.123 12.3982C245.181 12.4214 245.231 12.4368 245.282 12.4523C245.318 12.4678 245.354 12.4755 245.383 12.4755C246.397 12.6766 246.889 11.215 248.026 11.2073C249.778 11.1918 250.386 11.7254 251.682 13.5272C252.558 14.7413 253.492 15.0506 254.593 15.4141C255.852 15.8394 256.888 16.8524 258.061 17.5871C258.705 17.9892 259.407 18.0124 260.044 18.4222C260.428 18.6697 260.761 19.1182 261.159 19.327C262.564 20.0617 263.882 20.8736 265.293 21.5928C266.553 22.2347 267.791 22.9384 269.058 23.5802C269.579 23.8509 270.043 24.4077 270.55 24.6628C271.223 24.9954 271.954 24.8716 272.635 25.1964C273.721 25.7145 274.662 26.7276 275.748 27.2998C276.95 27.9262 278.13 28.3129 279.267 29.2022C280.657 30.2848 282.286 30.1379 282.257 33.0378C282.235 35.3809 282.271 36.6723 283.495 38.0411C284.631 39.3093 285.515 40.3687 286.883 40.8172C288.519 41.3586 290.286 44.0342 291.553 45.7046C292.349 46.7563 292.697 47.7848 293.645 48.6818C294.579 49.5711 295.564 50.2593 296.57 50.9012C297.605 51.5662 298.713 51.9297 299.806 52.3163C300.219 52.471 300.632 52.6179 301.037 52.7958C302.558 53.4531 304.368 52.3705 305.83 53.2057C306.844 53.7779 307.64 55.2472 308.509 56.2602C309.175 57.049 309.877 57.5207 310.637 58.0311C311.615 58.6961 312.759 58.6652 313.599 59.5545C313.896 59.8793 314.134 60.3355 314.482 60.6217C314.656 60.7609 314.953 60.6913 315.112 60.8691C315.691 61.4878 316.06 62.5163 316.712 63.1272C316.987 63.3824 317.392 63.4829 317.624 63.8154C317.906 64.2176 317.935 64.7047 318.174 65.1146C318.565 65.7796 319.282 66.7463 319.818 67.102C320.578 67.6124 321.447 67.7284 322.229 68.2465C323.496 69.0817 324.372 70.4504 325.472 71.6877C326.746 73.1183 327.811 74.2242 329.411 74.3324C330.794 74.4252 331.822 74.317 333.139 75.1831C334.414 76.026 335.529 76.4204 336.868 76.807C337.65 77.0313 338.374 77.4798 339.207 77.2865C339.388 77.2478 339.569 77.1705 339.742 77.0777C340.343 76.7761 340.922 76.258 341.502 75.8636C342.443 75.214 343.174 74.4716 344.18 74.0154C345.223 73.5359 345.969 72.7008 346.888 71.796C347.757 70.9299 348.72 70.6283 349.603 69.8472C350.436 69.1126 350.964 68.1382 351.529 66.9473C352.014 65.9034 352.615 65.0218 353.107 63.9933C353.325 63.5216 353.404 62.9957 353.643 62.524C353.976 61.8512 354.497 61.4336 354.845 60.7531C355.417 59.6473 355.67 58.2553 356.329 57.281C356.474 57.0799 356.611 56.8789 356.749 56.6778C356.879 56.4999 357.002 56.3221 357.126 56.1442C357.415 55.7266 357.683 55.2936 357.922 54.7987C357.973 54.6981 358.023 54.5821 358.074 54.4739C358.168 54.2496 358.255 54.0254 358.335 53.7779C358.378 53.6464 358.422 53.515 358.458 53.3758C359.24 50.4991 361.013 47.4754 362.498 45.4648C363.128 44.6142 363.482 43.4465 364.083 42.5881C364.619 41.8148 365.379 41.374 365.958 40.6935C367.015 39.464 368.007 38.4355 369.173 37.4611C370.158 36.6337 370.91 35.582 371.359 33.8497C371.823 32.0789 371.888 30.0141 372.583 28.4057C373.119 27.1606 373.662 26.0548 374.183 24.7788C374.603 23.7658 375.16 22.428 375.66 21.5851C375.899 21.183 376.196 21.152 376.442 20.7112C376.674 20.2937 376.855 19.2033 377.014 18.662C377.434 17.2855 377.709 16.0482 378.216 14.7722C379.193 12.3518 379.562 9.6684 380.612 7.33301C381.191 6.05705 381.771 5.19868 382.415 4.09285C383.038 3.00248 383.494 1.80385 384.297 1.01508C384.391 0.914549 384.493 0.829485 384.594 0.752154C384.703 0.659357 384.811 0.574293 384.92 0.504696C384.992 0.458297 385.057 0.419632 385.123 0.380967C385.238 0.311369 385.354 0.257236 385.47 0.210838C387.389 -0.58567 389.286 1.03828 391.125 2.3529C393.557 4.10831 395.867 6.11118 398.213 8.26871C400.899 10.7278 403.78 12.5451 405.836 16.4967C406.828 18.3913 407.661 20.9896 408.892 22.4589C410.492 24.369 412.504 24.5159 414.365 24.9258C418.028 25.73 422.01 25.7377 425.428 28.2897C425.768 28.5449 426.101 28.8078 426.42 29.0862C427.904 30.3235 429.236 31.7541 430.691 33.1847C432.306 34.7545 433.725 36.6955 435.346 38.2112C437.214 39.9589 438.974 41.6988 440.994 42.9438C441.71 43.3846 442.413 43.8486 443.137 44.2662C444.02 44.7766 445.425 44.9544 446.149 46.0061C447.104 47.4058 448.219 48.4421 449.385 49.2695C450.855 50.3212 452.151 49.834 453.671 50.182C454.989 50.4836 455.915 51.7596 457.117 52.4091C457.957 52.8654 459.108 52.471 459.991 52.4942C462.909 52.5561 465.306 48.9911 468.289 50.5841C469.686 51.3265 470.924 52.2622 472.299 53.2134C473.226 53.863 474.095 54.3579 475 54.7909Z" fill="url(#paint0_linear_0_5239)"/>
<path d="M41.3977 171.301C44.5002 192.144 63.5346 206.508 82.7426 211.394C101.951 216.28 122.041 214.138 141.741 215.568C162.12 217.045 184.091 222.008 201.867 211.247C213.322 204.312 220.836 191.966 227.894 180.084C234.085 169.67 187.996 153.428 190.1 141.29C191.677 132.191 214.833 128.805 221.183 127.143C230.346 124.738 273.115 118.6 273 106.254C272.978 103.927 271.785 101.824 270.628 99.8605C264.191 88.8904 257.748 77.928 251.311 66.9579C248.563 62.273 245.735 57.3485 245.287 51.8363C244.839 46.3242 247.623 40.0932 252.656 38.8098C256.858 37.743 263.613 38.3073 263.251 33.6997C263.143 32.3159 262.21 31.1795 261.32 30.1667C256.077 24.1521 250.834 18.1452 245.591 12.1306C245.504 12.1151 245.417 12.0919 245.33 12.0456C244.897 11.8523 244.549 12.3084 244.26 12.7645C244.05 13.097 243.935 13.5763 243.689 13.7773C243.515 13.9164 243.334 13.6845 243.175 13.7927C242.814 14.0401 242.662 14.2411 242.279 14.3957C241.36 14.7746 241.201 14.7823 240.521 15.8723C240.015 16.6918 239.386 17.1943 238.894 18.0602C238.287 19.1348 237.657 20.4567 237.101 21.6396C236.211 23.5414 235.235 25.8993 233.911 27.028C232.653 28.1026 231.655 29.7802 230.339 30.7929C229.225 31.6511 228.075 32.2541 226.99 33.2591C225.884 34.2873 224.973 36.1195 223.931 37.3796C222.781 38.7712 221.603 39.9772 220.359 41.2141C219.202 42.3583 218.175 43.7421 217.133 45.095C216.236 46.2624 215.766 47.8704 215.369 49.6872C214.696 52.7486 213.669 55.3694 212.541 58.0288C211.919 59.4976 211.738 59.4667 210.813 59.9306C210.371 60.147 210.256 60.3944 209.663 60.3944C209.279 60.3944 208.968 60.3712 208.592 60.5258C207.775 60.8583 207.139 61.5309 206.271 61.5772C205.526 61.6236 204.477 61.8478 203.761 61.5927C203.176 61.384 202.604 60.9897 201.99 60.6959C200.594 60.0311 199.184 58.3921 197.614 59.3353C197.245 59.5595 196.927 60.178 196.479 60.3944C195.994 60.6263 195.503 60.7346 195.033 61.1057C193.803 62.072 193.261 63.9584 192.321 65.4659C190.585 68.249 189.688 71.9134 187.265 73.2509C186.665 73.5833 186.441 73.4982 185.935 74.2249C185.501 74.8589 185.204 75.3537 184.705 75.8484C183.823 76.7375 182.999 77.727 182.116 78.6238C181.227 79.5206 180.496 80.7807 179.621 81.7316C178.71 82.7289 177.951 83.8499 177.199 85.1487C175.463 88.1251 173.337 89.6094 171.29 91.8823C169.865 93.4594 168.513 95.1756 167.226 97.0542C166.047 98.7782 164.977 100.85 163.646 102.273C162.612 103.378 161.455 104.182 160.406 105.272C157.427 108.364 154.635 112.083 151.865 115.67C149.826 118.314 147.533 121.066 145.017 122.288C143.339 123.1 142.276 124.445 140.771 125.813C139.448 127.011 138.074 128.078 136.751 129.261C135.174 130.66 133.568 132.438 131.898 133.513C130.618 134.34 128.976 134.363 127.653 133.807C126.286 133.235 125.266 131.689 123.957 130.954C122.352 130.05 120.645 130.931 119.032 131.573C117.796 132.067 116.595 132.601 115.402 133.343C114.201 134.093 112.892 135.732 111.634 135.894C110.578 136.026 109.544 136.18 108.503 136.489C107.309 136.845 106.695 138.213 105.682 139.095C104.221 140.37 102.905 140.618 101.227 140.564L41 167.243C41.0723 168.596 41.2025 169.949 41.3977 171.301Z" fill="url(#paint1_linear_0_5239)"/>
<path d="M295.714 176.524C295.091 177.677 294.779 178.908 295.178 180C297.171 179.443 297.722 177.383 299.28 176.292C300.549 175.401 302.709 174.495 304.115 173.861C306.021 173.001 306.623 173.164 308.195 171.19C311.914 166.537 311.899 159.546 318.633 158.09C319.887 157.819 321.213 157.827 322.38 157.285C328.824 154.312 330.592 147.135 334.832 142.01C340.522 135.127 348.154 130.652 355.004 125.256C368.579 114.572 380.118 90.665 397.956 88.7914C409.016 87.6301 420.679 90.2702 431 85.8495C421.824 82.2185 412.648 78.603 403.479 74.9642C392.904 70.7681 390.367 69.4132 388.504 57.506C387.475 50.9408 386.627 41.8052 385.265 35C384.873 35.1626 384.482 35.4181 384.09 35.8052C383.286 36.5949 382.829 37.7949 382.206 38.8865C381.568 40.0013 380.981 40.8607 380.408 42.1381C379.357 44.4762 378.98 47.1549 378.009 49.5859C377.495 50.8634 377.219 52.1021 376.806 53.4802C376.639 54.0221 376.465 55.1215 376.233 55.5395C375.987 55.9808 375.69 56.0118 375.451 56.4144C374.943 57.2583 374.385 58.5976 373.972 59.6118C373.45 60.8893 372.906 61.9964 372.37 63.2428C371.674 64.8532 371.609 66.9203 371.145 68.6932C370.696 70.4274 369.942 71.4803 368.949 72.3087C367.789 73.2765 366.796 74.3062 365.731 75.5449C365.151 76.2262 364.39 76.6675 363.854 77.4339C363.252 78.2933 362.897 79.4623 362.266 80.3139C360.78 82.3269 359.005 85.354 358.222 88.234C357.751 89.9605 356.917 90.9437 356.091 92.1515C355.424 93.1192 355.178 94.5128 354.605 95.6199C354.25 96.3012 353.735 96.7192 353.395 97.3928C353.155 97.8651 353.083 98.3993 352.858 98.8715C352.373 99.9012 351.771 100.784 351.278 101.821C350.713 103.014 350.191 103.989 349.357 104.732C348.473 105.514 347.509 105.816 346.632 106.683C345.712 107.589 344.965 108.425 343.921 108.905C342.914 109.362 342.182 110.113 341.24 110.756C340.66 111.15 340.08 111.669 339.485 111.979C336.651 116.577 333.738 121.122 330.73 125.597C329.831 126.929 328.998 128.307 328.142 129.669C322.757 138.278 317.415 146.918 311.87 155.411C309 159.809 306.093 164.191 303.028 168.433C301.636 170.353 300.44 171.654 298.7 173.024C297.794 173.713 296.504 175.045 295.714 176.524Z" fill="url(#paint2_linear_0_5239)"/>
<path d="M234.487 307.02H-68V47.511C-67.819 47.6626 -67.6308 47.7997 -67.4353 47.8647C-66.161 48.3051 -64.5176 47.9369 -63.2216 47.843C-62.6931 47.7997 -62.1356 47.6048 -61.5709 47.4171C-60.9265 47.2005 -60.2677 46.9912 -59.645 47.0273C-59.6016 47.0273 -59.5582 47.0345 -59.522 47.0345C-59.3989 47.0562 -59.2758 47.0778 -59.16 47.1139C-59.0152 47.1572 -58.8776 47.2222 -58.74 47.2944C-58.5373 47.4171 -58.3418 47.5832 -58.1464 47.8069C-57.3427 48.7238 -56.3291 49.3735 -55.6268 50.5647C-54.7291 52.0879 -53.8965 54.4631 -53.1435 56.2967C-52.4485 57.9788 -52.0141 59.235 -51.015 60.289C-49.8493 61.509 -48.6909 63.5737 -47.699 65.2991C-45.947 68.3456 -44.3686 73.6445 -42.0736 75.0306C-41.0672 75.637 -40.2129 75.341 -39.1486 75.5215C-37.7658 75.7453 -36.3322 76.0485 -34.9566 76.3878C-32.886 76.8932 -30.7936 77.7595 -28.7447 78.5031C-27.123 79.095 -25.3057 79.6148 -23.8577 81.1092C-21.121 83.9247 -17.5227 84.6538 -15.1987 88.8915C-14.0186 91.0428 -12.6574 92.4145 -11.3542 94.2987C-10.1596 96.0313 -9.13157 97.9516 -8.07453 99.9802C-6.39485 103.214 -5.60569 107.026 -4.31697 110.78C-1.46441 119.097 12.0744 122.894 20.4076 125.536C25.729 127.218 28.3137 127.839 31.4052 132.676C37.6967 142.509 43.0471 152.442 51.6699 161.019C51.8727 161.214 52.0754 161.416 52.2853 161.611C52.4953 161.806 52.698 162 52.908 162.181C53.118 162.369 53.3351 162.564 53.5523 162.737C53.7623 162.917 53.9795 163.105 54.1967 163.278C55.4058 164.282 56.6583 165.22 57.8963 166.159C58.3018 166.462 58.7 166.772 59.0982 167.068C59.2647 167.198 59.4312 167.321 59.5905 167.451C59.8656 167.668 60.1407 167.891 60.4159 168.108C60.4231 168.115 60.4376 168.122 60.4448 168.13C60.7706 168.404 61.0964 168.664 61.415 168.938C61.7408 169.22 62.0593 169.494 62.3779 169.79C62.7689 170.151 63.1526 170.512 63.5291 170.873C64.673 171.963 65.7735 173.06 66.8305 174.165C67.1853 174.533 67.54 174.908 67.8875 175.277C68.0323 175.435 68.1771 175.587 68.3219 175.739C68.6839 176.128 69.0387 176.511 69.3935 176.901C69.893 177.442 70.3853 177.991 70.8777 178.532C71.8551 179.623 72.818 180.691 73.7809 181.767C74.4904 182.554 75.2072 183.34 75.9239 184.127C76.4597 184.712 77.0099 185.304 77.5602 185.882C77.9946 186.344 78.4362 186.799 78.8779 187.246C78.8996 187.275 78.9286 187.297 78.9503 187.318C79.2833 187.658 79.6236 187.997 79.9711 188.336C80.2535 188.618 80.5358 188.885 80.8182 189.159C81.5205 189.831 82.2372 190.495 82.9685 191.137C83.1639 191.311 83.3667 191.491 83.5766 191.657C83.7359 191.809 83.9097 191.946 84.0762 192.083C84.3296 192.3 84.5975 192.516 84.8581 192.725C85.488 193.245 86.1323 193.736 86.7912 194.22C87.0808 194.436 87.3776 194.653 87.6817 194.862C87.7034 194.884 87.7251 194.898 87.7469 194.913C87.8555 194.992 87.9713 195.072 88.0871 195.151C88.2319 195.252 88.3767 195.353 88.5288 195.447C89.5858 196.162 90.6791 196.84 91.823 197.476C92.0329 197.591 92.2501 197.714 92.4601 197.822C92.547 197.88 92.6339 197.923 92.7207 197.967C93.0031 198.125 93.2927 198.27 93.5823 198.414C93.8791 198.566 94.1832 198.71 94.4873 198.862C95.4937 199.345 96.5073 199.851 97.5281 200.363C99.0557 201.136 100.598 201.944 102.14 202.796C102.654 203.078 103.168 203.359 103.682 203.655C103.993 203.829 104.312 204.009 104.623 204.19C105.101 204.457 105.579 204.731 106.057 205.013C106.614 205.33 107.165 205.655 107.722 205.994C108.258 206.312 108.801 206.637 109.337 206.969C109.88 207.294 110.415 207.626 110.958 207.958C111.494 208.29 112.03 208.622 112.566 208.961C115.252 210.651 117.916 212.427 120.53 214.246C120.645 214.325 120.754 214.405 120.863 214.484C121.76 215.112 122.651 215.74 123.534 216.376C129.949 220.989 136.016 225.869 141.323 230.662C141.945 231.226 142.561 231.781 143.184 232.337C144.081 233.139 144.979 233.926 145.877 234.72C146.63 235.384 147.375 236.041 148.121 236.683C148.896 237.347 149.663 238.019 150.431 238.676C151.365 239.484 152.299 240.286 153.225 241.087C153.79 241.571 154.355 242.062 154.92 242.545H154.927C156.454 243.866 157.982 245.173 159.495 246.501C159.872 246.826 160.248 247.158 160.625 247.49C163.137 249.692 165.635 251.93 168.104 254.24C168.487 254.594 168.871 254.955 169.248 255.316C169.631 255.677 170.015 256.038 170.391 256.406C170.963 256.948 171.535 257.503 172.1 258.059C172.672 258.608 173.237 259.171 173.801 259.741C174.931 260.868 176.053 262.023 177.168 263.199C178.182 264.275 179.21 265.315 180.245 266.325C180.564 266.636 180.875 266.946 181.201 267.242C181.425 267.459 181.657 267.675 181.889 267.885C182.236 268.224 182.598 268.556 182.96 268.881C183.206 269.105 183.452 269.329 183.699 269.552L183.735 269.588H183.742C185.458 271.148 187.21 272.635 188.984 274.072C189.621 274.591 190.258 275.104 190.902 275.609C205.042 286.749 220.485 295.166 234.487 307.02Z" fill="#2D1874"/>
<path d="M177.168 263.193C165.715 251.086 153.45 241.636 141.323 230.67C128.277 218.874 110.625 206.594 94.4875 198.87C80.3839 192.12 73.6652 180.129 62.3781 169.776C59.0549 166.73 55.0367 164.347 51.6774 161.005C43.0473 152.429 37.6969 142.502 31.4126 132.662C28.3139 127.818 25.7364 127.205 20.4078 125.515C12.0746 122.873 -1.457 119.083 -4.30956 110.759C-5.59828 107.005 -6.38744 103.201 -8.06712 99.9593C-9.12416 97.9235 -10.145 96.0104 -11.3396 94.2778C-12.6428 92.3863 -14.0039 91.0219 -15.184 88.8633C-17.5081 84.6329 -21.1064 83.8965 -23.8431 81.0883C-25.2911 79.5939 -27.1083 79.0741 -28.7301 78.4821C-30.779 77.7385 -32.8714 76.865 -34.942 76.3669C-36.3176 76.0348 -37.7584 75.7316 -39.134 75.5006C-40.1982 75.3273 -41.0526 75.6161 -42.0589 75.0097C-44.354 73.6236 -45.9323 68.3247 -47.6844 65.2782C-48.6763 63.56 -49.8347 61.4881 -50.9931 60.268C-51.9994 59.214 -52.4338 57.9651 -53.1289 56.2758C-53.8818 54.4494 -54.7144 52.067 -55.6122 50.5438C-56.3145 49.3526 -57.3281 48.7029 -58.1317 47.786C-59.1598 46.6165 -60.3689 46.9919 -61.5635 47.389C-55.728 55.4384 -49.3641 62.9608 -54.4248 72.9739C-60.6368 85.2826 -52.499 89.9101 -42.1096 98.0317C-31.1555 106.587 -19.014 113.264 -7.45173 120.989C-5.82996 122.072 -4.67157 123.212 -3.57108 124.757C-0.776443 128.692 2.70599 132.316 6.97759 134.907C9.15684 136.229 11.7705 136.972 13.8918 138.315C17.2729 140.445 18.3516 144.422 20.0603 147.621C20.7988 149.007 21.7472 150.068 22.1164 151.613C22.3698 152.696 22.1961 153.41 22.826 154.515C24.3174 157.114 27.4958 158.962 30.2107 160.218C33.0778 161.546 35.4308 162.377 37.5449 164.687C39.3476 166.658 39.1015 168.145 39.2752 170.621C39.7024 176.757 46.0229 182.1 49.3533 187.045C53.6828 193.477 56.0431 200.638 61.4296 206.529C73.8607 220.116 89.767 228.302 105.246 238.316C123.86 250.357 143.053 260.312 164.643 266.961C169.581 268.485 181.071 273.531 188.998 274.079C184.901 270.751 180.94 267.178 177.168 263.193Z" fill="url(#paint3_linear_0_5239)"/>
<path d="M130.485 232.542C130.007 231.373 125.721 230.001 125.163 228.911C125.018 228.622 124.823 228.391 124.627 228.16C124.425 227.915 124.215 227.669 124.055 227.366C123.766 226.803 123.686 226.262 123.303 225.792C122.933 225.345 122.282 225.128 121.862 224.796C121.362 224.392 120.899 224.031 120.363 223.728C117.605 222.183 114.853 221.143 112.008 219.974C111.023 219.569 110.046 219.1 109.083 218.689C108.236 218.328 107.845 217.678 107.114 216.985C105.84 215.772 104.739 214.307 103.385 213.267C102.661 212.711 101.952 212.278 101.242 211.816C100.649 211.441 100.011 210.849 99.4395 210.502C98.9616 210.213 98.5055 210.069 98.0277 209.744C97.1878 209.188 96.4276 209.398 95.5806 209.109C95.0665 208.936 94.2991 208.474 93.7199 208.178C93.1986 207.896 92.6483 207.896 92.1126 207.687C91.3741 207.398 90.1506 206.683 89.5207 206.005C89.26 205.723 89.0211 205.427 88.7822 205.124C88.3912 204.618 88.0148 204.106 87.5731 203.644C86.8057 202.835 85.669 202.265 84.8074 201.586C83.7214 200.727 82.5558 200.034 81.4046 199.45C78.5303 197.991 75.5909 196.583 73.0135 194.201C72.0361 193.292 70.9573 192.396 70.0668 191.22C69.4731 190.454 68.988 189.516 68.3871 188.765C66.1717 186 63.9997 183.509 61.3136 181.748C59.3878 180.485 57.2665 179.344 55.2682 178.276C52.8356 176.976 50.4464 175.684 47.9848 174.514C47.7531 174.406 47.5214 174.298 47.2898 174.175H47.2825C45.2843 173.193 43.2426 172.053 41.3168 170.883C39.1086 169.548 37.132 167.512 35.0904 165.7C33.4541 164.249 31.8541 162.718 30.1092 161.549C28.2341 160.292 26.2503 159.491 24.3607 158.322C22.8041 157.361 21.3054 156.163 19.7198 155.304C18.6483 154.726 17.4899 154.553 16.4184 153.99C15.3686 153.441 14.2826 152.315 13.4645 151.204C12.9939 150.561 12.7839 149.738 12.335 149.074C12.0454 148.655 11.611 148.46 11.3142 148.07C10.8653 147.471 10.7205 147.024 10.192 146.511C9.80104 146.136 9.44627 145.919 9.07703 145.471C8.33855 144.583 7.99104 143.327 7.35392 142.353C6.41996 140.923 4.79095 139.877 3.66875 138.765C2.76376 137.87 1.76464 136.729 0.968239 135.661C0.25872 134.708 -0.211884 133.437 -0.87072 132.405C-1.81916 130.925 -2.81104 130.492 -4.07804 129.669C-5.4102 128.795 -6.70616 128.441 -8.06004 127.756C-8.74784 127.402 -9.23292 126.673 -9.90624 126.276C-10.2103 126.102 -10.9488 125.965 -11.2891 125.669C-11.8176 125.222 -12.0855 124.709 -12.6792 124.334C-13.0122 124.124 -13.4176 124.045 -13.7579 123.857C-14.5181 123.438 -15.3435 122.854 -15.9661 122.067C-17.8485 119.692 -20.0422 118.067 -22.0622 115.923C-23.0468 114.876 -24.0025 114.422 -25.0958 113.75C-26.008 113.187 -27.0216 112.429 -27.6008 111.274C-28.1728 110.141 -28.4551 109.729 -29.3312 109.101C-30.8733 107.982 -32.343 107.289 -34.0372 106.733C-35.0363 106.408 -36.5132 105.925 -37.3531 104.936C-37.8454 104.351 -37.8526 103.412 -38.3739 102.842C-39.7857 101.268 -42.0953 101.947 -43.7532 101.947C-44.5786 101.947 -45.4474 102.084 -46.2583 101.954C-47.156 101.817 -47.6339 101.052 -48.4592 100.503C-50.8557 98.9147 -53.3607 97.7597 -55.8802 96.6262C-56.959 96.1498 -57.9871 95.5001 -59.0803 95.0597C-60.2025 94.6049 -61.0062 94.7059 -61.9618 93.7674C-62.6569 93.0888 -63.3954 92.1503 -64.0976 91.5295C-64.8361 90.8798 -65.0171 91.4862 -65.8642 91.5872C-66.5954 91.6811 -67.2977 91.8616 -68 92.0926V235.668H132.287C131.73 234.564 130.977 233.748 130.485 232.542ZM474.066 138.628C471.8 139.378 469.418 140.62 467.282 141.905C465.378 143.06 463.879 145.168 462.055 146.518C460.462 147.709 458.688 148.446 457.038 149.5C455.343 150.575 453.555 152.387 451.665 152.424C450.847 152.438 450.029 152.445 449.204 152.424C447.995 152.395 446.54 153.485 445.555 154.546C444.44 155.744 443.687 156.899 442.319 157.506C440.69 158.221 439.509 159.802 438.018 160.978C437.171 161.642 436.664 162.682 435.984 163.657C435.433 164.444 435.028 164.841 434.398 165.382C433.573 166.09 432.769 166.855 431.857 167.411C431.299 167.743 430.749 167.714 430.213 167.909C429.569 168.147 429.077 168.753 428.411 168.956C427.107 169.353 426.231 169.887 425.008 170.638C423.944 171.295 422.713 171.446 421.605 171.923C419.346 172.897 417.116 174.399 414.93 175.677C413.598 176.456 412.222 177.265 410.832 177.814C409.753 178.239 408.682 178.095 407.574 178.095C404.801 178.102 402.108 177.171 399.335 177.814C396.308 178.514 393.579 180.347 390.719 181.835C388.084 183.199 385.789 185.87 383.284 187.646C380.453 189.653 376.985 188.592 373.93 189.213C373.017 189.408 372.127 189.314 371.215 189.307C369.716 189.292 368.84 189.805 367.609 190.981C365.56 192.952 363.736 194.627 361.506 196.114C360.666 196.677 359.826 197.269 359.001 197.876C357.393 199.052 355.989 199.984 354.23 200.568C351.428 201.5 348.705 202.828 345.918 203.86C344.557 204.366 343.174 204.806 341.777 205.088C338.251 205.795 334.674 205.218 331.119 206.019C326.66 207.008 322.902 210.062 318.717 212.292C315.633 213.946 312.303 213.404 309.059 213.404C306.627 213.404 304.143 213.166 301.732 213.679C297.019 214.697 293.138 218.624 288.512 220.125C284.921 221.288 282.04 224.897 278.637 226.774C276.87 227.749 275.422 229.294 273.728 230.413C272.302 231.358 270.781 232.073 269.319 232.925C268.218 233.582 267.14 234.484 266.003 235.004C265.018 235.445 263.99 235.329 262.977 235.632C259.61 236.628 256.214 238.332 252.935 239.819C250.126 241.09 247.316 241.963 244.5 243.082C243.588 243.443 242.676 243.775 241.771 244.057C239.932 244.627 238.085 244.996 236.174 244.974C234.263 244.952 232.351 244.981 230.44 244.967C226.892 244.938 223.352 245.761 219.891 246.844C217.589 247.558 215.258 248.389 212.898 248.331C212.246 248.324 211.58 248.23 210.921 248.064C206.345 246.865 201.4 248.331 197.129 250.865C195.688 251.709 194.341 253.197 192.778 253.493C190.953 253.846 189.129 253.067 187.362 254.063C186.138 254.741 185.016 255.326 183.742 255.673H183.735C183.655 255.702 183.576 255.716 183.489 255.745C182.88 255.897 182.113 255.983 181.519 256.265C180.535 256.734 179.68 257.723 178.681 258.243C178.609 258.286 178.536 258.329 178.457 258.358L166.583 264.422H166.569L114.347 291.047L100.67 298.021H475V138.288C474.689 138.411 474.377 138.519 474.066 138.628Z" fill="url(#paint4_linear_0_5239)"/>
<path d="M62.5806 228.016C61.8349 228.175 61.0892 228.081 60.3362 228.074C56.0284 227.994 51.7134 228.074 47.4128 228.132C45.2988 228.16 43.1919 228.153 41.0923 228.103C37.7185 228.038 34.3591 227.864 31.0142 227.597H31.007C19.3868 226.659 7.97656 224.479 -3.18752 220.66C-14.3226 216.855 -25.0596 210.668 -36.9187 209.116C-44.9623 208.062 -53.0422 207.138 -60.789 204.712C-63.1492 203.976 -65.5891 203.399 -68 202.771V133.986C-65.9728 135.509 -63.9239 137.061 -61.7591 138.346C-60.2604 139.234 -58.5011 139.783 -56.9156 140.519C-55.0766 141.386 -53.9978 141.949 -52.644 143.263C-51.6738 144.223 -50.6095 144.742 -49.8566 145.919C-48.3868 148.237 -47.1343 149.615 -44.47 150.641C-43.0437 151.182 -41.9505 152.128 -40.6835 152.907C-39.6047 153.557 -38.316 153.896 -37.2662 154.582C-34.9349 156.106 -32.5602 158.654 -30.895 160.791C-27.2388 165.483 -24.5455 172.002 -18.5146 174.269C-15.9661 175.222 -13.4973 176.774 -11.0284 177.944C-9.09536 178.86 -6.92336 180.138 -4.7948 180.268C-1.69608 180.449 0.961006 182.051 3.87872 183.019C6.43444 183.871 8.2734 185.943 10.3151 187.56C12.1034 188.975 12.8708 191.682 14.746 192.772C15.803 193.386 16.8456 193.371 17.8374 194.209C18.851 195.06 19.5606 196.446 20.7479 197.075C21.5805 197.522 22.7751 197.587 23.6801 197.876C24.9109 198.273 25.9897 198.822 27.3001 198.944C28.4802 199.053 29.3997 198.894 30.5436 199.428C31.9772 200.085 33.0559 201.327 34.3736 202.164C37.2479 203.991 39.666 206.33 42.6851 207.968C44.2272 208.806 45.0526 210.235 46.3775 211.434C47.8255 212.755 48.8681 214.35 49.9903 215.902C50.8156 217.05 51.6917 218.169 52.8066 219.108C53.0238 219.295 53.2555 219.483 53.4944 219.649C55.3189 220.956 57.2448 221.923 58.8303 223.519C59.9163 224.616 62.3345 226.457 62.5806 228.016Z" fill="url(#paint5_linear_0_5239)"/>
<path d="M437.475 291.172C433.855 290.183 430.213 289.223 426.601 288.205C424.052 287.49 422.155 285.7 419.643 284.891C418.094 284.386 416.595 284.343 414.995 284.184C413.511 284.032 412.244 283.823 410.904 283.101C409.196 282.177 407.82 280.697 406.227 279.599C401.702 276.481 396.185 274.755 390.676 274.784C385.13 274.813 379.599 274.741 374.06 274.784C369.839 274.813 367.153 274.351 363.2 272.994C360.116 271.933 356.677 270.965 353.419 270.633C351.203 270.409 348.944 271.139 346.751 270.51C345.476 270.15 343.565 269.175 342.356 268.641C338.765 267.038 335 265.688 331.177 264.237C325.842 262.208 320.071 262.194 314.815 259.956C309.856 257.841 304.65 258.375 299.343 258.375C296.042 258.375 291.987 259.018 288.758 258.288C286.079 257.689 283.451 256.866 280.671 256.447C278.586 256.137 277.152 256.144 275.125 255.365C273.076 254.578 270.999 253.95 268.899 253.314C265.59 252.311 262.81 252.318 259.378 252.311C257.025 252.311 254.137 252.766 251.827 252.361C248.888 251.849 245.579 250.557 242.741 249.56C236.507 247.373 230.237 244.168 223.62 243.33C220.478 242.933 217.343 242.262 214.179 242.247C211.037 242.233 208.242 241.186 205.042 241.215C201.502 241.244 197.708 241.561 194.197 241.128C190.026 240.608 185.451 240.609 181.396 239.612C177.146 238.573 173.222 237.728 168.799 238.132C165.642 238.421 163.086 239.634 159.828 238.991C156.208 238.284 152.19 237.353 148.635 236.248C144.885 235.079 142.25 232.198 139.013 230.112C131.657 225.369 122.028 225.816 113.637 223.968C109.489 223.051 105.463 221.225 101.322 220.236C96.862 219.175 92.395 218.316 88.0292 216.735C82.7151 214.814 77.0462 213.154 72.1085 210.367C68.0468 208.072 63.225 208.909 58.6348 208.909C53.422 208.909 47.659 209.624 42.4969 208.959C38.8334 208.49 35.1483 207.696 31.4631 207.111C28.5671 206.657 25.7652 207.133 22.9344 206.303C20.8565 205.689 19.032 205.198 16.9252 204.787C11.2925 203.675 6.20275 200.434 0.75827 198.824C-5.64913 196.925 -11.6004 193.799 -18.2033 192.492C-23.0396 191.539 -27.637 189.821 -32.3647 188.457C-35.8761 187.439 -39.2789 185.533 -42.7758 184.811C-46.1352 184.118 -49.0384 182.508 -52.3326 181.757C-57.5961 180.559 -62.903 178.993 -68 177V292.262H440.755C439.611 291.858 438.481 291.446 437.475 291.172Z" fill="#1F0B51"/>
</g>
<defs>
<linearGradient id="paint0_linear_0_5239" x1="178.5" y1="30" x2="198.83" y2="114.033" gradientUnits="userSpaceOnUse">
<stop stop-color="#9DA7FA"/>
<stop offset="1" stop-color="#D3AECE"/>
</linearGradient>
<linearGradient id="paint1_linear_0_5239" x1="169.731" y1="178.587" x2="145.656" y2="86.7263" gradientUnits="userSpaceOnUse">
<stop stop-color="#E9B8C1"/>
<stop offset="1" stop-color="#D0B4D5"/>
</linearGradient>
<linearGradient id="paint2_linear_0_5239" x1="377.664" y1="196.488" x2="346.253" y2="76.5384" gradientUnits="userSpaceOnUse">
<stop stop-color="#D0B4D5"/>
<stop offset="1" stop-color="#E9B8C1"/>
</linearGradient>
<linearGradient id="paint3_linear_0_5239" x1="85.8533" y1="123.796" x2="55.8491" y2="174.14" gradientUnits="userSpaceOnUse">
<stop stop-color="#4A4ABE"/>
<stop offset="1" stop-color="#332F9D"/>
</linearGradient>
<linearGradient id="paint4_linear_0_5239" x1="210.559" y1="161.724" x2="183.259" y2="291.382" gradientUnits="userSpaceOnUse">
<stop stop-color="#372F96"/>
<stop offset="0.791205" stop-color="#1F0B51"/>
</linearGradient>
<linearGradient id="paint5_linear_0_5239" x1="-1.56851" y1="174.593" x2="-7.95999" y2="215.006" gradientUnits="userSpaceOnUse">
<stop stop-color="#413EB4"/>
<stop offset="0.9925" stop-color="#1F0B51"/>
</linearGradient>
<clipPath id="clip0_0_5239">
<rect width="543" height="282" fill="white" transform="translate(-68)"/>
</clipPath>
</defs>
</svg>
