<svg width="1440" height="531" viewBox="0 0 1440 531" fill="none" xmlns="http://www.w3.org/2000/svg">
<path d="M-17.502 247.268C-16.5702 235.268 -14.0746 223.298 -9.24957 212.092C7.78762 172.489 58.0673 142.474 104.753 153.192C133.603 159.818 158.926 178.26 172.536 202.535C180.422 216.611 186.279 234.138 202.351 239.878C231.567 250.321 257.356 211.665 288.635 213.405C309 214.535 322.843 231.97 335.487 246.657C348.165 261.344 366.334 273.252 385.434 266.626C391.357 264.58 396.249 260.672 401.806 257.893C420.074 248.825 450.954 250.748 467.991 261.649C485.228 272.702 495.877 302.656 513.812 308.488C533.312 314.84 561.031 305.74 578.168 305.924C615.536 306.321 642.723 309.862 675 324.427C675 324.427 126.649 324.427 82.5583 324.427C18.2362 324.427 -3.49286 303.969 -14.374 278.84C-18.6001 268.977 -18.3339 257.893 -17.502 247.268Z" fill="url(#paint0_linear_26_9470)"/>
<g clip-path="url(#clip0_26_9470)">
<path d="M685.276 497.116C742.134 499.065 799.45 482.152 846.183 449.643C896.12 414.899 949.088 359.744 1006.23 380.556C1025.91 387.723 1041.53 403.375 1060.86 411.516C1124.81 438.521 1190.76 376.313 1259.69 368.516C1276.97 366.567 1297.61 370.007 1305.57 385.487C1317.46 408.65 1299.67 461.913 1341.49 463.805C1351.78 464.263 1361.51 459.619 1371.46 456.81C1381.36 453.943 1393.26 453.313 1400.81 460.365C1406.07 465.238 1407.96 472.634 1411.1 479.056C1418.37 494.077 1432.9 504.512 1448.45 510.36C1464.01 516.208 1491.41 528.076 1507.94 529.853C1241.79 525.725 849.1 533.981 582.943 529.853C610.514 507.78 650.04 495.912 685.276 497.116Z" fill="url(#paint1_linear_26_9470)"/>
</g>
<path d="M1035 93.9214C1035 93.9214 1021.53 87.3483 1015 93.9214C1015 93.9214 1027.55 91.9017 1035 102C1042.44 91.9017 1055 93.9214 1055 93.9214C1048.47 87.385 1035 93.9214 1035 93.9214Z" fill="#5D2C80"/>
<path d="M1254.5 4.50814C1254.5 4.50814 1231.91 -5.63517 1221 4.50814C1221 4.50814 1242.03 1.37659 1254.5 17C1266.97 1.37659 1288 4.50814 1288 4.50814C1277.09 -5.63517 1254.5 4.50814 1254.5 4.50814Z" fill="#5D2C80"/>
<path d="M1100.5 75.5939C1100.5 75.5939 1092.74 72.0076 1089 75.5939C1089 75.5939 1096.22 74.5011 1100.5 80C1104.78 74.5011 1112 75.5939 1112 75.5939C1108.26 72.0076 1100.5 75.5939 1100.5 75.5939Z" fill="#5D2C80"/>
<path d="M1305.5 220.647C1305.5 220.647 1293.67 214.691 1288 220.647C1288 220.647 1299.02 218.824 1305.5 228C1312.04 218.824 1323 220.647 1323 220.647C1317.27 214.691 1305.5 220.647 1305.5 220.647Z" fill="#5D2C80"/>
<defs>
<linearGradient id="paint0_linear_26_9470" x1="328.516" y1="324.443" x2="328.516" y2="150.993" gradientUnits="userSpaceOnUse">
<stop stop-color="#F1E4DF"/>
<stop offset="1" stop-color="white"/>
</linearGradient>
<linearGradient id="paint1_linear_26_9470" x1="1045.49" y1="531.021" x2="1045.49" y2="368" gradientUnits="userSpaceOnUse">
<stop stop-color="#F1E7E1"/>
<stop offset="1" stop-color="white"/>
</linearGradient>
<clipPath id="clip0_26_9470">
<rect width="925" height="163" fill="white" transform="translate(583 368)"/>
</clipPath>
</defs>
</svg>
