<svg width="20" height="20" viewBox="0 0 20 20" fill="none" xmlns="http://www.w3.org/2000/svg">
<g clip-path="url(#clip0_14_2151)">
<path d="M17.0715 2.92869C13.1662 -0.976176 6.83431 -0.976611 2.92857 2.92869C-0.976733 6.83399 -0.976298 13.1659 2.92857 17.0716C6.83387 20.976 13.1657 20.9765 17.0715 17.0716C20.9764 13.1659 20.9759 6.83443 17.0715 2.92869ZM11.304 14.3481C11.304 15.0685 10.72 15.6524 9.99959 15.6524C9.27914 15.6524 8.69522 15.0685 8.69522 14.3481V9.13056C8.69522 8.41011 9.27914 7.82619 9.99959 7.82619C10.72 7.82619 11.304 8.41011 11.304 9.13056V14.3481ZM9.97655 6.90095C9.22523 6.90095 8.72435 6.36877 8.74 5.71179C8.72435 5.02308 9.22523 4.50699 9.99177 4.50699C10.7587 4.50699 11.244 5.02352 11.2601 5.71179C11.2596 6.36877 10.7592 6.90095 9.97655 6.90095Z" fill="#8033FD"/>
</g>
<defs>
<clipPath id="clip0_14_2151">
<rect width="20" height="20" fill="white"/>
</clipPath>
</defs>
</svg>
