<svg width="350" height="144" viewBox="0 0 350 144" fill="none" xmlns="http://www.w3.org/2000/svg">
<g clip-path="url(#clip0_228_1866)">
<path d="M200.984 127.3L169.277 143.995H99.1214L130.81 102.347L135.699 85.2732C135.699 85.2732 150.777 77.5991 154.354 77.3936C161.903 76.9554 164.567 77.8319 164.567 77.8319L172.12 54.1933L184.557 47.1903L202.841 51.9974L215.163 37.8453L223.198 22.6797L236.965 21.8032L220.534 77.8364L200.984 127.3Z" fill="#ADCCE0"/>
<path d="M223.189 22.6752L236.956 21.8032L224.395 48.9296L227.954 27.4641L216.154 40.201L223.189 22.6752Z" fill="#82B0C4"/>
<path d="M166.338 144L174.396 118.521L184.824 111.445L203.104 97.6631L188.14 122.767L166.338 144Z" fill="#82B0C4"/>
<path d="M165.406 143.995C170.185 138.166 198.76 103.278 203.103 97.6632C204.111 96.3622 211.857 67.8799 212.421 58.7997C212.531 57.0467 213.077 55.3576 214.012 53.8648L224.4 48.9298L234.86 16.0421L246.233 0.944996L285.094 0L296.944 19.8175C296.944 19.8175 303.108 18.4023 304.529 17.9321C305.951 17.4619 323.487 41.5205 323.487 41.5205L333.439 45.2959L347.655 86.8163L360.927 91.5322C360.927 91.5322 373.722 122.201 373.722 123.616C373.722 125.032 385.095 125.502 385.095 125.502L396 143.9L372.493 143.995H165.406Z" fill="#BEDCED"/>
<path d="M285.007 126.999L273.253 112.304L265.595 110.126L262.591 102.507L256.028 100.873L261.77 104.958L263.407 111.761L272.978 115.572L285.007 126.999Z" fill="#C7DBFF"/>
<path d="M297.421 73.6002L284.622 52.8422L275.143 50.0118L271.827 34.4399L276.564 24.0632L271.827 10.8516L281.301 27.8387L277.037 37.7451L280.357 45.7662L291.73 51.427L297.421 73.6002Z" fill="#D9E8FF"/>
<path d="M296.944 19.8176L301.686 18.8726L296.471 33.9697L296.944 19.8176Z" fill="#6891A5"/>
<path d="M333.439 45.2913L347.655 86.8117L336.755 67.469L331.545 51.4269L323.96 48.1262L333.439 45.2913Z" fill="#6891A5"/>
<path d="M359.982 91.5321L352.397 93.4176L341.968 91.0574L337.231 81.1509L338.653 92.9474L349.553 97.193H359.033L365.191 102.384L359.982 91.5321Z" fill="#6891A5"/>
<path d="M263.77 48.1264L249.077 58.0328L243.863 75.0154L254.291 57.5581L267.562 49.5416L266.613 38.2153L263.77 48.1264Z" fill="#F3FCFF"/>
<path d="M216.846 101.439L228.223 95.7778L232.488 87.282L230.117 98.1335L221.588 103.324L217.318 125.502L216.846 101.439Z" fill="#EBF3FF"/>
<path d="M-22.4696 143.995C-20.7316 139.435 -14.9487 124.251 -12.5457 117.476C-9.70241 109.455 11.6267 108.51 11.6267 108.51C11.6267 108.51 27.2693 69.8201 29.6356 64.634C32.0065 59.4434 42.9073 58.9732 42.9073 58.9732C42.9073 58.9732 47.1722 47.1767 51.914 39.6304C56.6513 32.0796 87.4595 27.3637 92.2013 28.3087C94.5722 28.7789 98.3648 42.4608 98.3648 42.4608L104.253 48.2221L118.268 90.5872L127.27 78.3205L136.749 84.4561C136.749 84.4561 139.592 91.5322 139.592 94.8374C139.592 98.138 147.173 101.443 153.809 103.803C159.995 106.004 164.948 138.147 164.815 144.005H-22.4696V143.995Z" fill="#ADCCE0"/>
<path d="M104.249 48.2221L98.3607 42.4608L93.8253 26.049L85.7678 19.4431L87.6618 28.4046L85.057 56.0058L92.5229 48.2221H104.249Z" fill="#BEDCED"/>
<path d="M42.9061 58.9778L54.4856 29.3496L66.331 23.6888L73.9161 10.4771L81.5013 10.0069L85.7662 19.4432L87.6602 28.4046L85.0554 56.0058L79.1303 43.9765L66.808 61.4338L64.437 41.6163L57.8012 53.4128L54.4856 46.3367L42.9061 58.9778Z" fill="#EBF3FF"/>
<path d="M133.397 89.624L127.358 98.4714L141.932 122.886L133.397 89.624Z" fill="#5A7E94"/>
<path d="M92.5225 48.2223L87.6614 28.4048L85.0566 56.006L92.5225 48.2223Z" fill="#82B0C4"/>
<path d="M-8.07459 88.7976L3.77084 97.7637L19.8857 93.0432L5.19247 102.95L-6.65297 98.7041L-11.8672 108.615L-12.8164 96.3484H-19.9246L-8.07459 88.7976Z" fill="#F3FCFF"/>
<path d="M81.502 10.0069L77.7094 26.5192L73.9168 10.4771L81.502 10.0069Z" fill="#F3FCFF"/>
<path d="M54.4866 29.3497L66.332 23.6888L57.8022 39.7309L54.4866 29.3497Z" fill="#F3FCFF"/>
<path d="M79.6042 56.7134L83.8691 65.6794L81.9752 77.0011L74.867 74.6455L64.4386 89.2678L72.9684 70.8701L80.0812 72.7555L79.6042 56.7134Z" fill="#F3FCFF"/>
<path d="M55.4303 62.8491L55.9072 80.7767L51.1654 86.9123L52.1147 101.064L45.9558 85.4971L52.1147 79.3614L55.4303 62.8491Z" fill="#F3FCFF"/>
<path d="M172.116 54.1934L164.563 77.832L175.344 62.3788L177.71 87.8526L189.56 66.1497L199.516 75.1157L202.832 51.9976L184.548 47.1904L172.116 54.1934Z" fill="#BEDCED"/>
<path d="M283.104 143.995L269.727 127.2L254.002 124.817L254.685 108.825L246.435 108.615L245.485 96.3485L252.635 87.0446L255.029 82.2831L268.236 68.0397L275.143 50.0117L269.456 25.0036L285.094 0L296.944 19.8175L296.472 33.9696L309.945 51.9976L316.581 85.9672L323.217 123.712L318.562 143.995H283.104Z" fill="#82B0C4"/>
<path d="M91.4531 88.5603L77.2368 105.78C77.2368 105.78 78.6584 140.22 78.1861 137.864C77.7137 135.504 71.5503 103.42 71.5503 103.42L91.4531 88.5603Z" fill="#D9E8FF"/>
<path d="M202.832 51.9976L184.548 47.1904L172.116 54.1934L202.832 51.9976Z" fill="#BEDCED"/>
<path d="M172.116 54.1934L184.548 47.1904L191.459 53.4128L183.874 64.7345L184.823 54.3578L172.116 54.1934Z" fill="#F3FCFF"/>
<path d="M129.311 125.894L119.18 114.568L111.893 124.123L122.381 143.995H103.446L95.7187 115.632L99.9836 111.03L91.4538 88.5602L97.8511 88.7383L91.275 59.3704L85.0565 56.0058L92.5223 48.2222H104.249L127.27 78.3205L115.626 108.907L119.359 105.191L129.311 125.894Z" fill="#6891A5"/>
<path d="M-21.3921 143.995H-46.0001C-44.0924 139.471 -36.6953 122.639 -31.7746 121.822C-26.0881 120.877 -26.0881 120.877 -26.0881 120.877L-19.9292 96.3438L-8.07917 88.793L3.77085 97.759L19.8857 93.0386L1.87686 129.839L-21.3921 143.995Z" fill="#ADCCE0"/>
<path d="M2.76314 143.995L-0.96521 126.543L11.3984 143.995H2.76314Z" fill="#82B0C4"/>
<path d="M18.9415 112.861C18.9415 112.861 7.7244 116.403 -0.484386 118.686C-3.38268 119.494 -5.5289 121.923 -5.96915 124.886L-6.9551 131.491C-7.18899 133.071 -6.6983 134.673 -5.61603 135.856L1.85901 144H-22.8636C-21.5429 140.065 -16.9341 126.584 -12.6417 117.348C-7.56504 106.428 11.5857 108.528 11.5857 108.528C11.5857 108.528 18.6893 82.411 22.4956 80.0736C26.3019 77.7362 43.1689 59.1787 43.1689 59.1787C43.1689 59.1787 27.531 84.7803 26.5221 86.9168C24.6281 90.9205 20.3953 107.679 18.9415 112.861Z" fill="#82B0C4"/>
<path d="M25.0997 122.767L34.5788 103.424L31.7356 123.237L23.6781 132.203L30.3139 137.394L47.8505 121.352L43.5856 102.479L54.4863 126.072L39.3207 139.754L43.1958 143.995H18.6061L10.8834 131.733L25.0997 122.767Z" fill="#82B0C4"/>
<path d="M73.8989 143.995L67.2814 131.258L78.1821 137.864L77.2374 105.785L86.2396 136.449L95.7188 115.632L93.8569 143.995H73.8989Z" fill="#82B0C4"/>
<path d="M93.8561 143.995L95.718 115.632L103.445 143.995H93.8561Z" fill="#5A7E94"/>
<path d="M111.893 124.123L122.381 143.996H110.586L103.303 119.467L110.412 109.085L102.354 96.8188L107.568 84.5521L101.405 54.3579L110.884 85.0223L109.462 102.48L115.626 108.907L111.893 124.123Z" fill="#5A7E94"/>
<path d="M214.004 143.995H185.424L191.73 127.857L199.311 120.311L187.461 126.442L179.325 143.995H165.411L179.88 126.442L192.202 118.896L206.419 114.65L198.366 130.688L207.84 125.972L212.582 109.46L214.004 126.917L209.739 136.353L214.004 143.995Z" fill="#6891A5"/>
<path d="M256.234 143.995H220.221L222.06 131.633L234.382 118.896L233.91 128.802L242.44 138.239L256.234 143.995Z" fill="#6891A5"/>
<path d="M133.556 143.995L141.93 122.886L127.356 98.4713L133.4 89.624L127.273 78.3206L137.22 84.5384L140.687 96.4353L156.861 105.018C156.861 105.018 163.438 120.941 164.68 129.611C165.662 136.454 165.116 141.969 164.841 144H133.556V143.995Z" fill="#6891A5"/>
<path d="M149.951 143.996L158.279 124.183L154.014 108.14L140.683 96.4353L156.858 105.018L179.879 126.442L165.41 143.996H149.951Z" fill="#5A7E94"/>
<path d="M318.475 101.064L311.839 63.3193L303.309 44.4468L296.472 33.9697L297.802 19.6167C299.54 19.2104 303.438 18.2928 304.529 17.9276C305.951 17.4574 323.487 41.516 323.487 41.516L333.439 45.2914L347.655 86.8118L360.927 91.5323C360.927 91.5323 373.722 122.201 373.722 123.616C373.722 125.032 385.095 125.502 385.095 125.502L396 143.9H335.539L318.475 101.064Z" fill="#5A7E94"/>
<path d="M315.041 143.995L319.425 126.543L295.725 98.2339L314.683 107.67L311.161 96.248L310.891 85.0222L311.84 71.8105L306.424 51.4269L294.78 40.6713L285.095 0L296.945 19.8175L296.473 33.9696L314.009 52.8422L320.168 77.8503L323.011 64.1638L309.74 38.69L330.12 65.1088L323.218 89.7426L335.54 122.767L340.277 120.882L316.165 143.995H315.041Z" fill="#6891A5"/>
<path d="M345.105 143.995H312.949L345.963 110.5L340.075 133.523L345.105 143.995Z" fill="#6891A5"/>
<path d="M285.094 0L246.233 0.944996C246.233 0.944996 238.175 9.91104 234.86 16.0421L235.772 43.9765L242.917 21.7029L251.447 29.2538L246.439 51.0572L269.46 25.0082L271.552 34.6864L281.31 27.8386L293.633 45.7661L282.727 16.9871L285.094 0Z" fill="#EBF3FF"/>
<path d="M269.457 25.0036L264.243 12.7369L269.457 3.77542L267.563 0.470215H260.45L263.77 4.24563L259.978 14.1521L269.457 25.0036Z" fill="#F3FCFF"/>
<path d="M246.233 0.945007H253.341L250.02 14.1521L260.926 25.0036L253.813 39.1603L256.656 25.0036L244.811 15.0971L246.233 0.945007Z" fill="#F3FCFF"/>
<path d="M269.727 127.2L257.762 121.074L254.685 108.825L246.141 105.082L248.874 93.1712L255.712 88.0673L255.029 82.2832L252.635 87.0447L245.114 92.491L241.697 107.803L250.924 112.569L254.001 124.817L269.727 127.2Z" fill="#EBF3FF"/>
<path d="M275.143 75.0154L287.938 68.4095L282.728 65.1089L275.143 75.0154Z" fill="#C7DBFF"/>
</g>
<defs>
<clipPath id="clip0_228_1866">
<rect width="442" height="144" fill="white" transform="matrix(-1 0 0 1 396 0)"/>
</clipPath>
</defs>
</svg>
