<svg width="350" height="215" viewBox="0 0 350 215" fill="none" xmlns="http://www.w3.org/2000/svg">
<g clip-path="url(#clip0_228_1790)">
<path d="M381.363 157.669L531.899 215H535.994L494.47 148.449L480.206 143.331L460.841 112.615L450.652 120.804L439.445 113.638L429.263 94.1891L409.898 122.858L382.382 83.9526L365.061 52.2127L353.854 38.9053L347.741 60.402C347.741 60.402 306.979 98.2837 307.998 103.402C309.017 108.52 381.363 157.669 381.363 157.669Z" fill="#314D84"/>
<path d="M173.145 215L146.99 192.473L106.229 179.166L85.8515 144.355L72.5997 147.426L26.7442 120.811L-3.8217 68.5979L-34.3942 117.74L-63.9478 125.929L-92.476 175.071L-118.973 179.166L-150.979 215H173.145Z" fill="#496A9E"/>
<path d="M53.2427 148.449L85.8529 122.858L103.174 123.882L132.727 92.1419L146.991 107.497L155.142 122.858L167.375 110.568L190.809 104.426L197.941 90.0946L235.646 80.8818L194.885 161.763L113.126 210.938L45.0918 176.095L53.2427 148.449Z" fill="#4E78B5"/>
<path d="M167.375 110.568L183.677 119.787L176.545 133.095V149.473L194.884 139.237L205.073 115.693L190.809 104.426L167.375 110.568Z" fill="#355B93"/>
<path d="M132.727 92.1418L113.914 112.351C113.914 112.351 120.501 113.639 126.614 118.757C132.727 123.875 131.708 143.331 131.708 143.331L144.953 121.834C144.953 121.834 139.859 113.645 139.859 110.574C139.859 107.503 146.991 107.503 146.991 107.503L132.727 92.1418Z" fill="#6996CC"/>
<path d="M103.174 123.882L85.8535 122.858L99.0987 137.189L105.212 159.716L106.231 136.166L103.174 123.882Z" fill="#496A9E"/>
<path d="M155.142 122.858L141.896 145.379V162.787L168.393 153.574L154.123 140.26L155.142 122.858Z" fill="#355B93"/>
<path d="M533.963 215L497.534 192.473L466.961 152.544L424.162 147.426L383.401 104.426L331.432 83.9527L310.036 45.0473L280.483 0L253.992 31.7398L243.797 62.4494L218.325 78.8344L188.772 138.213L141.897 162.787L118.457 196.568L86.3594 215H533.963Z" fill="#496A9E"/>
<path d="M343.086 215L336.526 184.284L300.866 175.071L261.124 156.645L263.161 131.047L242.778 118.763L259.086 104.426L265.199 71.6689L261.124 44.0237L273.35 29.6925L280.482 0L253.992 31.7398L243.796 62.4494L229.532 67.5743L218.325 78.8344L188.771 138.213L214.249 175.071L186.734 162.787L158.199 179.166L141.897 162.787L83.5391 215H343.086Z" fill="#314D84"/>
<path d="M261.124 44.0235L280.482 64.5032L288.633 96.2364V58.3546L273.35 29.6924L261.124 44.0235Z" fill="#355B93"/>
<path d="M331.431 83.9526L314.873 53.8506L322.261 83.9526L319.205 97.2601L338.563 109.55L348.758 121.834L363.022 127.976L349.777 113.645L341.62 98.2837L329.393 95.2128L331.431 83.9526Z" fill="#355B93"/>
<path d="M-3.81912 68.5979L-15.0332 111.598L-3.81912 121.834L4.33179 141.284L2.29408 114.669L-6.87571 106.473L-1.78139 82.929L1.2752 101.355L10.445 110.568L17.577 123.882L16.5582 103.402L-3.81912 68.5979Z" fill="#6996CC"/>
<path d="M280.483 0L273.351 29.6925L288.634 58.3548L300.866 62.4494L306.98 78.8344L305.961 53.2365L290.671 44.0237L283.539 22.527L298.829 38.9054L307.348 40.9395L280.483 0Z" fill="#6996CC"/>
<path d="M85.8524 144.355L72.6006 147.426L84.8335 156.645L90.9467 183.26L91.9655 163.811L106.23 179.166L85.8524 144.355Z" fill="#6996CC"/>
<path d="M242.778 118.764L259.087 104.426L260.106 117.74L276.407 116.716L284.558 136.166L280.483 156.645L277.426 131.047H263.162L242.778 118.764Z" fill="#6996CC"/>
<path d="M331.431 83.9527L383.4 104.426L400.727 123.882L377.287 107.497L357.928 103.402L350.389 114.53L341.62 98.2838L329.394 95.2129L331.431 83.9527Z" fill="#6996CC"/>
<path d="M353.854 38.9053L347.74 60.402C347.74 60.402 356.91 62.4493 357.929 69.6148C358.948 76.7804 363.023 85.9933 363.023 85.9933C363.023 85.9933 366.08 63.4663 363.023 60.3954L365.061 52.2061L353.854 38.9053Z" fill="#496A9E"/>
<path d="M302.483 215L293.728 200.669L295.364 172.885L287.614 196.568L290.671 210.905L273.35 196.568L274.474 162.906L261.124 156.645L252.966 181.213L249.121 215H302.483Z" fill="#213E6D"/>
<path d="M219.344 158.693L229.533 134.118L226.476 156.645L214.25 175.071L234.548 215H235.297L227.495 172L238.702 156.645L242.778 118.764L259.08 104.432L265.193 71.6689L261.117 44.0237L250.929 69.6216L247.872 89.071C247.872 89.071 247.872 89.071 238.702 94.1892C229.533 99.3075 221.382 110.568 221.382 110.568C221.382 110.568 221.382 138.213 216.287 147.426C211.193 156.639 202.51 158.164 202.51 158.164L209.517 168.018L219.344 158.693Z" fill="#213E6D"/>
<path d="M335.508 162.787L355.892 194.52L360.519 215H440.523L427.219 200.669L430.275 175.071L412.955 144.355L393.596 136.166L403.785 143.331L418.049 174.047L387.483 159.716V131.047L363.024 117.74L379.326 133.095L375.25 156.645L360.986 139.237L329.395 129L310.036 113.645L325.319 134.118L353.854 145.378L374.231 174.047H363.024L341.621 152.544L307.999 145.378L292.709 118.764L300.866 153.574L335.508 162.787Z" fill="#355B93"/>
<path d="M215.347 215L204.054 205.787L203.035 185.307L192.846 166.882L195.903 185.307L191.827 203.74H175.525L184.695 194.52L186.733 162.787L173.488 188.378L146.991 192.473L158.198 179.166L135.783 190.426L115.886 215H215.347Z" fill="#213E6D"/>
<path d="M14.5195 168.929L35.9222 203.74L14.8022 215H92.2095L98.4345 201.977L84.4333 195.003L77.3604 175.23L65.4693 158.693L68.1578 172.951L67.507 184.284L58.9617 176.755L55.4187 163.071L50.9883 156.058L50.1863 174.047L44.0994 166.109L40.563 152.425L27.8239 140.26L33.4835 153.185L32.8657 180.189L14.5195 168.929Z" fill="#355B93"/>
<path d="M-43.7666 215H-6.87717V209.882L7.38693 206.811L6.36806 198.622L-2.8017 182.237L-4.83944 170.976L-9.93375 182.237L-2.8017 196.568L-14.0158 199.639L-20.129 182.237L-5.85831 157.669L-26.2422 178.142L-23.1856 202.716L-43.7666 215Z" fill="#355B93"/>
</g>
<defs>
<clipPath id="clip0_228_1790">
<rect width="722" height="215" fill="white" transform="translate(-186)"/>
</clipPath>
</defs>
</svg>
