<svg width="350" height="117" viewBox="0 0 350 117" fill="none" xmlns="http://www.w3.org/2000/svg">
<g clip-path="url(#clip0_228_1960)">
<path d="M31.9556 116.962H-34C-34 116.962 -16.044 71.6182 14.3672 64.0839C32.1686 59.6721 36.3537 25.8931 59.8022 27.3623C83.2548 28.8315 119.163 116.962 119.163 116.962H31.9556Z" fill="#99BDF2"/>
<path d="M110.061 96.3434C97.8646 70.1992 75.9031 28.3711 59.8058 27.3623C59.8058 27.3623 68.6021 62.8072 49.911 60.6013C31.224 58.3996 27.9244 69.4123 36.7207 81.5342C45.517 93.652 -1.75586 116.962 -1.75586 116.962H31.955H96.8288L110.061 96.3434Z" fill="#85A3D6"/>
<path d="M213.703 116.962H140.083H31.9541C31.9541 116.962 43.315 74.9249 107.074 53.992C147.931 40.5767 158.005 0.745133 180.727 0.0126272C203.444 -0.719879 231.295 33.9716 250.35 62.6147C269.404 91.2577 282.962 116.787 282.962 116.787L213.703 116.962Z" fill="#A9D0FF"/>
<path d="M188.968 1.18042C183.401 5.8852 181.58 18.748 185.406 27.266C195.914 50.656 206.503 73.5646 175.695 72.041C153.207 70.9276 143.007 111.793 147.205 116.962H213.703L282.959 116.787C282.959 116.787 269.401 91.2577 250.346 62.6147C233.543 37.3537 209.903 7.40463 188.968 1.18042Z" fill="#8DAFE2"/>
<path d="M31.9541 116.962C31.9541 116.962 50.7246 104.485 60.4356 106.431C70.1466 108.377 83.7462 116.812 96.6942 114.216C109.642 111.621 110.294 97.9924 120.652 99.29C131.011 100.588 140.078 116.958 140.078 116.958H31.9541V116.962Z" fill="#99BDF2"/>
<path d="M383.729 116.962C382.998 114.761 320.706 66.2856 292.124 65.5531C263.542 64.8206 213.709 116.962 213.709 116.962H383.729Z" fill="#A9D0FF"/>
<path d="M292.394 65.4609C292.135 65.4525 291.872 65.4609 291.608 65.465C287.783 68.6504 285.08 72.4343 285.431 76.6703C286.529 89.8889 303.019 85.4855 319.509 95.3973C335.999 105.313 317.312 116.874 317.312 116.874H384.003L377.675 111.337C361.006 98.1055 315.596 66.0552 292.394 65.4609Z" fill="#8DAFE2"/>
<path d="M327.476 75.2932C320.773 74.6821 318.049 109.026 327.476 109.026C336.899 109.026 334.882 75.9671 327.476 75.2932Z" fill="#819EC9"/>
<path d="M344.683 82.4383C338.927 81.7183 330.908 108.595 344.683 108.595C358.458 108.595 350.48 83.1624 344.683 82.4383Z" fill="#8A9CB2"/>
<path d="M118.302 85.6738C113.014 85.1925 110.871 112.27 118.302 112.27C125.732 112.27 124.141 86.2054 118.302 85.6738Z" fill="#819EC9"/>
<path d="M133.707 95.4099C130.019 94.9495 124.877 112.178 133.707 112.178C142.537 112.178 137.424 95.8746 133.707 95.4099Z" fill="#99B1C9"/>
<path d="M153.271 88.9179C157.862 88.4993 159.725 112.019 153.271 112.019C146.818 112.019 148.201 89.3783 153.271 88.9179Z" fill="#8A9CB2"/>
<path d="M166.624 100.562C169.364 100.219 173.182 113.015 166.624 113.015C160.067 113.011 163.863 100.906 166.624 100.562Z" fill="#A9D0FF"/>
<path d="M278.858 116.975C278.858 116.975 279.556 110.324 277.81 110.324C276.064 110.324 275.366 116.975 275.366 116.975H278.858Z" fill="#8A9CB2"/>
<path d="M118.716 102.107H117.852V116.962H118.716V102.107Z" fill="#467CB2"/>
<path d="M133.825 107.297H133.395V116.962H133.825V107.297Z" fill="#467CB2"/>
<path d="M166.197 107.297H165.767V116.962H166.197V107.297Z" fill="#467CB2"/>
<path d="M153.68 105.564H152.815V116.958H153.68V105.564Z" fill="#467CB2"/>
<path d="M344.909 96.0503H343.614V116.816H344.909V96.0503Z" fill="#467CB2"/>
<path d="M327.97 87.8296H326.779V116.812H327.97V87.8296Z" fill="#467CB2"/>
<path d="M313.007 53.0877C316.883 52.7361 318.453 72.585 313.007 72.585C307.56 72.5808 308.725 53.477 313.007 53.0877Z" fill="#819EC9"/>
<path d="M303.063 57.2149C306.388 56.7963 311.024 72.3338 303.063 72.3338C295.102 72.3338 299.709 57.6334 303.063 57.2149Z" fill="#8A9CB2"/>
<path d="M302.931 78.1523H303.679V66.1518H302.931V78.1523Z" fill="#467CB2"/>
<path d="M312.525 77.082H313.41V60.3307H312.525V77.082Z" fill="#467CB2"/>
<path d="M302.171 116.962C302.155 116.812 301.662 112.605 300.229 113.082C299.093 113.459 298.258 115.895 297.94 116.962H302.171Z" fill="#8A9CB2"/>
<path d="M314.301 116.962C314.105 115.071 313.449 110.165 311.883 110.165C309.962 110.165 308.521 116.808 308.487 116.962H314.301Z" fill="#99B1C9"/>
<path d="M293.436 116.962C293.452 116.807 294.384 107.729 291.978 107.729C289.572 107.729 288.595 116.803 288.578 116.962H293.436Z" fill="#819EC9"/>
<path d="M271.125 116.925C271.105 116.774 270.541 112.576 269.116 113.082C267.989 113.48 267.195 115.933 266.898 117L271.125 116.925Z" fill="#819EC9"/>
<path d="M147.298 116.962C146.785 114.095 145.473 107.729 143.969 107.729C142.32 107.729 140.448 114.811 139.918 116.962H147.298Z" fill="#8A9CB2"/>
<path d="M108.867 116.962C108.361 113.949 107.079 107.729 105.116 107.729C103.015 107.729 100.989 114.43 100.296 116.962H108.867Z" fill="#99B1C9"/>
<path d="M92.1467 116.962C91.8585 115.087 91.0649 111.127 89.5738 111.625C88.0033 112.149 86.8547 115.648 86.4746 116.962H92.1467Z" fill="#8A9CB2"/>
<path d="M80.8284 116.962C80.9955 113.191 81.1041 104.485 78.5688 104.485C75.9123 104.485 74.204 113.66 73.6777 116.962H80.8284Z" fill="#99B1C9"/>
</g>
<defs>
<clipPath id="clip0_228_1960">
<rect width="418" height="117" fill="white" transform="translate(-34)"/>
</clipPath>
</defs>
</svg>
