<svg width="30" height="30" viewBox="0 0 30 30" fill="none" xmlns="http://www.w3.org/2000/svg">
<path d="M15 30C23.2843 30 30 23.2843 30 15C30 6.71573 23.2843 0 15 0C6.71573 0 0 6.71573 0 15C0 23.2843 6.71573 30 15 30Z" fill="#F0F0F0"/>
<path d="M3.10089 5.86768C1.92263 7.40066 1.03417 9.16756 0.516846 11.087H8.32024L3.10089 5.86768Z" fill="#0052B4"/>
<path d="M29.4835 11.0871C28.9661 9.16768 28.0776 7.40079 26.8994 5.8678L21.6802 11.0871H29.4835Z" fill="#0052B4"/>
<path d="M0.516846 18.9131C1.03423 20.8325 1.92269 22.5994 3.10089 24.1323L8.32007 18.9131H0.516846Z" fill="#0052B4"/>
<path d="M24.1324 3.10083C22.5994 1.92256 20.8326 1.03411 18.9131 0.516724V8.32006L24.1324 3.10083Z" fill="#0052B4"/>
<path d="M5.86792 26.8991C7.40091 28.0774 9.1678 28.9658 11.0872 29.4832V21.6799L5.86792 26.8991Z" fill="#0052B4"/>
<path d="M11.0872 0.516724C9.16774 1.03411 7.40085 1.92256 5.86792 3.10077L11.0872 8.32V0.516724Z" fill="#0052B4"/>
<path d="M18.9131 29.4832C20.8325 28.9658 22.5994 28.0774 24.1323 26.8992L18.9131 21.6799V29.4832Z" fill="#0052B4"/>
<path d="M21.6802 18.9131L26.8994 24.1324C28.0776 22.5995 28.9661 20.8325 29.4835 18.9131H21.6802Z" fill="#0052B4"/>
<path d="M29.873 13.0435H16.9566H16.9566V0.126973C16.3161 0.0435938 15.6631 0 15 0C14.3368 0 13.6839 0.0435938 13.0435 0.126973V13.0434V13.0434H0.126973C0.0435938 13.6839 0 14.3369 0 15C0 15.6632 0.0435938 16.3161 0.126973 16.9565H13.0434H13.0434V29.873C13.6839 29.9564 14.3368 30 15 30C15.6631 30 16.3161 29.9565 16.9565 29.873V16.9566V16.9566H29.873C29.9564 16.3161 30 15.6632 30 15C30 14.3369 29.9564 13.6839 29.873 13.0435Z" fill="#D80027"/>
<path d="M18.9131 18.9131L25.6066 25.6067C25.9145 25.2989 26.2081 24.9772 26.4883 24.6437L20.7577 18.9131H18.9131V18.9131Z" fill="#D80027"/>
<path d="M11.0869 18.9131H11.0868L4.39331 25.6065C4.70104 25.9144 5.02278 26.2081 5.3563 26.4883L11.0869 20.7576V18.9131Z" fill="#D80027"/>
<path d="M11.087 11.087V11.0869L4.39344 4.39331C4.08559 4.70104 3.79191 5.02278 3.51172 5.3563L9.24236 11.0869H11.087V11.087Z" fill="#D80027"/>
<path d="M18.9131 11.087L25.6067 4.39338C25.2989 4.08553 24.9772 3.79186 24.6437 3.51172L18.9131 9.24237V11.087Z" fill="#D80027"/>
</svg>
