<svg width="1440" height="962" viewBox="0 0 1440 962" fill="none" xmlns="http://www.w3.org/2000/svg">
<g clip-path="url(#clip0_346_1524)">
<path d="M706.275 698.116C763.133 700.065 820.449 683.152 867.182 650.643C917.119 615.899 970.087 560.744 1027.23 581.556C1046.91 588.723 1062.52 604.375 1081.86 612.516C1145.81 639.521 1211.76 577.314 1280.69 569.516C1297.96 567.567 1318.61 571.007 1326.56 586.487C1338.46 609.65 1320.67 662.913 1362.49 664.805C1372.78 665.264 1382.51 660.62 1392.46 657.81C1402.36 654.943 1414.25 654.313 1421.8 661.365C1427.07 666.238 1428.95 673.634 1432.1 680.056C1439.37 695.077 1453.89 705.512 1469.45 711.36C1485.01 717.208 1512.41 729.076 1528.94 730.853C1262.79 726.725 870.099 734.981 603.942 730.853C631.513 708.78 671.039 696.912 706.275 698.116Z" fill="url(#paint0_linear_346_1524)"/>
</g>
<path d="M-108.397 295.544C-107.269 281.016 -104.248 266.526 -98.4065 252.96C-77.7809 205.016 -16.9112 168.679 39.6078 181.654C74.5344 189.675 105.191 212.002 121.667 241.389C131.215 258.43 138.305 279.649 157.762 286.598C193.132 299.24 224.352 252.442 262.22 254.549C286.874 255.917 303.632 277.024 318.94 294.804C334.288 312.585 356.284 327.001 379.407 318.98C386.577 316.503 392.499 311.771 399.227 308.408C421.343 297.429 458.727 299.758 479.352 312.954C500.22 326.336 513.111 362.599 534.824 369.659C558.431 377.348 591.988 366.332 612.734 366.554C657.973 367.035 690.886 371.323 729.962 388.955C729.962 388.955 66.115 388.955 12.7381 388.955C-65.1316 388.955 -91.4373 364.188 -104.61 333.766C-109.726 321.826 -109.404 308.408 -108.397 295.544Z" fill="url(#paint1_linear_346_1524)"/>
<path d="M201.057 98.9326C153.119 172.431 86.2567 231.841 11 275.194C20.9435 280.721 33.2107 278.23 44.0543 274.838C58.8544 270.191 73.215 264.141 86.9056 256.752C87.5336 260.729 87.5755 264.811 87.0312 268.81C96.0118 269.668 104.322 264.141 111.314 258.301C125.424 246.515 137.712 232.427 147.571 216.727C147.048 225.079 147.467 233.474 148.786 241.721C160.236 232.762 167.898 218.904 169.489 204.229C172.566 207.285 177.653 205.108 181.317 202.806C188.56 198.242 195.824 193.679 203.067 189.115C211.042 184.112 219.228 178.857 224.566 170.986C228.648 164.958 230.741 157.777 232.772 150.744C237.063 135.86 241.375 120.976 245.667 106.092" fill="url(#paint2_linear_346_1524)"/>
<path d="M205.076 103.057L245.625 106.134L201.057 98.9326C153.119 172.431 86.2566 231.841 11 275.194C89.0618 235.86 157.159 176.555 205.076 103.057Z" fill="url(#paint3_linear_346_1524)"/>
<path d="M340.852 60.3937C382.741 97.4045 443.407 136.404 496.432 169.814C510.081 178.418 538.215 196.735 534.699 201.298C531.203 205.841 499.341 198.2 482.636 190.832C488.1 197.865 492.81 205.883 496.557 214.591C493.836 216.58 490.528 216.559 487.388 216.496C478.575 216.287 469.595 216.036 461.242 212.393C435.263 200.964 423.331 161.315 400.053 142.475C402.879 153.151 405.684 163.827 408.51 174.503C408.866 175.864 409.222 177.392 408.782 178.732C408.364 180.009 407.317 180.7 406.291 181.139C398.085 184.74 389.691 177.225 382.971 170.17C374.744 161.545 366.517 152.921 358.29 144.296C358.814 151.058 359.337 157.819 359.86 164.56C359.965 165.962 360.07 167.47 359.546 168.705C358.227 171.928 354.48 170.777 351.989 169.102C325.696 151.518 302.962 125.121 286.55 93.155C285.001 90.1196 270.997 63.2407 272.692 60.3728" fill="url(#paint4_linear_346_1524)"/>
<path d="M496.432 169.793C443.407 136.383 382.762 97.3836 340.852 60.3728H327.455C369.343 97.3836 430.658 136.383 483.683 169.793C497.332 178.397 538.215 196.714 534.698 201.278C538.194 196.735 510.08 178.397 496.432 169.793Z" fill="url(#paint5_linear_346_1524)"/>
<path d="M212.089 198.179C203.443 211.577 194.044 224.514 183.221 236.111C159.838 261.169 130.448 279.36 101.433 297.238C75.706 313.105 49.9575 328.973 24.23 344.841C41.4375 345.385 57.7448 337.64 73.2986 330.083C67.2697 335.63 60.6755 342.601 61.7432 350.828C86.6961 344.443 110.623 333.788 132.185 319.427C130.929 323.279 130.657 327.445 131.39 331.422C148.618 330.292 165.218 321.27 175.769 307.265C174.011 311.891 179.495 316.643 184.31 316.036C189.125 315.408 192.83 311.535 195.991 307.767C215.627 284.405 230.259 256.689 238.612 227.11" fill="url(#paint6_linear_346_1524)"/>
<path d="M219.374 206.155L212.089 198.2C203.443 211.598 194.044 224.535 183.221 236.132C159.838 261.19 130.448 279.381 101.433 297.259C75.706 313.126 49.9575 328.994 24.23 344.862C166.37 275.425 212.11 216.852 219.374 206.155Z" fill="url(#paint7_linear_346_1524)"/>
<path d="M246.044 0C237.398 13.3976 227.999 26.3346 217.176 37.9319C193.793 62.9895 164.402 81.1809 135.388 99.0583C109.661 114.926 83.9122 130.794 58.1847 146.661C75.3922 147.206 91.6996 139.481 107.253 131.903C101.224 137.451 94.6303 144.422 95.6979 152.649C120.651 146.264 144.578 135.609 166.14 121.248C164.884 125.1 164.612 129.266 165.344 133.243C182.573 132.113 199.173 123.069 209.724 109.086C207.965 113.712 213.45 118.464 218.265 117.857C223.079 117.229 226.785 113.356 229.946 109.588C249.581 86.2259 264.214 58.5097 272.567 28.9304" fill="url(#paint8_linear_346_1524)"/>
<path d="M253.35 7.9548L246.044 0C237.398 13.3976 227.999 26.3346 217.176 37.9319C193.793 62.9895 164.402 81.1809 135.388 99.0583C109.661 114.926 83.9122 130.794 58.1847 146.661C200.325 77.2244 246.086 18.6729 253.35 7.9548Z" fill="url(#paint9_linear_346_1524)"/>
<path d="M207.714 76.3242L184.394 959.015C184.394 959.015 272.546 966.488 272.546 956.063C272.546 945.638 241.522 76.3242 241.522 76.3242H207.714V76.3242Z" fill="url(#paint10_linear_346_1524)"/>
<path d="M205.725 76.3242L184.394 959.015C184.394 959.015 266.579 966.488 266.579 956.063C266.579 945.638 235.556 76.3242 235.556 76.3242H205.725V76.3242Z" fill="url(#paint11_linear_346_1524)"/>
<path d="M264.088 41.6791C291.156 76.1359 316.088 138.162 348.828 175.131C380.396 210.761 399.383 241.68 436.771 265.963C446.358 272.18 455.988 278.293 465.617 284.342C470.662 287.503 484.751 291.397 477.759 297.782C464.675 309.735 437.147 294.684 425.99 284.887C430.03 288.445 432.228 295.207 431.349 301.403C414.057 290.371 397.331 277.811 381.359 263.848C377.926 260.834 374.221 257.212 373.488 251.937C375.121 256.794 376.167 261.985 376.586 267.261C376.67 268.349 376.712 269.542 376.188 270.38C375.623 271.322 374.597 271.51 373.676 271.531C366.14 271.74 359.358 266.151 353.078 260.75C339.806 249.32 326.241 237.535 316.716 221.018C318.432 228.073 319.563 235.337 320.128 242.705C310.519 239.461 301.916 231.548 296.41 220.872C298.776 225.896 294.442 232.887 294.254 238.77C272.148 216.517 258.415 188.152 243.364 157.631C229.987 130.501 222.912 98.6397 219.395 67.6787" fill="url(#paint12_linear_346_1524)"/>
<path d="M465.617 284.342C455.967 278.293 438.236 266.444 429.632 258.175C400.116 229.789 381.464 208.186 351.926 169.751C319.165 127.13 291.156 76.1149 264.088 41.6581L219.395 67.6368L260.572 50.6596C265.03 58.2585 276.167 72.954 280.647 80.0505C373.488 251.937 456.385 278.544 465.617 284.342Z" fill="url(#paint13_linear_346_1524)"/>
<path d="M241.04 363.43C252.156 378.481 263.314 405.025 276.251 418.465C290.507 433.307 306.751 445.951 323.394 457.883C327.664 460.939 331.955 463.954 336.247 466.947C339.575 469.271 346.044 471.762 338.675 473.751C335.912 474.504 323.561 472.076 321.803 469.941C323.059 471.469 323.142 473.897 321.97 475.509C308.656 470.087 296.787 461.023 287.89 449.53C287.848 452.524 287.827 455.517 287.785 458.511C281.882 456.062 277.151 450.828 275.225 444.611C275.748 447.081 275.623 449.698 274.827 452.084C271.939 453.34 268.778 451.163 266.433 449.007C252.345 436.007 251.675 421.919 244.034 404.481C239.052 393.198 230.72 359.892 241.04 363.43Z" fill="url(#paint14_linear_346_1524)"/>
<path d="M336.226 466.947C331.934 463.954 327.643 460.939 323.373 457.883C306.751 445.951 290.507 433.307 276.23 418.465C263.293 405.004 252.135 378.481 241.019 363.43C241.019 363.43 244.473 372.934 246.253 375.948C274.053 435.484 332.102 464.079 336.226 466.947Z" fill="url(#paint15_linear_346_1524)"/>
<path d="M260.341 361.106C250.293 341.512 244.348 321.646 239.387 299.54C236.833 288.173 235.095 276.534 234.174 264.811C233.714 258.95 233.462 253.068 233.421 247.185C233.4 244.841 234.928 232.28 233.839 231.003C277.988 307.579 348.828 352.314 413.702 402.304C415.648 403.811 417.867 406.365 416.842 408.877C416.088 410.698 414.099 411.012 412.425 410.991C396.787 410.803 382.468 401.069 368.945 391.607C370.578 396.61 372.19 401.592 373.823 406.595C374.325 408.165 374.849 409.945 374.346 411.515C373.446 414.341 370.243 414.508 367.773 414.048C339.764 409.045 313.785 389.158 298.106 360.667C297.31 370.317 301.057 379.57 304.721 388.215C293.396 384.029 283.347 375.048 276.69 363.221C278.051 367.868 273.006 372.222 269.05 370.966C265.072 369.731 262.497 365.293 260.341 361.106Z" fill="url(#paint16_linear_346_1524)"/>
<path d="M413.701 402.325C348.828 352.314 277.988 307.579 233.839 231.024C234.718 232.029 247.655 304.837 404.03 399.122C406.103 400.357 417.867 406.407 416.842 408.898C417.867 406.386 415.648 403.811 413.701 402.325Z" fill="url(#paint17_linear_346_1524)"/>
<path d="M215.041 273.917C189.125 312.708 162.832 351.895 128.564 383.149C115.229 395.312 100.743 406.197 88.329 419.323C111.398 412.603 132.311 398.326 147.257 379.109C142.673 386.98 138.067 394.851 133.483 402.743C141.103 403.685 148.011 398.096 152.868 392.046C157.724 385.976 161.785 378.9 168.338 374.818C168.526 377.811 168.693 380.805 168.882 383.798C173.822 376.451 178.658 369.019 183.389 361.525C183.64 365.795 185.252 371.427 189.439 371.217C192.432 371.071 194.191 367.826 195.342 365C205.704 339.482 215.92 304.564 215.041 273.917Z" fill="url(#paint18_linear_346_1524)"/>
<path d="M128.564 383.15C115.229 395.312 100.743 406.198 88.329 419.323C92.2226 418.193 96.0744 416.811 99.8216 415.262C110.079 405.13 121.216 395.961 131.641 386.017C149.623 368.852 163.941 349.028 177.234 328.261C162.497 347.96 146.65 366.675 128.564 383.15Z" fill="url(#paint19_linear_346_1524)"/>
<path d="M1056 294.921C1056 294.921 1042.53 288.348 1036 294.921C1036 294.921 1048.55 292.902 1056 303C1063.44 292.902 1076 294.921 1076 294.921C1069.47 288.385 1056 294.921 1056 294.921Z" fill="#5D2C80"/>
<path d="M1275.5 205.508C1275.5 205.508 1252.91 195.365 1242 205.508C1242 205.508 1263.03 202.377 1275.5 218C1287.97 202.377 1309 205.508 1309 205.508C1298.09 195.365 1275.5 205.508 1275.5 205.508Z" fill="#5D2C80"/>
<path d="M1121.5 276.594C1121.5 276.594 1113.74 273.008 1110 276.594C1110 276.594 1117.22 275.501 1121.5 281C1125.78 275.501 1133 276.594 1133 276.594C1129.26 273.008 1121.5 276.594 1121.5 276.594Z" fill="#5D2C80"/>
<path d="M1326.5 421.647C1326.5 421.647 1314.67 415.691 1309 421.647C1309 421.647 1320.02 419.824 1326.5 429C1333.04 419.824 1344 421.647 1344 421.647C1338.27 415.691 1326.5 421.647 1326.5 421.647Z" fill="#5D2C80"/>
<defs>
<linearGradient id="paint0_linear_346_1524" x1="1066.49" y1="732.021" x2="1066.49" y2="569" gradientUnits="userSpaceOnUse">
<stop stop-color="#F1E7E1"/>
<stop offset="1" stop-color="white"/>
</linearGradient>
<linearGradient id="paint1_linear_346_1524" x1="310.5" y1="388.974" x2="310.5" y2="178.992" gradientUnits="userSpaceOnUse">
<stop stop-color="#F1E4DF"/>
<stop offset="1" stop-color="white"/>
</linearGradient>
<linearGradient id="paint2_linear_346_1524" x1="134.035" y1="94.9346" x2="122.724" y2="284.375" gradientUnits="userSpaceOnUse">
<stop offset="0.2419" stop-color="#010833"/>
<stop offset="1" stop-color="#270F56"/>
</linearGradient>
<linearGradient id="paint3_linear_346_1524" x1="128.319" y1="98.9364" x2="128.319" y2="275.206" gradientUnits="userSpaceOnUse">
<stop stop-color="#7A639C"/>
<stop offset="0.9839" stop-color="#4D48D1"/>
</linearGradient>
<linearGradient id="paint4_linear_346_1524" x1="403.774" y1="60.3837" x2="403.774" y2="216.48" gradientUnits="userSpaceOnUse">
<stop offset="0.2419" stop-color="#010833"/>
<stop offset="1" stop-color="#270F56"/>
</linearGradient>
<linearGradient id="paint5_linear_346_1524" x1="431.221" y1="60.3837" x2="431.221" y2="201.277" gradientUnits="userSpaceOnUse">
<stop offset="0.2258" stop-color="#F1B9BA"/>
<stop offset="0.4812" stop-color="#EDB6BC"/>
<stop offset="0.7126" stop-color="#E2ADC2"/>
<stop offset="0.934" stop-color="#D09DCD"/>
<stop offset="1" stop-color="#C997D1"/>
</linearGradient>
<linearGradient id="paint6_linear_346_1524" x1="131.41" y1="198.187" x2="131.41" y2="350.849" gradientUnits="userSpaceOnUse">
<stop offset="0.2419" stop-color="#010833"/>
<stop offset="1" stop-color="#270F56"/>
</linearGradient>
<linearGradient id="paint7_linear_346_1524" x1="121.804" y1="198.187" x2="121.804" y2="344.848" gradientUnits="userSpaceOnUse">
<stop stop-color="#7A639C"/>
<stop offset="0.9839" stop-color="#4D48D1"/>
</linearGradient>
<linearGradient id="paint8_linear_346_1524" x1="165.368" y1="0" x2="165.368" y2="152.662" gradientUnits="userSpaceOnUse">
<stop offset="0.2419" stop-color="#010833"/>
<stop offset="1" stop-color="#270F56"/>
</linearGradient>
<linearGradient id="paint9_linear_346_1524" x1="155.762" y1="0" x2="155.762" y2="146.661" gradientUnits="userSpaceOnUse">
<stop stop-color="#7A639C"/>
<stop offset="0.9839" stop-color="#4D48D1"/>
</linearGradient>
<linearGradient id="paint10_linear_346_1524" x1="228.477" y1="76.3311" x2="228.477" y2="961.61" gradientUnits="userSpaceOnUse">
<stop offset="0.129" stop-color="#F1B9BA"/>
<stop offset="0.537" stop-color="#B78BC5"/>
<stop offset="0.9839" stop-color="#7C5CD1"/>
</linearGradient>
<linearGradient id="paint11_linear_346_1524" x1="225.493" y1="961.61" x2="225.493" y2="76.3311" gradientUnits="userSpaceOnUse">
<stop stop-color="#15083D"/>
<stop offset="1" stop-color="#25195E"/>
</linearGradient>
<linearGradient id="paint12_linear_346_1524" x1="327.699" y1="32.3741" x2="369.245" y2="316.475" gradientUnits="userSpaceOnUse">
<stop offset="0.2419" stop-color="#010833"/>
<stop offset="1" stop-color="#270F56"/>
</linearGradient>
<linearGradient id="paint13_linear_346_1524" x1="321.629" y1="33.2619" x2="360.592" y2="299.7" gradientUnits="userSpaceOnUse">
<stop offset="0.2258" stop-color="#F1B9BA"/>
<stop offset="0.4812" stop-color="#EDB6BC"/>
<stop offset="0.7126" stop-color="#E2ADC2"/>
<stop offset="0.934" stop-color="#D09DCD"/>
<stop offset="1" stop-color="#C997D1"/>
</linearGradient>
<linearGradient id="paint14_linear_346_1524" x1="289.078" y1="363.166" x2="289.078" y2="475.51" gradientUnits="userSpaceOnUse">
<stop offset="0.2419" stop-color="#010833"/>
<stop offset="1" stop-color="#270F56"/>
</linearGradient>
<linearGradient id="paint15_linear_346_1524" x1="288.631" y1="363.429" x2="288.631" y2="466.949" gradientUnits="userSpaceOnUse">
<stop offset="0.2258" stop-color="#F1B9BA"/>
<stop offset="0.4812" stop-color="#EDB6BC"/>
<stop offset="0.7126" stop-color="#E2ADC2"/>
<stop offset="0.934" stop-color="#D09DCD"/>
<stop offset="1" stop-color="#C997D1"/>
</linearGradient>
<linearGradient id="paint16_linear_346_1524" x1="325.262" y1="231.014" x2="325.262" y2="414.256" gradientUnits="userSpaceOnUse">
<stop offset="0.2419" stop-color="#010833"/>
<stop offset="1" stop-color="#270F56"/>
</linearGradient>
<linearGradient id="paint17_linear_346_1524" x1="325.47" y1="231.014" x2="325.47" y2="408.887" gradientUnits="userSpaceOnUse">
<stop offset="0.2258" stop-color="#F1B9BA"/>
<stop offset="0.4812" stop-color="#EDB6BC"/>
<stop offset="0.7126" stop-color="#E2ADC2"/>
<stop offset="0.934" stop-color="#D09DCD"/>
<stop offset="1" stop-color="#C997D1"/>
</linearGradient>
<linearGradient id="paint18_linear_346_1524" x1="151.715" y1="273.916" x2="151.715" y2="419.338" gradientUnits="userSpaceOnUse">
<stop offset="0.2419" stop-color="#010833"/>
<stop offset="1" stop-color="#270F56"/>
</linearGradient>
<linearGradient id="paint19_linear_346_1524" x1="132.79" y1="328.269" x2="132.79" y2="419.338" gradientUnits="userSpaceOnUse">
<stop stop-color="#7A639C"/>
<stop offset="0.9839" stop-color="#4D48D1"/>
</linearGradient>
<clipPath id="clip0_346_1524">
<rect width="925" height="163" fill="white" transform="translate(604 569)"/>
</clipPath>
</defs>
</svg>
