<svg width="308" height="228" viewBox="0 0 308 228" fill="none" xmlns="http://www.w3.org/2000/svg">
<path d="M19.9999 93.9214C19.9999 93.9214 6.5313 87.3483 0 93.9214C0 93.9214 12.5549 91.9017 19.9999 102C27.4449 91.9017 40 93.9214 40 93.9214C33.4687 87.385 19.9999 93.9214 19.9999 93.9214Z" fill="#5D2C80"/>
<path d="M239.5 4.50814C239.5 4.50814 216.906 -5.63517 206 4.50814C206 4.50814 227.031 1.37659 239.5 17C251.969 1.37659 273 4.50814 273 4.50814C262.094 -5.63517 239.5 4.50814 239.5 4.50814Z" fill="#5D2C80"/>
<path d="M85.4999 75.5939C85.4999 75.5939 77.745 72.0076 74 75.5939C74 75.5939 81.2247 74.5011 85.4999 80C89.7751 74.5011 97 75.5939 97 75.5939C93.255 72.0076 85.4999 75.5939 85.4999 75.5939Z" fill="#5D2C80"/>
<path d="M290.5 220.647C290.5 220.647 278.671 214.691 273 220.647C273 220.647 284.019 218.824 290.5 228C297.036 218.824 308 220.647 308 220.647C302.275 214.691 290.5 220.647 290.5 220.647Z" fill="#5D2C80"/>
</svg>
