<svg width="56" height="56" viewBox="0 0 56 56" fill="none" xmlns="http://www.w3.org/2000/svg">
<path d="M28 56C43.464 56 56 43.464 56 28C56 12.536 43.464 0 28 0C12.536 0 0 12.536 0 28C0 43.464 12.536 56 28 56Z" fill="url(#paint0_linear_329_513)"/>
<path d="M28 56C43.464 56 56 43.464 56 28C56 12.536 43.464 0 28 0C12.536 0 0 12.536 0 28C0 43.464 12.536 56 28 56Z" fill="url(#paint1_radial_329_513)"/>
<path d="M32.9219 7.1425C31.8281 7.13015 30.7344 7.12183 29.6406 7.11768C30.7393 8.24271 31.8476 9.37113 32.9626 10.5008C32.987 12.7396 33.0059 14.9783 33.0194 17.2173C34.1348 17.2229 35.2503 17.2305 36.3658 17.2399C36.3431 15.0071 36.3115 12.7743 36.2709 10.5414C36.2344 8.693 34.7308 7.16394 32.9219 7.1425Z" fill="url(#paint2_linear_329_513)"/>
<path d="M29.6406 7.11787C27.4531 7.10955 25.2656 7.11786 23.0781 7.14269C21.2691 7.16402 19.7655 8.69319 19.7291 10.5415C19.6885 12.7743 19.6569 15.0071 19.6343 17.24C20.7497 17.2306 21.8651 17.223 22.9806 17.2173C22.9942 14.9785 23.0131 12.7397 23.0375 10.5009C26.3459 10.4704 29.6541 10.4704 32.9625 10.5009C32.9394 8.64715 31.4495 7.12497 29.6406 7.11787Z" fill="url(#paint3_linear_329_513)"/>
<path d="M8.55377 25.4294C8.55082 30.4343 8.65669 35.4393 8.8714 40.4442C8.9519 42.2571 10.5005 43.7953 12.3093 43.8632C13.9499 43.9226 15.5905 43.9726 17.2311 44.0134C26.2245 40.826 35.499 37.2268 44.8429 33.6939C44.8419 33.6925 47.3858 32.1734 47.4063 30.891C47.434 29.0705 47.4473 27.25 47.4463 25.4295C34.4821 25.4233 21.518 25.4233 8.55377 25.4294Z" fill="url(#paint4_linear_329_513)"/>
<path d="M44.8726 32.0405C35.0213 32.1698 25.17 32.1857 15.3187 32.0886C14.3925 32.08 13.6515 32.8151 13.6675 33.732C13.7064 36.0204 13.7619 38.3089 13.8338 40.5973C13.8942 42.4298 15.4222 43.9665 17.2311 44.0131C26.051 44.2321 34.8709 44.1821 43.6908 43.8629C45.4997 43.795 47.0482 42.2569 47.1287 40.4439C47.2653 37.2594 47.3578 34.075 47.4063 30.8906C46.7805 31.5811 45.8743 32.0272 44.8726 32.0405Z" fill="url(#paint5_linear_329_513)"/>
<path d="M8.55377 25.4294C8.55082 30.4343 8.65669 35.4393 8.8714 40.4442C8.9519 42.2571 10.5005 43.7953 12.3093 43.8632C22.7698 44.2417 33.2303 44.2417 43.6908 43.8632C45.4997 43.7953 47.0482 42.2572 47.1287 40.4442C47.3433 35.4393 47.4492 30.4343 47.4463 25.4294C34.4821 25.4233 21.518 25.4233 8.55377 25.4294Z" fill="url(#paint6_linear_329_513)"/>
<path d="M11.2434 14.0414C9.40656 14.0878 7.86197 15.6009 7.81527 17.4101C7.74866 20.0833 7.71453 22.7566 7.71289 25.4298C7.7118 27.2391 9.23277 28.7201 11.0881 28.7344C12.7685 28.7451 14.449 28.7541 16.1294 28.7617C16.1028 23.8211 16.1391 18.8805 16.2385 13.9399C14.5734 13.9678 12.9084 14.0017 11.2434 14.0414Z" fill="url(#paint7_linear_329_513)"/>
<path d="M44.7568 14.0414C43.0918 14.0016 41.4267 13.9678 39.7617 13.9399C39.861 18.8805 39.8973 23.8211 39.8708 28.7617C41.5512 28.7542 43.2316 28.7452 44.9121 28.7344C46.7676 28.7201 48.2884 27.2393 48.2873 25.4298C48.2856 22.7566 48.2515 20.0833 48.1849 17.4101C48.1382 15.6018 46.5937 14.0879 44.7568 14.0414Z" fill="url(#paint8_linear_329_513)"/>
<path d="M16.2385 13.9397C14.4015 13.9723 12.8703 15.4908 12.8347 17.3204C12.7846 20.0227 12.759 22.725 12.7578 25.4274C12.757 27.2571 14.2741 28.7513 16.1295 28.7614C24.0433 28.7967 31.9571 28.7967 39.8709 28.7614C41.7263 28.7513 43.2433 27.2571 43.2426 25.4274C43.2414 22.725 43.2157 20.0227 43.1656 17.3204C43.1302 15.4908 41.5988 13.9723 39.7618 13.9397C37.5063 13.9019 35.2508 13.875 32.9953 13.8589C31.3392 14.9039 29.673 15.9579 28.0003 17.0163C26.3275 15.9579 24.6613 14.9039 23.0053 13.8589C20.7496 13.875 18.494 13.9019 16.2385 13.9397Z" fill="url(#paint9_linear_329_513)"/>
<path d="M32.995 13.859C32.44 13.855 31.8849 13.8517 31.3299 13.8491C30.2259 14.9015 29.1151 15.958 28 17.0164C26.8848 15.958 25.774 14.9015 24.67 13.8491C24.115 13.8517 23.5599 13.855 23.005 13.859C22.9676 18.274 22.9512 22.689 22.9559 27.1041C26.3186 27.107 29.6813 27.107 33.0442 27.1041C33.0488 22.689 33.0325 18.274 32.995 13.859Z" fill="url(#paint10_linear_329_513)"/>
<path d="M31.33 13.8492C29.11 13.8387 26.8899 13.8387 24.67 13.8492C24.645 18.2679 24.6341 22.6867 24.6373 27.1054C26.8791 27.1067 29.121 27.1067 31.3627 27.1054C31.3659 22.6866 31.3551 18.2679 31.33 13.8492Z" fill="url(#paint11_linear_329_513)"/>
<path d="M31.3632 25.4249C30.8027 25.4249 30.2421 25.4248 29.6816 25.4248C29.6817 28.2271 29.6791 31.0293 29.6736 33.8316C30.2314 33.8307 30.7893 33.8293 31.3471 33.8275C32.271 33.8244 33.0249 33.0687 33.0297 32.1415C33.0375 30.4624 33.0423 28.7833 33.0441 27.1043C33.0452 26.177 32.292 25.425 31.3632 25.4249Z" fill="url(#paint12_linear_329_513)"/>
<path d="M29.6818 25.4249C28.0002 25.4247 26.3186 25.4248 24.6369 25.425C23.7082 25.4252 22.9551 26.1771 22.9561 27.1042C22.9578 28.7833 22.9626 30.4624 22.9705 32.1416C22.9751 33.0687 23.729 33.8244 24.653 33.8276C26.8756 31.5943 29.1196 29.3476 31.3629 27.1055C31.3636 26.1773 30.6106 25.425 29.6818 25.4249Z" fill="url(#paint13_linear_329_513)"/>
<path d="M24.67 37.4127C24.6632 36.2177 24.6575 35.0227 24.6528 33.8275C25.7642 32.7108 26.8808 31.5908 28 30.4697C29.1193 31.5908 30.2359 32.7108 31.3471 33.8275C31.3424 35.0226 31.3367 36.2176 31.33 37.4127C31.3172 39.2683 29.8245 40.7838 27.9999 40.7839C26.1754 40.7838 24.6827 39.2683 24.67 37.4127Z" fill="url(#paint14_linear_329_513)"/>
<path d="M24.6372 27.1055C24.6387 29.3461 24.644 31.5869 24.6527 33.8275C26.8842 33.8349 29.1157 33.8349 31.3471 33.8275C31.3559 31.5869 31.3611 29.3461 31.3627 27.1055C29.1209 27.1068 26.8791 27.1068 24.6372 27.1055Z" fill="url(#paint15_linear_329_513)"/>
<path d="M29.6787 30.6568C29.6774 31.5853 28.9255 32.3394 28.0001 32.3394C27.0746 32.3394 26.3228 31.5854 26.3215 30.6568C26.3202 29.7284 27.0721 28.9761 28.0001 28.9761C28.9282 28.9761 29.68 29.7282 29.6787 30.6568Z" fill="url(#paint16_linear_329_513)"/>
<defs>
<linearGradient id="paint0_linear_329_513" x1="8.20105" y1="47.799" x2="47.7991" y2="8.20094" gradientUnits="userSpaceOnUse">
<stop stop-color="#230BE0"/>
<stop offset="1" stop-color="#DDA2FC"/>
</linearGradient>
<radialGradient id="paint1_radial_329_513" cx="0" cy="0" r="1" gradientUnits="userSpaceOnUse" gradientTransform="translate(28.0001 28) scale(28)">
<stop stop-color="#230BE0"/>
<stop offset="1" stop-color="#DDA2FC" stop-opacity="0"/>
</radialGradient>
<linearGradient id="paint2_linear_329_513" x1="-20.1218" y1="65.3037" x2="36.2706" y2="8.91129" gradientUnits="userSpaceOnUse">
<stop stop-color="#DDA2FC"/>
<stop offset="0.1867" stop-color="#E1ADFC"/>
<stop offset="0.511" stop-color="#EBC9FD"/>
<stop offset="0.9317" stop-color="#FCF7FF"/>
<stop offset="1" stop-color="white"/>
</linearGradient>
<linearGradient id="paint3_linear_329_513" x1="-26.7178" y1="62.8972" x2="38.1207" y2="-1.94126" gradientUnits="userSpaceOnUse">
<stop stop-color="#DDA2FC"/>
<stop offset="0.1867" stop-color="#E1ADFC"/>
<stop offset="0.511" stop-color="#EBC9FD"/>
<stop offset="0.9317" stop-color="#FCF7FF"/>
<stop offset="1" stop-color="white"/>
</linearGradient>
<linearGradient id="paint4_linear_329_513" x1="-38.5851" y1="95.0404" x2="43.2223" y2="13.233" gradientUnits="userSpaceOnUse">
<stop stop-color="#230BE0"/>
<stop offset="1" stop-color="#F2D5FF"/>
</linearGradient>
<linearGradient id="paint5_linear_329_513" x1="-44.1757" y1="111.96" x2="48.3743" y2="19.4101" gradientUnits="userSpaceOnUse">
<stop stop-color="#230BE0"/>
<stop offset="1" stop-color="#F2D5FF"/>
</linearGradient>
<linearGradient id="paint6_linear_329_513" x1="28.0001" y1="44.3969" x2="28.0001" y2="20.2075" gradientUnits="userSpaceOnUse">
<stop stop-color="#DDA2FC" stop-opacity="0"/>
<stop offset="0.159" stop-color="#D99FFB" stop-opacity="0.159"/>
<stop offset="0.3064" stop-color="#CE96FA" stop-opacity="0.306"/>
<stop offset="0.4491" stop-color="#BB87F7" stop-opacity="0.449"/>
<stop offset="0.589" stop-color="#A171F3" stop-opacity="0.589"/>
<stop offset="0.7269" stop-color="#7F56EE" stop-opacity="0.727"/>
<stop offset="0.8633" stop-color="#5534E8" stop-opacity="0.863"/>
<stop offset="0.996" stop-color="#250CE0" stop-opacity="0.996"/>
<stop offset="1" stop-color="#230BE0"/>
</linearGradient>
<linearGradient id="paint7_linear_329_513" x1="-34.492" y1="68.8989" x2="29.0991" y2="5.30774" gradientUnits="userSpaceOnUse">
<stop stop-color="#230BE0"/>
<stop offset="1" stop-color="#F2D5FF"/>
</linearGradient>
<linearGradient id="paint8_linear_329_513" x1="-57.1657" y1="121.542" x2="44.7729" y2="19.6038" gradientUnits="userSpaceOnUse">
<stop stop-color="#230BE0"/>
<stop offset="1" stop-color="#F2D5FF"/>
</linearGradient>
<linearGradient id="paint9_linear_329_513" x1="-53.7344" y1="103.158" x2="41.5239" y2="7.89933" gradientUnits="userSpaceOnUse">
<stop stop-color="#230BE0"/>
<stop offset="1" stop-color="#F2D5FF"/>
</linearGradient>
<linearGradient id="paint10_linear_329_513" x1="-15.1316" y1="63.6376" x2="47.1688" y2="1.33739" gradientUnits="userSpaceOnUse">
<stop stop-color="#230BE0"/>
<stop offset="1" stop-color="#F2D5FF"/>
</linearGradient>
<linearGradient id="paint11_linear_329_513" x1="8.80415" y1="39.6896" x2="47.8331" y2="0.66069" gradientUnits="userSpaceOnUse">
<stop stop-color="#230BE0"/>
<stop offset="1" stop-color="#F2D5FF"/>
</linearGradient>
<linearGradient id="paint12_linear_329_513" x1="-32.8207" y1="93.3058" x2="34.1015" y2="26.3832" gradientUnits="userSpaceOnUse">
<stop stop-color="#DDA2FC"/>
<stop offset="0.1867" stop-color="#E1ADFC"/>
<stop offset="0.511" stop-color="#EBC9FD"/>
<stop offset="0.9317" stop-color="#FCF7FF"/>
<stop offset="1" stop-color="white"/>
</linearGradient>
<linearGradient id="paint13_linear_329_513" x1="-19.7276" y1="73.6503" x2="40.2305" y2="13.6921" gradientUnits="userSpaceOnUse">
<stop stop-color="#DDA2FC"/>
<stop offset="0.1867" stop-color="#E1ADFC"/>
<stop offset="0.511" stop-color="#EBC9FD"/>
<stop offset="0.9317" stop-color="#FCF7FF"/>
<stop offset="1" stop-color="white"/>
</linearGradient>
<linearGradient id="paint14_linear_329_513" x1="14.0518" y1="50.2525" x2="44.2983" y2="20.0059" gradientUnits="userSpaceOnUse">
<stop stop-color="#230BE0"/>
<stop offset="1" stop-color="#F2D5FF"/>
</linearGradient>
<linearGradient id="paint15_linear_329_513" x1="16.4495" y1="42.0092" x2="51.266" y2="7.19266" gradientUnits="userSpaceOnUse">
<stop stop-color="#230BE0"/>
<stop offset="1" stop-color="#F2D5FF"/>
</linearGradient>
<linearGradient id="paint16_linear_329_513" x1="25.0918" y1="33.5645" x2="44.4369" y2="14.2195" gradientUnits="userSpaceOnUse">
<stop stop-color="#230BE0"/>
<stop offset="1" stop-color="#F2D5FF"/>
</linearGradient>
</defs>
</svg>
