<svg width="73" height="40" viewBox="0 0 73 40" fill="none" xmlns="http://www.w3.org/2000/svg">
<g clip-path="url(#clip0_5_921)">
<path d="M19.0669 36.2667H2.72363V19.7334C11.7494 19.7334 19.0669 27.032 19.0669 36.0343V36.2667Z" fill="#442872"/>
<path d="M21.4781 36.2667H19.3796C10.1796 36.2667 2.72363 28.9833 2.72363 20.0001C2.72363 11.0168 10.1814 3.7334 19.3796 3.7334H38.1341V20.0001C38.1341 28.9833 30.6781 36.2667 21.4781 36.2667Z" fill="#8033FF"/>
<path fill-rule="evenodd" clip-rule="evenodd" d="M37.582 24.5764H40.1205L40.86 26.1139H44.2686V25.6721L38.5335 13.6194H38.1339V19.7387L39.0745 21.8725H38.0316C37.947 22.6081 37.8042 23.624 37.582 24.5764ZM56.9867 26.1492L50.3499 19.7341V26.1139H47.0495V13.6901H48.0775L54.6602 19.7871V13.7431H57.9606V26.1492H56.9867ZM72.9996 25.6367L70.5288 21.7134C71.7552 20.8887 72.3804 19.687 72.4045 18.1082C72.4045 16.93 72.0017 15.905 71.1961 15.0332C70.4026 14.1613 69.2904 13.7254 67.8596 13.7254C67.8596 13.7136 66.9339 13.7136 65.0823 13.7254H62.3049V26.0962H65.6053V22.2259H67.3366L69.5008 26.0962H72.9996V25.6367ZM67.8416 19.5927H65.5512V16.5354H67.8416C68.2865 16.5354 68.6231 16.6826 68.8516 16.9772C69.092 17.2599 69.2123 17.6134 69.2123 18.0375C69.2123 18.4617 69.092 18.8269 68.8516 19.1332C68.6111 19.4395 68.2745 19.5927 67.8416 19.5927Z" fill="#3D3131"/>
<path fill-rule="evenodd" clip-rule="evenodd" d="M39.4892 13.9446L39.3332 13.6194H37.8055L31.9677 25.6721V26.1139H35.4413L36.1687 24.5764H39.0592C39.275 23.7575 39.4546 22.85 39.5598 21.8725H37.2417L38.5512 18.8858L39.6138 21.2763C39.6215 21.1712 39.6284 21.0652 39.6343 20.9586C39.6343 18.8789 39.5552 15.9923 39.4892 13.9446ZM12.0439 26.0962H8.71582V13.7254H11.5165C13.3837 13.7136 14.3233 13.7136 14.3354 13.7254C15.7782 13.7254 16.9058 14.1908 17.7181 15.1216C18.5305 16.0405 18.9245 17.1244 18.9002 18.3733C18.9002 19.5986 18.4941 20.659 17.6818 21.5544C16.8815 22.4498 15.7661 22.8975 14.3354 22.8975H12.0439V26.0962ZM11.9894 20.0875H14.3354C14.7477 20.0875 15.0811 19.9108 15.3357 19.5574C15.5903 19.1921 15.7176 18.768 15.7176 18.2849C15.7176 17.8137 15.5964 17.4072 15.3539 17.0655C15.1114 16.7121 14.7719 16.5354 14.3354 16.5354H11.9894V20.0875ZM25.6329 13.7431V23.2156H30.2341V26.1139H22.3048V13.7431H25.6329Z" fill="white"/>
<g filter="url(#filter0_d_5_921)">
<path d="M3.54104 38.9333C5.49671 38.9333 7.08209 37.3813 7.08209 35.4667C7.08209 33.5521 5.49671 32 3.54104 32C1.58538 32 0 33.5521 0 35.4667C0 37.3813 1.58538 38.9333 3.54104 38.9333Z" fill="#8033FF"/>
</g>
<path d="M4.55632 36.8649C5.19448 36.24 5.19448 35.2268 4.55632 34.6019C3.91816 33.977 2.88349 33.977 2.24533 34.6019C1.60718 35.2268 1.60718 36.24 2.24533 36.8649C2.88349 37.4898 3.91816 37.4898 4.55632 36.8649Z" fill="white"/>
<g filter="url(#filter1_d_5_921)">
<path d="M37.8614 7.46678C39.817 7.46678 41.4024 5.9147 41.4024 4.00011C41.4024 2.08553 39.817 0.533447 37.8614 0.533447C35.9057 0.533447 34.3203 2.08553 34.3203 4.00011C34.3203 5.9147 35.9057 7.46678 37.8614 7.46678Z" fill="#8033FF"/>
</g>
<path d="M38.8766 5.39837C39.5148 4.77344 39.5148 3.76025 38.8766 3.13532C38.2385 2.5104 37.2038 2.5104 36.5656 3.13532C35.9275 3.76025 35.9275 4.77345 36.5656 5.39837C37.2038 6.02329 38.2385 6.02329 38.8766 5.39837Z" fill="white"/>
</g>
<defs>
<filter id="filter0_d_5_921" x="-9.26119" y="24.3731" width="26.694" height="26.5453" filterUnits="userSpaceOnUse" color-interpolation-filters="sRGB">
<feFlood flood-opacity="0" result="BackgroundImageFix"/>
<feColorMatrix in="SourceAlpha" type="matrix" values="0 0 0 0 0 0 0 0 0 0 0 0 0 0 0 0 0 0 127 0" result="hardAlpha"/>
<feOffset dx="0.544776" dy="2.1791"/>
<feGaussianBlur stdDeviation="4.90299"/>
<feColorMatrix type="matrix" values="0 0 0 0 0 0 0 0 0 0 0 0 0 0 0 0 0 0 0.25 0"/>
<feBlend mode="normal" in2="BackgroundImageFix" result="effect1_dropShadow_5_921"/>
<feBlend mode="normal" in="SourceGraphic" in2="effect1_dropShadow_5_921" result="shape"/>
</filter>
<filter id="filter1_d_5_921" x="25.0591" y="-7.09342" width="26.694" height="26.5453" filterUnits="userSpaceOnUse" color-interpolation-filters="sRGB">
<feFlood flood-opacity="0" result="BackgroundImageFix"/>
<feColorMatrix in="SourceAlpha" type="matrix" values="0 0 0 0 0 0 0 0 0 0 0 0 0 0 0 0 0 0 127 0" result="hardAlpha"/>
<feOffset dx="0.544776" dy="2.1791"/>
<feGaussianBlur stdDeviation="4.90299"/>
<feColorMatrix type="matrix" values="0 0 0 0 0 0 0 0 0 0 0 0 0 0 0 0 0 0 0.25 0"/>
<feBlend mode="normal" in2="BackgroundImageFix" result="effect1_dropShadow_5_921"/>
<feBlend mode="normal" in="SourceGraphic" in2="effect1_dropShadow_5_921" result="shape"/>
</filter>
<clipPath id="clip0_5_921">
<rect width="73" height="40" fill="white"/>
</clipPath>
</defs>
</svg>
