<svg width="82" height="51" viewBox="0 0 82 51" fill="none" xmlns="http://www.w3.org/2000/svg">
<path d="M0.0638135 34.598C0.0638135 32.0352 0.574319 29.6432 1.59533 27.4221L10.2739 0H27.1206L21.5051 19.99C29.503 22.3819 33.5019 27.4221 33.5019 35.1106C33.5019 40.0653 31.8853 43.995 28.6521 46.8995C25.5891 49.6332 21.5901 51 16.6553 51C8.14682 51 2.78651 47.3266 0.574319 39.9799C0.0638126 37.7588 -0.106355 35.9648 0.0638135 34.598ZM48.5619 34.598C48.9022 31.5226 49.4127 29.1307 50.0934 27.4221L58.772 0H75.8739L70.0031 19.99C78.001 22.3819 82 27.4221 82 35.1106C82 40.0653 80.3834 43.995 77.1502 46.8995C74.0872 49.6332 70.0882 51 65.1533 51C56.4747 51 51.1995 47.3266 49.3276 39.9799C48.8171 38.2714 48.5619 36.4774 48.5619 34.598Z" fill="#8033FD"/>
</svg>
