<svg width="120" height="120" viewBox="0 0 120 120" fill="none" xmlns="http://www.w3.org/2000/svg">
<g clip-path="url(#clip0_120_2390)">
<path d="M120 60.0002C120 93.1376 93.1376 120 60.0002 120C26.8628 120 0 93.1376 0 60.0002C0 26.8628 26.8628 0 60.0002 0C93.1376 0 120 26.8628 120 60.0002Z" fill="#382B73"/>
<path d="M111.909 60.0002C111.909 88.6689 88.669 111.909 60.0003 111.909C31.3315 111.909 8.09131 88.6689 8.09131 60.0002C8.09131 31.3315 31.3315 8.09125 60.0003 8.09125C88.669 8.09125 111.909 31.3315 111.909 60.0002Z" fill="#473080"/>
<path d="M94.2496 97.0252C94.3536 96.8966 94.4508 96.7641 94.5401 96.6267C95.7974 94.7099 95.5844 92.11 93.8982 90.4248L86.9543 83.4809C91.0922 77.9022 93.543 70.9966 93.543 63.5178C93.543 44.9926 78.5255 29.9751 60.0002 29.9751C45.2998 29.9751 32.8175 39.4355 28.285 52.597C26.5949 53.1348 25.001 54.0663 23.6594 55.4079C19.1809 59.8864 19.1809 67.1492 23.6594 71.6277C25.001 72.9684 26.5949 73.8998 28.285 74.4386C28.4254 74.844 28.5726 75.2464 28.7277 75.6458C28.7296 75.6517 28.7316 75.6576 28.7346 75.6625C28.9416 76.1974 29.1625 76.7245 29.3961 77.2446V77.2456C34.643 88.9232 46.3676 97.0605 60.0002 97.0605C67.479 97.0605 74.3847 94.6098 79.9633 90.4719L86.9072 97.4158C87.6011 98.1107 88.4521 98.5514 89.3452 98.7457C89.5454 98.7899 89.7476 98.8232 89.9518 98.8419C91.3621 98.9705 92.8176 98.4964 93.8982 97.4158C93.9022 97.4119 93.9051 97.408 93.909 97.404C94.0268 97.2853 94.1387 97.1616 94.2427 97.034C94.2447 97.0321 94.2467 97.0281 94.2496 97.0252ZM37.8465 75.7469C37.4942 75.109 37.1781 74.4484 36.8798 73.7781C37.9613 73.2393 38.9781 72.5287 39.8791 71.6277C44.3586 67.1492 44.3586 59.8864 39.8791 55.4079C38.9762 54.504 37.9555 53.7924 36.8719 53.2536C37.3097 52.2672 37.8033 51.3113 38.3588 50.3965C38.7819 49.7017 39.2363 49.0274 39.7231 48.3786C40.6938 47.0792 41.7871 45.8769 42.9865 44.7884C43.5852 44.2437 44.2104 43.7275 44.8601 43.2416C45.185 42.9982 45.5147 42.7627 45.8514 42.5359C47.8712 41.1717 50.0982 40.0911 52.4753 39.3521C53.2674 39.1057 54.0761 38.8967 54.9005 38.7278C55.724 38.56 56.5622 38.4314 57.4131 38.3451C58.263 38.2587 59.1258 38.2145 60.0002 38.2145C60.8738 38.2145 61.7365 38.2587 62.5874 38.3451C63.4374 38.4314 64.2755 38.56 65.1 38.7278C65.9234 38.8967 66.7321 39.1047 67.5242 39.3521C69.9013 40.0911 72.1283 41.1717 74.1481 42.5359C74.4848 42.7627 74.8155 42.9982 75.1394 43.2416C75.7892 43.7275 76.4143 44.2437 77.014 44.7884C78.2124 45.8769 79.3048 47.0792 80.2774 48.3786C80.7632 49.0274 81.2177 49.7017 81.6407 50.3965C83.9658 54.2233 85.3045 58.7145 85.3045 63.5178C85.3045 64.3913 85.2603 65.255 85.173 66.105C85.0866 66.9559 84.958 67.7941 84.7902 68.6175C84.6214 69.441 84.4133 70.2507 84.166 71.0427C83.0569 74.6084 81.1813 77.8355 78.7306 80.5316C78.3262 80.9762 77.9013 81.4012 77.4675 81.8163C77.437 81.4247 77.387 81.0439 77.3173 80.668C77.2918 80.5424 77.2672 80.4168 77.2417 80.2911C77.176 79.9849 77.0965 79.6787 77.0003 79.3774C76.965 79.2665 76.9355 79.1556 76.9002 79.0505C76.8393 78.869 76.7696 78.6884 76.699 78.5078C76.6391 78.3517 76.5733 78.2006 76.5027 78.0455C76.4477 77.9199 76.3878 77.7943 76.327 77.6686C76.2769 77.5577 76.222 77.4468 76.1611 77.3418C76.1209 77.2613 76.0806 77.1808 76.0306 77.1053C75.9707 76.9904 75.905 76.8746 75.8343 76.7637C75.7793 76.6685 75.7244 76.5782 75.6586 76.4879C75.6586 76.482 75.6586 76.4722 75.6488 76.4673C75.5585 76.3221 75.4633 76.1758 75.3573 76.0355C75.2572 75.8892 75.1512 75.7489 75.0403 75.6085C75.0158 75.5732 74.9853 75.533 74.9549 75.4976C74.9353 75.4721 74.9147 75.4476 74.895 75.4221C74.6438 75.1158 74.3778 74.8145 74.0912 74.5328C73.9607 74.4023 73.8242 74.2718 73.6839 74.1461C73.5985 74.0706 73.5131 73.995 73.4228 73.9145C73.2972 73.8036 73.1716 73.7035 73.041 73.6034C72.9655 73.5425 72.8899 73.4827 72.8094 73.4267C72.6691 73.3168 72.5228 73.2157 72.3776 73.1156C72.2313 73.0204 72.0861 72.9242 71.9349 72.8339C71.8093 72.7534 71.6788 72.6788 71.5482 72.6082C71.3922 72.5179 71.2322 72.4325 71.0712 72.352C70.7042 72.1655 70.3273 71.9997 69.9357 71.8544C69.651 71.7464 69.3586 71.6552 69.0631 71.5718C68.9846 71.5492 68.9051 71.5286 68.8256 71.508C68.7451 71.4864 68.6647 71.4618 68.5832 71.4422C68.4625 71.4118 68.3368 71.3872 68.2112 71.3617C68.1867 71.3519 68.1612 71.3519 68.1366 71.347C68.1023 71.3391 68.064 71.3323 68.0287 71.3244C67.9943 71.3185 67.96 71.3097 67.9266 71.3038C67.9227 71.3028 67.9187 71.3018 67.9148 71.3018C67.8049 71.2812 67.694 71.2616 67.5782 71.2459C67.48 71.2331 67.378 71.2194 67.2759 71.2057C67.2523 71.2027 67.2288 71.2008 67.2052 71.1978C67.1139 71.1851 67.0227 71.1762 66.9275 71.1664C66.9196 71.1664 66.9118 71.1654 66.9039 71.1644C66.847 71.1595 66.7901 71.1546 66.7341 71.1507C66.6389 71.1399 66.5437 71.135 66.4475 71.1301C66.4181 71.1301 66.3827 71.1252 66.3474 71.1252H66.3445L66.3494 71.1163H65.9224C65.8989 71.1163 65.8743 71.1154 65.8498 71.1154H62.822V66.8038C65.2688 65.9852 67.2406 64.1371 68.2191 61.7688C68.3702 61.6206 68.5184 61.4695 68.6607 61.3134C68.7373 61.3193 68.8148 61.3242 68.8933 61.3242C70.4755 61.3242 71.7583 60.0424 71.7583 58.4603C71.7583 57.8439 71.562 57.2747 71.2312 56.8075C71.559 55.7269 71.7376 54.5805 71.7376 53.3939C71.7376 52.6323 71.6621 51.8894 71.5237 51.168C71.5198 51.1464 71.5158 51.1248 71.5119 51.1032C71.4461 50.7715 71.3657 50.4456 71.2724 50.1247C71.2626 50.0913 71.2538 50.0579 71.244 50.0255C71.1507 49.7125 71.0437 49.4062 70.926 49.1059C70.9103 49.0676 70.8955 49.0303 70.8808 48.9921C70.7611 48.6957 70.6296 48.4061 70.4863 48.1225C70.4676 48.0852 70.449 48.0479 70.4293 48.0116C70.2831 47.7289 70.1271 47.4531 69.9592 47.1842C69.9386 47.1508 69.918 47.1194 69.8964 47.086C69.7246 46.8161 69.5421 46.5531 69.3487 46.2989C69.3301 46.2744 69.3105 46.2498 69.2908 46.2253C69.0896 45.9652 68.8806 45.713 68.6588 45.4715C68.648 45.4597 68.6372 45.4489 68.6264 45.4382C68.3957 45.1869 68.1553 44.9455 67.903 44.7158C67.9021 44.7158 67.9011 44.7148 67.9011 44.7148C67.6537 44.4891 67.3946 44.2751 67.1287 44.071C67.1081 44.0562 67.0894 44.0396 67.0688 44.0248C66.8126 43.8315 66.5486 43.6499 66.2767 43.4782C66.2434 43.4566 66.211 43.435 66.1766 43.4134C65.9107 43.2485 65.6368 43.0954 65.3571 42.9521C65.3149 42.9305 65.2727 42.9079 65.2305 42.8873C64.9527 42.7479 64.6691 42.6213 64.3786 42.5045C64.3325 42.4859 64.2853 42.4672 64.2392 42.4496C63.9477 42.3357 63.6503 42.2346 63.348 42.1443C63.3019 42.1306 63.2548 42.1178 63.2077 42.1041C62.9005 42.0177 62.5884 41.9412 62.2714 41.8793C62.2301 41.8705 62.1889 41.8646 62.1477 41.8568C61.8209 41.7969 61.4901 41.7468 61.1545 41.7145C61.127 41.7125 61.0985 41.7115 61.07 41.7076C60.7187 41.6762 60.3634 41.6575 60.0042 41.6575C60.0032 41.6575 60.0022 41.6575 60.0022 41.6575C60.0002 41.6575 59.9993 41.6575 59.9983 41.6575C59.7058 41.6575 59.4163 41.6723 59.1287 41.6929C59.0688 41.6978 59.009 41.7017 58.9491 41.7066C58.6713 41.7311 58.3946 41.7645 58.1217 41.8087C58.0726 41.8175 58.0236 41.8273 57.9735 41.8362C57.7174 41.8803 57.4632 41.9323 57.2129 41.9932C57.1805 42.001 57.1471 42.0079 57.1147 42.0158C57.0215 42.0393 56.9292 42.0668 56.837 42.0923C56.836 42.0923 56.836 42.0933 56.835 42.0933C56.6632 42.1414 56.4925 42.1934 56.3227 42.2484C56.2677 42.267 56.2128 42.2857 56.1578 42.3043C55.8987 42.3946 55.6435 42.4908 55.3932 42.5978C55.3657 42.6096 55.3392 42.6223 55.3118 42.6351C55.0762 42.7381 54.8456 42.8481 54.6179 42.9668C54.5766 42.9874 54.5354 43.008 54.4942 43.0296C54.399 43.0797 54.3058 43.1337 54.2125 43.1857C54.2106 43.1867 54.2086 43.1886 54.2057 43.1896C54.0682 43.2681 53.9308 43.3486 53.7974 43.433C53.7522 43.4605 53.709 43.4899 53.6639 43.5184C53.3164 43.7422 52.9818 43.9817 52.6608 44.2398C52.6589 44.2408 52.6579 44.2417 52.6559 44.2427C52.4184 44.4341 52.1897 44.6333 51.9679 44.8424C51.9561 44.8532 51.9443 44.865 51.9326 44.8768C51.4968 45.29 51.0924 45.7355 50.7234 46.2106C50.7097 46.2282 50.6959 46.2449 50.6822 46.2626C50.5065 46.4932 50.3387 46.7298 50.1797 46.9722C50.161 47.0007 50.1424 47.0301 50.1247 47.0586C49.8096 47.5473 49.5309 48.0616 49.2914 48.5975C49.2747 48.6348 49.2571 48.6711 49.2404 48.7094C49.1285 48.9665 49.0255 49.2286 48.9312 49.4956C48.9155 49.5407 48.9008 49.5868 48.8851 49.632C48.7928 49.9068 48.7065 50.1855 48.6329 50.4692V50.4721C48.5612 50.7518 48.5023 51.0374 48.4513 51.325C48.4425 51.377 48.4326 51.4281 48.4238 51.4801C48.3777 51.7598 48.3424 52.0425 48.3159 52.3281C48.3109 52.3821 48.308 52.438 48.3031 52.493C48.2805 52.7903 48.2658 53.0897 48.2658 53.393C48.2658 53.6472 48.2766 53.8984 48.2923 54.1487C48.2943 54.1811 48.2972 54.2145 48.3001 54.2468C48.3639 55.1311 48.5229 55.989 48.7722 56.8075C48.4405 57.2747 48.2442 57.8439 48.2442 58.4603C48.2442 60.0414 49.527 61.3242 51.1091 61.3242C51.1876 61.3242 51.2652 61.3193 51.3417 61.3134C51.484 61.4695 51.6322 61.6206 51.7834 61.7688C52.013 62.3243 52.2947 62.8534 52.6274 63.347C53.2674 64.2932 54.084 65.1098 55.0301 65.7487C55.6877 66.1933 56.412 66.5456 57.1795 66.8028V71.1144H54.1527C54.1281 71.1144 54.1046 71.1163 54.08 71.1163H53.6531L53.658 71.1242H53.655C53.6197 71.1242 53.5854 71.1301 53.5549 71.1301C53.4597 71.135 53.3636 71.1399 53.2683 71.1497C53.2124 71.1546 53.1555 71.1595 53.0995 71.1635C53.0907 71.1644 53.0838 71.1654 53.075 71.1664C52.9798 71.1752 52.8885 71.1841 52.7972 71.1968C52.7737 71.1998 52.7511 71.2027 52.7276 71.2057C52.6245 71.2194 52.5224 71.2322 52.4243 71.2459C52.3085 71.2606 52.1976 71.2812 52.0876 71.3009C52.0837 71.3018 52.0808 71.3028 52.0768 71.3028C52.0425 71.3087 52.0081 71.3175 51.9748 71.3244C51.9385 71.3313 51.9012 71.3391 51.8668 71.346C51.8413 71.3509 51.8158 71.3509 51.7912 71.3617C51.6656 71.3862 51.54 71.4118 51.4193 71.4422C51.3368 71.4608 51.2573 71.4864 51.1759 71.508C51.0973 71.5286 51.0178 71.5492 50.9403 71.5718C50.6439 71.6552 50.3514 71.7465 50.0678 71.8534C49.6752 71.9997 49.2983 72.1655 48.9312 72.351C48.6348 72.4973 48.3492 72.6582 48.0675 72.8339C47.9213 72.9193 47.776 73.0145 47.6357 73.1097C47.6298 73.1097 47.6298 73.1146 47.6249 73.1146C47.4541 73.2304 47.2883 73.3512 47.1273 73.4719C47.0223 73.5524 46.9163 73.6328 46.8162 73.7182C46.7808 73.7428 46.7455 73.7732 46.7102 73.8036C46.5747 73.9145 46.4442 74.0294 46.3186 74.1452C46.1782 74.2708 46.0418 74.4013 45.9113 74.5319C45.6453 74.7988 45.3891 75.0746 45.1526 75.3661C45.0878 75.4515 45.0171 75.5369 44.9514 75.6223C44.8464 75.7587 44.7404 75.8941 44.6452 76.0345C44.5343 76.1856 44.4341 76.3358 44.3389 76.4919C44.1574 76.7686 43.9925 77.0493 43.8413 77.3408C43.7805 77.4468 43.7255 77.5577 43.6755 77.6677C43.4291 78.1653 43.2181 78.6776 43.0522 79.2105C43.0267 79.2861 43.0022 79.3617 42.9816 79.4363C42.9315 79.608 42.8815 79.7788 42.8412 79.9496C42.801 80.0948 42.7705 80.246 42.7362 80.3961C42.7362 80.4118 42.7303 80.4266 42.7254 80.4413C42.696 80.6023 42.6655 80.7681 42.64 80.934C42.6155 81.0949 42.59 81.2559 42.5752 81.4218C42.5644 81.5023 42.5546 81.5827 42.5497 81.6632C42.5448 81.7123 42.5399 81.7614 42.535 81.8153C42.1002 81.4002 41.6762 80.9762 41.2718 80.5316C39.9518 79.081 38.8025 77.4753 37.8465 75.7469ZM42.9865 82.2482C42.853 82.1265 42.7254 81.9989 42.5949 81.8752C42.9364 82.2001 43.2878 82.5151 43.647 82.8204C43.4252 82.6319 43.2024 82.4445 42.9865 82.2482ZM43.7393 82.9009C44.5136 83.5516 45.3283 84.1542 46.1772 84.7087C45.3283 84.1532 44.5136 83.5506 43.7393 82.9009ZM46.3735 84.8344C46.7622 85.0827 47.1567 85.3212 47.5591 85.5489C47.1567 85.3212 46.7622 85.0827 46.3735 84.8344ZM47.6612 85.6077C48.0459 85.8247 48.4405 86.0317 48.838 86.228C48.4395 86.0317 48.0479 85.8237 47.6612 85.6077ZM48.9518 86.2869C49.7665 86.6825 50.6056 87.0348 51.4664 87.343C50.6056 87.0338 49.7665 86.6825 48.9518 86.2869ZM51.6774 87.4137C52.0317 87.5363 52.389 87.6541 52.7501 87.7621C52.6589 87.7346 52.5656 87.712 52.4753 87.6836C52.2064 87.6001 51.9414 87.5059 51.6774 87.4137ZM54.9005 88.3078C54.7406 88.2754 54.5825 88.2332 54.4245 88.1978C54.7563 88.2724 55.0909 88.3402 55.4266 88.402C55.2509 88.3696 55.0743 88.3431 54.9005 88.3078ZM55.7878 88.4658C56.1372 88.5247 56.4895 88.5747 56.8438 88.6189C56.4895 88.5747 56.1372 88.5247 55.7878 88.4658ZM54.0682 88.1154C53.7316 88.0339 53.3969 87.9456 53.0652 87.8514C53.3969 87.9456 53.7306 88.0339 54.0682 88.1154ZM62.8387 88.6591C62.7543 88.668 62.6718 88.6827 62.5874 88.6905C62.2635 88.7239 61.9377 88.7445 61.6108 88.7651C62.0231 88.7396 62.4323 88.7043 62.8387 88.6591ZM64.2127 88.4658C63.8633 88.5247 63.511 88.5747 63.1557 88.6189C63.51 88.5747 63.8633 88.5247 64.2127 88.4658ZM64.5739 88.402C64.9105 88.3402 65.2442 88.2724 65.576 88.1978C65.417 88.2332 65.2599 88.2754 65.1 88.3078C64.9253 88.3431 64.7486 88.3696 64.5739 88.402ZM68.3231 87.4137C68.0581 87.5059 67.7931 87.6001 67.5242 87.6836C67.4339 87.712 67.3416 87.7346 67.2504 87.7621C67.6115 87.6541 67.9688 87.5373 68.3231 87.4137ZM66.9353 87.8514C66.6036 87.9456 66.2699 88.0339 65.9323 88.1154C66.2699 88.0339 66.6036 87.9456 66.9353 87.8514ZM71.0477 86.2869C70.2331 86.6825 69.3939 87.0348 68.5341 87.343C69.3939 87.0348 70.2331 86.6815 71.0477 86.2869ZM71.1615 86.228C71.559 86.0317 71.9536 85.8247 72.3383 85.6077C71.9526 85.8237 71.561 86.0317 71.1615 86.228ZM72.4414 85.5489C72.8438 85.3212 73.2383 85.0827 73.626 84.8344C73.2383 85.0827 72.8428 85.3212 72.4414 85.5489ZM73.8223 84.7077C74.6722 84.1542 75.4869 83.5516 76.2603 82.8999C75.4869 83.5506 74.6722 84.1532 73.8223 84.7077ZM76.3525 82.8204C76.7117 82.5151 77.0631 82.2001 77.4046 81.8752C77.2741 81.9999 77.1475 82.1275 77.014 82.2482C76.7981 82.4445 76.5753 82.6319 76.3525 82.8204ZM57.1618 88.6591C57.5682 88.7043 57.9774 88.7396 58.3887 88.7651C58.0628 88.7445 57.736 88.7229 57.4131 88.6905C57.3287 88.6827 57.2462 88.668 57.1618 88.6591ZM60.0002 88.8191C60.4861 88.8191 60.969 88.8044 61.4489 88.7779C60.969 88.8044 60.4861 88.8221 60.0002 88.8221C59.5134 88.8221 59.0315 88.8044 58.5516 88.7779C59.0306 88.8044 59.5134 88.8191 60.0002 88.8191Z" fill="#382B73"/>
<path d="M77.4674 78.3016C75.9393 79.764 74.2315 81.0301 72.3765 82.0705C71.9496 82.3119 71.5128 82.5426 71.0702 82.7585C67.7234 84.3867 63.9702 85.3015 60.0002 85.3015C56.0301 85.3015 52.276 84.3867 48.9292 82.7585C48.4875 82.5426 48.0498 82.3119 47.6229 82.0705C45.7689 81.0301 44.0601 79.764 42.533 78.3016C42.5379 78.2467 42.5428 78.1956 42.5477 78.1456C42.5526 78.0651 42.5624 77.9846 42.5732 77.9041C42.5879 77.7383 42.6134 77.5783 42.638 77.4173C42.6635 77.2515 42.6939 77.0856 42.7234 76.9246C42.7283 76.9099 42.7332 76.8942 42.7332 76.8795C42.7685 76.7283 42.7989 76.5782 42.8392 76.4319C42.8794 76.2612 42.9295 76.0904 42.9795 75.9196C43.0001 75.844 43.0247 75.7685 43.0502 75.6939C43.2161 75.1609 43.4271 74.6486 43.6734 74.151C43.7235 74.0401 43.7784 73.9292 43.8393 73.8242C43.9895 73.5327 44.1553 73.251 44.3369 72.9752C44.4321 72.8191 44.5322 72.668 44.6431 72.5178C44.7383 72.3765 44.8443 72.2411 44.9493 72.1056C45.0151 72.0202 45.0858 71.9348 45.1505 71.8494C45.3871 71.5579 45.6432 71.2812 45.9092 71.0152C46.0398 70.8847 46.1762 70.7541 46.3165 70.6285C46.4422 70.5127 46.5727 70.3969 46.7081 70.286C46.7435 70.2565 46.7788 70.2261 46.8141 70.2006C46.9142 70.1152 47.0202 70.0347 47.1253 69.9552C47.2862 69.8345 47.4521 69.7138 47.6229 69.598C47.6278 69.598 47.6278 69.593 47.6327 69.593C47.774 69.4978 47.9193 69.4017 48.0655 69.3163C48.3472 69.1406 48.6328 68.9796 48.9292 68.8344C49.2963 68.6479 49.6732 68.482 50.0657 68.3368C50.5025 68.1709 50.955 68.0355 51.4172 67.9245C51.5379 67.8941 51.6636 67.8696 51.7892 67.8441C51.8137 67.8343 51.8393 67.8343 51.8648 67.8293C51.9345 67.8136 52.01 67.7989 52.0856 67.7842C52.1955 67.7636 52.3064 67.744 52.4222 67.7283C52.5322 67.7135 52.648 67.6988 52.7638 67.6831C52.8698 67.6684 52.9748 67.6586 53.0857 67.6478C53.1456 67.6429 53.2064 67.638 53.2663 67.6331C53.3615 67.6232 53.4577 67.6183 53.5529 67.6134C53.5833 67.6134 53.6177 67.6075 53.653 67.6075H53.7384C53.7885 67.6026 53.8346 67.6026 53.8846 67.6026C53.9749 67.5977 54.0603 67.5977 54.1506 67.5977H65.8488C65.94 67.5977 66.0254 67.5977 66.1157 67.6026C66.1658 67.6026 66.2109 67.6026 66.261 67.6075H66.3464C66.3817 67.6075 66.417 67.6134 66.4475 67.6134C66.5427 67.6183 66.6379 67.6232 66.734 67.6331C66.7939 67.638 66.8538 67.6429 66.9146 67.6478C67.0255 67.6586 67.1306 67.6684 67.2366 67.6831C67.3514 67.6988 67.4672 67.7135 67.5781 67.7283C67.6939 67.744 67.8038 67.7636 67.9148 67.7842C67.9903 67.7989 68.0649 67.8136 68.1356 67.8293C68.1611 67.8343 68.1856 67.8343 68.2112 67.8441C68.3368 67.8696 68.4624 67.8941 68.5831 67.9245C69.0454 68.0355 69.4979 68.1709 69.9346 68.3368C70.3262 68.482 70.7031 68.6479 71.0702 68.8344C71.2311 68.9148 71.3921 69.0002 71.5482 69.0905C71.6787 69.1612 71.8092 69.2358 71.9349 69.3163C72.085 69.4066 72.2313 69.5028 72.3765 69.598C72.5228 69.6981 72.668 69.7992 72.8093 69.9091C72.8898 69.965 72.9644 70.0249 73.04 70.0857C73.1705 70.1859 73.2962 70.286 73.4218 70.3969C73.5121 70.4773 73.5984 70.5529 73.6838 70.6285C73.8242 70.7541 73.9596 70.8847 74.0902 71.0152C74.3767 71.2969 74.6427 71.5982 74.894 71.9044C74.9146 71.9299 74.9342 71.9545 74.9548 71.98C74.9853 72.0153 75.0147 72.0556 75.0402 72.0909C75.1511 72.2312 75.2561 72.3716 75.3572 72.5178C75.4623 72.6582 75.5575 72.8044 75.6478 72.9497C75.6586 72.9546 75.6586 72.9644 75.6586 72.9703C75.7233 73.0606 75.7793 73.1509 75.8342 73.2461C75.9049 73.357 75.9697 73.4728 76.0305 73.5876C76.0806 73.6632 76.1208 73.7437 76.1611 73.8242C76.2209 73.9292 76.2759 74.0401 76.3269 74.151C76.3868 74.2766 76.4477 74.4022 76.5026 74.5279C76.5733 74.6829 76.6381 74.8341 76.6989 74.9901C76.7686 75.1707 76.8393 75.3513 76.8991 75.5329C76.9345 75.6379 76.9649 75.7488 77.0002 75.8597C77.0954 76.161 77.1759 76.4673 77.2417 76.7735C77.2662 76.8991 77.2917 77.0247 77.3162 77.1504C77.3869 77.5272 77.437 77.909 77.4674 78.3016Z" fill="#1CAEE4"/>
<path d="M77.4674 78.3016C75.9393 79.764 74.2315 81.0301 72.3765 82.0705C71.9496 82.3119 71.5128 82.5426 71.0702 82.7585C67.7234 84.3867 63.9702 85.3015 60.0002 85.3015C56.0301 85.3015 52.276 84.3867 48.9292 82.7585C48.4875 82.5426 48.0498 82.3119 47.6229 82.0705C45.7689 81.0301 44.0601 79.764 42.533 78.3016C42.5379 78.2467 42.5428 78.1956 42.5477 78.1456C42.5526 78.0651 42.5624 77.9846 42.5732 77.9041C42.5879 77.7383 42.6134 77.5783 42.638 77.4173C42.6635 77.2515 42.6939 77.0856 42.7234 76.9246C42.7283 76.9099 42.7332 76.8942 42.7332 76.8795C42.7685 76.7283 42.7989 76.5782 42.8392 76.4319C42.8794 76.2612 42.9295 76.0904 42.9795 75.9196C43.0001 75.844 43.0247 75.7685 43.0502 75.6939C43.2161 75.1609 43.4271 74.6486 43.6734 74.151C43.7235 74.0401 43.7784 73.9292 43.8393 73.8242C43.9895 73.5327 44.1553 73.251 44.3369 72.9752C44.4321 72.8191 44.5322 72.668 44.6431 72.5178C44.7383 72.3765 44.8443 72.2411 44.9493 72.1056C45.0151 72.0202 45.0858 71.9348 45.1505 71.8494C45.3871 71.5579 45.6432 71.2812 45.9092 71.0152C46.0398 70.8847 46.1762 70.7541 46.3165 70.6285C46.4422 70.5127 46.5727 70.3969 46.7081 70.286C46.7435 70.2565 46.7788 70.2261 46.8141 70.2006C46.9142 70.1152 47.0202 70.0347 47.1253 69.9552C47.2862 69.8345 47.4521 69.7138 47.6229 69.598C47.6278 69.598 47.6278 69.593 47.6327 69.593C47.774 69.4978 47.9193 69.4017 48.0655 69.3163C48.3472 69.1406 48.6328 68.9796 48.9292 68.8344C49.2963 68.6479 49.6732 68.482 50.0657 68.3368C50.5025 68.1709 50.955 68.0355 51.4172 67.9245C51.5379 67.8941 51.6636 67.8696 51.7892 67.8441C51.8137 67.8343 51.8393 67.8343 51.8648 67.8293C51.9345 67.8136 52.01 67.7989 52.0856 67.7842C52.1955 67.7636 52.3064 67.744 52.4222 67.7283C52.5322 67.7135 52.648 67.6988 52.7638 67.6831C52.8698 67.6684 52.9748 67.6586 53.0857 67.6478C53.1456 67.6429 53.2064 67.638 53.2663 67.6331C53.3615 67.6232 53.4577 67.6183 53.5529 67.6134C53.5833 67.6134 53.6177 67.6075 53.653 67.6075H53.7384C53.7885 67.6026 53.8346 67.6026 53.8846 67.6026C53.9749 67.5977 54.0603 67.5977 54.1506 67.5977H65.8488C65.94 67.5977 66.0254 67.5977 66.1157 67.6026C66.1658 67.6026 66.2109 67.6026 66.261 67.6075H66.3464C66.3817 67.6075 66.417 67.6134 66.4475 67.6134C66.5427 67.6183 66.6379 67.6232 66.734 67.6331C66.7939 67.638 66.8538 67.6429 66.9146 67.6478C67.0255 67.6586 67.1306 67.6684 67.2366 67.6831C67.3514 67.6988 67.4672 67.7135 67.5781 67.7283C67.6939 67.744 67.8038 67.7636 67.9148 67.7842C67.9903 67.7989 68.0649 67.8136 68.1356 67.8293C68.1611 67.8343 68.1856 67.8343 68.2112 67.8441C68.3368 67.8696 68.4624 67.8941 68.5831 67.9245C69.0454 68.0355 69.4979 68.1709 69.9346 68.3368C70.3262 68.482 70.7031 68.6479 71.0702 68.8344C71.2311 68.9148 71.3921 69.0002 71.5482 69.0905C71.6787 69.1612 71.8092 69.2358 71.9349 69.3163C72.085 69.4066 72.2313 69.5028 72.3765 69.598C72.5228 69.6981 72.668 69.7992 72.8093 69.9091C72.8898 69.965 72.9644 70.0249 73.04 70.0857C73.1705 70.1859 73.2962 70.286 73.4218 70.3969C73.5121 70.4773 73.5984 70.5529 73.6838 70.6285C73.8242 70.7541 73.9596 70.8847 74.0902 71.0152C74.3767 71.2969 74.6427 71.5982 74.894 71.9044C74.9146 71.9299 74.9342 71.9545 74.9548 71.98C74.9853 72.0153 75.0147 72.0556 75.0402 72.0909C75.1511 72.2312 75.2561 72.3716 75.3572 72.5178C75.4623 72.6582 75.5575 72.8044 75.6478 72.9497C75.6586 72.9546 75.6586 72.9644 75.6586 72.9703C75.7233 73.0606 75.7793 73.1509 75.8342 73.2461C75.9049 73.357 75.9697 73.4728 76.0305 73.5876C76.0806 73.6632 76.1208 73.7437 76.1611 73.8242C76.2209 73.9292 76.2759 74.0401 76.3269 74.151C76.3868 74.2766 76.4477 74.4022 76.5026 74.5279C76.5733 74.6829 76.6381 74.8341 76.6989 74.9901C76.7686 75.1707 76.8393 75.3513 76.8991 75.5329C76.9345 75.6379 76.9649 75.7488 77.0002 75.8597C77.0954 76.161 77.1759 76.4673 77.2417 76.7735C77.2662 76.8991 77.2917 77.0247 77.3162 77.1504C77.3869 77.5272 77.437 77.909 77.4674 78.3016Z" fill="#136DA0"/>
<path d="M47.6229 69.598V82.0705C45.7689 81.0302 44.0601 79.7641 42.533 78.3017C42.5379 78.2467 42.5428 78.1957 42.5477 78.1456C42.5526 78.0652 42.5624 77.9847 42.5732 77.9042C42.5879 77.7383 42.6134 77.5783 42.638 77.4174C42.6635 77.2515 42.6939 77.0857 42.7234 76.9247C42.7283 76.91 42.7332 76.8943 42.7332 76.8795C42.7685 76.7284 42.7989 76.5782 42.8392 76.432C42.8794 76.2612 42.9295 76.0904 42.9795 75.9197C43.0001 75.8441 43.0247 75.7685 43.0502 75.6939C43.2161 75.161 43.4271 74.6487 43.6734 74.1511C43.7235 74.0402 43.7784 73.9292 43.8393 73.8242C43.9895 73.5327 44.1553 73.2511 44.3369 72.9753C44.4321 72.8192 44.5322 72.6681 44.6431 72.5179C44.7383 72.3766 44.8443 72.2411 44.9493 72.1057C45.0151 72.0203 45.0858 71.9349 45.1505 71.8495C45.3871 71.558 45.6432 71.2812 45.9092 71.0153C46.0397 70.8847 46.1762 70.7542 46.3165 70.6286C46.4422 70.5128 46.5727 70.3969 46.7081 70.286C46.7435 70.2566 46.7788 70.2262 46.8141 70.2006C46.9142 70.1153 47.0202 70.0348 47.1253 69.9553C47.2862 69.8346 47.4521 69.7138 47.6229 69.598Z" fill="#009ADD"/>
<path d="M77.4673 78.3017C75.9392 79.7641 74.2314 81.0302 72.3765 82.0705V69.598C72.5227 69.6981 72.668 69.7992 72.8093 69.9091C72.8898 69.9651 72.9644 70.025 73.0399 70.0858C73.1705 70.1859 73.2961 70.286 73.4217 70.3969C73.512 70.4774 73.5984 70.553 73.6838 70.6286C73.8241 70.7542 73.9596 70.8847 74.0901 71.0153C74.3767 71.2969 74.6427 71.5983 74.8939 71.9045C74.9145 71.93 74.9342 71.9545 74.9548 71.98C74.9852 72.0154 75.0147 72.0556 75.0402 72.091C75.1511 72.2313 75.2561 72.3717 75.3572 72.5179C75.4622 72.6582 75.5574 72.8045 75.6477 72.9497C75.6585 72.9546 75.6585 72.9645 75.6585 72.9704C75.7233 73.0606 75.7792 73.1509 75.8342 73.2461C75.9048 73.357 75.9696 73.4729 76.0305 73.5877C76.0805 73.6633 76.1208 73.7437 76.161 73.8242C76.2209 73.9292 76.2758 74.0402 76.3269 74.1511C76.3867 74.2767 76.4476 74.4023 76.5026 74.5279C76.5732 74.683 76.638 74.8342 76.6989 74.9902C76.7685 75.1708 76.8392 75.3514 76.8991 75.533C76.9344 75.638 76.9648 75.7489 77.0002 75.8598C77.0954 76.1611 77.1758 76.4673 77.2416 76.7735C77.2661 76.8992 77.2917 77.0248 77.3162 77.1504C77.3869 77.5273 77.4369 77.9091 77.4673 78.3017Z" fill="#009ADD"/>
<path d="M56.7662 78.7797C58.2776 81.1362 61.7216 81.1362 63.2341 78.7797C65.5513 75.1669 68.5036 70.5667 69.9345 68.3378C68.6616 67.8618 67.2856 67.5997 65.8467 67.5997H54.1535C52.7147 67.5997 51.3377 67.8618 50.0657 68.3378L56.7662 78.7797Z" fill="#1CAEE4"/>
<path d="M62.1486 77.9493C64.2657 74.6516 67.3543 69.8375 68.5812 67.9256C67.7037 67.7146 66.789 67.5997 65.8468 67.5997H54.1536C53.2114 67.5997 52.2966 67.7146 51.4192 67.9256L57.8498 77.9474C58.8548 79.5138 61.1436 79.5158 62.1486 77.9493Z" fill="#009ADD"/>
<path d="M53.6511 67.5997L58.2052 74.6987L60.0003 71.9967L57.1776 67.5997H53.6511Z" fill="#27C1E6"/>
<path d="M66.3493 67.5997L61.7944 74.6987L60.0002 71.9967L62.822 67.5997H66.3493Z" fill="#27C1E6"/>
<path d="M60.6392 75.1079C60.6392 75.4603 60.3526 75.7459 60.0003 75.7459C59.6469 75.7459 59.3613 75.4603 59.3613 75.1079C59.3613 74.7546 59.6469 74.469 60.0003 74.469C60.3526 74.469 60.6392 74.7546 60.6392 75.1079Z" fill="#1CAEE4"/>
<path d="M60.0002 63.7514C59.0138 63.7514 58.0647 63.5904 57.1785 63.294V67.5997L60.0002 71.9977L62.8229 67.5997V63.294C61.9357 63.5904 60.9866 63.7514 60.0002 63.7514Z" fill="#E6E7E8"/>
<path d="M48.9291 68.8344V82.7585C48.4875 82.5426 48.0497 82.3119 47.6228 82.0705V69.598C47.6277 69.598 47.6277 69.5931 47.6326 69.5931C47.7739 69.4979 47.9192 69.4017 48.0654 69.3163C48.3471 69.1406 48.6327 68.9797 48.9291 68.8344Z" fill="#1CAEE4"/>
<path d="M72.3764 69.598V82.0705C71.9495 82.3119 71.5127 82.5426 71.0701 82.7585V68.8344C71.231 68.9149 71.392 69.0003 71.548 69.0906C71.6786 69.1612 71.8091 69.2358 71.9347 69.3163C72.0849 69.4066 72.2311 69.5028 72.3764 69.598Z" fill="#1CAEE4"/>
<path d="M71.7365 49.8773C71.7365 56.3589 66.4817 61.6127 60.0001 61.6127C53.5185 61.6127 48.2637 56.3589 48.2637 49.8773C48.2637 43.3947 53.5185 38.1409 60.0001 38.1409C66.4817 38.1409 71.7365 43.3947 71.7365 49.8773Z" fill="#009ADD"/>
<path d="M60.0003 63.7514C55.089 63.7514 51.1062 59.7695 51.1062 54.8583V50.2405C51.1062 45.3292 55.088 41.3474 60.0003 41.3474C64.9116 41.3474 68.8934 45.3292 68.8934 50.2405V54.8583C68.8934 59.7695 64.9116 63.7514 60.0003 63.7514Z" fill="white"/>
<path d="M60.0002 63.7514C59.0138 63.7514 58.0647 63.5904 57.1775 63.294V64.989C58.0657 65.2864 59.0119 65.4542 60.0002 65.4542C60.9876 65.4542 61.9337 65.2864 62.8219 64.989V63.294C61.9356 63.5904 60.9866 63.7514 60.0002 63.7514Z" fill="#D1D3D4"/>
<path d="M51.1061 54.8583V52.0787C49.525 52.0787 48.2422 53.3615 48.2422 54.9436C48.2422 56.5248 49.524 57.8076 51.1061 57.8076C51.272 57.8076 51.4349 57.7938 51.5939 57.7663C51.2789 56.8555 51.1061 55.877 51.1061 54.8583Z" fill="white"/>
<path d="M68.8933 52.0787V54.8583C68.8933 55.877 68.7215 56.8555 68.4065 57.7663C68.5645 57.7938 68.7265 57.8076 68.8933 57.8076C70.4745 57.8076 71.7582 56.5258 71.7582 54.9436C71.7582 53.3615 70.4754 52.0787 68.8933 52.0787Z" fill="white"/>
<path d="M60.0003 62.4745C55.089 62.4745 51.1062 58.4926 51.1062 53.5814V54.8583C51.1062 59.7695 55.089 63.7513 59.9993 63.7513C64.9116 63.7513 68.8924 59.7695 68.8924 54.8583V53.5814C68.8934 58.4926 64.9116 62.4745 60.0003 62.4745Z" fill="#E6E7E8"/>
<path d="M51.1062 50.2405V51.9924C54.5826 49.9667 56.9244 46.2096 56.941 41.9C53.5393 43.1474 51.1062 46.4059 51.1062 50.2405Z" fill="#E6E7E8"/>
<path d="M64.6603 52.3084C66.1541 52.3084 67.5792 52.0208 68.8934 51.5124V50.2405C68.8934 45.3282 64.9116 41.3474 60.0003 41.3474C57.4288 41.3474 55.1194 42.4446 53.4961 44.1897C55.0213 48.9007 59.4409 52.3084 64.6603 52.3084Z" fill="#E6E7E8"/>
<path d="M52.9827 40.4689C53.5715 46.3999 58.5751 51.0315 64.6602 51.0315C67.2915 51.0315 69.7206 50.1649 71.6777 48.7034C71.0888 42.7724 66.0853 38.1409 60.0002 38.1409C57.3689 38.1409 54.9397 39.0065 52.9827 40.4689Z" fill="#1CAEE4"/>
<path d="M48.2637 49.8773C48.2637 50.4112 48.3029 50.9353 48.3716 51.4506C53.3153 50.0687 56.9428 45.5343 56.9428 40.15C56.9428 39.616 56.9035 39.091 56.8348 38.5757C51.8912 39.9586 48.2637 44.492 48.2637 49.8773Z" fill="#009ADD"/>
<path d="M57.2932 53.6933C57.2932 54.288 56.8113 54.7699 56.2156 54.7699C55.6208 54.7699 55.1389 54.288 55.1389 53.6933C55.1389 53.0975 55.6208 52.6156 56.2156 52.6156C56.8113 52.6156 57.2932 53.0975 57.2932 53.6933Z" fill="#1CAEE4"/>
<path d="M65.6524 53.6933C65.6524 54.288 65.1695 54.7699 64.5747 54.7699C63.98 54.7699 63.4971 54.288 63.4971 53.6933C63.4971 53.0975 63.98 52.6156 64.5747 52.6156C65.1695 52.6156 65.6524 53.0975 65.6524 53.6933Z" fill="#1CAEE4"/>
<path d="M51.1061 54.8583V53.2977C50.1973 53.2977 49.4602 54.0348 49.4602 54.9437C49.4602 55.8525 50.1973 56.5896 51.1061 56.5896C51.164 56.5896 51.219 56.5788 51.2749 56.5729C51.167 56.0174 51.1061 55.4452 51.1061 54.8583Z" fill="#E6E7E8"/>
<path d="M68.9012 54.8583V53.2977C69.811 53.2977 70.5481 54.0348 70.5481 54.9437C70.5481 55.8525 69.811 56.5896 68.9012 56.5896C68.8433 56.5896 68.7893 56.5788 68.7324 56.5729C68.8414 56.0174 68.9012 55.4452 68.9012 54.8583Z" fill="#E6E7E8"/>
<path d="M60.0002 26.4575C41.475 26.4575 26.4575 41.4749 26.4575 60.0002C26.4575 78.5254 41.475 93.5429 60.0002 93.5429C78.5255 93.5429 93.5429 78.5254 93.5429 60.0002C93.5429 41.4749 78.5255 26.4575 60.0002 26.4575ZM60.0002 85.3044C46.0251 85.3044 34.696 73.9753 34.696 60.0002C34.696 46.025 46.0251 34.6959 60.0002 34.6959C73.9754 34.6959 85.3045 46.025 85.3045 60.0002C85.3045 73.9753 73.9754 85.3044 60.0002 85.3044Z" fill="white"/>
<path d="M93.8983 86.9071L86.9563 79.9652C84.9826 82.625 82.6251 84.9825 79.9653 86.9562L86.9073 93.8982C88.8378 95.8287 91.9677 95.8287 93.8983 93.8982C95.8288 91.9676 95.8288 88.8377 93.8983 86.9071Z" fill="white"/>
<path d="M88.6494 91.9421L82.0146 85.3074C81.3531 85.8825 80.67 86.4331 79.9644 86.9562L86.9063 93.8982C88.8368 95.8287 91.9677 95.8287 93.8983 93.8982C94.1437 93.6528 94.3566 93.3888 94.5402 93.1091C92.5821 93.9227 90.2423 93.535 88.6494 91.9421Z" fill="#D1D3D4"/>
<path d="M60.0003 31.7702C44.4087 31.7702 31.7703 44.4086 31.7703 60.0002C31.7703 75.5909 44.4087 88.2302 60.0003 88.2302C75.5919 88.2302 88.2303 75.5909 88.2303 60.0002C88.2303 44.4086 75.5909 31.7702 60.0003 31.7702ZM60.0003 85.3045C46.0251 85.3045 34.696 73.9754 34.696 60.0002C34.696 46.0251 46.0251 34.696 60.0003 34.696C73.9754 34.696 85.3045 46.0251 85.3045 60.0002C85.3045 73.9754 73.9754 85.3045 60.0003 85.3045Z" fill="#D1D3D4"/>
<path d="M34.696 60.0002C34.696 57.1539 35.173 54.4205 36.0396 51.8667C33.2885 50.7655 30.1989 50.7695 27.4517 51.8834C26.8059 54.4833 26.4575 57.201 26.4575 60.0002C26.4575 64.8928 27.5136 69.5361 29.396 73.728C32.256 74.3296 35.2947 73.8291 37.8475 72.2303C35.8414 68.6047 34.696 64.4364 34.696 60.0002Z" fill="#BCBEC0"/>
<path d="M43.2397 60.0002C43.2397 66.3346 38.1046 71.4696 31.7702 71.4696C25.4358 71.4696 20.3008 66.3346 20.3008 60.0002C20.3008 53.6658 25.4358 48.5307 31.7702 48.5307C38.1046 48.5307 43.2397 53.6658 43.2397 60.0002Z" fill="#FEDE3A"/>
<path d="M30.98 66.9127C30.4657 66.9127 29.9515 66.7164 29.5589 66.3248L25.6006 62.3655C24.8154 61.5803 24.8154 60.3084 25.6006 59.5232C26.3858 58.738 27.6578 58.738 28.4429 59.5232L30.98 62.0603L36.016 57.0253C36.8011 56.2402 38.0731 56.2402 38.8583 57.0253C39.6435 57.8105 39.6435 59.0825 38.8583 59.8677L32.4022 66.3238C32.0096 66.7164 31.4953 66.9127 30.98 66.9127Z" fill="#F7CB15"/>
<path d="M30.98 65.4052C30.4657 65.4052 29.9515 65.2089 29.5589 64.8173L25.6006 60.858C24.8154 60.0728 24.8154 58.8009 25.6006 58.0157C26.3858 57.2305 27.6578 57.2305 28.4429 58.0157L30.98 60.5528L36.016 55.5178C36.8011 54.7327 38.0731 54.7327 38.8583 55.5178C39.6435 56.303 39.6435 57.575 38.8583 58.3602L32.4022 64.8163C32.0096 65.2089 31.4953 65.4052 30.98 65.4052Z" fill="#1CAEE4"/>
<path d="M38.8585 56.3825L32.4024 62.8396C32.0098 63.2312 31.4955 63.4275 30.9802 63.4275C30.4659 63.4275 29.9517 63.2312 29.5591 62.8396L25.6008 58.8803C25.4693 58.7488 25.3682 58.6016 25.2818 58.4475C24.8461 59.215 24.9471 60.2043 25.6008 60.858L29.5591 64.8162C29.9517 65.2088 30.4659 65.4051 30.9802 65.4051C31.4955 65.4051 32.0088 65.2088 32.4024 64.8162L38.8585 58.3601C39.5121 57.7065 39.6132 56.7172 39.1775 55.9506C39.0901 56.1037 38.99 56.2519 38.8585 56.3825Z" fill="#009ADD"/>
</g>
<defs>
<clipPath id="clip0_120_2390">
<rect width="120" height="120" fill="white"/>
</clipPath>
</defs>
</svg>
