<svg width="120" height="120" viewBox="0 0 120 120" fill="none" xmlns="http://www.w3.org/2000/svg">
<path d="M60 120C93.1371 120 120 93.1371 120 60C120 26.8629 93.1371 0 60 0C26.8629 0 0 26.8629 0 60C0 93.1371 26.8629 120 60 120Z" fill="#382B73"/>
<path d="M60.0001 111.905C88.6662 111.905 111.905 88.6661 111.905 60C111.905 31.3338 88.6662 8.09534 60.0001 8.09534C31.334 8.09534 8.09546 31.3338 8.09546 60C8.09546 88.6661 31.334 111.905 60.0001 111.905Z" fill="#473080"/>
<path d="M98.9998 65.5025H96.5727L95.6228 59.4874C92.4117 58.4171 89.1555 57.5125 85.8692 56.7738C83.4118 56.2161 80.9244 55.7486 78.4369 55.3717L71.3061 46.6733C68.4418 43.1909 64.085 41.1558 59.487 41.1558H50.9241C47.5925 41.1558 44.3663 42.2261 41.7431 44.2009L28.3714 54.241H22.8091C21.9346 54.241 21.2262 54.9494 21.2262 55.8239V56.7888V59.0201V61.0553V62.4574V63.3919H20.9847C20.2159 63.3919 19.5979 64.01 19.5979 64.7788V66.7989V69.0602C19.5979 69.1506 19.6129 69.2563 19.6279 69.3467C19.658 69.4825 19.7033 69.6182 19.7637 69.7236C19.809 69.799 19.8541 69.8744 19.9144 69.9497C19.9445 69.9798 19.9748 70.0101 20.0048 70.0551C20.0652 70.1155 20.1406 70.1759 20.2159 70.2209C20.246 70.2509 20.2913 70.2663 20.3367 70.2963C20.5328 70.4017 20.7589 70.4621 21 70.4621H23.5175L28.447 72.5576H30.0753C31.221 74.7889 33.5426 76.2964 36.2262 76.2964C38.9097 76.2964 41.2311 74.7739 42.377 72.5576H76.5831C77.7288 74.7889 80.0505 76.2964 82.734 76.2964C85.4175 76.2964 87.7389 74.7739 88.8849 72.5426H95.8045H97.6889H99.0004C99.0908 72.5426 99.1812 72.5276 99.2719 72.5126C99.8749 72.3918 100.327 71.8492 100.327 71.2161V69.0602V66.7839C100.327 66.0905 99.7385 65.5025 98.9998 65.5025ZM89.6531 69.0152C89.6531 69.0002 89.6531 68.9851 89.6531 68.9698C89.638 68.9849 89.6531 68.9999 89.6531 69.0152ZM89.623 68.6533C89.623 68.608 89.608 68.5779 89.608 68.5326C89.608 68.5779 89.608 68.608 89.623 68.6533ZM75.814 69.1056C75.814 69.1509 75.814 69.211 75.814 69.2563C75.814 69.2263 75.814 69.211 75.814 69.1809C75.814 69.1659 75.814 69.1356 75.814 69.1056ZM75.814 68.9095C75.814 68.8945 75.814 68.8794 75.814 68.8641C75.814 68.8942 75.814 68.9245 75.814 68.9545C75.814 68.9245 75.814 68.9245 75.814 68.9095ZM75.814 69.5578C75.814 69.6032 75.814 69.6482 75.814 69.6786C75.814 69.6482 75.814 69.6029 75.814 69.5578ZM75.9798 70.9146C75.9798 70.9447 75.9948 70.975 75.9948 70.99C75.9798 70.975 75.9798 70.9447 75.9798 70.9146ZM75.8894 70.5074C75.8894 70.5374 75.9044 70.5678 75.9044 70.5828C75.9044 70.5527 75.9044 70.5377 75.8894 70.5074ZM43.1305 69.0152C43.1305 69.0002 43.1305 68.9851 43.1305 68.9698C43.1305 68.9849 43.1305 68.9999 43.1305 69.0152ZM43.1005 68.6533C43.1005 68.6233 43.0855 68.5779 43.0855 68.5479C43.0855 68.5779 43.1005 68.608 43.1005 68.6533ZM36.0904 62.4724C36.0301 62.4724 35.9697 62.4724 35.9096 62.4724C35.9247 62.4724 35.9397 62.4724 35.97 62.4724C36 62.4724 36.0451 62.4724 36.0904 62.4724ZM36.4523 62.4724C36.3919 62.4724 36.3316 62.4724 36.2715 62.4724C36.3316 62.4724 36.3919 62.4724 36.4523 62.4724ZM38.5025 62.8493C38.4571 62.8343 38.3971 62.8193 38.3367 62.7889C38.3968 62.819 38.4571 62.8343 38.5025 62.8493ZM38.1706 62.7436C38.1103 62.7286 38.0652 62.7136 38.0049 62.6982C38.0652 62.7136 38.1256 62.7286 38.1706 62.7436ZM37.8391 62.6532C37.7787 62.6382 37.7337 62.6232 37.6733 62.6078C37.7337 62.6382 37.7938 62.6532 37.8391 62.6532ZM37.5076 62.5928C37.4472 62.5778 37.4022 62.5778 37.3418 62.5628C37.3868 62.5628 37.4472 62.5778 37.5076 62.5928ZM37.1607 62.5328C37.1004 62.5178 37.04 62.5177 36.9949 62.5177C37.04 62.5175 37.1004 62.5175 37.1607 62.5328ZM36.7988 62.4874C36.7385 62.4874 36.6781 62.4724 36.6331 62.4724C36.6934 62.4874 36.7385 62.4874 36.7988 62.4874ZM29.2915 69.5578C29.2915 69.6032 29.2915 69.6482 29.2915 69.6936C29.2915 69.6482 29.2915 69.6029 29.2915 69.5578ZM29.2915 69.196C29.2915 69.1659 29.2915 69.1506 29.2915 69.1206C29.2915 69.1659 29.2915 69.226 29.2915 69.2713C29.2915 69.2413 29.2915 69.211 29.2915 69.196ZM29.3065 68.9095C29.3065 68.8945 29.3065 68.8794 29.3065 68.8641C29.3065 68.8942 29.3065 68.9245 29.3065 68.9395C29.3065 68.9245 29.3065 68.9245 29.3065 68.9095ZM29.3969 68.1557C29.3969 68.1857 29.3819 68.201 29.3819 68.2311C29.3819 68.201 29.3969 68.1707 29.3969 68.1557ZM29.3516 68.4572C29.3516 68.5026 29.3365 68.5476 29.3365 68.593C29.3365 68.5476 29.3365 68.5026 29.3516 68.4572ZM34.6583 62.6382C34.6432 62.6382 34.6282 62.6382 34.6282 62.6532C34.6279 62.6532 34.6432 62.6382 34.6583 62.6382ZM35.7436 62.4874C35.6832 62.4874 35.6229 62.5024 35.5628 62.5024C35.6231 62.4874 35.6832 62.4874 35.7436 62.4874ZM35.3817 62.5175C35.3364 62.5175 35.2763 62.5325 35.2309 62.5325C35.2913 62.5328 35.3367 62.5175 35.3817 62.5175ZM35.0201 62.5628C34.9901 62.5628 34.9448 62.5778 34.9147 62.5778C34.9598 62.5778 34.9898 62.5778 35.0201 62.5628ZM39.3013 63.1808C39.3466 63.2109 39.4067 63.2262 39.4521 63.2562C39.392 63.2412 39.3466 63.2112 39.3013 63.1808ZM38.6683 62.9097C38.7136 62.9247 38.7737 62.955 38.819 62.97C38.7737 62.9547 38.7286 62.9397 38.6683 62.9097ZM38.9848 63.0451C39.0301 63.0601 39.0902 63.0904 39.1355 63.1205C39.0905 63.0904 39.0301 63.0604 38.9848 63.0451ZM41.0653 64.4472C41.02 64.4019 40.9899 64.3718 40.9446 64.3418C40.9899 64.3718 41.035 64.4172 41.0653 64.4472ZM40.8241 64.2211C40.7788 64.1911 40.7488 64.1457 40.7034 64.1157C40.7488 64.1457 40.7788 64.1911 40.8241 64.2211ZM40.5677 64.01C40.5224 63.9799 40.4773 63.9496 40.447 63.9046C40.4773 63.9346 40.5226 63.9649 40.5677 64.01ZM40.2965 63.7989C40.2512 63.7688 40.2061 63.7385 40.1608 63.7085C40.2058 63.7388 40.2512 63.7688 40.2965 63.7989ZM40.025 63.6031C39.9797 63.573 39.9346 63.5427 39.8893 63.5127C39.9346 63.5427 39.9797 63.5727 40.025 63.6031ZM39.7385 63.422C39.6932 63.3919 39.6482 63.3616 39.6028 63.3466C39.6482 63.3769 39.6935 63.407 39.7385 63.422ZM85.3416 62.9697C85.2962 62.9547 85.2362 62.9244 85.1908 62.9094C85.2362 62.9397 85.2965 62.9547 85.3416 62.9697ZM81.1355 62.6532C81.1505 62.6532 81.1655 62.6532 81.1655 62.6382C81.1658 62.6382 81.1508 62.6532 81.1355 62.6532ZM81.437 62.5928C81.467 62.5928 81.5124 62.5778 81.5424 62.5778C81.5124 62.5778 81.4673 62.5778 81.437 62.5928ZM81.7538 62.5328C81.7991 62.5328 81.8592 62.5177 81.9046 62.5177C81.8592 62.5175 81.7988 62.5328 81.7538 62.5328ZM82.0853 62.5024C82.1457 62.5024 82.2061 62.4874 82.2661 62.4874C82.2061 62.4874 82.1457 62.4874 82.0853 62.5024ZM82.4169 62.4724C82.4319 62.4724 82.4469 62.4724 82.4772 62.4724C82.5226 62.4724 82.5526 62.4724 82.598 62.4724C82.5376 62.4724 82.4772 62.4724 82.4169 62.4724ZM85.8088 63.1808C85.8542 63.2109 85.9142 63.2262 85.9596 63.2562C85.9145 63.2412 85.8692 63.2112 85.8088 63.1808ZM82.7938 62.4724C82.8541 62.4724 82.9145 62.4724 82.9745 62.4724C82.8995 62.4724 82.8541 62.4724 82.7938 62.4724ZM83.1556 62.4724C83.216 62.4724 83.2763 62.4874 83.3364 62.4874C83.2613 62.4874 83.201 62.4874 83.1556 62.4724ZM83.5025 62.5024C83.5628 62.5024 83.6232 62.5175 83.6683 62.5175C83.6229 62.5175 83.5628 62.5175 83.5025 62.5024ZM83.849 62.5628C83.9094 62.5778 83.9545 62.5778 84.0148 62.5928C83.9698 62.5778 83.9094 62.5628 83.849 62.5628ZM84.1959 62.6232C84.2562 62.6382 84.3013 62.6532 84.3617 62.6685C84.3013 62.6532 84.2562 62.6382 84.1959 62.6232ZM84.5274 62.6985C84.5878 62.7136 84.6328 62.7286 84.6932 62.7439C84.6481 62.7286 84.5878 62.7136 84.5274 62.6985ZM84.8593 62.8039C84.9196 62.819 84.9647 62.834 85.025 62.8643C84.9647 62.8343 84.9196 62.819 84.8593 62.8039ZM85.5073 63.0451C85.5527 63.0601 85.6127 63.0904 85.6581 63.1205C85.613 63.0904 85.5527 63.0604 85.5073 63.0451ZM86.2611 63.422C86.2158 63.3919 86.1707 63.3616 86.1104 63.3466C86.1557 63.3769 86.201 63.407 86.2611 63.422ZM86.5476 63.6031C86.5022 63.573 86.4572 63.5427 86.4118 63.5127C86.4572 63.5427 86.5025 63.5727 86.5476 63.6031ZM87.3467 64.2211C87.3014 64.1911 87.2713 64.1457 87.226 64.1157C87.2563 64.1457 87.3014 64.1911 87.3467 64.2211ZM87.0902 64.01C87.0449 63.9799 86.9999 63.9496 86.9545 63.9046C86.9999 63.9346 87.0452 63.9649 87.0902 64.01ZM86.8191 63.7989C86.7737 63.7688 86.7287 63.7385 86.6833 63.7085C86.7287 63.7388 86.7737 63.7688 86.8191 63.7989ZM87.5878 64.4472C87.5425 64.4019 87.5125 64.3718 87.4671 64.3418C87.5125 64.3718 87.5425 64.4172 87.5878 64.4472ZM88.2512 65.216C88.2212 65.1707 88.1909 65.1256 88.1458 65.0953C88.1909 65.1256 88.2209 65.171 88.2512 65.216ZM88.0401 64.9448C88.0101 64.8995 87.9647 64.8694 87.9347 64.8241C87.9647 64.8694 88.0101 64.8995 88.0401 64.9448ZM87.814 64.6884C87.7839 64.643 87.7386 64.613 87.7086 64.5676C87.7386 64.613 87.7839 64.6583 87.814 64.6884ZM88.9597 66.3617C88.9296 66.3163 88.9143 66.2713 88.8843 66.2109C88.9146 66.2563 88.9296 66.3166 88.9597 66.3617ZM88.8089 66.0602C88.7789 66.0148 88.7485 65.9698 88.7335 65.9244C88.7485 65.9698 88.7789 66.0151 88.8089 66.0602ZM88.6281 65.7587C88.5981 65.7133 88.5677 65.6683 88.5377 65.6229C88.5828 65.6683 88.5978 65.7136 88.6281 65.7587ZM88.447 65.4875C88.417 65.4421 88.3867 65.3971 88.3566 65.3517C88.387 65.3971 88.417 65.4421 88.447 65.4875ZM89.2311 66.98C89.2161 66.9347 89.1858 66.8746 89.1708 66.8292C89.1858 66.8893 89.2161 66.9347 89.2311 66.98ZM89.0954 66.6632C89.0804 66.6178 89.05 66.5728 89.035 66.5124C89.05 66.5728 89.0804 66.6181 89.0954 66.6632ZM89.5777 68.3215C89.5627 68.2761 89.5627 68.2161 89.5476 68.1707C89.5627 68.2311 89.5627 68.2764 89.5777 68.3215ZM89.5176 67.9749C89.5026 67.9296 89.4876 67.8695 89.4876 67.8242C89.4873 67.8845 89.5023 67.9296 89.5176 67.9749ZM89.4422 67.6431C89.4272 67.5977 89.4122 67.5377 89.3969 67.4923C89.4119 67.5377 89.4269 67.598 89.4422 67.6431ZM89.3365 67.3115C89.3215 67.2662 89.3065 67.2061 89.2912 67.1608C89.3065 67.2061 89.3215 67.2662 89.3365 67.3115ZM29.3819 70.5074C29.3819 70.5374 29.3969 70.5678 29.3969 70.5828C29.3969 70.5678 29.3819 70.5527 29.3819 70.5224V70.5074ZM29.5777 71.3669C29.5777 71.3819 29.5777 71.3819 29.5777 71.3669C29.5777 71.3819 29.5777 71.3819 29.5777 71.3669ZM29.4573 70.9146C29.4573 70.9447 29.4723 70.96 29.4723 70.99C29.4723 70.975 29.4573 70.9447 29.4573 70.9146ZM41.1857 64.583C41.2158 64.6283 41.2611 64.6583 41.2911 64.7037C41.2611 64.6583 41.2311 64.613 41.1857 64.583ZM41.4119 64.8241C41.4419 64.8694 41.4872 64.8995 41.5173 64.9448C41.4872 64.8995 41.4572 64.8694 41.4119 64.8241ZM41.638 65.0803C41.668 65.1256 41.6983 65.1707 41.7434 65.201C41.6983 65.171 41.6683 65.1256 41.638 65.0803ZM41.8341 65.3517C41.8641 65.3971 41.8944 65.4421 41.9245 65.4875C41.8944 65.4421 41.8641 65.3971 41.8341 65.3517ZM42.0302 65.6232C42.0602 65.6686 42.0905 65.7136 42.1206 65.759C42.0902 65.7136 42.0602 65.6683 42.0302 65.6232ZM42.211 65.9247C42.241 65.9701 42.2713 66.0151 42.2863 66.0605C42.2563 66.0151 42.226 65.9698 42.211 65.9247ZM42.3617 66.2109C42.3918 66.2563 42.4071 66.3013 42.4371 66.3467C42.4221 66.3166 42.3918 66.2563 42.3617 66.2109ZM42.5125 66.5277C42.5275 66.5731 42.5578 66.6181 42.5728 66.6785C42.5578 66.6181 42.5425 66.5728 42.5125 66.5277ZM42.6482 66.8443C42.6632 66.8896 42.6936 66.9347 42.7086 66.995C42.6933 66.9347 42.6782 66.8893 42.6482 66.8443ZM42.7686 67.1608C42.7837 67.2061 42.7987 67.2662 42.814 67.3115C42.799 67.2662 42.7839 67.2061 42.7686 67.1608ZM42.8743 67.4923C42.8894 67.5377 42.9044 67.5977 42.9197 67.6431C42.9044 67.598 42.8894 67.5377 42.8743 67.4923ZM42.9647 67.8392C42.9798 67.8845 42.9948 67.9296 42.9948 67.9899C42.9798 67.9296 42.9798 67.8845 42.9647 67.8392ZM43.0251 68.186C43.0401 68.2314 43.0401 68.2764 43.0551 68.3218C43.0551 68.2764 43.0401 68.2311 43.0251 68.186ZM43.1305 69.784C43.1305 69.8293 43.1305 69.8593 43.1155 69.9047C43.1155 69.8593 43.1305 69.829 43.1305 69.784ZM43.1005 70.1909C43.1005 70.2362 43.0855 70.2663 43.0855 70.3116C43.0855 70.2663 43.0855 70.2212 43.1005 70.1909ZM43.0401 70.5981C43.0401 70.6281 43.0251 70.6585 43.0251 70.7035C43.0251 70.6582 43.0251 70.6281 43.0401 70.5981ZM42.9497 71.02C42.9497 71.035 42.9497 71.0501 42.9347 71.0654C42.9347 71.0504 42.9347 71.035 42.9497 71.02ZM75.9194 68.1557C75.9194 68.1857 75.9044 68.201 75.9044 68.2311C75.9044 68.201 75.9044 68.1707 75.9194 68.1557ZM75.8744 68.4572C75.8744 68.5026 75.8594 68.5476 75.8594 68.593C75.8591 68.5476 75.8591 68.5026 75.8744 68.4572ZM76.0852 71.3669C76.1005 71.3819 76.1005 71.3819 76.0852 71.3669C76.1005 71.3819 76.1005 71.3819 76.0852 71.3669ZM89.05 72.211C89.0654 72.211 89.0654 72.211 89.05 72.211C89.0654 72.211 89.0654 72.211 89.05 72.211ZM89.4573 71.0654C89.4573 71.0504 89.4573 71.0353 89.4723 71.02C89.4573 71.035 89.4573 71.0504 89.4573 71.0654ZM89.5326 70.6885C89.5326 70.6585 89.5476 70.6131 89.5476 70.5831C89.5476 70.6281 89.5476 70.6582 89.5326 70.6885ZM89.593 70.3116C89.593 70.2663 89.608 70.2362 89.608 70.1909C89.608 70.2212 89.608 70.2663 89.593 70.3116ZM89.638 69.9044C89.638 69.859 89.638 69.829 89.6531 69.7837C89.638 69.829 89.638 69.8593 89.638 69.9044Z" fill="#382B73"/>
<path d="M50.9247 38.1407H59.4877C64.1007 38.1407 67.1611 38.8945 70.0254 42.3768L79.5983 53.7587L26.563 52.5677L41.7438 41.1708C44.3669 39.211 47.5928 38.1407 50.9247 38.1407Z" fill="#EF5A9D"/>
<path d="M50.3366 41.0804H60.6332C63.196 41.0804 65.6381 42.196 67.3267 44.1255L73.4926 51.2109H34.7939L45.8743 42.5879C47.1558 41.623 48.7234 41.0804 50.3366 41.0804Z" fill="#1CAEE4"/>
<path d="M36.2108 73.3117C40.0407 73.3117 43.1455 70.2069 43.1455 66.377C43.1455 62.5471 40.0407 59.4423 36.2108 59.4423C32.3809 59.4423 29.2761 62.5471 29.2761 66.377C29.2761 70.2069 32.3809 73.3117 36.2108 73.3117Z" fill="#FEDE3A"/>
<path d="M36.2109 70.7639C38.6337 70.7639 40.5977 68.7998 40.5977 66.377C40.5977 63.9542 38.6337 61.9901 36.2109 61.9901C33.788 61.9901 31.824 63.9542 31.824 66.377C31.824 68.7998 33.788 70.7639 36.2109 70.7639Z" fill="#E6E7E8"/>
<path d="M64.7186 42.0753C64.1006 41.7588 63.4523 41.5176 62.7889 41.3516L57.5879 51.2259H59.9095L64.7186 42.0753Z" fill="#177BC0"/>
<path d="M55.8394 51.2262L61.1611 41.0957C60.9953 41.0807 60.8142 41.0807 60.6485 41.0807H59.5932L54.2715 51.2265H55.8394V51.2262Z" fill="#177BC0"/>
<path d="M67.3266 44.1255C66.9347 43.6732 66.4975 43.2663 66.0302 42.9044L61.6733 51.2109H73.4925L67.3266 44.1255Z" fill="#177BC0"/>
<path d="M54.5275 41.0804H50.3365C48.7235 41.0804 47.1556 41.623 45.8892 42.6029L34.8088 51.2259H49.2058L54.5275 41.0804Z" fill="#177BC0"/>
<path d="M36.2107 70.1458C38.2922 70.1458 39.9796 68.4585 39.9796 66.377C39.9796 64.2955 38.2922 62.6082 36.2107 62.6082C34.1293 62.6082 32.4419 64.2955 32.4419 66.377C32.4419 68.4585 34.1293 70.1458 36.2107 70.1458Z" fill="white"/>
<path d="M82.7337 73.3117C86.5637 73.3117 89.6684 70.2069 89.6684 66.377C89.6684 62.5471 86.5637 59.4423 82.7337 59.4423C78.9038 59.4423 75.7991 62.5471 75.7991 66.377C75.7991 70.2069 78.9038 73.3117 82.7337 73.3117Z" fill="#FEDE3A"/>
<path d="M97.6884 69.5578L95.6382 56.4723C85.1308 52.99 74.1408 51.2109 63.0754 51.2109H22.8241C21.9496 51.2109 21.2412 51.9194 21.2412 52.7939V66.4671L28.4474 69.5275H30.0756C29.548 68.5176 29.2615 67.3716 29.3068 66.1356C29.4122 62.5175 32.3519 59.5477 35.9853 59.412C39.92 59.2763 43.1612 62.4271 43.1612 66.3317C43.1612 67.4773 42.8747 68.5629 42.3924 69.5125H76.5834C76.0558 68.5026 75.7693 67.3566 75.8147 66.1356C75.9201 62.5175 78.8598 59.5477 82.4932 59.412C86.4278 59.2763 89.669 62.4271 89.669 66.3317C89.669 67.4773 89.3825 68.5629 88.9002 69.5125H97.6893V69.5578H97.6884Z" fill="#EF5A9D"/>
<path d="M52.01 41.0804H49.9294V51.2262H52.01V41.0804Z" fill="#EF5A9D"/>
<path d="M82.7338 70.7639C85.1566 70.7639 87.1207 68.7998 87.1207 66.377C87.1207 63.9542 85.1566 61.9901 82.7338 61.9901C80.311 61.9901 78.3469 63.9542 78.3469 66.377C78.3469 68.7998 80.311 70.7639 82.7338 70.7639Z" fill="#E6E7E8"/>
<path d="M30.0603 69.5578C29.5327 68.5479 29.2462 67.4019 29.2915 66.1658C29.2915 65.985 29.3065 65.804 29.3369 65.6232H21.2412V66.4824L28.4474 69.5428H30.0603V69.5578Z" fill="#A72973"/>
<path d="M89.6531 66.3769C89.6531 67.5226 89.3666 68.6082 88.8843 69.5578H97.6884L97.0703 65.6382H89.623C89.638 65.8793 89.6531 66.1205 89.6531 66.3769Z" fill="#A72973"/>
<path d="M43.1004 65.6382C43.1304 65.8793 43.1457 66.1358 43.1457 66.3769C43.1457 67.5226 42.8592 68.6082 42.377 69.5578H76.583C76.0554 68.5479 75.7689 67.4019 75.8143 66.1808C75.8143 66.0001 75.8293 65.819 75.8596 65.6382H43.1004Z" fill="#A72973"/>
<path d="M98.9998 62.4874H94.5979L95.8039 69.5578H98.9998C99.7386 69.5578 100.327 68.9698 100.327 68.2311V63.8142C100.327 63.0754 99.7386 62.4874 98.9998 62.4874Z" fill="#FEDE3A"/>
<path d="M98.804 67.6131H95.4724L95.804 69.5578H98.9998C99.7386 69.5578 100.327 68.9698 100.327 68.2311V66.0752C100.327 66.9347 99.6482 67.6131 98.804 67.6131Z" fill="#E7AD27"/>
<path d="M24.1205 60.3919H20.9847C20.2159 60.3919 19.5979 61.0099 19.5979 61.7787V66.0602C19.5979 66.829 20.2159 67.447 20.9847 67.447H24.1205V60.3919Z" fill="#FEDE3A"/>
<path d="M19.5979 63.7988V66.0601C19.5979 66.8289 20.2159 67.447 20.9847 67.447H24.1205V65.1856H20.9847C20.2159 65.201 19.5979 64.5679 19.5979 63.7988Z" fill="#E7AD27"/>
<path d="M23.1255 59.4423H21.2261V53.759H23.1255C23.9697 53.759 24.6481 54.4374 24.6481 55.2816V57.9198C24.6481 58.7639 23.9697 59.4423 23.1255 59.4423Z" fill="#1CAEE4"/>
<path d="M95.6382 56.4723H92.2009C91.7636 56.4723 91.4321 56.8642 91.4925 57.3014C91.8994 59.6985 93.9799 61.4472 96.407 61.4472L95.6382 56.4723Z" fill="#FEDE3A"/>
<path d="M95.7286 57.0753H93.1205C92.7889 57.0753 92.5325 57.3768 92.5928 57.7084C92.9094 59.5324 94.4772 60.8592 96.3316 60.8592L95.7286 57.0753Z" fill="#FFC733"/>
<path d="M37.5829 57.0603H34.3871C33.9498 57.0603 33.6033 56.7135 33.6033 56.2765V54.5428C33.6033 54.1056 33.9501 53.759 34.3871 53.759H37.5829C38.0202 53.759 38.3667 54.1059 38.3667 54.5428V56.2765C38.3667 56.7135 38.0199 57.0603 37.5829 57.0603Z" fill="#A72973"/>
<path d="M82.7337 70.1458C84.8152 70.1458 86.5025 68.4585 86.5025 66.377C86.5025 64.2955 84.8152 62.6082 82.7337 62.6082C80.6522 62.6082 78.9648 64.2955 78.9648 66.377C78.9648 68.4585 80.6522 70.1458 82.7337 70.1458Z" fill="white"/>
<path d="M82.7337 67.7037C83.4665 67.7037 84.0605 67.1097 84.0605 66.377C84.0605 65.6442 83.4665 65.0502 82.7337 65.0502C82.001 65.0502 81.407 65.6442 81.407 66.377C81.407 67.1097 82.001 67.7037 82.7337 67.7037Z" fill="#A72973"/>
<path d="M82.7336 64.5379C83.0501 64.5379 83.3066 64.2813 83.3066 63.9649C83.3066 63.6484 83.0501 63.3919 82.7336 63.3919C82.4172 63.3919 82.1606 63.6484 82.1606 63.9649C82.1606 64.2813 82.4172 64.5379 82.7336 64.5379Z" fill="#E7AD27"/>
<path d="M82.7336 69.362C83.0501 69.362 83.3066 69.1055 83.3066 68.789C83.3066 68.4726 83.0501 68.2161 82.7336 68.2161C82.4172 68.2161 82.1606 68.4726 82.1606 68.789C82.1606 69.1055 82.4172 69.362 82.7336 69.362Z" fill="#E7AD27"/>
<path d="M85.1457 66.9499C85.4622 66.9499 85.7187 66.6934 85.7187 66.3769C85.7187 66.0605 85.4622 65.804 85.1457 65.804C84.8293 65.804 84.5728 66.0605 84.5728 66.3769C84.5728 66.6934 84.8293 66.9499 85.1457 66.9499Z" fill="#E7AD27"/>
<path d="M80.3215 66.9499C80.638 66.9499 80.8945 66.6934 80.8945 66.3769C80.8945 66.0605 80.638 65.804 80.3215 65.804C80.0051 65.804 79.7485 66.0605 79.7485 66.3769C79.7485 66.6934 80.0051 66.9499 80.3215 66.9499Z" fill="#E7AD27"/>
<path d="M84.4372 65.2445C84.7537 65.2445 85.0102 64.988 85.0102 64.6715C85.0102 64.3551 84.7537 64.0986 84.4372 64.0986C84.1208 64.0986 83.8643 64.3551 83.8643 64.6715C83.8643 64.988 84.1208 65.2445 84.4372 65.2445Z" fill="#E7AD27"/>
<path d="M81.0256 68.6504C81.3421 68.6504 81.5986 68.3938 81.5986 68.0774C81.5986 67.7609 81.3421 67.5044 81.0256 67.5044C80.7092 67.5044 80.4526 67.7609 80.4526 68.0774C80.4526 68.3938 80.7092 68.6504 81.0256 68.6504Z" fill="#E7AD27"/>
<path d="M84.4343 68.6533C84.7508 68.6533 85.0073 68.3968 85.0073 68.0803C85.0073 67.7639 84.7508 67.5073 84.4343 67.5073C84.1179 67.5073 83.8613 67.7639 83.8613 68.0803C83.8613 68.3968 84.1179 68.6533 84.4343 68.6533Z" fill="#E7AD27"/>
<path d="M81.0286 65.2416C81.345 65.2416 81.6015 64.9851 81.6015 64.6686C81.6015 64.3522 81.345 64.0956 81.0286 64.0956C80.7121 64.0956 80.4556 64.3522 80.4556 64.6686C80.4556 64.9851 80.7121 65.2416 81.0286 65.2416Z" fill="#E7AD27"/>
<path d="M36.2108 67.7037C36.9435 67.7037 37.5375 67.1097 37.5375 66.377C37.5375 65.6442 36.9435 65.0502 36.2108 65.0502C35.478 65.0502 34.884 65.6442 34.884 66.377C34.884 67.1097 35.478 67.7037 36.2108 67.7037Z" fill="#A72973"/>
<path d="M36.2109 64.5379C36.5274 64.5379 36.7839 64.2813 36.7839 63.9649C36.7839 63.6484 36.5274 63.3919 36.2109 63.3919C35.8945 63.3919 35.6379 63.6484 35.6379 63.9649C35.6379 64.2813 35.8945 64.5379 36.2109 64.5379Z" fill="#E7AD27"/>
<path d="M36.2109 69.362C36.5274 69.362 36.7839 69.1055 36.7839 68.789C36.7839 68.4726 36.5274 68.2161 36.2109 68.2161C35.8945 68.2161 35.6379 68.4726 35.6379 68.789C35.6379 69.1055 35.8945 69.362 36.2109 69.362Z" fill="#E7AD27"/>
<path d="M38.623 66.9499C38.9395 66.9499 39.196 66.6934 39.196 66.3769C39.196 66.0605 38.9395 65.804 38.623 65.804C38.3066 65.804 38.05 66.0605 38.05 66.3769C38.05 66.6934 38.3066 66.9499 38.623 66.9499Z" fill="#E7AD27"/>
<path d="M33.7988 66.9499C34.1153 66.9499 34.3718 66.6934 34.3718 66.3769C34.3718 66.0605 34.1153 65.804 33.7988 65.804C33.4824 65.804 33.2258 66.0605 33.2258 66.3769C33.2258 66.6934 33.4824 66.9499 33.7988 66.9499Z" fill="#E7AD27"/>
<path d="M37.916 65.2478C38.2324 65.2478 38.489 64.9913 38.489 64.6748C38.489 64.3583 38.2324 64.1018 37.916 64.1018C37.5995 64.1018 37.343 64.3583 37.343 64.6748C37.343 64.9913 37.5995 65.2478 37.916 65.2478Z" fill="#E7AD27"/>
<path d="M34.5046 68.6536C34.8211 68.6536 35.0776 68.3971 35.0776 68.0806C35.0776 67.7642 34.8211 67.5076 34.5046 67.5076C34.1882 67.5076 33.9316 67.7642 33.9316 68.0806C33.9316 68.3971 34.1882 68.6536 34.5046 68.6536Z" fill="#E7AD27"/>
<path d="M37.9131 68.6565C38.2295 68.6565 38.486 68.4 38.486 68.0835C38.486 67.7671 38.2295 67.5106 37.9131 67.5106C37.5966 67.5106 37.3401 67.7671 37.3401 68.0835C37.3401 68.4 37.5966 68.6565 37.9131 68.6565Z" fill="#E7AD27"/>
<path d="M34.5075 65.2448C34.824 65.2448 35.0805 64.9883 35.0805 64.6719C35.0805 64.3554 34.824 64.0989 34.5075 64.0989C34.1911 64.0989 33.9346 64.3554 33.9346 64.6719C33.9346 64.9883 34.1911 65.2448 34.5075 65.2448Z" fill="#E7AD27"/>
<path d="M89.2311 58.5678H86.1706C85.5976 58.5678 85.1304 58.1005 85.1304 57.5276C85.1304 56.9546 85.5976 56.4873 86.1706 56.4873H89.2311C89.804 56.4873 90.2713 56.9546 90.2713 57.5276C90.2713 58.1005 89.8037 58.5678 89.2311 58.5678Z" fill="white"/>
<path d="M30.4068 58.5678H27.3467C26.7737 58.5678 26.3064 58.1005 26.3064 57.5276C26.3064 56.9546 26.7737 56.4873 27.3467 56.4873H30.4071C30.9801 56.4873 31.4473 56.9546 31.4473 57.5276C31.447 58.1005 30.9798 58.5678 30.4068 58.5678Z" fill="white"/>
<path d="M50.9697 41.0804H49.9294V65.6382H50.9697V41.0804Z" fill="#E6E7E8"/>
<path d="M65.4723 51.1959C65.4723 51.2109 65.4723 51.2109 65.4573 51.226H73.4926L71.5027 48.9346H68.6084C67.1756 48.9196 65.8942 49.8391 65.4723 51.1959Z" fill="#177BC0"/>
<path d="M54.3768 46.1456C53.3515 46.1456 52.6281 47.1405 52.9296 48.1054L53.8945 51.2109H57.0603L55.809 47.2009C55.6131 46.5829 55.0402 46.1456 54.3768 46.1456Z" fill="#177BC0"/>
<path d="M41.7738 46.1456C40.7485 46.1456 40.0251 47.1405 40.3266 48.1054L41.2915 51.2109H44.4573L43.2059 47.2009C43.0251 46.5829 42.4371 46.1456 41.7738 46.1456Z" fill="#1CAEE4"/>
<path d="M87.2863 58.5678H86.5025L86.1104 56.4723H86.8944L87.2863 58.5678Z" fill="#E6E7E8"/>
<path d="M89.005 58.5678H88.2209L87.844 56.4723H88.6131L89.005 58.5678Z" fill="#E6E7E8"/>
<path d="M28.5978 58.5678H27.814L27.4221 56.4723H28.2059L28.5978 58.5678Z" fill="#E6E7E8"/>
<path d="M30.3163 58.5678H29.5325L29.1406 56.4723H29.9244L30.3163 58.5678Z" fill="#E6E7E8"/>
<path d="M81.1354 52.8091H21.2261V53.774H85.8844C84.3012 53.4122 82.7183 53.0953 81.1354 52.8091Z" fill="#E6E7E8"/>
<path d="M72.4072 53.5929H71.8645V48.8442H72.4072C73.4171 48.8442 74.2462 49.6583 74.2462 50.6833V51.7535C74.2312 52.7788 73.4171 53.5929 72.4072 53.5929Z" fill="#A72973"/>
<path d="M71.6682 53.1707H71.8643V49.1757H71.6682C71.4271 49.1757 71.231 49.3718 71.231 49.613V52.7488C71.231 52.9749 71.4271 53.1707 71.6682 53.1707Z" fill="white"/>
<path d="M24.6481 56.005H21.2261V58.0402H24.6481V56.005Z" fill="#177BC0"/>
</svg>
