<svg width="120" height="120" viewBox="0 0 120 120" fill="none" xmlns="http://www.w3.org/2000/svg">
<g clip-path="url(#clip0_23_9023)">
<path d="M120 60.0002C120 93.1376 93.1376 120 60.0002 120C26.8628 120 0 93.1376 0 60.0002C0 26.8628 26.8628 0 60.0002 0C93.1376 0 120 26.8628 120 60.0002Z" fill="#382B73"/>
<path d="M111.909 60.0002C111.909 88.6689 88.669 111.909 60.0003 111.909C31.3315 111.909 8.09131 88.6689 8.09131 60.0002C8.09131 31.3315 31.3315 8.09125 60.0003 8.09125C88.669 8.09125 111.909 31.3315 111.909 60.0002Z" fill="#473080"/>
<path d="M101.199 73.0478C101.199 64.9625 94.6441 58.4073 86.5578 58.4073V34.8157C86.5578 34.1247 86.3546 33.4995 86.0258 33.0471C85.9021 32.8773 85.7608 32.732 85.6067 32.6162C85.5037 32.5396 85.3947 32.4758 85.2818 32.4268C85.1101 32.3541 84.9295 32.3149 84.7411 32.3149H77.7913V28.0278C77.7913 26.8962 76.8736 25.9785 75.742 25.9785C74.6103 25.9785 73.6936 26.8962 73.6936 28.0278V32.3149H44.9051V28.0278C44.9051 26.8962 43.9875 25.9785 42.8558 25.9785C41.7242 25.9785 40.8075 26.8962 40.8075 28.0278V32.3149H33.8577C33.6693 32.3149 33.4877 32.3541 33.3169 32.4268C33.26 32.4513 33.2041 32.4798 33.1501 32.5112C32.7703 32.733 32.4562 33.1275 32.2599 33.6232C32.1205 33.9775 32.04 34.3838 32.04 34.8147V94.8355C32.04 96.2174 33.1599 97.3363 34.5408 97.3363H84.0579C85.4389 97.3363 86.5587 96.2174 86.5587 94.8355V89.3559C94.6451 89.3559 101.2 82.8007 101.2 74.7154C101.2 74.4356 101.191 74.1569 101.176 73.8811C101.19 73.6063 101.199 73.3285 101.199 73.0478Z" fill="#382B73"/>
<path d="M84.057 94.3212H34.5408C33.1599 94.3212 32.04 93.2023 32.04 91.8204V35.1356C32.04 33.7537 33.1589 32.6339 34.5408 32.6339H84.057C85.4389 32.6339 86.5587 33.7537 86.5587 35.1356V91.8204C86.5578 93.2023 85.4379 94.3212 84.057 94.3212Z" fill="#BBBDBF"/>
<path d="M84.057 32.6348H34.5408C33.1589 32.6348 32.04 33.7547 32.04 35.1356V90.1539C32.04 91.5348 33.1589 92.6556 34.5408 92.6556H84.057C85.4389 92.6556 86.5587 91.5358 86.5587 90.1539V35.1356C86.5578 33.7547 85.4379 32.6348 84.057 32.6348Z" fill="#D0D2D3"/>
<path d="M86.5577 31.8006V88.4864C86.5577 88.9153 86.4488 89.3186 86.2594 89.672C85.8373 90.4552 85.009 90.9871 84.057 90.9871H34.5408C33.1599 90.9871 32.04 89.8673 32.04 88.4864V31.8006C32.04 30.4206 33.1599 29.2998 34.5408 29.2998H84.057C85.4379 29.2998 86.5577 30.4206 86.5577 31.8006Z" fill="white"/>
<path d="M84.741 29.2998H33.8577C32.8537 29.2998 32.04 30.4197 32.04 31.8006V43.9718H86.5577V31.8006C86.5577 30.4197 85.7441 29.2998 84.741 29.2998Z" fill="#FDDD3A"/>
<path d="M84.741 29.2998H33.8577C32.8537 29.2998 32.04 30.4197 32.04 31.8006V32.6348C32.04 31.2529 32.8537 30.1341 33.8577 30.1341H84.741C85.7441 30.1341 86.5577 31.2529 86.5577 32.6348V31.8006C86.5577 30.4197 85.7441 29.2998 84.741 29.2998Z" fill="#FFF235"/>
<path d="M39.5101 55.6425H46.2027C47.2902 55.6425 48.1716 56.5238 48.1716 57.6103V66.0745C48.1716 67.162 47.2902 68.0433 46.2027 68.0433H39.5101C38.4236 68.0433 37.5413 67.162 37.5413 66.0745V57.6103C37.5413 56.5238 38.4236 55.6425 39.5101 55.6425ZM55.9527 68.0433H62.6453C63.7318 68.0433 64.6131 67.162 64.6131 66.0745V57.6103C64.6131 56.5238 63.7318 55.6425 62.6453 55.6425H55.9527C54.8662 55.6425 53.9848 56.5238 53.9848 57.6103V66.0745C53.9838 67.162 54.8652 68.0433 55.9527 68.0433ZM72.3952 68.0433H79.0879C80.1753 68.0433 81.0567 67.162 81.0567 66.0745V57.6103C81.0567 56.5238 80.1753 55.6425 79.0879 55.6425H72.3952C71.3077 55.6425 70.4264 56.5238 70.4264 57.6103V66.0745C70.4264 67.162 71.3077 68.0433 72.3952 68.0433ZM39.5101 86.3497H46.2027C47.2902 86.3497 48.1716 85.4683 48.1716 84.3819V75.9167C48.1716 74.8302 47.2902 73.9488 46.2027 73.9488H39.5101C38.4236 73.9488 37.5413 74.8302 37.5413 75.9167V84.3819C37.5413 85.4683 38.4236 86.3497 39.5101 86.3497ZM55.9527 86.3497H62.6453C63.7318 86.3497 64.6131 85.4683 64.6131 84.3819V75.9167C64.6131 74.8302 63.7318 73.9488 62.6453 73.9488H55.9527C54.8662 73.9488 53.9848 74.8302 53.9848 75.9167V84.3819C53.9838 85.4683 54.8652 86.3497 55.9527 86.3497ZM72.3952 86.3497H79.0879C80.1753 86.3497 81.0567 85.4683 81.0567 84.3819V75.9167C81.0567 74.8302 80.1753 73.9488 79.0879 73.9488H72.3952C71.3077 73.9488 70.4264 74.8302 70.4264 75.9167V84.3819C70.4264 85.4683 71.3077 86.3497 72.3952 86.3497Z" fill="#E6E7E8"/>
<path d="M81.0567 59.7961V66.0745C81.0567 67.162 80.1753 68.0434 79.0879 68.0434H72.9154C72.2706 69.6932 71.9163 71.4893 71.9163 73.3678C71.9163 73.5818 71.9231 73.7938 71.9329 74.0058C72.0811 73.9695 72.2352 73.9489 72.3952 73.9489H79.0879C80.1753 73.9489 81.0567 74.8302 81.0567 75.9167V84.3819C81.0567 85.4684 80.1753 86.3497 79.0879 86.3497H77.2721C79.7278 88.3676 82.8498 89.6033 86.2595 89.672C86.4499 89.3187 86.5588 88.9153 86.5588 88.4864V58.7263C84.6116 58.7263 82.7546 59.1071 81.0567 59.7961Z" fill="#D0D2D3"/>
<path d="M81.0567 84.3819V75.9167C81.0567 74.8302 80.1753 73.9489 79.0879 73.9489H72.3952C72.2352 73.9489 72.0811 73.9695 71.9329 74.0058C71.9359 74.0706 71.9379 74.1363 71.9418 74.2011C71.9251 74.4759 71.9163 74.7556 71.9163 75.0353C71.9163 79.5952 74.0038 83.6644 77.2721 86.3497H79.0879C80.1753 86.3497 81.0567 85.4684 81.0567 84.3819Z" fill="#BBBDBF"/>
<path d="M72.9153 68.0433H79.0877C80.1752 68.0433 81.0566 67.162 81.0566 66.0745V59.796C77.3358 61.3055 74.3777 64.3 72.9153 68.0433Z" fill="#BBBDBF"/>
<path d="M39.5101 53.975H46.2027C47.2902 53.975 48.1716 54.8563 48.1716 55.9428V64.408C48.1716 65.4945 47.2902 66.3758 46.2027 66.3758H39.5101C38.4236 66.3758 37.5413 65.4945 37.5413 64.408V55.9428C37.5413 54.8563 38.4236 53.975 39.5101 53.975ZM55.9527 66.3768H62.6453C63.7318 66.3768 64.6131 65.4955 64.6131 64.408V55.9438C64.6131 54.8563 63.7318 53.975 62.6453 53.975H55.9527C54.8662 53.975 53.9848 54.8563 53.9848 55.9438V64.408C53.9838 65.4955 54.8652 66.3768 55.9527 66.3768ZM72.3952 66.3768H79.0879C80.1753 66.3768 81.0567 65.4955 81.0567 64.408V55.9438C81.0567 54.8563 80.1753 53.975 79.0879 53.975H72.3952C71.3077 53.975 70.4264 54.8563 70.4264 55.9438V64.408C70.4264 65.4955 71.3077 66.3768 72.3952 66.3768ZM39.5101 84.6832H46.2027C47.2902 84.6832 48.1716 83.8018 48.1716 82.7144V74.2502C48.1716 73.1637 47.2902 72.2823 46.2027 72.2823H39.5101C38.4236 72.2823 37.5413 73.1637 37.5413 74.2502V82.7144C37.5413 83.8018 38.4236 84.6832 39.5101 84.6832ZM55.9527 84.6832H62.6453C63.7318 84.6832 64.6131 83.8018 64.6131 82.7144V74.2502C64.6131 73.1637 63.7318 72.2823 62.6453 72.2823H55.9527C54.8662 72.2823 53.9848 73.1637 53.9848 74.2502V82.7144C53.9838 83.8018 54.8652 84.6832 55.9527 84.6832ZM72.3952 84.6832H79.0879C80.1753 84.6832 81.0567 83.8018 81.0567 82.7144V74.2502C81.0567 73.1637 80.1753 72.2823 79.0879 72.2823H72.3952C71.3077 72.2823 70.4264 73.1637 70.4264 74.2502V82.7144C70.4264 83.8018 71.3077 84.6832 72.3952 84.6832Z" fill="#FDDD3A"/>
<path d="M62.6454 72.2813H55.9527C54.8662 72.2813 53.9849 73.1627 53.9849 74.2501V75.0834C53.9849 73.9969 54.8662 73.1146 55.9527 73.1146H62.6454C63.7318 73.1146 64.6132 73.9969 64.6132 75.0834V74.2501C64.6132 73.1627 63.7318 72.2813 62.6454 72.2813Z" fill="#FFF235"/>
<path d="M46.2027 72.2813H39.5101C38.4236 72.2813 37.5413 73.1627 37.5413 74.2501V75.0834C37.5413 73.9969 38.4236 73.1146 39.5101 73.1146H46.2027C47.2902 73.1146 48.1716 73.9969 48.1716 75.0834V74.2501C48.1716 73.1627 47.2902 72.2813 46.2027 72.2813Z" fill="#FFF235"/>
<path d="M46.2027 53.975H39.5101C38.4236 53.975 37.5413 54.8563 37.5413 55.9428V56.7771C37.5413 55.6896 38.4236 54.8082 39.5101 54.8082H46.2027C47.2902 54.8082 48.1716 55.6896 48.1716 56.7771V55.9428C48.1716 54.8563 47.2902 53.975 46.2027 53.975Z" fill="#FFF235"/>
<path d="M62.6454 53.975H55.9527C54.8662 53.975 53.9849 54.8563 53.9849 55.9428V56.7771C53.9849 55.6896 54.8662 54.8082 55.9527 54.8082H62.6454C63.7318 54.8082 64.6132 55.6896 64.6132 56.7771V55.9428C64.6132 54.8563 63.7318 53.975 62.6454 53.975Z" fill="#FFF235"/>
<path d="M79.0878 72.2813H72.3941C71.3076 72.2813 70.4263 73.1627 70.4263 74.2501V75.0834C70.4263 73.9969 71.3076 73.1146 72.3941 73.1146H79.0878C80.1742 73.1146 81.0556 73.9969 81.0556 75.0834V74.2501C81.0566 73.1627 80.1752 72.2813 79.0878 72.2813Z" fill="#FFF235"/>
<path d="M79.0878 53.975H72.3941C71.3076 53.975 70.4263 54.8563 70.4263 55.9428V56.7771C70.4263 55.6896 71.3076 54.8082 72.3941 54.8082H79.0878C80.1742 54.8082 81.0556 55.6896 81.0556 56.7771V55.9428C81.0566 54.8563 80.1752 53.975 79.0878 53.975Z" fill="#FFF235"/>
<path d="M46.2027 63.0418H39.5101C38.4236 63.0418 37.5413 62.1604 37.5413 61.0729V64.408C37.5413 65.4945 38.4236 66.3758 39.5101 66.3758H46.2027C47.2902 66.3758 48.1716 65.4945 48.1716 64.408V61.0729C48.1716 62.1604 47.2902 63.0418 46.2027 63.0418Z" fill="#F6CA14"/>
<path d="M62.6454 81.3482H55.9527C54.8662 81.3482 53.9849 80.4668 53.9849 79.3803V82.7144C53.9849 83.8018 54.8662 84.6832 55.9527 84.6832H62.6454C63.7318 84.6832 64.6132 83.8018 64.6132 82.7144V79.3803C64.6132 80.4668 63.7318 81.3482 62.6454 81.3482Z" fill="#F6CA14"/>
<path d="M46.2027 81.3482H39.5101C38.4236 81.3482 37.5413 80.4668 37.5413 79.3803V82.7144C37.5413 83.8018 38.4236 84.6832 39.5101 84.6832H46.2027C47.2902 84.6832 48.1716 83.8018 48.1716 82.7144V79.3803C48.1716 80.4668 47.2902 81.3482 46.2027 81.3482Z" fill="#F6CA14"/>
<path d="M62.6454 63.0418H55.9527C54.8662 63.0418 53.9849 62.1604 53.9849 61.0729V64.408C53.9849 65.4945 54.8662 66.3758 55.9527 66.3758H62.6454C63.7318 66.3758 64.6132 65.4945 64.6132 64.408V61.0729C64.6132 62.1604 63.7318 63.0418 62.6454 63.0418Z" fill="#F6CA14"/>
<path d="M79.0878 63.0418H72.3941C71.3076 63.0418 70.4263 62.1604 70.4263 61.0729V64.408C70.4263 65.4945 71.3076 66.3758 72.3941 66.3758H79.0878C80.1742 66.3758 81.0556 65.4945 81.0556 64.408V61.0729C81.0566 62.1604 80.1752 63.0418 79.0878 63.0418Z" fill="#F6CA14"/>
<path d="M79.0878 81.3482H72.3941C71.3076 81.3482 70.4263 80.4668 70.4263 79.3803V82.7144C70.4263 83.8018 71.3076 84.6832 72.3941 84.6832H79.0878C80.1742 84.6832 81.0556 83.8018 81.0556 82.7144V79.3803C81.0566 80.4668 80.1752 81.3482 79.0878 81.3482Z" fill="#F6CA14"/>
<path d="M79.0879 72.2813H72.3942C72.2421 72.2813 72.0949 72.3009 71.9526 72.3333C71.929 72.6749 71.9163 73.0204 71.9163 73.3688C71.9163 73.6485 71.9251 73.9253 71.9408 74.202C71.9251 74.4769 71.9163 74.7556 71.9163 75.0353C71.9163 77.2966 72.4315 79.4372 73.3482 81.3491H79.0879C80.1744 81.3491 81.0557 80.4677 81.0557 79.3803V74.2511C81.0567 73.1627 80.1753 72.2813 79.0879 72.2813Z" fill="#F6CA14"/>
<path d="M79.0878 81.3482H73.3481C73.9292 82.5613 74.6712 83.6821 75.5486 84.6832H79.0878C80.1743 84.6832 81.0556 83.8018 81.0556 82.7144V79.3803C81.0566 80.4668 80.1753 81.3482 79.0878 81.3482Z" fill="#E7AD27"/>
<path d="M73.6907 66.3768H79.0878C80.1752 66.3768 81.0566 65.4955 81.0566 64.408V59.7971C77.9071 61.0749 75.3032 63.4157 73.6907 66.3768Z" fill="#E7AD27"/>
<path d="M32.04 43.9718H86.5577V46.9731H32.04V43.9718Z" fill="#F6CA14"/>
<path d="M89.9233 57.4601C82.0539 55.6012 74.1678 60.4742 72.3099 68.3436C70.4519 76.2131 75.3249 84.0992 83.1944 85.9571C91.0638 87.816 98.9489 82.942 100.808 75.0726C102.666 67.2042 97.7927 59.318 89.9233 57.4601Z" fill="#106EA0"/>
<path d="M101.199 70.0328C101.199 78.1191 94.6442 84.6744 86.5578 84.6744C78.4715 84.6744 71.9163 78.1191 71.9163 70.0328C71.9163 61.9474 78.4715 55.3922 86.5578 55.3922C94.6442 55.3922 101.199 61.9474 101.199 70.0328Z" fill="#1CADE3"/>
<path d="M98.0243 70.0328C98.0243 76.3662 92.8913 81.5003 86.5578 81.5003C80.2244 81.5003 75.0913 76.3662 75.0913 70.0328C75.0913 63.7004 80.2244 58.5663 86.5578 58.5663C92.8913 58.5663 98.0243 63.7004 98.0243 70.0328Z" fill="#0099DC"/>
<path d="M86.5578 59.3996C92.7509 59.3996 97.7947 64.3108 98.0145 70.4499C98.0194 70.3115 98.0243 70.1731 98.0243 70.0338C98.0243 63.7004 92.8903 58.5663 86.5578 58.5663C80.2244 58.5663 75.0913 63.7004 75.0913 70.0338C75.0913 70.1731 75.0962 70.3125 75.1011 70.4499C75.321 64.3108 80.3647 59.3996 86.5578 59.3996Z" fill="#106EA0"/>
<path d="M90.9637 72.83L88.1243 69.9906C88.1135 69.6019 87.9624 69.2496 87.719 68.9806C87.7219 68.9433 87.7249 68.9041 87.7249 68.8658V62.6443C87.7249 61.9994 87.2017 61.4773 86.5579 61.4773C85.9131 61.4773 85.3909 62.0004 85.3909 62.6443V68.8658C85.3909 68.9041 85.3929 68.9433 85.3968 68.9806C85.1446 69.2594 84.9895 69.6274 84.9895 70.0328C84.9895 70.8847 85.6697 71.5766 86.5157 71.5992L89.3551 74.4386C89.7987 74.8822 90.5201 74.8822 90.9637 74.4386C91.4083 73.994 91.4083 73.2746 90.9637 72.83Z" fill="#106EA0"/>
<path d="M88.1263 69.1995C88.1263 70.0661 87.4245 70.7679 86.5579 70.7679C85.6913 70.7679 84.9895 70.0661 84.9895 69.1995C84.9895 68.3329 85.6913 67.6311 86.5579 67.6311C87.4245 67.6311 88.1263 68.3329 88.1263 69.1995Z" fill="white"/>
<path d="M86.5578 69.1995C85.913 69.1995 85.3909 68.6774 85.3909 68.0325V61.811C85.3909 61.1662 85.914 60.644 86.5578 60.644C87.2027 60.644 87.7248 61.1662 87.7248 61.811V68.0325C87.7248 68.6774 87.2027 69.1995 86.5578 69.1995Z" fill="white"/>
<path d="M86.2751 68.9168C86.7197 68.4732 87.4401 68.4732 87.8847 68.9168L90.9636 71.9967C91.4082 72.4403 91.4082 73.1617 90.9636 73.6053C90.52 74.0499 89.7986 74.0499 89.355 73.6053L86.2751 70.5264C85.8305 70.0818 85.8305 69.3614 86.2751 68.9168Z" fill="white"/>
<path d="M87.4333 69.1995C87.4333 69.6834 87.0417 70.075 86.5578 70.075C86.074 70.075 85.6824 69.6834 85.6824 69.1995C85.6824 68.7156 86.074 68.324 86.5578 68.324C87.0417 68.324 87.4333 68.7156 87.4333 69.1995Z" fill="#FDDD3A"/>
<path d="M32.04 41.0539H86.5577V42.055H32.04V41.0539Z" fill="#FFF235"/>
<path d="M45.9052 33.9127C45.9052 35.5969 44.54 36.9621 42.8558 36.9621C41.1726 36.9621 39.8074 35.5969 39.8074 33.9127C39.8074 32.2285 41.1726 30.8633 42.8558 30.8633C44.54 30.8633 45.9052 32.2285 45.9052 33.9127Z" fill="#F6CA14"/>
<path d="M78.7905 33.9127C78.7905 35.5969 77.4253 36.9621 75.7411 36.9621C74.0569 36.9621 72.6917 35.5969 72.6917 33.9127C72.6917 32.2285 74.0569 30.8633 75.7411 30.8633C77.4253 30.8633 78.7905 32.2285 78.7905 33.9127Z" fill="#F6CA14"/>
<path d="M42.8559 35.6352C41.7243 35.6352 40.8076 34.7185 40.8076 33.5869V25.0137C40.8076 23.8821 41.7243 22.9644 42.8559 22.9644C43.9876 22.9644 44.9053 23.8821 44.9053 25.0137V33.5869C44.9053 34.7185 43.9876 35.6352 42.8559 35.6352Z" fill="white"/>
<path d="M42.8559 32.3011C41.7243 32.3011 40.8076 31.3835 40.8076 30.2518V33.5869C40.8076 34.7185 41.7243 35.6352 42.8559 35.6352C43.9876 35.6352 44.9053 34.7185 44.9053 33.5869V30.2518C44.9053 31.3835 43.9876 32.3011 42.8559 32.3011Z" fill="#E6E7E8"/>
<path d="M75.741 35.6352C74.6093 35.6352 73.6926 34.7185 73.6926 33.5869V25.0137C73.6926 23.8821 74.6093 22.9644 75.741 22.9644C76.8726 22.9644 77.7903 23.8821 77.7903 25.0137V33.5869C77.7903 34.7185 76.8726 35.6352 75.741 35.6352Z" fill="white"/>
<path d="M75.741 32.3011C74.6093 32.3011 73.6926 31.3835 73.6926 30.2518V33.5869C73.6926 34.7185 74.6093 35.6352 75.741 35.6352C76.8726 35.6352 77.7903 34.7185 77.7903 33.5869V30.2518C77.7903 31.3835 76.8726 32.3011 75.741 32.3011Z" fill="#E6E7E8"/>
<path d="M32.04 46.9731H86.5577V48.6407H32.04V46.9731Z" fill="#E6E7E8"/>
</g>
<defs>
<clipPath id="clip0_23_9023">
<rect width="120" height="120" fill="white"/>
</clipPath>
</defs>
</svg>
