<svg width="120" height="120" viewBox="0 0 120 120" fill="none" xmlns="http://www.w3.org/2000/svg">
<path d="M60 120C93.1371 120 120 93.1371 120 60C120 26.8629 93.1371 0 60 0C26.8629 0 0 26.8629 0 60C0 93.1371 26.8629 120 60 120Z" fill="#382B73"/>
<path d="M59.9999 111.905C88.6661 111.905 111.905 88.6662 111.905 60C111.905 31.3339 88.6661 8.09534 59.9999 8.09534C31.3337 8.09534 8.09521 31.3339 8.09521 60C8.09521 88.6662 31.3337 111.905 59.9999 111.905Z" fill="#473080"/>
<path d="M98.8942 37.7789C98.8942 37.7639 98.8942 37.7639 98.8942 37.7487C98.8942 37.628 98.8942 37.5225 98.8792 37.4018C98.8792 37.3566 98.8792 37.2961 98.8639 37.2511C98.8639 37.1756 98.8487 37.1154 98.8487 37.0402C98.8487 36.9799 98.8337 36.9195 98.8337 36.8592C98.8337 36.8142 98.8185 36.7688 98.8185 36.7235C98.8035 36.5728 98.7732 36.4221 98.743 36.2712C98.743 36.2562 98.743 36.2409 98.728 36.2262C98.7128 36.1357 98.6978 36.0452 98.6678 35.9395C98.6678 35.9395 98.6678 35.9395 98.6678 35.9245C97.8386 32.2763 94.5672 29.5477 90.6627 29.5477C86.7582 29.5477 83.4868 32.2763 82.6576 35.9245C82.6424 36.015 82.6124 36.1055 82.5974 36.2112C82.5974 36.2264 82.5974 36.2414 82.5822 36.2564C82.5519 36.4071 82.5369 36.5578 82.5067 36.7088C82.5067 36.754 82.4914 36.7992 82.4914 36.8445C82.4914 36.9047 82.4764 36.9652 82.4764 37.0254C82.4764 37.1009 82.4612 37.1611 82.4612 37.2363C82.4612 37.2813 82.4612 37.342 82.4462 37.387C82.4462 37.5077 82.431 37.6132 82.431 37.7339V37.7489C82.431 38.6084 82.5667 39.4526 82.8079 40.2363L74.1697 47.2767C72.9786 46.6134 71.6221 46.2363 70.1596 46.2363C67.8531 46.2363 65.7575 47.201 64.265 48.7388L57.9032 46.1006C57.9032 46.0556 57.9032 46.0102 57.9032 45.9649C57.9032 45.8442 57.9032 45.7085 57.8882 45.5881C57.8882 45.5428 57.8882 45.5126 57.8882 45.4674C57.8882 45.3769 57.8732 45.2864 57.8732 45.1959C57.8732 45.1509 57.8732 45.1205 57.8582 45.0752C57.8432 44.9545 57.8279 44.8341 57.8132 44.7284C57.8132 44.6981 57.7982 44.6529 57.7982 44.6227C57.7832 44.5472 57.7679 44.4567 57.7529 44.3815C57.7379 44.3213 57.7379 44.2758 57.7227 44.2308C57.7077 44.1706 57.6925 44.0951 57.6775 44.0346C57.6625 43.9744 57.6472 43.9289 57.6325 43.8687C57.6022 43.763 57.5722 43.6725 57.542 43.5673C56.5168 40.2054 53.3964 37.7634 49.7029 37.7634C46.0093 37.7634 42.8736 40.2056 41.8485 43.5825C41.8182 43.673 41.7882 43.7787 41.773 43.8692C41.7578 43.9294 41.7428 43.9749 41.7278 44.0351C41.7128 44.0953 41.6975 44.1558 41.6825 44.2313C41.6675 44.2915 41.6523 44.337 41.6523 44.3972C41.6373 44.4727 41.6221 44.5631 41.6073 44.6384C41.6073 44.6686 41.5923 44.7138 41.5923 44.7441C41.5773 44.8648 41.5621 44.9702 41.5471 45.0909C41.5471 45.1362 41.5321 45.1664 41.5321 45.2116C41.5171 45.3021 41.5171 45.3926 41.5171 45.4831C41.5171 45.5281 41.5171 45.5585 41.5171 45.6038C41.5171 45.7245 41.5021 45.8602 41.5021 45.9806C41.5021 46.5534 41.5623 47.0963 41.668 47.6388C41.6982 47.7745 41.7282 47.9102 41.7585 48.0307C41.8642 48.4226 41.9846 48.7997 42.1504 49.1763C42.1956 49.282 42.2408 49.3725 42.2861 49.4777L32.2911 60.0909C31.3564 59.7141 30.3315 59.5029 29.2609 59.5029C25.5674 59.5029 22.4317 61.9451 21.4065 65.3067C21.3763 65.3972 21.3463 65.5029 21.3161 65.6081C21.3008 65.6684 21.2858 65.7138 21.2708 65.7741C21.2556 65.8343 21.2406 65.9098 21.2256 65.9702C21.2104 66.0305 21.1954 66.0759 21.1954 66.1362C21.1801 66.2116 21.1651 66.3021 21.1501 66.3773C21.1501 66.4076 21.1349 66.4528 21.1349 66.4831C21.1196 66.6038 21.1046 66.7092 21.0896 66.8299C21.0896 66.8752 21.0744 66.9054 21.0744 66.9506C21.0592 67.0411 21.0592 67.1316 21.0592 67.222C21.0592 67.2673 21.0592 67.2975 21.0592 67.3427C21.0592 67.4634 21.0439 67.5991 21.0439 67.7196C21.0439 72.2573 24.7225 75.9206 29.245 75.9206C32.7875 75.9206 35.8028 73.6744 36.9486 70.5389C36.9936 70.4182 37.0391 70.2825 37.0843 70.162C37.2805 69.5138 37.401 68.8505 37.4462 68.142C37.4462 68.0063 37.4612 67.8553 37.4612 67.7198C37.4612 67.5991 37.4612 67.4634 37.4462 67.343C37.4462 67.2977 37.4462 67.2675 37.4462 67.2223C37.4462 67.1318 37.4312 67.0413 37.4312 66.9509C37.4312 66.9056 37.4312 66.8754 37.4162 66.8302C37.4012 66.7095 37.386 66.589 37.3712 66.4833C37.3712 66.453 37.3562 66.4078 37.3562 66.3776C37.3412 66.3021 37.326 66.2116 37.311 66.1364C37.296 66.0762 37.296 66.0307 37.2807 65.9705C37.2657 65.9102 37.2505 65.8348 37.2357 65.7743C37.2207 65.7141 37.2055 65.6686 37.1905 65.6084C37.1603 65.5027 37.1303 65.4122 37.1 65.307C36.9793 64.9301 36.8436 64.5682 36.6779 64.2216L46.6729 53.6084C47.6075 53.9852 48.6325 54.1964 49.7031 54.1964C49.8388 54.1964 49.9897 54.1964 50.1252 54.1814C50.8187 54.1512 51.4972 54.0155 52.1453 53.8195C52.281 53.7743 52.4017 53.7291 52.5222 53.6838C53.698 53.2617 54.7382 52.5682 55.5976 51.6788L61.9595 54.3169C61.9595 54.3619 61.9595 54.4074 61.9595 54.4526C61.9595 56.7138 62.8792 58.7641 64.3564 60.2564C64.4469 60.3469 64.5374 60.4374 64.6431 60.5278C64.8393 60.7088 65.035 60.8747 65.2461 61.0254C66.6182 62.0506 68.3216 62.6534 70.1607 62.6534C70.2964 62.6534 70.4474 62.6534 70.5829 62.6381C71.2764 62.6079 71.9549 62.4722 72.6029 62.2763C72.7386 62.231 72.8593 62.1858 72.9798 62.1405C73.8393 61.8239 74.623 61.3716 75.3165 60.814C75.4372 60.7083 75.5577 60.6178 75.6784 60.4974C77.3366 58.9899 78.3618 56.8341 78.3618 54.4221C78.3618 54.3014 78.3618 54.1657 78.3468 54.0452C78.3468 54 78.3468 53.9698 78.3468 53.9245C78.3468 53.8341 78.3315 53.7436 78.3315 53.6531C78.3315 53.6081 78.3315 53.5777 78.3165 53.5324C78.3013 53.4117 78.2863 53.2913 78.2713 53.1856C78.2713 53.1553 78.2561 53.1101 78.2561 53.0799C78.2408 53.0044 78.2258 52.9139 78.2108 52.8387C78.1956 52.7784 78.1956 52.733 78.1806 52.688C78.1654 52.6277 78.1504 52.5523 78.1353 52.4918C78.1203 52.4316 78.1051 52.3861 78.0901 52.3259C78.0599 52.2202 78.0299 52.1297 77.9997 52.0245C77.9847 51.9942 77.9847 51.9642 77.9694 51.934L86.5925 44.8936C87.7836 45.5569 89.1402 45.9488 90.6027 45.9488C95.2159 45.9799 98.8942 42.3167 98.8942 37.7789Z" fill="#382B73"/>
<path d="M27.8742 80.4422H26.291V90.4374H27.8742H30.7535H32.3212V80.4422H30.7535H27.8742Z" fill="#382B73"/>
<path d="M89.2462 50.7891H87.6785V90.4373H89.2462H92.1255H93.7085V50.7891H92.1255H89.2462Z" fill="#382B73"/>
<path d="M48.3315 58.7184H46.7485V90.4373H48.3315H51.2108H52.7788V58.7184H51.2108H48.3315Z" fill="#382B73"/>
<path d="M68.7889 67.1911H67.2209V90.4373H68.7889H71.6682H73.2512V67.1911H71.6682H68.7889Z" fill="#382B73"/>
<path d="M31.5074 66.769L27.1206 62.6231L48.9948 39.3919L69.7234 47.9698L88.7788 32.4272L92.5928 37.1006L70.7336 54.9197L50.5326 46.5527L31.5074 66.769Z" fill="white"/>
<path d="M70.7336 51.1962L50.5326 42.8292L31.5074 63.045L28.9747 60.6633L27.1206 62.6231L31.5074 66.769L50.5326 46.5527L70.7336 54.9197L92.5928 37.1006L90.7689 34.8544L70.7336 51.1962Z" fill="#D1D3D4"/>
<path d="M29.3055 72.8899C33.8348 72.8899 37.5065 69.2182 37.5065 64.6889C37.5065 60.1596 33.8348 56.4879 29.3055 56.4879C24.7762 56.4879 21.1045 60.1596 21.1045 64.6889C21.1045 69.2182 24.7762 72.8899 29.3055 72.8899Z" fill="#FEDE3A"/>
<path d="M29.3065 68.0956C25.613 68.0956 22.4925 65.6534 21.4673 62.2917C21.2412 63.0455 21.1055 63.8595 21.1055 64.6887C21.1055 69.2264 24.784 72.8897 29.3065 72.8897C33.8442 72.8897 37.5075 69.2112 37.5075 64.6887C37.5075 63.8595 37.3868 63.0455 37.1456 62.2917C36.1357 65.6532 33 68.0956 29.3065 68.0956Z" fill="#E7AD27"/>
<path d="M49.7645 51.1648C54.2938 51.1648 57.9655 47.4931 57.9655 42.9638C57.9655 38.4345 54.2938 34.7628 49.7645 34.7628C45.2352 34.7628 41.5635 38.4345 41.5635 42.9638C41.5635 47.4931 45.2352 51.1648 49.7645 51.1648Z" fill="#EF5A9D"/>
<path d="M70.2354 59.6522C74.7647 59.6522 78.4365 55.9805 78.4365 51.4512C78.4365 46.9219 74.7647 43.2502 70.2354 43.2502C65.7061 43.2502 62.0344 46.9219 62.0344 51.4512C62.0344 55.9805 65.7061 59.6522 70.2354 59.6522Z" fill="#1CAEE4"/>
<path d="M90.6944 42.9656C95.2237 42.9656 98.8954 39.2939 98.8954 34.7646C98.8954 30.2353 95.2237 26.5636 90.6944 26.5636C86.1651 26.5636 82.4934 30.2353 82.4934 34.7646C82.4934 39.2939 86.1651 42.9656 90.6944 42.9656Z" fill="#FEDE3A"/>
<path d="M49.764 46.372C46.0705 46.372 42.95 43.9298 41.9249 40.5682C41.6987 41.3219 41.563 42.1359 41.563 42.9651C41.563 47.5029 45.2415 51.1661 49.764 51.1661C54.3017 51.1661 57.965 47.4876 57.965 42.9651C57.965 42.1359 57.8443 41.3219 57.6031 40.5682C56.593 43.9296 53.4723 46.372 49.764 46.372Z" fill="#A72973"/>
<path d="M70.2362 54.8442C66.5427 54.8442 63.4222 52.402 62.397 49.0404C62.1709 49.7942 62.0352 50.6081 62.0352 51.4374C62.0352 55.9751 65.7137 59.6384 70.2362 59.6384C74.7739 59.6384 78.4372 55.9599 78.4372 51.4374C78.4372 50.6081 78.3165 49.7942 78.0753 49.0404C77.0502 52.402 73.9297 54.8442 70.2362 54.8442Z" fill="#177BC0"/>
<path d="M90.6935 38.1708C86.9999 38.1708 83.8795 35.7286 82.8543 32.3669C82.6281 33.1207 82.4924 33.9347 82.4924 34.7639C82.4924 39.3016 86.171 42.9649 90.6935 42.9649C95.2312 42.9649 98.8945 39.2864 98.8945 34.7639C98.8945 33.9347 98.7738 33.1207 98.5326 32.3669C97.5074 35.7286 94.3867 38.1708 90.6935 38.1708Z" fill="#E7AD27"/>
<path d="M32.3215 77.426H26.2913V87.4205H32.3215V77.426Z" fill="#D1D3D4"/>
<path d="M30.7533 77.426H27.874V87.4205H30.7533V77.426Z" fill="white"/>
<path d="M52.7783 55.7032H46.748V87.4228H52.7783V55.7032Z" fill="#D1D3D4"/>
<path d="M73.2517 64.1763H67.2214V87.4228H73.2517V64.1763Z" fill="#D1D3D4"/>
<path d="M93.7085 47.7731H87.6782V87.4205H93.7085V47.7731Z" fill="#D1D3D4"/>
<path d="M92.1259 47.7731H89.2466V87.4205H92.1259V47.7731Z" fill="white"/>
<path d="M51.2101 55.7032H48.3308V87.4228H51.2101V55.7032Z" fill="white"/>
<path d="M71.6691 64.1763H68.7898V87.4228H71.6691V64.1763Z" fill="white"/>
</svg>
