<svg width="120" height="120" viewBox="0 0 120 120" fill="none" xmlns="http://www.w3.org/2000/svg">
<g clip-path="url(#clip0_26_9238)">
<path d="M120 60.0002C120 93.1376 93.1376 120 60.0002 120C26.8628 120 0 93.1376 0 60.0002C0 26.8628 26.8628 0 60.0002 0C93.1376 0 120 26.8628 120 60.0002Z" fill="#382B73"/>
<path d="M111.909 60.0002C111.909 88.6689 88.669 111.909 60.0003 111.909C31.3315 111.909 8.09131 88.6689 8.09131 60.0002C8.09131 31.3315 31.3315 8.09125 60.0003 8.09125C88.669 8.09125 111.909 31.3315 111.909 60.0002Z" fill="#473080"/>
<path d="M39.7378 82.8388C39.7338 82.7985 39.7368 82.7573 39.7289 82.7171C39.7132 82.6356 39.6848 82.5581 39.6534 82.4815C39.6465 82.4668 39.6445 82.4501 39.6377 82.4364C39.4571 82.0477 39.0733 81.7552 38.5777 81.7552H32.5622V34.1343C32.5622 33.0243 31.6622 32.1243 30.5522 32.1243C29.4421 32.1243 28.5421 33.0243 28.5421 34.1343V81.7552H22.5277C22.0311 81.7552 21.6483 82.0477 21.4677 82.4364C21.4608 82.4501 21.4579 82.4658 21.452 82.4805C21.4206 82.5571 21.3912 82.6356 21.3754 82.7181C21.3686 82.7573 21.3705 82.7976 21.3676 82.8378C21.3627 82.8986 21.3529 82.9585 21.3578 83.0204C21.3627 83.0841 21.3823 83.147 21.398 83.2108C21.4078 83.25 21.4098 83.2903 21.4245 83.3285C21.4628 83.4316 21.5148 83.5317 21.5855 83.6269L23.889 86.7303L29.611 94.4388C29.8455 94.7548 30.1989 94.9128 30.5522 94.9128C30.6405 94.9128 30.7289 94.903 30.8152 94.8834C30.9889 94.8431 31.1538 94.7646 31.2971 94.6459C31.3011 94.6429 31.305 94.638 31.3089 94.6341C31.3756 94.5772 31.4385 94.5134 31.4944 94.4388L39.5189 83.6269C39.5896 83.5317 39.6426 83.4316 39.6799 83.3285C39.6946 83.2893 39.6965 83.249 39.7064 83.2098C39.7221 83.147 39.7417 83.0841 39.7466 83.0194C39.7515 82.9585 39.7427 82.8996 39.7378 82.8388Z" fill="#382B73"/>
<path d="M98.5777 43.7118C98.5394 43.6077 98.4854 43.5056 98.4138 43.4095L97.557 42.2543L90.3893 32.5966C89.9202 31.9655 88.975 31.9655 88.5059 32.5966L81.3382 42.2543L80.4814 43.4095C80.1712 43.8276 80.1967 44.335 80.4313 44.7178C80.6305 45.0436 80.9799 45.2801 81.4226 45.2801H87.438V92.9011C87.438 94.0111 88.338 94.9111 89.4481 94.9111C90.5581 94.9111 91.4581 94.0111 91.4581 92.9011V45.2811H97.4726C97.713 45.2811 97.9289 45.2124 98.1066 45.0966C98.2568 45.0004 98.3726 44.866 98.4639 44.7178C98.6435 44.4233 98.7043 44.0572 98.5777 43.7118Z" fill="#382B73"/>
<path d="M74.9501 32.1235H45.0506C43.9405 32.1235 43.0405 33.0235 43.0405 34.1336V48.0322C43.0405 49.1422 43.9405 50.0422 45.0506 50.0422H74.9501C76.0601 50.0422 76.9601 49.1422 76.9601 48.0322V34.1336C76.9601 33.0235 76.0601 32.1235 74.9501 32.1235Z" fill="#382B73"/>
<path d="M74.9501 54.558H45.0506C43.9405 54.558 43.0405 55.458 43.0405 56.568V70.4666C43.0405 71.5767 43.9405 72.4767 45.0506 72.4767H74.9501C76.0601 72.4767 76.9601 71.5767 76.9601 70.4666V56.568C76.9601 55.458 76.0601 54.558 74.9501 54.558Z" fill="#382B73"/>
<path d="M74.9501 76.9934H45.0506C43.9405 76.9934 43.0405 77.8934 43.0405 79.0035V92.9011C43.0405 93.0404 43.0543 93.1759 43.0808 93.3064C43.1347 93.5685 43.2388 93.8119 43.3831 94.0248C43.4557 94.1318 43.5381 94.2319 43.6294 94.3222C43.811 94.5048 44.0279 94.652 44.2683 94.7531C44.5078 94.8552 44.7728 94.9111 45.0506 94.9111H74.9501C75.2268 94.9111 75.4918 94.8552 75.7323 94.7531C75.9728 94.651 76.1887 94.5048 76.3712 94.3222C76.4615 94.2319 76.544 94.1318 76.6166 94.0248C76.7609 93.8109 76.8649 93.5675 76.9189 93.3064C76.9454 93.1759 76.9591 93.0404 76.9591 92.9011V79.0035C76.9601 77.8934 76.0601 76.9934 74.9501 76.9934Z" fill="#382B73"/>
<path d="M38.5777 78.2369H32.5623V30.6159C32.5623 29.5059 31.6623 28.6059 30.5522 28.6059C29.4422 28.6059 28.5422 29.5059 28.5422 30.6159V78.2369H22.5277C21.5639 78.2369 21.0114 79.3351 21.5855 80.1085L29.611 90.9204C30.0792 91.5525 31.0253 91.5525 31.4945 90.9204L39.519 80.1085C40.0931 79.3351 39.5415 78.2369 38.5777 78.2369Z" fill="#1CAEE4"/>
<path d="M38.6609 78.2487L31.4942 87.9053C31.0251 88.5364 30.079 88.5364 29.6108 87.9053L22.4431 78.2487C21.5343 78.3134 21.0288 79.3587 21.5853 80.1085L29.6098 90.9204C30.079 91.5525 31.0241 91.5525 31.4933 90.9204L39.5178 80.1085C40.0752 79.3587 39.5698 78.3134 38.6609 78.2487Z" fill="#009ADD"/>
<path d="M89.448 90.3885C88.338 90.3885 87.438 89.4885 87.438 88.3784V89.3834C87.438 90.4935 88.338 91.3935 89.448 91.3935C90.5581 91.3935 91.4581 90.4935 91.4581 89.3834V88.3784C91.4581 89.4885 90.5581 90.3885 89.448 90.3885Z" fill="#F7CB15"/>
<path d="M98.4141 39.8918L90.3897 29.079C89.9205 28.4479 88.9754 28.4479 88.5062 29.079L80.4817 39.8918C79.9076 40.6652 80.4591 41.7635 81.4229 41.7635H87.4384V89.3834C87.4384 90.4935 88.3384 91.3935 89.4484 91.3935C90.5585 91.3935 91.4585 90.4935 91.4585 89.3834V41.7635H97.4729C98.4357 41.7635 98.9883 40.6652 98.4141 39.8918Z" fill="#FEDE3A"/>
<path d="M97.5562 38.7366C97.5267 38.7386 97.5022 38.7484 97.4727 38.7484H81.4228C81.3933 38.7484 81.3678 38.7386 81.3384 38.7366L80.4806 39.8918C79.9064 40.6652 80.459 41.7635 81.4228 41.7635H97.4727C98.4365 41.7635 98.9881 40.6652 98.414 39.8918L97.5562 38.7366Z" fill="#F7CB15"/>
<path d="M74.9501 46.5246H45.0506C43.9405 46.5246 43.0405 45.6246 43.0405 44.5145V30.6159C43.0405 29.5059 43.9405 28.6059 45.0506 28.6059H74.9501C76.0601 28.6059 76.9601 29.5059 76.9601 30.6159V44.5145C76.9601 45.6246 76.0601 46.5246 74.9501 46.5246Z" fill="white"/>
<path d="M74.9501 44.5146H45.0506C43.9405 44.5146 43.0405 43.6146 43.0405 42.5045V44.5146C43.0405 45.6246 43.9405 46.5246 45.0506 46.5246H74.9501C76.0601 46.5246 76.9601 45.6246 76.9601 44.5146V42.5045C76.9601 43.6146 76.0601 44.5146 74.9501 44.5146Z" fill="#D1D3D4"/>
<path d="M74.9501 68.959H45.0506C43.9405 68.959 43.0405 68.059 43.0405 66.949V53.0504C43.0405 51.9404 43.9405 51.0403 45.0506 51.0403H74.9501C76.0601 51.0403 76.9601 51.9404 76.9601 53.0504V66.949C76.9601 68.059 76.0601 68.959 74.9501 68.959Z" fill="white"/>
<path d="M74.9501 66.949H45.0506C43.9405 66.949 43.0405 66.049 43.0405 64.939V66.949C43.0405 68.0591 43.9405 68.9591 45.0506 68.9591H74.9501C76.0601 68.9591 76.9601 68.0591 76.9601 66.949V64.939C76.9601 66.049 76.0601 66.949 74.9501 66.949Z" fill="#D1D3D4"/>
<path d="M74.9501 91.3935H45.0506C43.9405 91.3935 43.0405 90.4935 43.0405 89.3834V75.4858C43.0405 74.3758 43.9405 73.4758 45.0506 73.4758H74.9501C76.0601 73.4758 76.9601 74.3758 76.9601 75.4858V89.3834C76.9601 90.4945 76.0601 91.3935 74.9501 91.3935Z" fill="white"/>
<path d="M74.9501 89.3835H45.0506C43.9405 89.3835 43.0405 88.4835 43.0405 87.3734V89.3835C43.0405 90.4935 43.9405 91.3935 45.0506 91.3935H74.9501C76.0601 91.3935 76.9601 90.4935 76.9601 89.3835V87.3734C76.9601 88.4844 76.0601 89.3835 74.9501 89.3835Z" fill="#D1D3D4"/>
<path d="M65.5612 36.0582H54.4392C53.6069 36.0582 52.9316 35.383 52.9316 34.5507C52.9316 33.7174 53.6069 33.0432 54.4392 33.0432H65.5612C66.3935 33.0432 67.0687 33.7174 67.0687 34.5507C67.0687 35.383 66.3935 36.0582 65.5612 36.0582Z" fill="#BCBEC0"/>
<path d="M68.7696 41.0834H51.2297C50.3974 41.0834 49.7222 40.4081 49.7222 39.5758C49.7222 38.7426 50.3974 38.0683 51.2297 38.0683H68.7696C69.6028 38.0683 70.2771 38.7426 70.2771 39.5758C70.2771 40.4081 69.6028 41.0834 68.7696 41.0834Z" fill="#E6E7E8"/>
<path d="M65.5612 58.4927H54.4392C53.6069 58.4927 52.9316 57.8174 52.9316 56.9851C52.9316 56.1519 53.6069 55.4776 54.4392 55.4776H65.5612C66.3935 55.4776 67.0687 56.1519 67.0687 56.9851C67.0687 57.8174 66.3935 58.4927 65.5612 58.4927Z" fill="#BCBEC0"/>
<path d="M68.7696 63.5178H51.2297C50.3974 63.5178 49.7222 62.8425 49.7222 62.0102C49.7222 61.177 50.3974 60.5027 51.2297 60.5027H68.7696C69.6028 60.5027 70.2771 61.177 70.2771 62.0102C70.2771 62.8425 69.6028 63.5178 68.7696 63.5178Z" fill="#E6E7E8"/>
<path d="M65.5612 80.9271H54.4392C53.6069 80.9271 52.9316 80.2518 52.9316 79.4195C52.9316 78.5872 53.6069 77.912 54.4392 77.912H65.5612C66.3935 77.912 67.0687 78.5872 67.0687 79.4195C67.0687 80.2518 66.3935 80.9271 65.5612 80.9271Z" fill="#BCBEC0"/>
<path d="M68.7696 85.9522H51.2297C50.3974 85.9522 49.7222 85.277 49.7222 84.4447C49.7222 83.6124 50.3974 82.9371 51.2297 82.9371H68.7696C69.6028 82.9371 70.2771 83.6124 70.2771 84.4447C70.2771 85.277 69.6028 85.9522 68.7696 85.9522Z" fill="#E6E7E8"/>
</g>
<defs>
<clipPath id="clip0_26_9238">
<rect width="120" height="120" fill="white"/>
</clipPath>
</defs>
</svg>
