<svg width="120" height="120" viewBox="0 0 120 120" fill="none" xmlns="http://www.w3.org/2000/svg">
<g clip-path="url(#clip0_120_2526)">
<path d="M120 60.0002C120 93.1376 93.1376 120 60.0002 120C26.8628 120 0 93.1376 0 60.0002C0 26.8628 26.8628 0 60.0002 0C93.1376 0 120 26.8628 120 60.0002Z" fill="#382B73"/>
<path d="M111.909 60.0002C111.909 88.6689 88.6689 111.909 60.0001 111.909C31.3314 111.909 8.09119 88.6689 8.09119 60.0002C8.09119 31.3315 31.3314 8.09125 60.0001 8.09125C88.6689 8.09125 111.909 31.3315 111.909 60.0002Z" fill="#473080"/>
<path d="M82.6231 28.2948H37.3773C37.2232 28.2948 37.074 28.3105 36.9288 28.3399C35.9169 28.547 35.1562 29.4431 35.1562 30.5159V96.5187C35.1562 97.5915 35.9169 98.4876 36.9288 98.6946C37.074 98.7251 37.2232 98.7398 37.3773 98.7398H82.6231C83.8499 98.7398 84.8442 97.7456 84.8442 96.5187V30.5159C84.8442 29.289 83.8499 28.2948 82.6231 28.2948Z" fill="#382B73"/>
<path d="M82.6231 95.2222H37.3773C36.1505 95.2222 35.1562 94.228 35.1562 93.0012V26.9983C35.1562 25.7715 36.1505 24.7772 37.3773 24.7772H82.6241C83.8499 24.7772 84.8451 25.7715 84.8451 26.9983V93.0012C84.8451 94.228 83.8499 95.2222 82.6231 95.2222Z" fill="white"/>
<path d="M53.338 33.0991H42.8824C42.0678 33.0991 41.4072 32.4395 41.4072 31.6249V31.5591C41.4072 30.7445 42.0678 30.084 42.8824 30.084H53.338C54.1526 30.084 54.8121 30.7445 54.8121 31.5591V31.6249C54.8131 32.4395 54.1526 33.0991 53.338 33.0991Z" fill="#BCBEC0"/>
<path d="M56.7859 51.4623H42.8824C42.0678 51.4623 41.4072 50.8018 41.4072 49.9872V49.9224C41.4072 49.1078 42.0678 48.4473 42.8824 48.4473H56.7859C57.5995 48.4473 58.26 49.1078 58.26 49.9224V49.9872C58.26 50.8018 57.5995 51.4623 56.7859 51.4623Z" fill="#BCBEC0"/>
<path d="M57.5043 89.5365H42.9148C42.0815 89.5365 41.4072 88.8612 41.4072 88.029C41.4072 87.1957 42.0815 86.5214 42.9148 86.5214H57.5043C58.3376 86.5214 59.0119 87.1957 59.0119 88.029C59.0119 88.8612 58.3376 89.5365 57.5043 89.5365Z" fill="#BCBEC0"/>
<path d="M78.8542 57.4925H42.8824C42.0678 57.4925 41.4072 56.832 41.4072 56.0173V55.9526C41.4072 55.1379 42.0678 54.4774 42.8824 54.4774H78.8542C79.6679 54.4774 80.3284 55.1379 80.3284 55.9526V56.0173C80.3294 56.832 79.6679 57.4925 78.8542 57.4925Z" fill="#BCBEC0"/>
<path d="M78.8542 63.5226H42.8824C42.0678 63.5226 41.4072 62.8621 41.4072 62.0475V61.9827C41.4072 61.1681 42.0678 60.5076 42.8824 60.5076H78.8542C79.6679 60.5076 80.3284 61.1681 80.3284 61.9827V62.0475C80.3294 62.8621 79.6679 63.5226 78.8542 63.5226Z" fill="#BCBEC0"/>
<path d="M78.8542 69.5528H42.8824C42.0678 69.5528 41.4072 68.8923 41.4072 68.0776V68.0129C41.4072 67.1982 42.0678 66.5377 42.8824 66.5377H78.8542C79.6679 66.5377 80.3284 67.1982 80.3284 68.0129V68.0776C80.3294 68.8923 79.6679 69.5528 78.8542 69.5528Z" fill="#BCBEC0"/>
<path d="M46.3823 39.1292H42.8824C42.0678 39.1292 41.4072 38.4697 41.4072 37.655V37.5893C41.4072 36.7747 42.0678 36.1141 42.8824 36.1141H46.3823C47.1969 36.1141 47.8574 36.7747 47.8574 37.5893V37.655C47.8574 38.4697 47.1969 39.1292 46.3823 39.1292Z" fill="#BCBEC0"/>
<path d="M58.4092 39.1292H51.2573C50.4426 39.1292 49.7821 38.4697 49.7821 37.655V37.5893C49.7821 36.7747 50.4426 36.1141 51.2573 36.1141H58.4092C59.2238 36.1141 59.8844 36.7747 59.8844 37.5893V37.655C59.8844 38.4697 59.2238 39.1292 58.4092 39.1292Z" fill="#BCBEC0"/>
<path d="M37.8896 24.7772H37.3773C36.1505 24.7772 35.1562 25.7715 35.1562 26.9983V93.0012C35.1562 94.228 36.1505 95.2222 37.3773 95.2222H37.8896V24.7772Z" fill="#EF5A9D"/>
<path d="M61.6275 51.4624C60.8305 51.4624 60.1847 50.8156 60.1847 50.0187V49.8901C60.1847 49.0931 60.8305 48.4473 61.6275 48.4473C62.4244 48.4473 63.0712 49.0931 63.0712 49.8901V50.0187C63.0712 50.8156 62.4254 51.4624 61.6275 51.4624Z" fill="#BCBEC0"/>
<path d="M80.3284 80.7484C80.3284 85.5655 76.4241 89.4708 71.6061 89.4708C66.7891 89.4708 62.8848 85.5655 62.8848 80.7484C62.8848 75.9314 66.7891 72.0261 71.6061 72.0261C76.4241 72.0261 80.3284 75.9314 80.3284 80.7484Z" fill="#EF5A9D"/>
<path d="M75.5388 83.6438L73.8222 81.9262L75.5388 80.2097C76.1503 79.5982 76.1503 78.6059 75.5388 77.9945C74.9274 77.383 73.9361 77.383 73.3236 77.9945L71.607 79.7121L69.8895 77.9945C69.278 77.383 68.2867 77.383 67.6743 77.9945C67.0628 78.6059 67.0628 79.5982 67.6743 80.2097L69.3919 81.9272L67.6743 83.6438C67.0628 84.2563 67.0628 85.2475 67.6743 85.859C68.2857 86.4705 69.278 86.4705 69.8895 85.859L71.607 84.1424L73.3236 85.859C73.9361 86.4705 74.9274 86.4705 75.5398 85.859C76.1512 85.2475 76.1512 84.2563 75.5388 83.6438Z" fill="#E43D91"/>
<path d="M75.5388 82.3983L73.8222 80.6808L75.5388 78.9642C76.1503 78.3527 76.1503 77.3605 75.5388 76.748C74.9274 76.1366 73.9361 76.1366 73.3236 76.748L71.607 78.4656L69.8895 76.748C69.278 76.1366 68.2867 76.1366 67.6743 76.748C67.0628 77.3595 67.0628 78.3517 67.6743 78.9642L69.3919 80.6808L67.6743 82.3983C67.0628 83.0098 67.0628 84.0011 67.6743 84.6135C68.2857 85.225 69.278 85.225 69.8895 84.6135L71.607 82.8959L73.3236 84.6135C73.9361 85.225 74.9274 85.225 75.5398 84.6135C76.1512 84.0011 76.1512 83.0098 75.5388 82.3983Z" fill="#FEDE3A"/>
<path d="M69.392 80.6808L70.0142 80.0585L67.6744 77.7177C67.5311 77.5744 67.4241 77.4095 67.3476 77.2328C67.0992 77.806 67.2062 78.495 67.6744 78.9642L69.392 80.6808Z" fill="#F7CB15"/>
<path d="M75.5388 83.368C74.9273 83.9795 73.936 83.9795 73.3236 83.368L71.606 81.6505L69.8885 83.368C69.277 83.9795 68.2857 83.9795 67.6743 83.368C67.53 83.2237 67.424 83.0589 67.3474 82.8832C67.0991 83.4554 67.2051 84.1453 67.6743 84.6135C68.2857 85.225 69.277 85.225 69.8885 84.6135L71.606 82.8959L73.3236 84.6135C73.9351 85.225 74.9273 85.225 75.5388 84.6135C76.007 84.1453 76.1139 83.4554 75.8656 82.8832C75.7891 83.0589 75.6831 83.2237 75.5388 83.368Z" fill="#F7CB15"/>
<path d="M75.5388 77.7177L73.199 80.0575L73.8222 80.6808L75.5398 78.9642C76.008 78.495 76.1149 77.806 75.8666 77.2328C75.7891 77.4085 75.6831 77.5744 75.5388 77.7177Z" fill="#F7CB15"/>
</g>
<defs>
<clipPath id="clip0_120_2526">
<rect width="120" height="120" fill="white"/>
</clipPath>
</defs>
</svg>
