<svg width="120" height="120" viewBox="0 0 120 120" fill="none" xmlns="http://www.w3.org/2000/svg">
<g clip-path="url(#clip0_120_2430)">
<path d="M120 60.0002C120 93.1376 93.1376 120 60.0002 120C26.8628 120 0 93.1376 0 60.0002C0 26.8628 26.8628 0 60.0002 0C93.1376 0 120 26.8628 120 60.0002Z" fill="#382B73"/>
<path d="M111.909 60.0002C111.909 88.6689 88.6689 111.909 60.0001 111.909C31.3314 111.909 8.09119 88.6689 8.09119 60.0002C8.09119 31.3315 31.3314 8.09125 60.0001 8.09125C88.6689 8.09125 111.909 31.3315 111.909 60.0002Z" fill="#473080"/>
<path d="M39.9134 69.8129H43.7441C44.7383 69.8129 45.5451 69.0061 45.5451 68.0119V64.2372C45.5451 64.2362 45.5451 64.2352 45.5451 64.2342C45.5451 63.982 45.5294 63.7337 45.5068 63.4883C45.5019 63.4343 45.497 63.3813 45.4921 63.3274C45.4656 63.0889 45.4302 62.8523 45.3841 62.6197C45.3763 62.5785 45.3655 62.5392 45.3566 62.499C45.3115 62.287 45.2575 62.0789 45.1957 61.8738C45.1849 61.8355 45.1741 61.7963 45.1623 61.758C45.0926 61.5352 45.0111 61.3173 44.9228 61.1033C44.9032 61.0543 44.8816 61.0062 44.861 60.9581C44.7668 60.7422 44.6667 60.5282 44.5538 60.3231C44.5508 60.3172 44.5479 60.3123 44.5449 60.3064C44.434 60.1042 44.3133 59.9089 44.1867 59.7175C44.1582 59.6743 44.1298 59.6302 44.1003 59.587C43.9718 59.3995 43.8353 59.217 43.6921 59.0413C43.6646 59.0079 43.6371 58.9765 43.6086 58.9441C43.4761 58.7861 43.3377 58.634 43.1935 58.4867C43.165 58.4583 43.1385 58.4279 43.1091 58.3994C42.9491 58.2404 42.7803 58.0883 42.6065 57.943C42.5653 57.9077 42.5231 57.8743 42.4809 57.84C42.3023 57.6957 42.1188 57.5553 41.9274 57.4258C41.312 57.0087 40.6328 56.6779 39.9134 56.4394V56.4355C39.8977 56.4296 39.88 56.4257 39.8633 56.4208C39.7416 56.3815 39.616 56.3491 39.4904 56.3148C39.4099 56.2932 39.3324 56.2657 39.2509 56.2461C39.2008 56.2333 39.1498 56.2245 39.0988 56.2137C39.0271 56.198 38.9565 56.1823 38.8848 56.1685C38.6679 56.1263 38.449 56.092 38.2262 56.0674C38.1742 56.0625 38.1212 56.0586 38.0692 56.0537C37.9367 56.0419 37.8052 56.0331 37.6717 56.0262L37.6776 56.0164H35.1915V52.9758C35.4752 52.8806 35.748 52.7658 36.012 52.6323C36.1809 52.5479 36.3448 52.4556 36.5038 52.3555C37.2556 51.8883 37.9053 51.272 38.4 50.5388C38.7023 50.0913 38.9427 49.5986 39.1223 49.0784C39.2362 49.098 39.351 49.1137 39.4707 49.1137C40.5857 49.1137 41.4896 48.2098 41.4896 47.0938C41.4896 45.9779 40.5867 45.075 39.4717 45.075H40.7437C41.203 45.075 41.575 44.703 41.575 44.2437V43.1356C41.575 42.7077 41.2521 42.3602 40.8379 42.3131C40.6632 38.9123 38.2743 36.1034 35.0806 35.2966L35.0963 35.0983C35.1209 34.7754 34.8667 34.5006 34.5428 34.5006H31.8604C31.5375 34.5006 31.2833 34.7754 31.3079 35.0983L31.3236 35.2966C28.1299 36.1034 25.741 38.9123 25.5663 42.3131C25.1521 42.3602 24.8282 42.7077 24.8282 43.1356V44.2437C24.8282 44.703 25.2012 45.075 25.6605 45.075H26.9325C25.8175 45.075 24.9126 45.9789 24.9126 47.0948C24.9126 48.2108 25.8175 49.1147 26.9325 49.1147C27.0512 49.1147 27.167 49.099 27.2799 49.0794C27.326 49.2128 27.3712 49.3463 27.4252 49.4749C28.122 51.1218 29.5039 52.4046 31.2127 52.9768V56.0174H28.7256L28.7325 56.0272C28.599 56.0331 28.4665 56.0429 28.336 56.0547C28.283 56.0596 28.23 56.0635 28.178 56.0684C27.9552 56.0939 27.7363 56.1273 27.5194 56.1695C27.4468 56.1832 27.3761 56.1989 27.3044 56.2146C27.2534 56.2254 27.2024 56.2343 27.1523 56.247C27.0709 56.2667 26.9933 56.2932 26.9128 56.3157C26.7882 56.3501 26.6616 56.3825 26.5389 56.4217C26.5232 56.4266 26.5055 56.4306 26.4898 56.4365V56.4404C25.7694 56.6799 25.0922 57.0096 24.4759 57.4268C24.2845 57.5563 24.1009 57.6967 23.9213 57.8419C23.8801 57.8753 23.8379 57.9087 23.7977 57.943C23.6239 58.0893 23.4551 58.2404 23.2932 58.4014C23.2657 58.4288 23.2382 58.4583 23.2107 58.4867C23.0655 58.634 22.9261 58.7881 22.7926 58.9461C22.7661 58.9775 22.7377 59.0089 22.7122 59.0403C22.5679 59.217 22.4324 59.3995 22.3029 59.588C22.2734 59.6302 22.246 59.6743 22.2175 59.7165C22.0899 59.9089 21.9682 60.1052 21.8573 60.3084C21.8543 60.3133 21.8514 60.3172 21.8494 60.3231C21.7376 60.5292 21.6365 60.7431 21.5422 60.9601C21.5216 61.0072 21.5 61.0543 21.4804 61.1033C21.3921 61.3173 21.3106 61.5362 21.2409 61.76C21.2292 61.7972 21.2193 61.8345 21.2076 61.8718C21.1457 62.0779 21.0917 62.288 21.0466 62.501C21.0378 62.5402 21.0279 62.5795 21.0191 62.6187C20.973 62.8523 20.9377 63.0898 20.9112 63.3293C20.9053 63.3813 20.9013 63.4343 20.8955 63.4873C20.8729 63.7347 20.8582 63.9849 20.8582 64.2391V68.0129C20.8582 69.0071 21.6639 69.8139 22.6582 69.8139H39.9134V69.8129Z" fill="#382B73"/>
<path d="M99.1402 66.4857V64.2578C99.1402 64.2568 99.1402 64.2558 99.1402 64.2539C99.1402 64.0026 99.1245 63.7553 99.1029 63.5099C99.097 63.4569 99.0931 63.4039 99.0872 63.3509C99.0617 63.1124 99.0263 62.8769 98.9802 62.6453C98.9714 62.605 98.9616 62.5658 98.9537 62.5255C98.9076 62.3145 98.8546 62.1064 98.7927 61.9023C98.781 61.864 98.7721 61.8247 98.7594 61.7874C98.6897 61.5656 98.6092 61.3478 98.5209 61.1348C98.5013 61.0867 98.4797 61.0386 98.459 60.9905C98.3648 60.7746 98.2657 60.5626 98.1538 60.3574C98.1509 60.3516 98.1479 60.3467 98.145 60.3408C98.0351 60.1396 97.9143 59.9452 97.7887 59.7548C97.7602 59.7107 97.7308 59.6675 97.7014 59.6243C97.5728 59.4378 97.4373 59.2562 97.295 59.0806C97.2685 59.0482 97.2401 59.0168 97.2126 58.9854C97.0801 58.8273 96.9417 58.6752 96.7984 58.528C96.7699 58.4995 96.7434 58.4701 96.715 58.4426C96.555 58.2826 96.3872 58.1315 96.2134 57.9862C96.1722 57.9519 96.131 57.9185 96.0888 57.8851C95.9102 57.7409 95.7276 57.6015 95.5372 57.4719C95.5362 57.4709 95.5353 57.4709 95.5343 57.47C95.5235 57.4621 95.5107 57.4562 95.4999 57.4484C95.3233 57.3306 95.1417 57.2217 94.9572 57.1186C94.8845 57.0784 94.8119 57.0391 94.7383 57.0008C94.6981 56.9792 94.6588 56.9557 94.6176 56.9351V56.9419C94.3575 56.8114 94.0905 56.6956 93.8157 56.5935C93.8177 56.5906 93.8187 56.5886 93.8206 56.5857C93.749 56.5592 93.6734 56.5395 93.6018 56.515C93.4859 56.4757 93.3721 56.4365 93.2543 56.4021C93.1267 56.3638 92.9962 56.3334 92.8666 56.301C92.8676 56.2991 92.8686 56.2971 92.8696 56.2961C92.8195 56.2843 92.7685 56.2755 92.7184 56.2647C92.6497 56.249 92.581 56.2333 92.5123 56.2206C92.4721 56.2127 92.4338 56.2039 92.3936 56.196C92.214 56.1646 92.0324 56.1401 91.8479 56.1195C91.8125 56.1155 91.7782 56.1106 91.7429 56.1077C91.6977 56.1028 91.6526 56.1008 91.6064 56.0979C91.5034 56.089 91.3993 56.0822 91.2953 56.0782L91.3022 56.0674H88.824V53.0386C90.5435 52.4625 91.9293 51.163 92.6164 49.4985C92.7224 49.3944 92.8215 49.2825 92.9206 49.1726C92.9775 49.1775 93.0315 49.1903 93.0884 49.1903C94.1995 49.1903 95.1005 48.2893 95.1005 47.1783C95.1005 46.7454 94.9611 46.347 94.7285 46.0182C94.9591 45.2585 95.0857 44.4537 95.0857 43.6195C95.0857 43.3407 95.071 43.0659 95.0435 42.795C95.0435 42.795 95.0445 42.795 95.0445 42.794C95.0445 42.7931 95.0435 42.7911 95.0435 42.7891C95.0347 42.7038 95.018 42.6213 95.0062 42.5369C94.9827 42.3553 94.9591 42.1728 94.9238 41.9951C94.9012 41.8852 94.8708 41.7792 94.8443 41.6712C94.808 41.5221 94.7746 41.3719 94.7304 41.2276C94.6961 41.1138 94.6539 41.0058 94.6146 40.8949C94.5675 40.7585 94.5214 40.6221 94.4664 40.4886C94.4213 40.3787 94.3693 40.2717 94.3192 40.1637C94.2603 40.0361 94.2024 39.9095 94.1367 39.7858C94.0807 39.6798 94.0199 39.5768 93.959 39.4737C93.8903 39.354 93.8196 39.2352 93.7451 39.1204C93.6793 39.0193 93.6096 38.9221 93.5399 38.825C93.4594 38.7131 93.379 38.6032 93.2936 38.4962C93.219 38.402 93.1414 38.3117 93.0629 38.2214C92.9736 38.1173 92.8823 38.0163 92.7871 37.9171C92.7047 37.8308 92.6203 37.7473 92.5339 37.6649C92.4348 37.5707 92.3327 37.4774 92.2287 37.3871C92.1394 37.3096 92.0491 37.234 91.9558 37.1604C91.8469 37.074 91.735 36.9916 91.6212 36.9101C91.5259 36.8424 91.4298 36.7747 91.3326 36.7109C91.2138 36.6334 91.0921 36.5617 90.9695 36.4901C90.8693 36.4322 90.7702 36.3733 90.6662 36.3193C90.5386 36.2526 90.4071 36.1917 90.2756 36.1308C90.1715 36.0837 90.0685 36.0337 89.9625 35.9905C89.8241 35.9346 89.6827 35.8855 89.5404 35.8364C89.4354 35.8001 89.3314 35.7608 89.2254 35.7284C89.0733 35.6823 88.9172 35.646 88.7611 35.6087C88.6601 35.5852 88.5599 35.5567 88.4559 35.5361C88.2802 35.5007 88.1006 35.4782 87.922 35.4546C87.8337 35.4428 87.7483 35.4252 87.6609 35.4173C87.391 35.3908 87.1182 35.3761 86.8414 35.3761C86.5803 35.3761 86.3212 35.3918 86.066 35.4154C85.9865 35.4222 85.908 35.435 85.8295 35.4438C85.6528 35.4654 85.4781 35.4919 85.3054 35.5243C85.2161 35.541 85.1287 35.5596 85.0424 35.5793C84.8991 35.6107 84.7587 35.646 84.6193 35.6853C84.6193 35.6843 84.6193 35.6823 84.6184 35.6813C84.587 35.6902 84.5575 35.7019 84.5271 35.7108C84.4545 35.7324 84.3808 35.753 84.3092 35.7756C84.2199 35.805 84.1325 35.8354 84.0452 35.8678C83.9843 35.8894 83.9254 35.913 83.8646 35.9365C83.8244 35.9522 83.7841 35.966 83.7439 35.9826C83.7007 36.0003 83.6565 36.0141 83.6133 36.0327C83.5525 36.0592 83.4926 36.0896 83.4327 36.1161C83.3729 36.1436 83.314 36.1731 83.2551 36.2015C83.154 36.2506 83.0519 36.2977 82.9538 36.3507C82.9096 36.3743 82.8674 36.3998 82.8242 36.4233C82.7722 36.4528 82.7212 36.4842 82.6701 36.5146C82.5534 36.5833 82.4375 36.653 82.3237 36.7276C82.2511 36.7757 82.1804 36.8247 82.1097 36.8758C82.044 36.9209 81.9762 36.9631 81.9125 37.0102C81.9134 37.0132 81.9134 37.0161 81.9144 37.0201C81.828 37.0839 81.7397 37.1467 81.6563 37.2144C81.5729 37.2821 81.4943 37.3547 81.4129 37.4254C81.3098 37.5157 81.2078 37.607 81.1086 37.7022C81.0291 37.7787 80.9536 37.8582 80.878 37.9377C80.7838 38.0369 80.6915 38.137 80.6022 38.241C80.5325 38.3225 80.4628 38.4039 80.3961 38.4874C80.3048 38.6022 80.2184 38.72 80.133 38.8387C80.0771 38.9172 80.0192 38.9948 79.9652 39.0762C79.8553 39.2421 79.7532 39.4129 79.6551 39.5866C79.6335 39.6249 79.608 39.6622 79.5874 39.7014C79.4715 39.9144 79.3675 40.1333 79.2713 40.3561C79.2389 40.4326 79.2114 40.5102 79.18 40.5877C79.1192 40.7428 79.0603 40.8988 79.0083 41.0588C78.9788 41.1481 78.9523 41.2394 78.9258 41.3297C78.8817 41.4848 78.8414 41.6408 78.8051 41.7988C78.7845 41.8911 78.7639 41.9834 78.7462 42.0766C78.7138 42.2464 78.6893 42.4191 78.6677 42.5928C78.6569 42.6753 78.6442 42.7568 78.6363 42.8392C78.6118 43.0963 78.597 43.3554 78.597 43.6195C78.597 43.8619 78.6118 44.1014 78.6334 44.3389C78.6402 44.4233 78.6491 44.5077 78.6589 44.5911C78.6648 44.6353 78.6667 44.6804 78.6726 44.7256C78.6746 44.7256 78.6765 44.7246 78.6795 44.7236C78.7384 45.1672 78.8267 45.6011 78.9543 46.0192C78.7217 46.347 78.5823 46.7454 78.5823 47.1793C78.5823 48.2903 79.4833 49.1913 80.5943 49.1913C80.6513 49.1913 80.7052 49.1785 80.7612 49.1736C80.8613 49.2835 80.9604 49.3944 81.0654 49.4985C81.7525 51.163 83.1393 52.4635 84.8578 53.0386V56.0684H82.3806L82.3875 56.0792C82.2834 56.0831 82.1794 56.09 82.0764 56.0979C82.0312 56.1018 81.9851 56.1038 81.9399 56.1077C81.9046 56.1116 81.8702 56.1165 81.8349 56.1195C81.6504 56.1401 81.4678 56.1646 81.2873 56.197C81.249 56.2048 81.2107 56.2137 81.1714 56.2215C81.1027 56.2343 81.034 56.25 80.9653 56.2647C80.9153 56.2755 80.8642 56.2843 80.8142 56.2961L80.8171 56.302C80.6876 56.3334 80.557 56.3648 80.4295 56.4021C80.3117 56.4365 80.1968 56.4757 80.081 56.516C80.0094 56.5405 79.9348 56.5601 79.8631 56.5866L79.8681 56.5935C79.5932 56.6966 79.3253 56.8124 79.0662 56.9429V56.936C79.026 56.9567 78.9867 56.9802 78.9455 57.0008C78.8719 57.0401 78.7983 57.0793 78.7256 57.1196C78.5421 57.2226 78.3615 57.3306 78.1868 57.4474C78.174 57.4562 78.1613 57.4631 78.1495 57.4709C78.1485 57.4719 78.1475 57.4719 78.1475 57.4719C77.9561 57.6015 77.7736 57.7418 77.594 57.8861C77.5528 57.9195 77.5115 57.9519 77.4713 57.9872C77.2976 58.1325 77.1298 58.2836 76.9698 58.4436C76.9413 58.4711 76.9148 58.5005 76.8873 58.529C76.7431 58.6762 76.6037 58.8283 76.4712 58.9863C76.4437 59.0177 76.4162 59.0491 76.3897 59.0815C76.2464 59.2572 76.111 59.4388 75.9814 59.6263C75.953 59.6685 75.9245 59.7116 75.896 59.7548C75.7694 59.9462 75.6477 60.1415 75.5378 60.3437C75.5358 60.3486 75.5329 60.3525 75.53 60.3574C75.4181 60.5636 75.318 60.7765 75.2237 60.9934C75.2031 61.0406 75.1825 61.0877 75.1629 61.1348C75.0746 61.3487 74.9941 61.5666 74.9234 61.7894C74.9116 61.8267 74.9018 61.865 74.891 61.9023C74.8292 62.1074 74.7752 62.3165 74.7301 62.5285C74.7212 62.5677 74.7114 62.607 74.7036 62.6462C74.6574 62.8788 74.6211 63.1154 74.5956 63.3539C74.5897 63.4059 74.5858 63.4579 74.5809 63.5109C74.5583 63.7582 74.5436 64.0066 74.5436 64.2598V68.0208C74.5436 69.0111 75.3464 69.8149 76.3367 69.8149H97.3461C98.3373 69.8149 99.1402 69.0111 99.1402 68.0208V66.4857Z" fill="#382B73"/>
<path d="M79.1839 77.6657C79.1614 77.6137 79.1378 77.5636 79.1143 77.5126C79.0073 77.2859 78.8954 77.0611 78.7757 76.8413C78.7757 76.8413 78.7757 76.8413 78.7757 76.8403C78.6549 76.6185 78.5264 76.4006 78.3939 76.1856C78.3566 76.1248 78.3173 76.0659 78.279 76.006C78.1809 75.8529 78.0808 75.7008 77.9767 75.5526C77.9286 75.4849 77.8815 75.4171 77.8334 75.3514C77.7274 75.2051 77.6185 75.0618 77.5076 74.9205C77.4624 74.8636 77.4193 74.8057 77.3731 74.7497C77.0571 74.3601 76.7195 73.9881 76.3622 73.6358C76.3151 73.5887 76.266 73.5435 76.2179 73.4984C76.0835 73.3698 75.948 73.2442 75.8087 73.1215C75.7488 73.0685 75.6889 73.0165 75.6291 72.9654C75.4897 72.8477 75.3484 72.7318 75.2051 72.6199C75.1491 72.5758 75.0942 72.5316 75.0372 72.4884C73.0714 70.9927 70.6883 70.022 68.0914 69.7796C68.0688 69.7776 68.0462 69.7766 68.0246 69.7747C67.8166 69.756 67.6075 69.7413 67.3965 69.7334L67.4024 69.7187L63.29 67.9462V69.7187V64.6907C66.1412 63.7357 68.4408 61.5814 69.5822 58.8205C69.7579 58.6477 69.9306 58.4711 70.0975 58.2895C70.1868 58.2964 70.2771 58.3032 70.3684 58.3032C72.2126 58.3032 73.7083 56.8075 73.7083 54.9633C73.7083 54.2449 73.4796 53.5814 73.0929 53.0367C73.4757 51.7765 73.6838 50.4417 73.6838 49.0568C73.6838 48.4503 73.6396 47.8545 73.5631 47.2696C73.5523 47.1881 73.5444 47.1057 73.5317 47.0252C73.513 46.8966 73.4885 46.769 73.4659 46.6424C73.4502 46.5521 73.4355 46.4608 73.4178 46.3715C73.3933 46.2479 73.3648 46.1271 73.3373 46.0054C73.3157 45.9132 73.2961 45.8209 73.2735 45.7296C73.2441 45.6099 73.2107 45.4921 73.1773 45.3753C73.1518 45.2821 73.1263 45.1898 73.0988 45.0986C73.0645 44.9827 73.0262 44.8689 72.9889 44.755C72.9585 44.6628 72.9281 44.5715 72.8957 44.4802C72.8564 44.3693 72.8142 44.2574 72.772 44.1475C72.7367 44.0562 72.7013 43.965 72.664 43.8747C72.6199 43.7667 72.5737 43.6597 72.5266 43.5537C72.4874 43.4624 72.4471 43.3731 72.4049 43.2838C72.3559 43.1788 72.3058 43.0748 72.2548 42.9717C72.2106 42.8834 72.1655 42.795 72.1193 42.7077C72.0653 42.6056 72.0114 42.5055 71.9554 42.4044C71.9073 42.318 71.8573 42.2327 71.8082 42.1473C71.7503 42.0491 71.6924 41.951 71.6325 41.8538C71.5795 41.7684 71.5255 41.685 71.4706 41.6006C71.4087 41.5074 71.3479 41.4131 71.2841 41.3209C71.2272 41.2375 71.1673 41.155 71.1084 41.0726C71.0436 40.9823 70.9789 40.892 70.9121 40.8036C70.8503 40.7222 70.7865 40.6437 70.7237 40.5642C70.655 40.4778 70.5872 40.3904 70.5166 40.3051C70.4489 40.2246 70.3792 40.147 70.3105 40.0675C70.2408 39.9871 70.1721 39.9056 70.0995 39.8271C70.0229 39.7437 69.9434 39.6622 69.8639 39.5797C69.7962 39.5081 69.7304 39.4365 69.6607 39.3678C69.5135 39.2205 69.3634 39.0772 69.2102 38.9379C69.1474 38.8809 69.0827 38.827 69.0189 38.771C68.9227 38.6866 68.8275 38.6012 68.7283 38.5198C68.6547 38.4589 68.5801 38.402 68.5056 38.3421C68.4133 38.2685 68.322 38.1949 68.2278 38.1232C68.1493 38.0644 68.0698 38.0094 67.9903 37.9525C67.8961 37.8848 67.8038 37.817 67.7076 37.7513C67.6262 37.6963 67.5427 37.6423 67.4603 37.5893C67.3641 37.5265 67.2679 37.4627 67.1698 37.4019C67.0863 37.3498 67 37.3008 66.9146 37.2507C66.8155 37.1928 66.7163 37.1339 66.6152 37.078C66.5289 37.0309 66.4405 36.9847 66.3532 36.9386C66.2511 36.8846 66.1481 36.8316 66.044 36.7796C65.9557 36.7354 65.8654 36.6932 65.7761 36.652C65.6701 36.603 65.5641 36.5539 65.4571 36.5077C65.3658 36.4685 65.2755 36.4292 65.1843 36.3929C65.0743 36.3478 64.9644 36.3046 64.8535 36.2624C64.7622 36.228 64.67 36.1937 64.5777 36.1613C64.4648 36.121 64.351 36.0828 64.2371 36.0455C64.1449 36.016 64.0516 35.9856 63.9584 35.9571C63.8416 35.9218 63.7238 35.8894 63.6061 35.857C63.5128 35.8315 63.4196 35.806 63.3254 35.7824C63.2046 35.752 63.0819 35.7255 62.9593 35.698C62.867 35.6774 62.7757 35.6558 62.6815 35.6382C62.5549 35.6126 62.4263 35.5911 62.2978 35.5695C62.2075 35.5538 62.1172 35.5371 62.0269 35.5243C61.8895 35.5037 61.7521 35.488 61.6147 35.4723C61.5302 35.4615 61.4458 35.4507 61.3614 35.4419C61.2054 35.4262 61.0464 35.4154 60.8884 35.4056C60.8206 35.4007 60.7539 35.3948 60.6872 35.3908C60.4604 35.38 60.2318 35.3732 60.0011 35.3732C59.9992 35.3732 59.9972 35.3732 59.9952 35.3732C59.6547 35.3732 59.318 35.3908 58.9833 35.4154C58.9136 35.4203 58.844 35.4242 58.7743 35.4311C58.4494 35.4605 58.1275 35.4988 57.8105 35.5498C57.7516 35.5596 57.6937 35.5714 57.6358 35.5812C57.3374 35.6333 57.042 35.6941 56.7505 35.7658C56.7122 35.7746 56.673 35.7824 56.6347 35.7923C56.5257 35.8197 56.4188 35.8511 56.3108 35.8816C56.3098 35.8816 56.3088 35.8816 56.3088 35.8816C56.1076 35.9385 55.9094 35.9984 55.7121 36.0631C55.6473 36.0847 55.5835 36.1063 55.5197 36.1289C55.2174 36.2329 54.9191 36.3458 54.6276 36.4705C54.5952 36.4842 54.5648 36.4999 54.5333 36.5127C54.2585 36.6324 53.9896 36.7619 53.7256 36.8994C53.6765 36.9239 53.6275 36.9484 53.5794 36.9739C53.4694 37.0328 53.3605 37.0937 53.2525 37.1555C53.2496 37.1575 53.2476 37.1585 53.2437 37.1604C53.0837 37.2517 52.9247 37.3459 52.7677 37.4431C52.7147 37.4755 52.6636 37.5098 52.6106 37.5442C52.2063 37.8043 51.8157 38.084 51.4417 38.3843C51.4407 38.3863 51.4388 38.3873 51.4368 38.3882C51.16 38.611 50.8921 38.8446 50.634 39.0871C50.6202 39.1008 50.6065 39.1136 50.5927 39.1263C50.0843 39.6082 49.6132 40.1284 49.1834 40.6819C49.1677 40.7026 49.151 40.7232 49.1353 40.7438C48.9301 41.0117 48.7348 41.2875 48.5493 41.5712C48.5277 41.6045 48.5061 41.6379 48.4845 41.6722C48.1185 42.2425 47.7936 42.8412 47.5129 43.4654C47.4933 43.5086 47.4736 43.5527 47.454 43.5959C47.3235 43.8963 47.2027 44.2015 47.0938 44.5126C47.0752 44.5656 47.0575 44.6196 47.0388 44.6726C46.9309 44.9926 46.8298 45.3174 46.7454 45.6482C46.7454 45.6492 46.7444 45.6501 46.7444 45.6511C46.661 45.977 46.5933 46.3107 46.5334 46.6463C46.5226 46.7062 46.5108 46.7661 46.501 46.8269C46.448 47.1528 46.4058 47.4825 46.3754 47.8153C46.3695 47.88 46.3656 47.9448 46.3616 48.0086C46.3351 48.3561 46.3175 48.7045 46.3175 49.0578C46.3175 49.3542 46.3292 49.6467 46.3479 49.9382C46.3508 49.9765 46.3538 50.0147 46.3577 50.053C46.4313 51.0836 46.6178 52.0827 46.9073 53.0377C46.5206 53.5824 46.2919 54.2459 46.2919 54.9653C46.2919 56.8095 47.7877 58.3042 49.6319 58.3042C49.7232 58.3042 49.8135 58.2983 49.9028 58.2905C50.0696 58.473 50.2414 58.6497 50.4171 58.8224C51.2003 60.7167 52.5253 62.3292 54.2026 63.4638C54.9711 63.982 55.8151 64.3923 56.7102 64.6926V68.3093V67.9482L52.5979 69.7207L52.6028 69.7354C52.3918 69.7442 52.1827 69.759 51.9737 69.7766C51.9521 69.7786 51.9315 69.7796 51.9099 69.7815C49.3129 70.024 46.9279 70.9946 44.9621 72.4904C44.9051 72.5336 44.8511 72.5777 44.7942 72.6219C44.6509 72.7338 44.5096 72.8496 44.3712 72.9674C44.3104 73.0194 44.2505 73.0704 44.1906 73.1234C44.0522 73.2461 43.9168 73.3718 43.7833 73.4993C43.7342 73.5455 43.6852 73.5916 43.6371 73.6387C43.2798 73.9901 42.9422 74.3621 42.6262 74.7517C42.58 74.8076 42.5359 74.8656 42.4917 74.9235C42.3808 75.0648 42.2718 75.2071 42.1658 75.3524C42.1178 75.4201 42.0697 75.4868 42.0226 75.5545C41.9195 75.7037 41.8194 75.8539 41.7212 76.007C41.683 76.0669 41.6427 76.1267 41.6054 76.1886C41.4729 76.4035 41.3453 76.6204 41.2246 76.8432C41.2236 76.8442 41.2236 76.8452 41.2227 76.8462C41.1049 77.065 40.993 77.2888 40.886 77.5145C40.8536 77.5832 40.8232 77.6529 40.7918 77.7226C40.7182 77.8855 40.6475 78.0494 40.5798 78.2163C40.5474 78.2958 40.516 78.3763 40.4846 78.4577C40.4208 78.6246 40.3599 78.7944 40.303 78.9652C40.2785 79.0378 40.252 79.1114 40.2284 79.185C40.1509 79.4284 40.0783 79.6738 40.0145 79.9221C40.0135 79.925 40.0135 79.929 40.0125 79.9319C39.9497 80.1763 39.8957 80.4246 39.8466 80.6749C39.8309 80.7534 39.8172 80.8339 39.8034 80.9134C39.772 81.091 39.7426 81.2706 39.7181 81.4512C39.7053 81.5415 39.6935 81.6318 39.6837 81.7231C39.6621 81.9047 39.6454 82.0872 39.6307 82.2707C39.6248 82.3542 39.617 82.4356 39.6121 82.5191C39.5973 82.7831 39.5875 83.049 39.5875 83.317V89.5591C39.5875 91.2041 40.9204 92.5369 42.5653 92.5369H67.6664C68.2013 94.2496 69.1406 95.8631 70.497 97.2195C74.9754 101.699 82.2383 101.699 86.7177 97.2195C91.1962 92.7411 91.1962 85.4782 86.7177 80.9988C84.6242 78.9043 81.9242 77.8021 79.1839 77.6657Z" fill="#382B73"/>
<path d="M77.435 89.0173H42.5643C40.9204 89.0173 39.5865 87.6835 39.5865 86.0396V79.7974C39.5865 72.2882 45.6746 66.2011 53.1828 66.2011H66.8164C74.3257 66.2011 80.4127 72.2882 80.4127 79.7974V86.0396C80.4127 87.6835 79.0799 89.0173 77.435 89.0173Z" fill="#1CAEE4"/>
<path d="M74.4308 68.5321V89.0173H77.4351C79.079 89.0173 80.4128 87.6835 80.4128 86.0396V79.7974C80.4128 75.1099 78.0406 70.976 74.4308 68.5321Z" fill="#009ADD"/>
<path d="M67.4034 66.2001L63.29 64.4286V66.2001L60.0001 71.3283L56.7103 66.2001V64.4286L52.5979 66.2001L60.0001 86.2879L67.4034 66.2001Z" fill="#D1D3D4"/>
<path d="M52.5979 66.2001L55.7062 74.627C55.8309 74.9666 56.2666 75.0618 56.5228 74.8057L60.0002 71.3283L56.7103 66.2011V64.4286L52.5979 66.2001Z" fill="white"/>
<path d="M67.4035 66.2001L64.2942 74.627C64.1695 74.9666 63.7337 75.0618 63.4776 74.8057L60.0002 71.3283L63.2901 66.2011V64.4286L67.4035 66.2001Z" fill="white"/>
<path d="M62.7542 74.0823L60.702 76.1346C60.3143 76.5213 59.6861 76.5213 59.2985 76.1346L57.2462 74.0823L60.0002 71.3273L62.7542 74.0823Z" fill="#EF5A9D"/>
<path d="M60.7019 76.1346C60.3143 76.5213 59.6861 76.5213 59.2984 76.1346L58.5947 75.4308L57.9843 80.8191L59.9992 86.2888L62.0142 80.8191L61.4047 75.4308L60.7019 76.1346Z" fill="#E43D91"/>
<path d="M50.2905 75.0235L52.0414 73.4797C52.3653 73.1941 52.1955 72.6601 51.7666 72.614L49.7104 72.3942C49.3905 72.3598 49.1873 72.0349 49.2963 71.7317L51.2494 66.3414C51.6969 66.2767 52.1484 66.2325 52.6048 66.2168L60.0002 86.2888L50.2542 75.7321C50.0647 75.528 50.0814 75.208 50.2905 75.0235Z" fill="#27C1E6"/>
<path d="M69.7099 75.0235L67.959 73.4797C67.6351 73.1941 67.8049 72.6601 68.2338 72.614L70.29 72.3942C70.6099 72.3598 70.8141 72.0349 70.7041 71.7317L68.751 66.3414C68.3044 66.2767 67.852 66.2325 67.3956 66.2168L60.0002 86.2888L69.7462 75.7321C69.9356 75.528 69.919 75.208 69.7099 75.0235Z" fill="#27C1E6"/>
<path d="M72.0831 84.8912H65.3826C64.9969 84.8912 64.6848 85.2043 64.6848 85.5891C64.6848 85.9748 64.9969 86.2879 65.3826 86.2879H72.0831C72.4688 86.2879 72.781 85.9748 72.781 85.5891C72.781 85.2043 72.4688 84.8912 72.0831 84.8912Z" fill="#27C1E6"/>
<path d="M45.5686 89.0173V68.5321C41.9588 70.976 39.5865 75.1099 39.5865 79.7974V86.0396C39.5865 87.6835 40.9204 89.0173 42.5643 89.0173H45.5686Z" fill="#009ADD"/>
<path d="M64.5248 32.6221C57.3924 30.1233 49.5848 33.8803 47.087 41.0127C44.5882 48.145 48.3452 55.9516 55.4776 58.4505C62.6099 60.9493 70.4175 57.1922 72.9154 50.0599C75.4142 42.9275 71.6571 35.1199 64.5248 32.6221Z" fill="#009ADD"/>
<path d="M60.0002 61.7139C54.2733 61.7139 49.632 57.0715 49.632 51.3456V45.9623C49.632 40.2354 54.2743 35.593 60.0002 35.593C65.7261 35.593 70.3684 40.2354 70.3684 45.9623V51.3456C70.3684 57.0725 65.7261 61.7139 60.0002 61.7139Z" fill="white"/>
<path d="M60.0002 61.7138C58.8499 61.7138 57.7438 61.5264 56.7103 61.1809V66.2001L60.0002 71.3283L63.2901 66.2001V61.1809C62.2566 61.5274 61.1505 61.7138 60.0002 61.7138Z" fill="#E6E7E8"/>
<path d="M60.0002 61.7138C58.8499 61.7138 57.7438 61.5264 56.7103 61.1809V63.1576C57.7448 63.5031 58.8489 63.6994 60.0002 63.6994C61.1515 63.6994 62.2556 63.5031 63.2901 63.1576V61.1809C62.2566 61.5274 61.1505 61.7138 60.0002 61.7138Z" fill="#D1D3D4"/>
<path d="M49.6319 51.3456V48.1058C47.7868 48.1058 46.292 49.6006 46.292 51.4457C46.292 53.2899 47.7878 54.7847 49.6319 54.7847C49.8282 54.7847 50.0216 54.7641 50.2081 54.7317C49.841 53.6697 49.6319 52.5332 49.6319 51.3456Z" fill="white"/>
<path d="M70.3685 48.1058V51.3456C70.3685 52.5332 70.1585 53.6697 69.7914 54.7327C69.9798 54.765 70.1712 54.7857 70.3685 54.7857C72.2127 54.7857 73.7084 53.2899 73.7084 51.4457C73.7084 49.6006 72.2127 48.1058 70.3685 48.1058Z" fill="white"/>
<path d="M60.0002 60.2249C54.2733 60.2249 49.632 55.5826 49.632 49.8567V51.3456C49.632 57.0725 54.2743 61.7138 60.0002 61.7138C65.7261 61.7138 70.3684 57.0715 70.3684 51.3456V49.8567C70.3684 55.5836 65.7261 60.2249 60.0002 60.2249Z" fill="#E6E7E8"/>
<path d="M49.632 45.9622V48.0046C53.6844 45.6422 56.4149 41.2619 56.4335 36.2368C52.4664 37.6923 49.632 41.4906 49.632 45.9622Z" fill="#E6E7E8"/>
<path d="M65.4336 48.3737C67.1757 48.3737 68.8364 48.038 70.3684 47.4443V45.9622C70.3684 40.2354 65.7261 35.594 60.0002 35.594C57.0028 35.594 54.3096 36.8738 52.4174 38.9074C54.1958 44.3997 59.3485 48.3737 65.4336 48.3737Z" fill="#E6E7E8"/>
<path d="M51.8186 34.5703C52.5056 41.4838 58.3385 46.8848 65.4335 46.8848C68.5016 46.8848 71.3332 45.8749 73.6151 44.1701C72.9281 37.2556 67.0952 31.8556 60.0001 31.8556C56.9321 31.8556 54.1005 32.8645 51.8186 34.5703Z" fill="#1CAEE4"/>
<path d="M46.3165 45.5382C46.3165 46.1605 46.3627 46.7729 46.4431 47.3736C52.2063 45.762 56.4355 40.4758 56.4355 34.1983C56.4355 33.5751 56.3903 32.9636 56.3099 32.363C50.5467 33.9736 46.3165 39.2607 46.3165 45.5382Z" fill="#009ADD"/>
<path d="M56.8447 49.9872C56.8447 50.6811 56.2823 51.2435 55.5884 51.2435C54.8945 51.2435 54.3322 50.6811 54.3322 49.9872C54.3322 49.2933 54.8945 48.731 55.5884 48.731C56.2823 48.731 56.8447 49.2933 56.8447 49.9872Z" fill="#1CAEE4"/>
<path d="M66.5898 49.9872C66.5898 50.6811 66.0275 51.2435 65.3336 51.2435C64.6397 51.2435 64.0773 50.6811 64.0773 49.9872C64.0773 49.2933 64.6397 48.731 65.3336 48.731C66.0275 48.731 66.5898 49.2933 66.5898 49.9872Z" fill="#1CAEE4"/>
<path d="M49.6319 51.3456V49.5259C48.5719 49.5259 47.7122 50.3857 47.7122 51.4457C47.7122 52.5047 48.5719 53.3645 49.6319 53.3645C49.6987 53.3645 49.7624 53.3517 49.8282 53.3448C49.7016 52.6971 49.6319 52.0297 49.6319 51.3456Z" fill="#E6E7E8"/>
<path d="M70.3694 51.3456V49.5259C71.4294 49.5259 72.2882 50.3857 72.2882 51.4457C72.2882 52.5047 71.4294 53.3645 70.3694 53.3645C70.3017 53.3645 70.2379 53.3517 70.1721 53.3448C70.2987 52.6971 70.3694 52.0297 70.3694 51.3456Z" fill="#E6E7E8"/>
<path d="M43.7441 66.2954H22.6601C21.6659 66.2954 20.8601 65.4886 20.8601 64.4944V60.7196C20.8601 56.1803 24.5406 52.4998 29.0809 52.4998H37.3243C41.8645 52.4998 45.5451 56.1803 45.5451 60.7196V64.4944C45.5451 65.4886 44.7383 66.2954 43.7441 66.2954Z" fill="#1CAEE4"/>
<path d="M43.7441 66.2954H22.6601C21.6659 66.2954 20.8601 65.4886 20.8601 64.4944V60.7196C20.8601 56.1803 24.5406 52.4998 29.0809 52.4998H37.3243C41.8645 52.4998 45.5451 56.1803 45.5451 60.7196V64.4944C45.5451 65.4886 44.7383 66.2954 43.7441 66.2954Z" fill="#E7AD27"/>
<path d="M34.7165 59.7951C36.2084 57.47 38.3862 54.0761 39.2509 52.7285C38.6326 52.5803 37.9878 52.4988 37.3233 52.4988H29.08C28.4165 52.4988 27.7717 52.5803 27.1523 52.7285L31.6867 59.7941C32.3954 60.8983 34.0079 60.8992 34.7165 59.7951Z" fill="#009ADD"/>
<path d="M28.7257 52.4988L31.9371 57.5034L33.2022 55.5993L31.2128 52.4988H28.7257Z" fill="#27C1E6"/>
<path d="M37.6777 52.4988L34.4673 57.5034L33.2021 55.5993L35.1916 52.4988H37.6777Z" fill="#27C1E6"/>
<path d="M33.6527 57.7919C33.6527 58.0412 33.4505 58.2424 33.2022 58.2424C32.9529 58.2424 32.7517 58.0412 32.7517 57.7919C32.7517 57.5436 32.9529 57.3414 33.2022 57.3414C33.4505 57.3414 33.6527 57.5436 33.6527 57.7919Z" fill="#1CAEE4"/>
<path d="M37.3234 52.4988C37.4725 52.4988 37.6208 52.5047 37.768 52.5126C37.6208 52.5047 37.4725 52.4988 37.3234 52.4988Z" fill="#E7AD27"/>
<path d="M38.823 52.6392C38.9575 52.6637 39.0919 52.6912 39.2244 52.7236C39.0919 52.6912 38.9584 52.6637 38.823 52.6392Z" fill="#E7AD27"/>
<path d="M39.2509 52.7295C38.7465 53.5156 37.7944 54.9996 36.7924 56.5602V66.2954H39.9134V52.9179C39.6965 52.8453 39.4757 52.7825 39.2509 52.7295Z" fill="#FEDE3A"/>
<path d="M38.3048 52.5587C38.455 52.5764 38.6042 52.5999 38.7514 52.6255C38.6042 52.599 38.455 52.5764 38.3048 52.5587Z" fill="#E7AD27"/>
<path d="M37.871 52.5195C38.0162 52.5283 38.1605 52.5411 38.3028 52.5587C38.1605 52.5411 38.0162 52.5283 37.871 52.5195Z" fill="#E7AD27"/>
<path d="M29.08 52.4988C28.9308 52.4988 28.7836 52.5047 28.6364 52.5126C28.7836 52.5047 28.9308 52.4988 29.08 52.4988Z" fill="#E7AD27"/>
<path d="M28.1014 52.5578C28.2438 52.5411 28.388 52.5283 28.5323 52.5185C28.388 52.5283 28.2438 52.5411 28.1014 52.5578Z" fill="#E7AD27"/>
<path d="M27.1798 52.7236C27.3123 52.6922 27.4458 52.6637 27.5812 52.6392C27.4458 52.6637 27.3123 52.6912 27.1798 52.7236Z" fill="#E7AD27"/>
<path d="M27.6519 52.6255C27.8001 52.599 27.9483 52.5764 28.0994 52.5577C27.9483 52.5764 27.8001 52.599 27.6519 52.6255Z" fill="#E7AD27"/>
<path d="M27.1533 52.7295C26.9286 52.7835 26.7077 52.8453 26.4908 52.9179V66.2954H29.6119V56.5611L27.1533 52.7295Z" fill="#FEDE3A"/>
<path d="M24.4758 66.2953V53.9082C22.294 55.3863 20.8591 57.8851 20.8591 60.7196V64.4943C20.8591 65.4886 21.6649 66.2953 22.6601 66.2953H24.4758Z" fill="#009ADD"/>
<path d="M41.9274 53.9082V66.2953H43.7441C44.7383 66.2953 45.5441 65.4886 45.5441 64.4943V60.7196C45.5451 57.8851 44.1102 55.3863 41.9274 53.9082Z" fill="#009ADD"/>
<path d="M35.1915 48.7889H31.2126V52.4988L33.2021 55.5993L35.1915 52.4988V48.7889Z" fill="#E6E7E8"/>
<path d="M31.2126 50.6596C31.8378 50.8686 32.5052 50.9874 33.2021 50.9874C33.898 50.9874 34.5654 50.8686 35.1915 50.6596V48.7889H31.2126V50.6596Z" fill="#D1D3D4"/>
<path d="M33.2021 49.7861C29.7395 49.7861 26.9325 46.9791 26.9325 43.5174V40.2619C26.9325 36.7993 29.7395 33.9922 33.2021 33.9922C36.6648 33.9922 39.4718 36.7993 39.4718 40.2619V43.5174C39.4718 46.9791 36.6648 49.7861 33.2021 49.7861Z" fill="white"/>
<path d="M26.9325 43.5174V41.5574C25.8175 41.5574 24.9126 42.4613 24.9126 43.5772C24.9126 44.6932 25.8175 45.5971 26.9325 45.5971C27.0493 45.5971 27.1641 45.5873 27.276 45.5677C27.0542 44.9248 26.9325 44.2348 26.9325 43.5174Z" fill="white"/>
<path d="M39.4718 41.5574V43.5174C39.4718 44.2348 39.3501 44.9248 39.1283 45.5677C39.2402 45.5863 39.354 45.5961 39.4718 45.5961C40.5868 45.5961 41.4907 44.6922 41.4907 43.5772C41.4907 42.4613 40.5868 41.5574 39.4718 41.5574Z" fill="white"/>
<path d="M33.2021 48.886C29.7395 48.886 26.9325 46.079 26.9325 42.6164V43.5174C26.9325 46.979 29.7395 49.786 33.2021 49.786C36.6648 49.786 39.4718 46.979 39.4718 43.5174V42.6164C39.4718 46.079 36.6648 48.886 33.2021 48.886Z" fill="#E6E7E8"/>
<path d="M31.2942 42.6959C31.2942 43.1159 30.9546 43.4555 30.5346 43.4555C30.1155 43.4555 29.7749 43.1159 29.7749 42.6959C29.7749 42.2768 30.1155 41.9362 30.5346 41.9362C30.9546 41.9362 31.2942 42.2768 31.2942 42.6959Z" fill="#1CAEE4"/>
<path d="M37.1869 42.6959C37.1869 43.1159 36.8463 43.4555 36.4273 43.4555C36.0072 43.4555 35.6676 43.1159 35.6676 42.6959C35.6676 42.2768 36.0072 41.9362 36.4273 41.9362C36.8463 41.9362 37.1869 42.2768 37.1869 42.6959Z" fill="#1CAEE4"/>
<path d="M26.9326 43.5174V42.4172C26.2917 42.4172 25.7725 42.9364 25.7725 43.5773C25.7725 44.2182 26.2917 44.7374 26.9326 44.7374C26.9738 44.7374 27.0121 44.7295 27.0513 44.7256C26.9757 44.335 26.9326 43.9316 26.9326 43.5174Z" fill="#E6E7E8"/>
<path d="M39.4776 43.5174V42.4172C40.1186 42.4172 40.6377 42.9364 40.6377 43.5773C40.6377 44.2182 40.1186 44.7374 39.4776 44.7374C39.4364 44.7374 39.3982 44.7295 39.3579 44.7256C39.4345 44.335 39.4776 43.9316 39.4776 43.5174Z" fill="#E6E7E8"/>
<path d="M40.8576 41.3876H25.5466V39.1931C25.5466 34.9649 28.9739 31.5376 33.2021 31.5376C37.4303 31.5376 40.8576 34.9649 40.8576 39.1931V41.3876Z" fill="#F7CB15"/>
<path d="M37.7581 41.3876H28.6461V36.0936C28.6461 33.5771 30.6856 31.5376 33.2021 31.5376C35.7186 31.5376 37.7581 33.5771 37.7581 36.0936V41.3876Z" fill="#FEDE3A"/>
<path d="M40.7438 41.5574H25.6605C25.2012 41.5574 24.8282 41.1854 24.8282 40.7261V39.618C24.8282 39.1587 25.2012 38.7857 25.6605 38.7857H40.7438C41.2031 38.7857 41.5751 39.1587 41.5751 39.618V40.7261C41.5751 41.1864 41.2031 41.5574 40.7438 41.5574Z" fill="#F7CB15"/>
<path d="M40.7438 40.4493H25.6605C25.2012 40.4493 24.8282 40.0774 24.8282 39.618V40.7261C24.8282 41.1854 25.2012 41.5574 25.6605 41.5574H40.7438C41.2031 41.5574 41.5751 41.1854 41.5751 40.7261V39.618C41.5751 40.0774 41.2031 40.4493 40.7438 40.4493Z" fill="#E7AD27"/>
<path d="M34.0747 38.1016H32.3286C32.0391 38.1016 31.7986 37.8788 31.7761 37.5903L31.3079 31.5798C31.2834 31.2578 31.5376 30.9821 31.8605 30.9821H34.5428C34.8667 30.9821 35.1209 31.2578 35.0964 31.5798L34.6282 37.5903C34.6057 37.8788 34.3652 38.1016 34.0747 38.1016Z" fill="#FFF335"/>
<path d="M97.3461 66.2954H76.3367C75.3464 66.2954 74.5426 65.4915 74.5426 64.5003V60.7393C74.5426 56.2157 78.2104 52.5479 82.7339 52.5479H90.9479C95.4724 52.5479 99.1392 56.2157 99.1392 60.7393V64.5003C99.1402 65.4915 98.3374 66.2954 97.3461 66.2954Z" fill="#1CAEE4"/>
<path d="M97.3461 66.2954H76.3367C75.3464 66.2954 74.5426 65.4915 74.5426 64.5003V60.7393C74.5426 56.2157 78.2104 52.5479 82.7339 52.5479H90.9479C95.4724 52.5479 99.1392 56.2157 99.1392 60.7393V64.5003C99.1402 65.4915 98.3374 66.2954 97.3461 66.2954Z" fill="#136DA0"/>
<path d="M84.5703 60.4016C85.6322 62.0564 88.0516 62.0574 89.1135 60.4016C90.7418 57.8645 92.8146 54.6326 93.8197 53.0671C92.9265 52.7324 91.9588 52.5479 90.9489 52.5479H82.7349C81.724 52.5479 80.7573 52.7324 79.8632 53.0671L84.5703 60.4016Z" fill="#1CAEE4"/>
<path d="M88.3509 59.8186C89.8378 57.5014 92.0079 54.1202 92.8696 52.7766C92.2532 52.6284 91.6104 52.5479 90.9489 52.5479H82.7349C82.0725 52.5479 81.4306 52.6284 80.8142 52.7766L85.3319 59.8167C86.0376 60.9179 87.6452 60.9189 88.3509 59.8186Z" fill="#009ADD"/>
<path d="M82.3816 52.5479L85.5812 57.5348L86.8414 55.6376L84.8588 52.5479H82.3816Z" fill="#27C1E6"/>
<path d="M91.3012 52.5479L88.1016 57.5348L86.8414 55.6376L88.824 52.5479H91.3012Z" fill="#27C1E6"/>
<path d="M87.29 57.8223C87.29 58.0696 87.0898 58.2708 86.8415 58.2708C86.5941 58.2708 86.3929 58.0696 86.3929 57.8223C86.3929 57.574 86.5941 57.3738 86.8415 57.3738C87.0898 57.3738 87.29 57.574 87.29 57.8223Z" fill="#1CAEE4"/>
<path d="M78.1476 66.2954H79.0672V53.4155C78.7482 53.5755 78.441 53.7541 78.1476 53.9524V66.2954Z" fill="#1CAEE4"/>
<path d="M94.6167 66.2954H95.5363V53.9524C95.2429 53.7541 94.9357 53.5755 94.6167 53.4155V66.2954Z" fill="#1CAEE4"/>
<path d="M95.5363 53.9524V66.2944H97.3461C98.3364 66.2944 99.1402 65.4906 99.1402 64.5003V60.7393C99.1402 57.9156 97.7112 55.4256 95.5363 53.9524Z" fill="#009ADD"/>
<path d="M78.1475 66.2954V53.9524C75.9726 55.4256 74.5436 57.9156 74.5436 60.7393V64.5002C74.5436 65.4915 75.3464 66.2954 76.3377 66.2954H78.1475Z" fill="#009ADD"/>
<path d="M88.824 48.8507H84.8599V52.5479L86.8415 55.6376L88.824 52.5479V48.8507Z" fill="#E6E7E8"/>
<path d="M88.7376 32.0823C84.3073 31.036 79.8671 33.7802 78.8199 38.2115C77.7736 42.6419 80.5178 47.083 84.9492 48.1293C89.3805 49.1755 93.8207 46.4314 94.8669 42C95.9132 37.5687 93.169 33.1285 88.7376 32.0823Z" fill="#009ADD"/>
<path d="M84.8589 50.7155C85.4831 50.9236 86.1476 51.0413 86.8415 51.0413C87.5354 51.0413 88.2008 50.9245 88.824 50.7155V48.8517H84.8599V50.7155H84.8589Z" fill="#D1D3D4"/>
<path d="M86.8414 49.8449C83.3915 49.8449 80.5953 47.0487 80.5953 43.5979V40.3541C80.5953 36.9042 83.3915 34.1071 86.8414 34.1071C90.2923 34.1071 93.0885 36.9042 93.0885 40.3541V43.5979C93.0885 47.0487 90.2923 49.8449 86.8414 49.8449Z" fill="white"/>
<path d="M80.5954 43.5979V41.6458C79.4834 41.6458 78.5834 42.5467 78.5834 43.6578C78.5834 44.7698 79.4844 45.6698 80.5954 45.6698C80.7132 45.6698 80.829 45.6551 80.9418 45.6344C80.721 44.9965 80.5954 44.3124 80.5954 43.5979Z" fill="white"/>
<path d="M93.0885 41.6458V43.5979C93.0885 44.3124 92.9629 44.9965 92.7421 45.6354C92.8549 45.6551 92.9698 45.6708 93.0885 45.6708C94.1996 45.6708 95.1005 44.7698 95.1005 43.6587C95.1015 42.5467 94.1996 41.6458 93.0885 41.6458Z" fill="white"/>
<path d="M86.8414 48.9479C83.3915 48.9479 80.5953 46.1517 80.5953 42.7008V43.5979C80.5953 47.0487 83.3915 49.8449 86.8414 49.8449C90.2923 49.8449 93.0885 47.0487 93.0885 43.5979V42.7008C93.0885 46.1517 90.2923 48.9479 86.8414 48.9479Z" fill="#E6E7E8"/>
<path d="M80.5953 40.3541V41.5849C83.0363 40.1618 84.6812 37.5226 84.693 34.4948C82.3031 35.3722 80.5953 37.661 80.5953 40.3541Z" fill="#E6E7E8"/>
<path d="M90.1156 41.8067C91.1648 41.8067 92.1659 41.6055 93.0885 41.2472V40.3541C93.0885 36.9042 90.2923 34.1071 86.8424 34.1071C85.0365 34.1071 83.4141 34.8785 82.2737 36.1043C83.3445 39.4129 86.4489 41.8067 90.1156 41.8067Z" fill="#E6E7E8"/>
<path d="M81.9125 33.4907C82.3257 37.656 85.8403 40.9096 90.1156 40.9096C91.9637 40.9096 93.6695 40.3011 95.0445 39.2745C94.6304 35.1081 91.1167 31.8546 86.8414 31.8546C84.9933 31.8555 83.2875 32.4631 81.9125 33.4907Z" fill="#1CAEE4"/>
<path d="M78.597 40.099C78.597 40.4749 78.6255 40.8429 78.6736 41.2041C82.146 40.2334 84.6939 37.0485 84.6939 33.266C84.6939 32.891 84.6665 32.523 84.6184 32.1608C81.1459 33.1315 78.597 36.3174 78.597 40.099Z" fill="#009ADD"/>
<path d="M84.9403 42.7803C84.9403 43.1984 84.6017 43.537 84.1836 43.537C83.7655 43.537 83.4269 43.1984 83.4269 42.7803C83.4269 42.3622 83.7655 42.0236 84.1836 42.0236C84.6017 42.0236 84.9403 42.3622 84.9403 42.7803Z" fill="#1CAEE4"/>
<path d="M90.8125 42.7803C90.8125 43.1984 90.4739 43.537 90.0558 43.537C89.6377 43.537 89.2981 43.1984 89.2981 42.7803C89.2981 42.3622 89.6377 42.0236 90.0558 42.0236C90.4739 42.0236 90.8125 42.3622 90.8125 42.7803Z" fill="#1CAEE4"/>
<path d="M80.5954 43.5979V42.5016C79.9564 42.5016 79.4382 43.0188 79.4382 43.6578C79.4382 44.2967 79.9564 44.8139 80.5954 44.8139C80.6356 44.8139 80.6739 44.8061 80.7132 44.8022C80.6376 44.4125 80.5954 44.0101 80.5954 43.5979Z" fill="#E6E7E8"/>
<path d="M93.0885 43.5979V42.5016C93.7274 42.5016 94.2447 43.0188 94.2447 43.6578C94.2447 44.2967 93.7274 44.8139 93.0885 44.8139C93.0473 44.8139 93.01 44.8061 92.9697 44.8022C93.0463 44.4125 93.0885 44.0101 93.0885 43.5979Z" fill="#E6E7E8"/>
<path d="M90.0764 85.5891C90.0764 91.9235 84.9413 97.0585 78.6069 97.0585C72.2725 97.0585 67.1375 91.9235 67.1375 85.5891C67.1375 79.2547 72.2725 74.1196 78.6069 74.1196C84.9413 74.1196 90.0764 79.2547 90.0764 85.5891Z" fill="#FEDE3A"/>
<path d="M77.8178 92.5026C77.3025 92.5026 76.7892 92.3063 76.3957 91.9137L72.4374 87.9554C71.6532 87.1702 71.6532 85.8983 72.4374 85.1131C73.2235 84.3279 74.4955 84.3279 75.2807 85.1131L77.8178 87.6502L82.8527 82.6152C83.6379 81.8311 84.9109 81.8311 85.6951 82.6152C86.4803 83.4004 86.4803 84.6724 85.6951 85.4576L79.239 91.9137C78.8464 92.3063 78.3321 92.5026 77.8178 92.5026Z" fill="#F7CB15"/>
<path d="M77.8178 90.995C77.3025 90.995 76.7892 90.7987 76.3957 90.4061L72.4374 86.4479C71.6532 85.6627 71.6532 84.3907 72.4374 83.6055C73.2235 82.8203 74.4955 82.8203 75.2807 83.6055L77.8178 86.1426L82.8527 81.1077C83.6379 80.3235 84.9109 80.3235 85.6951 81.1077C86.4803 81.8929 86.4803 83.1648 85.6951 83.95L79.239 90.4061C78.8464 90.7987 78.3321 90.995 77.8178 90.995Z" fill="#1CAEE4"/>
<path d="M85.6952 81.9724L79.2391 88.4285C78.8465 88.8211 78.3322 89.0174 77.8179 89.0174C77.3026 89.0174 76.7893 88.8211 76.3957 88.4285L72.4375 84.4702C72.3069 84.3387 72.2058 84.1905 72.1185 84.0374C71.6827 84.8039 71.7838 85.7932 72.4375 86.4469L76.3957 90.4052C76.7883 90.7978 77.3026 90.9941 77.8179 90.9941C78.3322 90.9941 78.8465 90.7978 79.2391 90.4052L85.6952 83.9491C86.3498 83.2954 86.4499 82.3061 86.0151 81.5396C85.9278 81.6936 85.8267 81.8409 85.6952 81.9724Z" fill="#009ADD"/>
</g>
<defs>
<clipPath id="clip0_120_2430">
<rect width="120" height="120" fill="white"/>
</clipPath>
</defs>
</svg>
